<svg width="16" height="17" viewBox="0 0 16 17" fill="none" xmlns="http://www.w3.org/2000/svg">
    <path
        d="M14.391 1.83301H2.02001C1.8378 1.83301 1.66306 1.90539 1.53423 2.03423C1.40539 2.16306 1.33301 2.3378 1.33301 2.52001V14.891C1.33301 15.0732 1.40539 15.248 1.53423 15.3768C1.59802 15.4406 1.67375 15.4912 1.7571 15.5257C1.84046 15.5602 1.92979 15.578 2.02001 15.578H14.391C14.5732 15.578 14.748 15.5056 14.8768 15.3768C15.0056 15.248 15.078 15.0732 15.078 14.891V2.52001C15.078 2.3378 15.0056 2.16306 14.8768 2.03423C14.748 1.90539 14.5732 1.83301 14.391 1.83301V1.83301ZM2.70801 3.20801H13.708V4.58201H2.70801V3.20801ZM13.708 14.208H2.70801V5.95701H13.708V14.208Z"
        fill="#656565" />
    <path
        d="M4.76904 9.39301H11.642C11.8244 9.39301 11.9992 9.32057 12.1282 9.19164C12.2571 9.06271 12.3295 8.88784 12.3295 8.70551C12.3295 8.52317 12.2571 8.3483 12.1282 8.21937C11.9992 8.09044 11.8244 8.01801 11.642 8.01801H4.76904C4.58671 8.01801 4.41184 8.09044 4.28291 8.21937C4.15398 8.3483 4.08154 8.52317 4.08154 8.70551C4.08154 8.88784 4.15398 9.06271 4.28291 9.19164C4.41184 9.32057 4.58671 9.39301 4.76904 9.39301Z"
        fill="#656565" />
    <path
        d="M4.76904 12.143H8.20504C8.38738 12.143 8.56225 12.0706 8.69118 11.9416C8.82011 11.8127 8.89254 11.6378 8.89254 11.4555C8.89254 11.2732 8.82011 11.0983 8.69118 10.9694C8.56225 10.8404 8.38738 10.768 8.20504 10.768H4.76904C4.58671 10.768 4.41184 10.8404 4.28291 10.9694C4.15398 11.0983 4.08154 11.2732 4.08154 11.4555C4.08154 11.6378 4.15398 11.8127 4.28291 11.9416C4.41184 12.0706 4.58671 12.143 4.76904 12.143Z"
        fill="#656565" />
</svg>
