<svg width="12" height="16" viewBox="0 0 12 16" fill="none" xmlns="http://www.w3.org/2000/svg">
    <path
        d="M11.2184 14.9231H10.2955V13.2229C10.2632 12.3257 10.0127 11.4513 9.56711 10.6803C9.12155 9.9093 8.49523 9.26643 7.74585 8.81093C7.6315 8.71285 7.54131 8.58815 7.4827 8.44708C7.42409 8.30602 7.39873 8.15261 7.40871 7.99946C7.3989 7.84648 7.42435 7.69329 7.48295 7.55243C7.54155 7.41156 7.63165 7.28704 7.74585 7.18907C8.49536 6.73362 9.12183 6.09079 9.56758 5.31978C10.0133 4.54877 10.264 3.67436 10.2966 2.77708V1.07689H11.2195C11.3578 1.07689 11.4904 1.02016 11.5882 0.919185C11.6861 0.818206 11.741 0.681251 11.741 0.538446C11.741 0.395641 11.6861 0.258685 11.5882 0.157707C11.4904 0.056729 11.3578 0 11.2195 0H0.521517C0.383202 0 0.250552 0.056729 0.152748 0.157707C0.0549447 0.258685 0 0.395641 0 0.538446C0 0.681251 0.0549447 0.818206 0.152748 0.919185C0.250552 1.02016 0.383202 1.07689 0.521517 1.07689H1.44444V2.77708C1.47689 3.67438 1.72754 4.54883 2.1733 5.31986C2.61905 6.09089 3.24557 6.7337 3.99514 7.18907C4.1095 7.28715 4.19969 7.41185 4.2583 7.55292C4.31691 7.69398 4.34226 7.84739 4.33229 8.00054C4.34209 8.15352 4.31665 8.30671 4.25805 8.44757C4.19945 8.58844 4.10935 8.71296 3.99514 8.81093C3.24557 9.2663 2.61905 9.90911 2.1733 10.6801C1.72754 11.4512 1.47689 12.3256 1.44444 13.2229V14.9231H0.521517C0.383202 14.9231 0.250552 14.9798 0.152748 15.0808C0.0549447 15.1818 0 15.3187 0 15.4616C0 15.6044 0.0549447 15.7413 0.152748 15.8423C0.250552 15.9433 0.383202 16 0.521517 16H11.2184C11.3567 16 11.4894 15.9433 11.5872 15.8423C11.685 15.7413 11.7399 15.6044 11.7399 15.4616C11.7399 15.3187 11.685 15.1818 11.5872 15.0808C11.4894 14.9798 11.3567 14.9231 11.2184 14.9231ZM2.48643 13.2229C2.53113 12.5052 2.74478 11.8095 3.10885 11.1963C3.47293 10.583 3.97642 10.0708 4.57566 9.70399C4.8338 9.50905 5.04168 9.25172 5.1811 8.95455C5.32051 8.65737 5.3872 8.32943 5.37532 7.99946C5.38732 7.66958 5.3208 7.3417 5.18157 7.04453C5.04234 6.74736 4.83466 6.48998 4.57671 6.29492C3.97748 5.9281 3.47398 5.41587 3.10991 4.80265C2.74583 4.18943 2.53218 3.49376 2.48748 2.77599V1.07689H9.25457V2.77708C9.20982 3.49456 8.99624 4.18994 8.63237 4.80295C8.26849 5.41595 7.76529 5.92808 7.16639 6.29492C6.90852 6.49005 6.70088 6.74744 6.56166 7.04459C6.42244 7.34175 6.35588 7.66959 6.36778 7.99946C6.35588 8.32932 6.42244 8.65717 6.56166 8.95432C6.70088 9.25147 6.90852 9.50887 7.16639 9.70399C7.76557 10.0709 8.26902 10.5831 8.63308 11.1963C8.99715 11.8095 9.21084 12.5052 9.25562 13.2229V14.9231H9.08284C8.65403 13.2599 6.46682 11.452 6.19289 11.2312C6.10078 11.158 5.9878 11.1183 5.87155 11.1183C5.75531 11.1183 5.64232 11.158 5.55021 11.2312C5.27734 11.4488 3.08907 13.2599 2.66027 14.9231H2.48748V13.2229H2.48643ZM7.98502 14.9231H3.75493C4.29062 13.9315 5.00893 13.0576 5.86945 12.3505C6.73036 13.0574 7.44904 13.9314 7.98502 14.9231Z"
        fill="#DCDCDC" />
</svg>
