<svg xmlns="http://www.w3.org/2000/svg" width="50" height="50" viewBox="0 0 50 50">
    <g transform="translate(-17 -19.323)">
        <g transform="translate(18.102 21.123)">
            <path fill="#ffb400"
                d="M39.439,24.746,19.619,59.073A4.078,4.078,0,0,0,23.15,65.19H62.788a4.078,4.078,0,0,0,3.531-6.117L46.5,24.746a4.077,4.077,0,0,0-7.062,0Z"
                transform="translate(-19.072 -22.708)" />
            <g transform="translate(21.334 12.626)">
                <rect fill="#fcf4d9" width="5.127" height="15.626" rx="2.563" />
                <circle fill="#fcf4d9" cx="2.563" cy="2.563" r="2.563"
                    transform="translate(0 19.237)" />
            </g>
        </g>
        <g transform="translate(17.173 20.193)">
            <path fill="#060475"
                d="M39.276,54.4a.93.93,0,0,0,1.271-.341l.811-1.4a.931.931,0,1,0-1.613-.931l-.809,1.4a.931.931,0,0,0,.339,1.272Z"
                transform="translate(-27.383 -35.14)" />
            <path fill="#060475"
                d="M66.308,57.789,46.49,23.462a5.009,5.009,0,0,0-8.674,0l-5.153,8.925a.931.931,0,1,0,1.612.931l5.153-8.925a3.147,3.147,0,0,1,5.45,0L64.7,58.72a3.147,3.147,0,0,1-2.725,4.72H22.334a3.147,3.147,0,0,1-2.725-4.72l7.728-13.386a.931.931,0,1,0-1.612-.931L18,57.789A5.009,5.009,0,0,0,22.334,65.3H61.971a5.009,5.009,0,0,0,4.337-7.512Z"
                transform="translate(-17.326 -20.958)" />
            <path fill="#060475"
                d="M61.183,62.182a3.24,3.24,0,0,0,3.236-3.236V47.93a3.239,3.239,0,0,0-3.236-3.236h-.516a3.239,3.239,0,0,0-3.236,3.236V58.946a3.24,3.24,0,0,0,3.236,3.236Zm-1.89-3.236V47.93a1.376,1.376,0,0,1,1.374-1.374h.516a1.376,1.376,0,0,1,1.374,1.374V58.946a1.376,1.376,0,0,1-1.374,1.374h-.516a1.376,1.376,0,0,1-1.374-1.374Z"
                transform="translate(-36.099 -32.068)" />
            <path fill="#060475"
                d="M60.925,87.85a3.494,3.494,0,1,0-3.494-3.494A3.494,3.494,0,0,0,60.925,87.85Zm0-5.127a1.632,1.632,0,1,1-1.632,1.632,1.632,1.632,0,0,1,1.632-1.632Z"
                transform="translate(-36.099 -48.998)" />
        </g>
        <rect fill="none" width="50" height="50" transform="translate(17 19.323)" />
    </g>
</svg>