<svg fill="none" height="48" viewBox="0 0 48 48" width="48" xmlns="http://www.w3.org/2000/svg"><g fill="#fff"><path d="m15.1347 13.7789c-.7212-.7213-1.9516-.4576-2.3109.5005l-11.931757 31.8179c-.422693 1.1271.681147 2.234 1.810387 1.8104 1.59806-.5993 30.53567-11.4509 31.81787-11.9317.9536-.3575 1.2255-1.586.5006-2.3109zm-.4445 3.5327 5.7785 5.7785c.3998 4.8055 2.18 9.4251 5.0828 13.2455l-6.0153 2.2558c-4.4994-4.6803-6.7955-11.2238-6.1839-17.712zm-3.7912 24.5188c-1.38717-1.5755-2.54088-3.3313-3.43998-5.2357l3.39578-9.0556c.8434 4.6318 2.9237 8.7753 5.8415 12.1171zm-4.75128-1.7388c.58834.9723 1.24174 1.9023 1.95682 2.7867l-3.493 1.3099zm22.16768-4.7924c-2.1088-2.5658-3.6225-5.5838-4.4347-8.7971l7.6073 7.6074z"/><path d="m33.4729 26.2639c.5492.5492 1.4395.5492 1.9886 0 5.2902-5.2902 10.4414-3.6546 10.4928-3.6375.7368.2455 1.5331-.1527 1.7787-.8894.2457-.7366-.1526-1.5331-.8893-1.7787-.2773-.0923-6.8651-2.1887-13.3707 4.317-.5492.5491-.5493 1.4396-.0001 1.9886z"/><path d="m22.5359 15.3265c.549.5491 1.4394.5492 1.9886 0 6.5056-6.50558 4.4093-13.09337 4.317-13.37067-.2456-.73673-1.0421-1.135053-1.7787-.88935-.7367.24561-1.1349 1.04197-.8894 1.77871.0172.05146 1.6527 5.20262-3.6375 10.49281-.5492.549-.5492 1.4394 0 1.9885z"/><path d="m27.5071 18.3095c-.5492.5492-.5492 1.4395 0 1.9886.5441.5442 1.4282.5513 1.9802.0084.7265-.362 2.9812.9956 4.2343-.257 1.2396-1.2397-.0775-3.4486.2515-4.2227.7752-.3298 2.9832.9879 4.2228-.2516 1.2399-1.2397-.0772-3.4486.2517-4.2228.7763-.3299 2.9831.988 4.2227-.2516 1.2399-1.23969-.0772-3.44859.2517-4.22283.7717-.32819 2.9841.98666 4.2229-.2517 1.2525-1.25271-.1025-3.51147.2568-4.23415.5409-.54972.538-1.433819-.0084-1.980254-.549-.549155-1.4394-.549155-1.9886 0-1.1083 1.108334-.8915 2.673024-.6827 3.791674-1.1186-.20877-2.6832-.4256-3.7916.68265-1.1083 1.10834-.8915 2.67302-.6827 3.79168-1.1187-.20868-2.6834-.4257-3.7917.68273-1.1083 1.1083-.8914 2.673-.6826 3.7917-1.1189-.2088-2.6835-.4257-3.7917.6826-1.1084 1.1084-.8915 2.6731-.6828 3.7917-1.1187-.2086-2.6837-.4254-3.7918.6829z"/><path d="m35.462 6.37776c.5491-.54916.5491-1.43945 0-1.9886-.5492-.54915-1.4395-.54915-1.9886 0-.5492.54915-.5492 1.43944 0 1.9886.549.54915 1.4394.54915 1.9886 0z"/><path d="m44.4106 16.7327c.7766 0 1.4061-.6295 1.4061-1.4061s-.6295-1.4062-1.4061-1.4062-1.4062.6296-1.4062 1.4062.6296 1.4061 1.4062 1.4061z"/><path d="m41.4275 28.2526c-.5492.5492-.5492 1.4395 0 1.9886.5491.5492 1.4394.5492 1.9886 0 .5491-.5491.5491-1.4394 0-1.9886-.5491-.5491-1.4395-.5491-1.9886 0z"/><path d="m21.5416 8.36635c.5491-.54916.5491-1.43945 0-1.9886-.5492-.54916-1.4395-.54916-1.9886 0-.5492.54906-.5492 1.43944 0 1.9886.5491.54915 1.4395.54915 1.9886 0z"/></g></svg>