<svg width="42" height="41" viewBox="0 0 42 41" fill="none" xmlns="http://www.w3.org/2000/svg">
    <g clip-path="url(#clip0_6120_9585)">
        <path
            d="M38.1895 25.199C38.7644 24.5763 39.1146 23.7544 39.1146 22.8552C39.1146 20.9169 37.4891 19.3396 35.4917 19.3396H28.4601C29.1565 17.2888 29.4535 14.5677 29.4535 13.4013V12.2302C29.4535 9.64585 27.2863 7.54272 24.623 7.54272H23.4154C22.8615 7.54272 22.3785 7.90835 22.244 8.43022L21.5863 10.9841C20.6644 14.5607 17.7379 18.5068 14.7092 19.224C14.1787 17.9208 12.8688 16.9958 11.3391 16.9958H4.09337C3.42676 16.9958 2.88574 17.5208 2.88574 18.1677V39.2615C2.88574 39.9083 3.42676 40.4333 4.09337 40.4333H11.3391C12.7794 40.4333 14.0257 39.6138 14.6094 38.4294L18.7588 39.7716C20.1154 40.2107 21.5291 40.4333 22.9597 40.4333H33.0764C35.0738 40.4333 36.6993 38.856 36.6993 36.9177C36.6993 36.4607 36.6091 36.0232 36.4449 35.6224C37.981 35.2154 39.1146 33.849 39.1146 32.2302C39.1146 31.331 38.7644 30.5091 38.1895 29.8865C38.7644 29.2638 39.1146 28.4419 39.1146 27.5427C39.1146 26.6435 38.7644 25.8216 38.1895 25.199ZM12.5468 36.9177C12.5468 37.5638 12.0049 38.0896 11.3391 38.0896H5.301V19.3396H11.3391C12.0049 19.3396 12.5468 19.8654 12.5468 20.5115V36.9177ZM33.0764 26.3708H35.4917C36.1575 26.3708 36.6993 26.8966 36.6993 27.5427C36.6993 28.1888 36.1575 28.7146 35.4917 28.7146H33.0764C32.4098 28.7146 31.8688 29.2396 31.8688 29.8865C31.8688 30.5333 32.4098 31.0583 33.0764 31.0583H35.4917C36.1575 31.0583 36.6993 31.5841 36.6993 32.2302C36.6993 32.8763 36.1575 33.4021 35.4917 33.4021H33.0764C32.4098 33.4021 31.8688 33.9271 31.8688 34.574C31.8688 35.2208 32.4098 35.7458 33.0764 35.7458C33.7422 35.7458 34.2841 36.2716 34.2841 36.9177C34.2841 37.5638 33.7422 38.0896 33.0764 38.0896H22.9597C21.7891 38.0896 20.6322 37.9076 19.522 37.5482L14.962 36.0732V21.5724C16.8564 21.2232 18.7105 20.0591 20.3843 18.1537C22.0186 16.2927 23.3438 13.8255 23.9291 11.5529L24.3582 9.88647H24.623C25.9546 9.88647 27.0383 10.938 27.0383 12.2302V13.4013C27.0383 14.9748 26.5311 17.9927 25.8822 19.3396H23.4154C22.7488 19.3396 22.2078 19.8646 22.2078 20.5115C22.2078 21.1583 22.7488 21.6833 23.4154 21.6833H35.4917C36.1575 21.6833 36.6993 22.2091 36.6993 22.8552C36.6993 23.5013 36.1575 24.0271 35.4917 24.0271H33.0764C32.4098 24.0271 31.8688 24.5521 31.8688 25.199C31.8688 25.8458 32.4098 26.3708 33.0764 26.3708Z"
            fill="black" />
        <path
            d="M8.92369 35.7458C9.59065 35.7458 10.1313 35.2212 10.1313 34.574C10.1313 33.9268 9.59065 33.4021 8.92369 33.4021C8.25674 33.4021 7.71606 33.9268 7.71606 34.574C7.71606 35.2212 8.25674 35.7458 8.92369 35.7458Z"
            fill="black" />
        <path
            d="M25.8307 0.43335C25.1637 0.43335 24.623 0.958037 24.623 1.60522V4.0271C24.623 4.67429 25.1637 5.19897 25.8307 5.19897C26.4976 5.19897 27.0383 4.67429 27.0383 4.0271V1.60522C27.0383 0.958037 26.4976 0.43335 25.8307 0.43335Z"
            fill="#AF1E57" />
        <path
            d="M20.7071 5.60115L18.9993 3.94389C18.5277 3.48623 17.7631 3.48623 17.2915 3.94389C16.8198 4.40155 16.8198 5.1435 17.2915 5.60115L18.9993 7.25842C19.4708 7.716 20.2356 7.71608 20.7071 7.25842C21.1787 6.80076 21.1787 6.05881 20.7071 5.60115Z"
            fill="#AF1E57" />
        <path
            d="M34.3697 3.94389C33.8982 3.48623 33.1335 3.48623 32.6619 3.94389L30.9541 5.60108C30.4824 6.05873 30.4824 6.80069 30.9541 7.25834C31.4256 7.716 32.1903 7.71608 32.6619 7.25842L34.3697 5.60115C34.8413 5.1435 34.8413 4.40155 34.3697 3.94389Z"
            fill="#AF1E57" />
    </g>
    <defs>
        <clipPath id="clip0_6120_9585">
            <rect width="41.2203" height="40" fill="white"
                transform="translate(0.389893 0.43335)" />
        </clipPath>
    </defs>
</svg>
