<svg fill="none" height="44" viewBox="0 0 50 44" width="50" xmlns="http://www.w3.org/2000/svg"><path clip-rule="evenodd" d="m22.3051 1.36781c.8229-.463251 1.7512-.706616 2.6954-.706616.9443 0 1.8726.243365 2.6954.706616.8228.46325 1.5123 1.13074 2.0021 1.93808l.0028.00475 19.0324 31.77306.0081.0139c.4798.8307.7336 1.7726.7363 2.7319.0027.9594-.2459 1.9027-.7209 2.7361-.4751.8334-1.1601 1.528-1.9869 2.0145s-1.7666.748-2.7259.7586l-.011.0001v-.0001h-38.06478-.01099c-.95927-.0106-1.89906-.2721-2.72586-.7586-.82682-.4865-1.51183-1.1811-1.98689-2.0145-.475056-.8334-.723607-1.7767-.720921-2.7361.002686-.9593.256516-1.9012.736241-2.7319l.00812-.0139 19.03238-31.77306.8578.51382-.8549-.51857c.4897-.80734 1.1792-1.47483 2.002-1.93808zm-.2906 2.97297-.0014.00236-19.02515 31.76106c-.30268.5267-.4628 1.1233-.4645 1.7309-.00171.6101.15636 1.2101.45849 1.7401.30212.53.73777.9717 1.2636 1.2811.52433.3086 1.12011.4748 1.72837.4824h38.05319c.6083-.0076 1.2041-.1738 1.7284-.4824.5258-.3094.9615-.7511 1.2636-1.2811s.4602-1.13.4585-1.7401c-.0017-.6075-.1618-1.2041-.4645-1.7309l-19.0251-31.76106-.0013-.00214c-.3114-.51248-.7494-.93622-1.272-1.23042-.5233-.29461-1.1137-.44939-1.7142-.44939s-1.1909.15478-1.7142.44939c-.5224.29416-.9604.71782-1.2718 1.2302zm2.9865 10.03362c.5523 0 1 .4477 1 1v8.9881c0 .5523-.4477 1-1 1s-1-.4477-1-1v-8.9881c0-.5523.4477-1 1-1zm0 17.9763c-.5523 0-1 .4477-1 1s.4477 1 1 1h.0225c.5523 0 1-.4477 1-1s-.4477-1-1-1z" fill="#1d1d1d" fill-rule="evenodd"/></svg>