<svg height="36" viewBox="0 0 36 36" width="36" xmlns="http://www.w3.org/2000/svg">
    <path class="a"
        d="M246.085,0a.75.75,0,0,0-.469,1.336l3.75,3a.75.75,0,1,0,.937-1.172l-1.873-1.5a16.491,16.491,0,0,1,1.959,32.247.75.75,0,1,0,.391,1.447A17.99,17.99,0,0,0,246.085,0Z"
        transform="translate(-228.085)" />
    <path class="a"
        d="M18.469,42.792l-3.75-3a.75.75,0,1,0-.937,1.172l1.873,1.5A16.491,16.491,0,0,1,13.7,10.215.75.75,0,1,0,13.3,8.768,17.99,17.99,0,0,0,18,44.128a.75.75,0,0,0,.469-1.336Z"
        transform="translate(0 -8.128)" />
    <path class="a"
        d="M90.277,97.3a1.084,1.084,0,0,1-.762.316H87.489a2.159,2.159,0,0,0-2.156,2.156V108.4a2.159,2.159,0,0,0,2.156,2.156h12.938a2.159,2.159,0,0,0,2.156-2.156V99.773a2.159,2.159,0,0,0-2.156-2.156H98.4a1.084,1.084,0,0,1-.762-.316l-.67-.67A2.172,2.172,0,0,0,95.445,96H92.471a2.172,2.172,0,0,0-1.525.632Zm1.432.093a1.084,1.084,0,0,1,.762-.316h2.973a1.083,1.083,0,0,1,.762.316l.67.67A2.172,2.172,0,0,0,98.4,98.7h2.026a1.079,1.079,0,0,1,1.078,1.078V108.4a1.079,1.079,0,0,1-1.078,1.078H87.489a1.079,1.079,0,0,1-1.078-1.078V99.773A1.079,1.079,0,0,1,87.489,98.7h2.026a2.172,2.172,0,0,0,1.525-.632Z"
        transform="translate(-75.958 -86.402)" />
    <ellipse class="a" cx="1.078" cy="1.078" rx="1.078" ry="1.078"
        transform="translate(22.313 13.371)" />
    <path class="a"
        d="M174.98,179.292a4.313,4.313,0,1,0-4.313-4.312A4.317,4.317,0,0,0,174.98,179.292Zm0-7.547a3.234,3.234,0,1,1-3.234,3.234A3.238,3.238,0,0,1,174.98,171.745Z"
        transform="translate(-156.98 -157.296)" />
</svg>