<svg xmlns="http://www.w3.org/2000/svg" width="57" height="56">
    <defs>
        <style>.b,.c{fill:#333;stroke:#fff;stroke-width:.4px}.c{fill:#ff0808}</style>
    </defs>
    <g transform="translate(.116)">
        <ellipse cx="28.5" cy="28" rx="28.5" ry="28" transform="translate(-.116)" fill="#e2e2e2" />
        <path class="b"
            d="M32.483 46.806a.851.851 0 00-1.1.468.992.992 0 01-.92.6h-3.1a.992.992 0 01-.92-.6.852.852 0 00-1.1-.468.84.84 0 00-.472 1.1 2.669 2.669 0 002.5 1.661h3.1a2.669 2.669 0 002.5-1.661.84.84 0 00-.488-1.1z" />
        <path class="b"
            d="M42.451 42.466a4.157 4.157 0 00-2.01-2.8 4.218 4.218 0 00.532-.513 4.168 4.168 0 00.977-3.361 10.564 10.564 0 00-2.437-5.308 10.716 10.716 0 00-3.5-2.679A9.59 9.59 0 0038.65 21.2a9.7 9.7 0 00-7.086-9.3 3.626 3.626 0 00.86-2.353 3.122 3.122 0 00-3.131-3.109 2.858 2.858 0 00-1.837.633 2.291 2.291 0 00-.837 1.785.85.85 0 001.7 0 .621.621 0 01.233-.5 1.156 1.156 0 01.743-.236 1.428 1.428 0 011.435 1.423 1.966 1.966 0 01-.587 1.405 2 2 0 01-1.416.582h-.062a9.715 9.715 0 00-9.5 9.663 9.59 9.59 0 002.637 6.605 10.716 10.716 0 00-3.5 2.679 10.565 10.565 0 00-2.437 5.308 4.168 4.168 0 00.977 3.361 4.213 4.213 0 00.532.513 4.138 4.138 0 00-1.2 6.157l1.818 2.3a3.81 3.81 0 004.858.935 3.746 3.746 0 001.613-4.642l-1.1-2.714a4.138 4.138 0 00-.258-.522h6.225a.843.843 0 100-1.685h-7.84v-1.767a.417.417 0 01.418-.415h14a.417.417 0 01.418.415v1.892a4.166 4.166 0 00-1.872 2.09l-1.1 2.714a3.746 3.746 0 003.489 5.139 3.8 3.8 0 002.982-1.432l1.818-2.3a4.13 4.13 0 00.808-3.358zm-21.59-21.269a8.046 8.046 0 118.046 7.982 8.023 8.023 0 01-8.046-7.982zm.927 21.136l1.1 2.715a2.061 2.061 0 01-.887 2.553 2.1 2.1 0 01-2.672-.514l-1.818-2.3a2.462 2.462 0 01.717-3.665 2.51 2.51 0 012.059-.2 2.483 2.483 0 011.5 1.416zm14.123-8.4a.846.846 0 00-.849.842v.842h-12.3v-.842a.85.85 0 00-1.7 0v1.019a2.1 2.1 0 00-1.267 1.922v1.189a2.534 2.534 0 01-1.665-.86 2.5 2.5 0 01-.584-2.011 8.907 8.907 0 015.664-7.008 9.785 9.785 0 0011.4 0 8.907 8.907 0 015.66 7.012 2.5 2.5 0 01-.585 2.011 2.534 2.534 0 01-1.665.86v-1.188a2.1 2.1 0 00-1.261-1.92V34.78a.846.846 0 00-.849-.842zm4.39 10.844l-1.818 2.3a2.1 2.1 0 01-2.672.514 2.061 2.061 0 01-.887-2.553l1.1-2.714a2.483 2.483 0 011.5-1.413 2.509 2.509 0 012.059.2 2.461 2.461 0 01.717 3.665z" />
        <path class="b"
            d="M33.303 39.744a.853.853 0 00-1.2 0 .837.837 0 000 1.191.853.853 0 001.2 0 .837.837 0 000-1.191z" />
        <path class="c"
            d="M31.248 24.074a.854.854 0 00-1.194.124 1.481 1.481 0 01-2.293 0 .854.854 0 00-1.194-.124.838.838 0 00-.125 1.185 3.188 3.188 0 004.931 0 .838.838 0 00-.125-1.185zM26.761 20.602a1.989 1.989 0 00-2.793 0 .838.838 0 000 1.191.854.854 0 001.2 0 .279.279 0 01.392 0 .854.854 0 001.2 0 .838.838 0 00.001-1.191zM33.845 20.602a1.989 1.989 0 00-2.793 0 .838.838 0 000 1.191.854.854 0 001.2 0 .279.279 0 01.392 0 .854.854 0 001.2 0 .838.838 0 00.001-1.191z" />
    </g>
</svg>