<svg height="32" viewBox="0 0 32 32" width="32" xmlns="http://www.w3.org/2000/svg"><path d="m0 0h32v32h-32z" fill="none"/><g fill="#fff"><path d="m31.645 35.586h-13.045a4.153 4.153 0 0 1 -4.141-4.147v-19.458a4.153 4.153 0 0 1 4.141-4.141h11.813v1.3h-11.813a2.855 2.855 0 0 0 -2.855 2.855v19.449a2.855 2.855 0 0 0 2.855 2.856h13.045a2.861 2.861 0 0 0 2.861-2.855v-18.145h1.316v18.138a4.153 4.153 0 0 1 -4.178 4.147z" transform="translate(-8.142 -5.713)"/><path d="m46.724 12.6h-1.2a3.606 3.606 0 0 0 -3.524-3.458v-1.292a4.755 4.755 0 0 1 4.724 4.75z" transform="translate(-19.128 -5.717)"/><path d="m11.848 43.838h3.5a.649.649 0 1 1 0 1.292h-3.5a.649.649 0 1 1 0-1.292z" transform="translate(-6.816 -20.072)"/><path d="m11.848 29.838h3.5a.649.649 0 1 1 0 1.292h-3.5a.649.649 0 1 1 0-1.292z" transform="translate(-6.816 -14.487)"/><path d="m11.848 36.838h3.5a.649.649 0 1 1 0 1.292h-3.5a.649.649 0 1 1 0-1.292z" transform="translate(-6.816 -17.28)"/><path d="m11.848 22.838h3.5a.649.649 0 1 1 0 1.292h-3.5a.649.649 0 1 1 0-1.292z" transform="translate(-6.816 -11.695)"/><path d="m11.848 15.838h3.5a.649.649 0 1 1 0 1.292h-3.5a.649.649 0 1 1 0-1.292z" transform="translate(-6.816 -8.902)"/><path d="m32.889 28.04a6.882 6.882 0 0 0 -2.609-1.635 3.967 3.967 0 1 0 -4.484 0 6.87 6.87 0 0 0 -4.616 6.486h1.094a5.788 5.788 0 1 1 11.577 0h1.049a6.8 6.8 0 0 0 -2.008-4.851zm-4.851-2.008a2.9 2.9 0 1 1 2.891-2.891 2.891 2.891 0 0 1 -2.891 2.891z" transform="translate(-10.823 -10.231)"/></g></svg>