<svg xmlns="http://www.w3.org/2000/svg" width="16" height="16" viewBox="0 0 16 16">
    <g class="a">
        <path
            d="M15.6,11.8,13.61,9.812a1.408,1.408,0,0,0-1.989,0l-.9.9a1.067,1.067,0,0,1-1.507,0L5.291,6.794a1.065,1.065,0,0,1,0-1.507l.9-.9a1.406,1.406,0,0,0,0-1.99L4.206.411a1.408,1.408,0,0,0-1.988,0l-.725.718a5.077,5.077,0,0,0,0,7.172L7.7,14.513a5.069,5.069,0,0,0,7.173,0l.723-.723A1.408,1.408,0,0,0,15.6,11.8ZM2.88,1.074a.47.47,0,0,1,.664,0L5.532,3.057a.469.469,0,0,1,0,.663L5.2,4.052,2.55,1.4ZM8.366,13.85,2.157,7.638A4.122,4.122,0,0,1,1.9,2.075L4.541,4.718a2,2,0,0,0,.087,2.739l3.919,3.922h0a2,2,0,0,0,2.739.087l2.643,2.643A4.114,4.114,0,0,1,8.366,13.85Zm6.57-.723-.332.332-2.652-2.652.331-.331a.469.469,0,0,1,.663,0l1.989,1.989A.469.469,0,0,1,14.936,13.127Z"
            transform="translate(-0.011 0)" />
    </g>
</svg>