<svg height="32" viewBox="0 0 31.957 32" width="31.957" xmlns="http://www.w3.org/2000/svg"><path d="m0 0h31.957v32h-31.957z" fill="none"/><g fill="#fff"><g transform="translate(6.415 9.948)"><path d="m5.931 6.428h.121.112a5.206 5.206 0 0 1 2.415.652.473.473 0 0 0 .46-.826 6.1 6.1 0 0 0 -1.062-.465 3.215 3.215 0 1 0 -3.848 0 6.148 6.148 0 0 0 -4.1 4.582 1.436 1.436 0 0 0 1.4 1.732h3.7a.473.473 0 0 0 0-.946h-3.7a.481.481 0 0 1 -.378-.18.494.494 0 0 1 -.1-.414 5.224 5.224 0 0 1 4.98-4.135zm-2.149-3.213a2.27 2.27 0 1 1 2.382 2.267h-.223a2.272 2.272 0 0 1 -2.159-2.267zm8.318 5.575a1.169 1.169 0 0 1 -.348.836l-.879.875a.473.473 0 1 1 -.667-.67l.589-.586h-2.675a.957.957 0 0 0 -.012 1.914.473.473 0 0 1 0 .946 1.873 1.873 0 0 1 -1.342-.559 1.907 1.907 0 0 1 1.354-3.246h2.636l-.545-.539a.473.473 0 0 1 .665-.672l.878.868a1.169 1.169 0 0 1 .346.833zm0 0"/><path d="m8.871 5.391h-.1-.094a4.366 4.366 0 0 0 -2.025.547.4.4 0 1 1 -.386-.693 5.12 5.12 0 0 1 .891-.39 2.7 2.7 0 1 1 3.227 0 5.156 5.156 0 0 1 3.436 3.845 1.2 1.2 0 0 1 -1.178 1.453h-3.1a.4.4 0 1 1 0-.793h3.1a.4.4 0 0 0 .317-.151.414.414 0 0 0 .084-.347 4.381 4.381 0 0 0 -4.172-3.471zm1.8-2.694a1.9 1.9 0 1 0 -2 1.9h.187a1.906 1.906 0 0 0 1.816-1.897z" transform="translate(4.65 .556)"/></g><path d="m1276.589 98.824h-15.811a4.144 4.144 0 0 1 -4.14-4.14v-19.449a4.144 4.144 0 0 1 4.14-4.14h14.6v1.283h-14.6a2.86 2.86 0 0 0 -2.857 2.856v19.45a2.86 2.86 0 0 0 2.857 2.856h15.811a2.86 2.86 0 0 0 2.857-2.856v-18.126h1.283v18.126a4.144 4.144 0 0 1 -4.14 4.14z" transform="translate(-1253.021 -69.42)"/><path d="m1607.112 75.846h-1.232a3.6 3.6 0 0 0 -3.519-3.467v-1.284a4.756 4.756 0 0 1 4.751 4.751z" transform="translate(-1579.455 -69.42)"/></g></svg>