<svg xmlns="http://www.w3.org/2000/svg" width="32" height="32" viewBox="0 0 32 32"><defs>.a{fill:none;}.b{fill:#fff;}</defs><rect class="a" width="32" height="32"/><g transform="translate(-1.929 -0.1)"><path class="b" d="M22.5,17.974c-3.123-4.594-7.294-7.036-9.478-5.54a2.52,2.52,0,0,0-.618.621c0,.018-5.057,10.251-5.057,10.251L4.524,25.219a3.987,3.987,0,0,0-1.059,5.54l.127.187A4,4,0,0,0,9.108,32l4.534,6.68a2.574,2.574,0,0,0,3.529.678,2.389,2.389,0,0,0,1.059-1.623,2.527,2.527,0,0,0-.392-1.906L13.843,29.94s9.443-.752,9.478-.766a2.262,2.262,0,0,0,.822-.353c1.122-.762,1.524-2.361,1.136-4.5A17.267,17.267,0,0,0,22.5,17.974ZM4.619,30.251l-.127-.187a2.749,2.749,0,0,1,.734-3.822l2.438-1.658,3.218,4.739L8.444,30.981a2.752,2.752,0,0,1-3.825-.73Zm12.2,6.278a1.306,1.306,0,0,1-2.167,1.457l-4.52-6.659,1.817-1.235.48-.039Zm-4.771-7.686L8.543,23.677l3.345-6.821a16.981,16.981,0,0,0,2.791,6.426,17.036,17.036,0,0,0,4.94,4.965Zm10.41-.822c-1.687-.109-4.432-2.011-6.757-5.438s-3.081-6.669-2.562-8.282a1.5,1.5,0,0,1,1.411-1.059c1.673,0,4.52,1.913,6.913,5.438a15.055,15.055,0,0,1,2.6,5.872C24.588,28.02,22.46,28.02,22.46,28.02Z" transform="translate(0 -7.697)"/><path class="b" d="M41.072,29.2a3.313,3.313,0,0,0-2.512.519.62.62,0,0,0,.706,1.02,2.117,2.117,0,0,1,2.378,3.5A.618.618,0,0,0,42,35.364a.6.6,0,0,0,.353-.106A3.349,3.349,0,0,0,41.1,29.2Z" transform="translate(-22.984 -18.789)"/><path class="b" d="M59.814,5.983h.06a.618.618,0,0,0,.614-.554L60.965.8A.618.618,0,1,0,59.737.672l-.473,4.633a.618.618,0,0,0,.55.678Z" transform="translate(-36.553 0)"/><path class="b" d="M73.48,13.561a.621.621,0,0,0-.857-.176l-4.3,2.823a.618.618,0,0,0,.353,1.133.628.628,0,0,0,.353-.1l4.3-2.823A.618.618,0,0,0,73.48,13.561Z" transform="translate(-42.237 -8.531)"/><path class="b" d="M76.669,33.762l-5-.9a.618.618,0,0,0-.219,1.217l5,.9h.109a.618.618,0,0,0,.109-1.228Z" transform="translate(-44.109 -21.195)"/></g></svg>