<svg fill="none" height="1080" viewBox="0 0 1920 1080" width="1920" xmlns="http://www.w3.org/2000/svg" xmlns:xlink="http://www.w3.org/1999/xlink"><linearGradient id="a" gradientUnits="userSpaceOnUse" x1="960" x2="960" y1="1080" y2="0"><stop offset=".005" stop-color="#182e3d"/><stop offset="1" stop-color="#030d2f"/></linearGradient><linearGradient id="b" gradientUnits="userSpaceOnUse" x1="-140.799" x2="2077.53" y1="934.079" y2="934.079"><stop offset="0" stop-color="#af3331"/><stop offset="1" stop-color="#650029"/></linearGradient><radialGradient id="c" cx="0" cy="0" gradientTransform="matrix(845.472 0 0 735.529 -1592.97 568.776)" gradientUnits="userSpaceOnUse" r="1"><stop offset="0" stop-color="#f4c56a"/><stop offset=".186" stop-color="#f4b263"/><stop offset=".49" stop-color="#f4995a"/><stop offset=".769" stop-color="#f48b55"/><stop offset="1" stop-color="#f48654"/></radialGradient><linearGradient id="d"><stop offset="0" stop-color="#510022"/><stop offset="1" stop-color="#8b2c52"/></linearGradient><linearGradient id="e" gradientUnits="userSpaceOnUse" x1="194.65" x2="1726.54" xlink:href="#d" y1="843.242" y2="843.242"/><linearGradient id="f" gradientUnits="userSpaceOnUse" x1="-140.799" x2="2077.53" xlink:href="#d" y1="918.385" y2="918.385"/><linearGradient id="g" gradientUnits="userSpaceOnUse" x1="1733.38" x2="2077.53" xlink:href="#d" y1="955.162" y2="955.162"/><linearGradient id="h"><stop offset="0" stop-color="#f4b893"/><stop offset="1" stop-color="#f4eda1"/></linearGradient><linearGradient id="i" gradientUnits="userSpaceOnUse" x1="1393.55" x2="1505.16" xlink:href="#h" y1="149.509" y2="149.509"/><linearGradient id="j"><stop offset=".122556" stop-color="#0008ff" stop-opacity="0"/><stop offset="1" stop-color="#a9cfff"/></linearGradient><linearGradient id="k" gradientUnits="userSpaceOnUse" x1="1430.68" x2="1430.68" xlink:href="#j" y1="645.211" y2="123"/><linearGradient id="l"><stop offset="0" stop-color="#ececec"/><stop offset=".12" stop-color="#bfbfbf"/><stop offset=".6" stop-color="#303030"/><stop offset=".87" stop-color="#060606" stop-opacity="0"/></linearGradient><radialGradient id="m" cx="0" cy="0" gradientTransform="matrix(140.578 0 0 97.7463 1448.45 147.71)" gradientUnits="userSpaceOnUse" r="1" xlink:href="#l"/><linearGradient id="n" gradientUnits="userSpaceOnUse" x1="415.336" x2="526.954" xlink:href="#h" y1="149.509" y2="149.509"/><linearGradient id="o" gradientUnits="userSpaceOnUse" x1="453.182" x2="453.182" xlink:href="#j" y1="645.211" y2="123"/><radialGradient id="p" cx="0" cy="0" gradientTransform="matrix(140.578 0 0 97.7463 470.45 147.71)" gradientUnits="userSpaceOnUse" r="1" xlink:href="#l"/><linearGradient id="q"><stop offset="0" stop-color="#ffc53f"/><stop offset="1" stop-color="#d47000"/></linearGradient><linearGradient id="r" gradientUnits="userSpaceOnUse" x1="0" x2="1920" xlink:href="#q" y1="177.416" y2="177.416"/><linearGradient id="s" gradientUnits="userSpaceOnUse" x1="1920" x2="0" xlink:href="#q" y1="177.416" y2="177.416"/><linearGradient id="t" gradientUnits="userSpaceOnUse" x1="321.167" x2="0" xlink:href="#q" y1="208.749" y2="208.749"/><clipPath id="u"><path d="m0 0h1920v1080h-1920z"/></clipPath><g clip-path="url(#u)"><path d="m1920 0h-1920v1080h1920z" fill="url(#a)"/><path d="m-140.799 932.613 339.404-117.816h1520.925l358 99.993v138.57h-2218.329z" fill="url(#b)"/><path d="m2165 1100.19h-2403l46.374-25.23 7.96-4.32 57.898-31.49 3.01-1.64 60.736-33.02 2.8061-1.53 57.47042-31.248 2.6264-1.439 52.32388-28.439 2.2959-1.24 44.3888-24.14 1.7345-.954 33.211-18.051 1.761-.953 33.162-18.052 1.812-.973 23.084-12.557h1531.886l22.18 11.893 3.04 1.637 32.34 17.365 3.07 1.638 32.31 17.342 3.09 1.66 43.16 23.144 4.16 2.236 50.68 27.219 4.97 2.657 55.56 29.825 5.55 2.97 58.8 31.56 5.81 3.1 58.67 31.49 3.65 1.95z" fill="url(#c)"/><g fill="#a21800"><g opacity=".18"><path d="m2113.58 1072.59-2305.206 2.37 7.959-4.32h2293.587z"/><path d="m2051.26 1039.15h-2177.024l3.011-1.64 2168.193-1.46z"/><path d="m1986.65 1004.49h-2048.6681l2.8063-1.53 2040.3218-1.44z"/><path d="m1925.55 971.712h-1927.28242l2.626548-1.44 1919.695872-1.217z"/><path d="m1869.9 941.834h-1816.6954l2.2959-1.24 1810.2395-.996z"/><path d="m1822.57 916.454h-1722.6808l1.7348-.954 1717.876-.709z"/><path d="m1787.17 897.451h-1652.337l1.761-.953 1647.516-.678z"/><path d="m1751.76 878.447h-1582.007l1.813-.974 1577.164-.664z"/></g><path d="m1096.02 940.67 20.3 28.882 286.33.793-38.78-28.512z" opacity=".15"/><path d="m1033.31 1002.98-13.04-31.261h318.95l36.6 31.261z" opacity=".15"/><path d="m148.584 1070.65 42.949-31.49h232.146l-38.057 33.7z" opacity=".15"/><path d="m543.29 1035.97 35.881-31.48h176.149l-24.466 31.48z" opacity=".15"/><path d="m1588.22 1004.49 57.62 34.67h232.71l-58.18-34.67z" opacity=".15"/><path d="m785.221 939.501 20.659-23.044h135.374l.162 23.649z" opacity=".15"/></g><path d="m1116.32 969.55-20.3-28.882-152.954 1.166v27.714z" fill="#fff" opacity=".43"/><path d="m359.166 970.345 41.68-28.509h259.15l-28.27 28.509z" fill="#fff" opacity=".43"/><path d="m1354.44 1070.65-23.92-31.49h388.72l40.78 31.49z" fill="#fff" opacity=".43"/><g opacity=".44"><path d="m943.066 989.568c-48.803 0-121.42-6.017-121.42-22.593 0-16.575 72.612-22.58 121.42-22.58s121.424 6.014 121.424 22.58c0 16.567-72.61 22.593-121.424 22.593zm-.362-43.502c-72.539 0-111.453 13.33-111.453 20.918 0 7.589 39.282 20.367 111.815 20.367 72.534 0 113.444-12.785 113.444-20.367s-41.28-20.918-113.806-20.918z" fill="#fff"/><path d="m1906.28 1077.27h-1877.4836l289.8096-200.562 1289.734-1.423zm-1846.8042-10.69 1819.0742 3.99-270.57-191.656h-1287.992z" fill="#fff"/><path d="m260.053 919.379 228.335 14.208-43.479 45.361-273.034 6.866z" fill="#a21800" opacity=".8"/><path d="m470.617 981.97c-68.041 0-136.649-9.878-136.649-26.645 0-16.768 68.599-24.985 136.649-24.985 68.049 0 140.358 9.037 140.358 25.814s-72.315 25.816-140.358 25.816zm2.114-49.355c-84.266 0-130.6 14.61-130.6 23.539 0 8.928 38.422 22.764 122.687 22.764 84.266 0 139.533-13.834 139.533-22.764 0-8.931-47.352-23.539-131.62-23.539z" fill="#fff"/><path d="m306.924 1025.44v-4.43c233.59 0 393.212-33.925 393.212-65.243 0-31.317-159.622-64.473-393.212-64.473h-4.137l-175.237 126.226-2.511-3.62 177.632-125.754 1.036 1.984c194.093 0 401.962 21.808 401.962 65.186 0 43.377-204.652 70.124-398.745 70.124z" fill="#fff"/><path d="m153.369 993.526 106.771-76.362 233.131 14.504-47.419 49.477zm107.323-71.886-95.408 66.283 279.629-8.962 40.476-45.549z" fill="#fff"/><path d="m306.924 1025.44h-191.775v-2.21l191.775-2.22z" fill="#fff"/><path d="m1669.07 919.381-228.33 14.208 43.48 45.361 273.04 6.863z" fill="#a21800" opacity=".8"/><g fill="#fff"><path d="m1458.52 981.97c68.04 0 136.65-9.878 136.65-26.645 0-16.768-68.6-24.985-136.65-24.985s-140.36 9.037-140.36 25.814 72.31 25.816 140.36 25.816zm-2.12-49.355c84.26 0 130.6 14.61 130.6 23.539 0 8.928-38.42 22.764-122.69 22.764-84.26 0-139.53-13.834-139.53-22.764 0-8.931 47.36-23.539 131.62-23.539z"/><path d="m1622.21 1025.44v-4.43c-233.59 0-393.21-33.925-393.21-65.242s159.62-64.474 393.21-64.474h4.14l175.23 126.236 2.52-3.62-177.64-125.754-1.03 1.984c-194.1 0-401.97 21.808-401.97 65.185s204.66 70.115 398.75 70.115z"/><path d="m1775.76 993.526-106.77-76.362-233.13 14.504 47.42 49.477zm-107.32-71.886 95.42 66.283-279.63-8.962-40.48-45.558z"/><path d="m1622.21 1025.44h191.77v-2.21l-191.77-2.22z"/><path d="m946.831 1075.11-11.017-.1 6.371-197.436h.954z"/></g></g><path d="m140.871 919.379-241.428 106.061-114.131 62.07 298.7409-83.02z" fill="#a21800" opacity=".42"/><path d="m-151.891 1100.19 350.496-226.969 1523.905 24.228 346.15 200.501 96.34 2.24-438.47-235.274h-1531.88l-432.641 235.274z" fill="#a21800" opacity=".51"/><path d="m194.65 864.916 3.955-43.348h1520.925l7.01 43.348z" fill="url(#e)" opacity=".64"/><path d="m-140.799 987.923 337.425-144.681h1526.414l354.49 142.573v7.713l-353.82-147.484-1527.323.752-337.186 146.73z" fill="url(#f)" opacity=".64"/><path d="m-140.799 981.966 337.55-140.085 1526.129-.36 354.65 137.395v6.895l-354.49-142.57h-1526.414l-337.425 144.68z" fill="#fff"/><path d="m2023.18 908.17 12.2 107.88-302-151.144 344.15 180.514v-120.87z" fill="url(#g)" opacity=".64"/><path d="m1393.55 123.154 5.09 52.994h102.93l3.59-53.279z" fill="url(#i)"/><path d="m1392.89 123.287-172.39 521.924h418.86l-134.85-522.211z" fill="url(#k)" opacity=".3"/><path d="m1449 244c77.87 0 141-43.652 141-97.5 0-53.8478-63.13-97.5-141-97.5s-141 43.6522-141 97.5c0 53.848 63.13 97.5 141 97.5z" fill="url(#m)" opacity=".5"/><path d="m415.336 123.154 5.092 52.994h102.93l3.596-53.279z" fill="url(#n)"/><path d="m415.389 123.287-172.389 521.924h418.863l-134.852-522.211z" fill="url(#o)" opacity=".3"/><path d="m471 244c77.872 0 141-43.652 141-97.5 0-53.8478-63.128-97.5-141-97.5s-141 43.6522-141 97.5c0 53.848 63.128 97.5 141 97.5z" fill="url(#p)" opacity=".5"/><g opacity=".61"><path d="m321.187 240.092v-14.238l1274.643-4.401 1 14.228z" fill="url(#r)"/><path d="m1595.83 221.453 324.17-123.9905v37.6035l-323.17 100.615z" fill="url(#r)"/><path d="m321.167 225.518-321.167-143.3002v37.6032l321.167 119.926z" fill="url(#s)"/><path d="m321.187 272.614v-14.238l1274.643-4.401 1 14.229z" fill="url(#r)"/><path d="m1595.83 253.975 324.17-93.501v41.669l-323.17 66.061z" fill="url(#r)"/><path d="m321.167 258.04-321.167-112.811v57.93l321.167 69.11z" fill="url(#t)"/></g><path d="m966 245.315h-12.81v572.065h12.81z" fill="#517984"/><path d="m963.81 245.315h-12.81v572.065h12.81z" fill="#7dabbf"/></g></svg>