<svg fill="none" height="822" viewBox="0 0 411 822" width="411" xmlns="http://www.w3.org/2000/svg" xmlns:xlink="http://www.w3.org/1999/xlink"><linearGradient id="a" gradientUnits="userSpaceOnUse" x1="205.5" x2="205.5" y1="823" y2="0"><stop offset=".005" stop-color="#182e3d"/><stop offset="1" stop-color="#030d2f"/></linearGradient><linearGradient id="b" gradientUnits="userSpaceOnUse" x1="-689.473" x2="1114.08" y1="708.243" y2="708.243"><stop offset="0" stop-color="#af3331"/><stop offset="1" stop-color="#650029"/></linearGradient><radialGradient id="c" cx="0" cy="0" gradientTransform="matrix(687.386 0 0 582.446 -1870.12 418.968)" gradientUnits="userSpaceOnUse" r="1"><stop offset="0" stop-color="#f4c56a"/><stop offset=".186" stop-color="#f4b263"/><stop offset=".49" stop-color="#f4995a"/><stop offset=".769" stop-color="#f48b55"/><stop offset="1" stop-color="#f48654"/></radialGradient><linearGradient id="d"><stop offset="0" stop-color="#510022"/><stop offset="1" stop-color="#8b2c52"/></linearGradient><linearGradient id="e" gradientUnits="userSpaceOnUse" x1="-416.746" x2="828.71" xlink:href="#d" y1="636.31" y2="636.31"/><linearGradient id="f" gradientUnits="userSpaceOnUse" x1="-689.473" x2="1114.08" xlink:href="#d" y1="695.813" y2="695.813"/><linearGradient id="g" gradientUnits="userSpaceOnUse" x1="-255" x2="1020.65" y1="173.153" y2="173.153"><stop offset="0" stop-color="#ffc53f"/><stop offset="1" stop-color="#d47000"/></linearGradient><clipPath id="h"><path d="m0 0h411v822h-411z"/></clipPath><g clip-path="url(#h)"><path d="m411 0h-411v823h411z" fill="url(#a)"/><path d="m-689.473 707.082 275.943-93.296h1236.544l291.066 79.182v109.731h-1803.553z" fill="url(#b)"/><path d="m1185.19 839.78h-1953.689l37.703-19.976 6.471-3.421 47.073-24.939 2.447-1.297 49.38-26.15 2.281-1.209 46.725-24.746 2.135-1.14 42.541-22.52 1.866-.982 36.089-19.115 1.411-.755 27-14.295 1.433-.755 26.961-14.294 1.473-.771 18.768-9.943h1245.455l18.036 9.417 2.467 1.297 26.297 13.75 2.489 1.297 26.276 13.733 2.509 1.315 35.09 18.327 3.38 1.771 41.207 21.554 4.044 2.104 45.172 23.615 4.51 2.351 47.8 24.992 4.73 2.455 47.7 24.939 2.96 1.544z" fill="url(#c)"/><g fill="#a21800"><g opacity=".18"><path d="m1143.38 817.927-1874.176 1.877 6.471-3.421h1864.735z"/><path d="m1092.72 791.444h-1769.969l2.448-1.297 1762.791-1.158z"/><path d="m1040.18 763.997h-1665.602l2.282-1.209 1658.82-1.14z"/><path d="m990.515 738.042h-1566.923l2.135-1.139 1560.75-.965z"/><path d="m945.264 714.383h-1477.008l1.867-.983 1471.759-.789z"/><path d="m906.79 694.285h-1400.578l1.41-.755 1396.669-.562z"/><path d="m878.006 679.237h-1343.384l1.432-.755 1339.465-.537z"/><path d="m849.22 664.188h-1286.207l1.474-.771 1282.267-.526z"/></g><path d="m316.085 713.461 16.502 22.871 232.794.628-31.53-22.578z" opacity=".15"/><path d="m265.106 762.806-10.608-24.758h259.314l29.758 24.758z" opacity=".15"/><path d="m-133.294 788.929 29.172-24.932h143.2127l-19.8914 24.932z" opacity=".15"/><path d="m63.4004 712.536 16.7966-18.248h110.061l.132 18.727z" opacity=".15"/></g><path d="m332.588 736.33-16.503-22.871-124.353.923v21.946z" fill="#fff" opacity=".43"/><g fill="#fff" opacity=".44"><path d="m191.732 752.182c-39.678 0-98.7174-4.765-98.7174-17.891s59.0354-17.881 98.7174-17.881 98.717 4.763 98.717 17.881c0 13.119-59.03 17.891-98.717 17.891zm-.294-34.448c-58.976 0-90.614 10.555-90.614 16.564 0 6.01 31.937 16.129 90.908 16.129s92.233-10.125 92.233-16.129c0-6.003-33.558-16.564-92.527-16.564z"/><path d="m974.842 821.629h-1526.43l235.621-158.818 1048.584-1.127zm-1501.487-8.462 1478.945 3.156-219.976-151.766h-1047.167z"/><path d="m194.793 819.923-8.957-.079 5.18-156.348h.776z"/></g><path d="m-698.491 839.782 284.961-179.732 1238.968 19.186 281.422 158.768 78.33 1.778-356.482-186.308h-1245.454l-351.746 186.308z" fill="#a21800" opacity=".51"/><path d="m-416.746 653.473 3.216-34.326h1236.544l5.696 34.326z" fill="url(#e)" opacity=".64"/><path d="m-689.473 750.878 274.335-114.568h1241.007l288.211 112.899v6.108l-287.67-116.789-1241.743.596-274.14 116.191z" fill="url(#f)" opacity=".64"/><path d="m-689.473 746.163 274.436-110.93 1240.771-.285 288.346 108.799v5.461l-288.211-112.898h-1241.007l-274.335 114.568z" fill="#fff"/><g fill="url(#g)" opacity=".3"><path d="m-1 145.975v-13.975h413.645v13.975z"/><path d="m-1 177.975v-13.975h413.645v13.975z"/></g><path d="m200.926 192h8.093v422.18h-8.093z" fill="#517984"/><path d="m202.31 192h8.092v422.18h-8.092z" fill="#7dabbf"/></g></svg>