<svg fill="none" height="767" viewBox="0 0 411 767" width="411" xmlns="http://www.w3.org/2000/svg" xmlns:xlink="http://www.w3.org/1999/xlink"><linearGradient id="a" gradientUnits="userSpaceOnUse" x1="69.5522" x2="69.5522" y1="98.9449" y2="0"><stop offset=".005" stop-color="#2d4e64"/><stop offset="1" stop-color="#152559"/></linearGradient><linearGradient id="b"><stop offset="0" stop-color="#8b2c52"/><stop offset="1" stop-color="#660045"/></linearGradient><linearGradient id="c" gradientUnits="userSpaceOnUse" x1="235.673" x2="174.555" xlink:href="#b" y1="115.552" y2="115.552"/><linearGradient id="d" gradientUnits="userSpaceOnUse" x1="187.887" x2="176.346" xlink:href="#b" y1="115.834" y2="115.834"/><path d="m278 32.7832-1.881 104.6078h-142.285l-2.005-104.6078zm-141.724 101.4218h137.277v-98.2362h-137.277z" fill="#d8d8d8"/><path d="m0 0h139.104v98.9449h-139.104z" fill="url(#a)" transform="matrix(-1 0 0 1 274.209 35.6514)"/><path d="m232.514 78.8789v37.5761h-55.594v-37.5761zm-51.352 34.7081h47.109v-31.8409h-47.109z" fill="#fff"/><g fill="#fff1d1"><path d="m231.175 120.438-11.919 59.694v.014c-.004.02-.006.04-.006.06l.342 16.218.343-16.218-.008.072 14.426-59.151c.101-.415.032-.852-.193-1.217-.225-.364-.587-.625-1.006-.725-.419-.101-.861-.032-1.229.191-.368.222-.632.58-.733.995-.008.021-.013.046-.017.067z"/><path d="m217.975 120.645-3.916 60.131v.028l.335 15.623.335-15.623v.028l6.481-59.913c.024-.211.006-.424-.053-.628-.06-.204-.159-.394-.293-.56-.135-.166-.3-.303-.488-.405s-.395-.166-.608-.189-.429-.003-.634.057c-.206.06-.398.16-.564.294s-.305.299-.406.485c-.102.187-.166.392-.187.603-.002.026-.002.048-.002.069z"/><path d="m175.882 121.152 15.405 59.132-.009-.078.341 16.219.341-16.219c.001-.021-.001-.042-.005-.063v-.014l-12.899-59.715c-.095-.413-.35-.773-.71-1.001-.361-.229-.798-.307-1.217-.218-.418.088-.784.337-1.019.691s-.319.786-.234 1.201c-.005.02.001.045.006.065z"/><path d="m189.303 120.938 7.173 59.898v-.032l.334 15.623.335-15.623v-.032l-4.603-60.146c-.016-.21-.074-.416-.17-.605-.097-.188-.23-.356-.392-.494s-.349-.242-.552-.308-.417-.092-.63-.076-.421.074-.611.169c-.191.096-.36.227-.5.388-.139.16-.245.346-.311.547-.067.201-.093.412-.076.623-.003.021.001.047.003.068z"/><path d="m203.56 120.783 1.625 75.645 1.626-75.645c.008-.213-.028-.426-.104-.625-.076-.2-.192-.382-.339-.537-.148-.155-.326-.279-.523-.366-.197-.086-.409-.133-.624-.137-.216-.005-.43.033-.63.111-.201.078-.383.195-.538.343-.154.149-.277.326-.362.522s-.129.407-.131.62c-.001.021-.001.047 0 .069z"/><path d="m228.743 138.914c-.994 2.358-2.043 4.692-3.181 6.988-.571 1.145-1.163 2.28-1.817 3.375-.323.548-.678 1.077-1.063 1.584-.186.248-.399.475-.634.679-.105.094-.228.166-.361.211-.054.016-.112.017-.166.002-.055-.014-.105-.044-.143-.085-.382-.478-.657-1.032-.806-1.623-.192-.603-.345-1.225-.487-1.837-.28-1.241-.499-2.498-.699-3.757-.39-2.521-.699-5.059-.947-7.597-.005-.054-.03-.105-.068-.144-.039-.039-.09-.064-.145-.07s-.11.006-.157.035-.082.074-.1.125c-.914 2.659-1.936 5.291-3.075 7.862-.565 1.284-1.194 2.539-1.887 3.76-.343.604-.724 1.185-1.142 1.741-.378.545-.87 1.003-1.442 1.344-.539.288-1.075-.006-1.473-.548-.397-.551-.718-1.153-.953-1.789-.492-1.306-.883-2.648-1.172-4.013-.59-2.746-1.031-5.521-1.319-8.314-.009-.075-.043-.144-.098-.196-.054-.053-.126-.084-.202-.09-.075-.005-.15.016-.212.06s-.106.107-.125.18c-.661 2.575-1.403 5.14-2.267 7.651-.437 1.254-.902 2.502-1.455 3.7-.268.596-.578 1.173-.927 1.726-.167.265-.363.511-.584.735-.078.096-.176.176-.287.234-.112.057-.234.091-.359.1-.262-.062-.495-.21-.662-.419-.218-.231-.415-.48-.589-.745-.356-.551-.677-1.125-.959-1.716-.58-1.188-1.078-2.423-1.546-3.673-.927-2.494-1.751-5.034-2.497-7.589-.009-.031-.023-.059-.043-.085-.02-.025-.045-.046-.073-.061-.028-.016-.059-.026-.091-.03s-.064-.002-.095.007c-.046.013-.088.04-.119.076-.032.036-.052.081-.058.128-.368 2.545-.819 5.088-1.408 7.592-.287 1.252-.643 2.487-1.067 3.7-.211.6-.475 1.181-.791 1.734-.309.51-.791 1.089-1.317.837-.273-.133-.513-.324-.703-.56-.21-.238-.403-.49-.576-.755-.353-.537-.673-1.094-.96-1.668-.582-1.15-1.094-2.336-1.573-3.534-.955-2.399-1.799-4.843-2.567-7.309.721 2.48 1.514 4.942 2.423 7.363.456 1.211.946 2.411 1.509 3.581.28.588.594 1.16.941 1.712.175.28.371.547.585.799.214.274.487.497.799.652.084.045.176.073.271.081.096.025.196.025.292 0 .097-.01.19-.041.273-.09.085-.036.163-.086.231-.148.264-.222.488-.487.661-.784.333-.567.614-1.164.84-1.782.442-1.221.816-2.466 1.121-3.729.618-2.517 1.101-5.058 1.501-7.619l-.479.031c.721 2.581 1.512 5.137 2.447 7.65.468 1.257.966 2.506 1.555 3.722.29.617.621 1.214.99 1.788.193.295.412.573.654.83.261.314.626.526 1.031.597.211.002.419-.041.612-.127.192-.085.363-.211.502-.368.253-.252.476-.531.667-.831.37-.577.697-1.178.98-1.8.572-1.224 1.046-2.486 1.491-3.752.882-2.535 1.635-5.1 2.312-7.698l-.638-.046c.297 2.818.751 5.618 1.359 8.386.3 1.395.706 2.765 1.215 4.1.258.689.609 1.342 1.044 1.938.237.33.557.592.928.762.202.085.422.124.642.115.219-.009.434-.066.629-.167.657-.381 1.22-.902 1.649-1.524.431-.577.824-1.181 1.177-1.808.698-1.24 1.331-2.515 1.899-3.819 1.149-2.594 2.131-5.247 3.025-7.935l-.472-.051c.278 2.55.618 5.084 1.036 7.613.214 1.263.448 2.523.746 3.774.15.624.309 1.248.515 1.863.168.649.488 1.25.933 1.755.078.069.172.118.274.14.102.023.208.019.308-.01.172-.059.33-.152.463-.275.248-.221.47-.468.664-.736.381-.523.731-1.068 1.048-1.632.638-1.122 1.208-2.267 1.759-3.425 1.085-2.32 2.087-4.678 3.035-7.055z"/><path d="m223.925 160.645c-.715 2.367-1.479 4.72-2.321 7.044-.423 1.16-.866 2.315-1.369 3.44-.245.562-.527 1.107-.843 1.632-.145.252-.332.478-.553.667l-.078.053c-.023.004-.045.009-.067.016-.044.015-.065 0-.112-.034-.098-.09-.177-.199-.233-.319-.439-1.14-.745-2.325-.911-3.534-.206-1.214-.376-2.436-.526-3.66-.298-2.448-.533-4.907-.721-7.365-.005-.057-.029-.11-.069-.15-.039-.041-.093-.066-.149-.072-.057-.005-.114.01-.161.042s-.081.079-.096.134c-.722 2.616-1.54 5.217-2.448 7.777-.457 1.277-.949 2.544-1.511 3.774-.278.611-.59 1.206-.934 1.783-.165.283-.353.552-.56.807-.177.242-.404.444-.665.594-.423.272-.867-.254-1.163-.823-.295-.594-.534-1.213-.714-1.85-.369-1.3-.664-2.619-.886-3.951-.463-2.669-.778-5.375-1.014-8.075-.007-.076-.042-.148-.098-.201-.056-.054-.129-.086-.207-.09-.077-.005-.154.019-.216.065-.062.047-.104.114-.12.19-.515 2.519-1.101 5.036-1.78 7.517-.342 1.241-.71 2.474-1.146 3.673-.21.599-.456 1.185-.734 1.756-.135.274-.292.537-.472.785-.162.234-.412.447-.515.401-.13-.011-.371-.227-.538-.463-.178-.252-.338-.517-.478-.791-.288-.568-.545-1.15-.769-1.746-.461-1.195-.857-2.42-1.227-3.652-.733-2.469-1.39-4.967-1.979-7.474-.014-.063-.053-.118-.108-.153s-.121-.047-.185-.033c-.05.012-.095.038-.129.076-.034.037-.056.084-.062.134-.284 2.482-.635 4.964-1.089 7.421-.231 1.224-.486 2.453-.824 3.652-.161.597-.363 1.183-.604 1.753-.117.277-.264.54-.441.784-.185.22-.395.401-.618.272-.25-.147-.46-.352-.611-.598-.178-.252-.338-.515-.479-.789-.29-.548-.543-1.122-.78-1.699-.468-1.158-.88-2.346-1.264-3.535-.765-2.386-1.442-4.802-2.052-7.233.562 2.448 1.187 4.873 1.904 7.279.36 1.201.748 2.397 1.195 3.57.228.587.471 1.17.756 1.734.141.288.302.565.482.83.174.296.422.542.721.714.093.039.191.064.291.076.103-.009.204-.035.298-.077.16-.087.3-.206.412-.348.197-.263.362-.548.492-.849.255-.582.469-1.181.642-1.792.355-1.213.626-2.442.873-3.672.486-2.468.865-4.948 1.18-7.447l-.484.025c.564 2.528 1.185 5.04 1.922 7.526.369 1.243.763 2.479 1.227 3.699.23.616.493 1.218.788 1.806.153.302.328.593.523.87.107.148.229.284.364.408.074.072.158.133.25.18.104.063.221.102.342.115.129.009.258-.009.379-.052.097-.051.19-.108.28-.17.142-.121.269-.258.38-.408.202-.275.38-.568.531-.874.292-.59.549-1.197.77-1.817.449-1.224.824-2.469 1.175-3.718.693-2.5 1.287-5.017 1.818-7.554l-.641-.038c.241 2.726.573 5.433 1.049 8.13.232 1.354.538 2.695.917 4.016.195.674.451 1.329.767 1.956.168.34.4.646.682.902.079.074.169.134.268.179.21.111.452.147.686.102.111-.016.218-.054.315-.111.338-.187.631-.443.86-.752.223-.277.425-.569.604-.876.353-.597.673-1.213.957-1.845.569-1.254 1.059-2.534 1.516-3.823.914-2.58 1.687-5.202 2.389-7.84l-.475-.042c.219 2.467.482 4.925.809 7.379.166 1.224.347 2.448.572 3.672.112.612.235 1.218.384 1.823.134.617.338 1.218.608 1.789.078.16.189.301.327.414.088.062.196.092.304.085s.211-.05.29-.122c.251-.216.46-.474.619-.762.31-.543.586-1.104.824-1.681.483-1.145.904-2.31 1.304-3.481.801-2.331 1.516-4.699 2.183-7.08z"/><path d="m219.589 180.675c-.606 2.322-1.247 4.636-1.946 6.93-.352 1.145-.722 2.289-1.134 3.412-.206.561-.424 1.122-.681 1.653-.117.264-.265.512-.442.74-.037.043-.079.081-.127.112-.039 0-.021.027-.043 0-.074-.1-.126-.213-.154-.334-.227-1.164-.346-2.346-.355-3.532-.042-1.196-.055-2.392-.053-3.59.005-2.394.058-4.794.145-7.183.001-.031-.004-.063-.015-.092-.011-.03-.028-.057-.05-.08s-.048-.042-.077-.055-.061-.02-.092-.021c-.054-.001-.107.015-.15.046-.044.032-.076.076-.091.127-.784 2.538-1.633 5.056-2.548 7.554-.46 1.246-.943 2.483-1.48 3.693-.271.603-.554 1.199-.868 1.773-.268.557-.641 1.06-1.098 1.48-.265.322-.647-.408-.85-.973-.214-.616-.386-1.245-.516-1.883-.278-1.288-.475-2.599-.647-3.913-.339-2.629-.57-5.279-.746-7.924-.004-.079-.038-.154-.095-.209-.057-.056-.133-.089-.213-.092-.08-.004-.158.022-.22.072-.062.051-.103.122-.115.2-.386 2.488-.824 4.977-1.329 7.447-.256 1.233-.531 2.462-.859 3.672-.164.604-.343 1.205-.558 1.783-.101.284-.224.56-.365.826-.062.119-.138.231-.226.332-.026.028-.056.051-.089.07-.008.013.008-.01-.005-.006s-.064-.05-.103-.073l-.126-.147c-.084-.119-.161-.242-.231-.37-.148-.268-.281-.544-.398-.827-.243-.57-.456-1.161-.659-1.754-.399-1.191-.755-2.4-1.091-3.614-.665-2.432-1.28-4.879-1.845-7.34-.007-.03-.02-.06-.038-.086-.018-.025-.041-.048-.067-.065-.027-.017-.057-.028-.088-.034-.032-.006-.064-.005-.095.002-.052.011-.1.039-.134.08-.035.041-.055.092-.057.145-.081 2.372-.207 4.747-.413 7.113-.103 1.182-.221 2.363-.392 3.535-.087.586-.186 1.169-.319 1.742-.064.284-.144.564-.238.84-.065.253-.2.482-.389.663-.114.079-.347-.151-.477-.397-.145-.252-.268-.515-.37-.787-.212-.548-.386-1.116-.544-1.687-.316-1.143-.579-2.303-.824-3.468-.482-2.329-.888-4.674-1.245-7.026.309 2.359.663 4.712 1.095 7.054.219 1.171.457 2.339.75 3.497.148.578.309 1.155.515 1.722.101.288.226.568.372.836.078.144.174.276.288.394.071.078.164.132.268.155.103.023.211.013.309-.028.267-.207.46-.492.551-.816.104-.286.191-.577.261-.873.143-.585.25-1.175.344-1.764.187-1.182.322-2.367.438-3.553.229-2.374.386-4.75.496-7.131l-.478.041c.538 2.475 1.112 4.938 1.78 7.383.333 1.224.685 2.44 1.086 3.648.206.604.417 1.205.668 1.8.123.302.264.597.421.883.082.15.172.295.271.435l.184.214c.085.08.182.147.287.198.073.024.148.042.224.054.08 0 .159-.016.233-.047.11-.047.21-.117.292-.204.121-.136.225-.287.309-.448.157-.292.293-.594.406-.905.228-.606.412-1.218.581-1.836.339-1.224.619-2.465.884-3.705.52-2.481.966-4.969 1.364-7.473l-.643-.028c.176 2.665.425 5.317.776 7.966.179 1.326.382 2.645.672 3.96.139.665.323 1.321.55 1.962.118.34.28.664.482.964.065.08.133.158.206.231.093.082.2.146.316.189.123.038.253.046.38.024s.246-.073.349-.151c.299-.224.555-.5.754-.816.194-.284.372-.578.535-.881.325-.597.61-1.207.883-1.82.54-1.229 1.021-2.476 1.48-3.731.916-2.51 1.727-5.05 2.486-7.61l-.474-.075c-.058 2.401-.082 4.8-.06 7.202.014 1.2.039 2.401.096 3.601.021 1.213.162 2.421.42 3.606.044.172.129.331.249.463.052.048.118.077.188.083.065-.005.127-.02.186-.047.079-.049.148-.111.206-.184.189-.25.346-.522.467-.811.252-.555.458-1.122.655-1.69.391-1.139.732-2.291 1.06-3.446.669-2.311 1.26-4.638 1.817-6.972z"/></g><path d="m174.555 110.321h61.118v10.462h-61.118z" fill="url(#c)"/><path d="m234.616 111.529h-16.012v8.287h15.849z" fill="#fff"/><path d="m210.477 111.529h6.584v8.287h-6.584z" fill="#fff"/><path d="m187.887 111.529h-11.541v8.609h11.108z" fill="url(#d)" opacity=".57"/></svg>