<svg width="56" height="80" viewBox="0 0 56 80" fill="none" xmlns="http://www.w3.org/2000/svg">
<path fill-rule="evenodd" clip-rule="evenodd" d="M43.5268 61.0424C45.9602 59.7703 47.6209 57.2221 47.6209 54.286C47.6209 50.0782 44.2097 46.667 40.0019 46.667C35.794 46.667 32.3828 50.0782 32.3828 54.286C32.3828 57.2109 34.0309 59.7509 36.4492 61.0278L34.4609 72.2944L39.9031 69.272L44.8505 72.2944L43.5268 61.0424ZM6 0C2.68629 0 0 2.68629 0 6V74C0 77.3137 2.68629 80 6 80H50C53.3137 80 56 77.3137 56 74V6C56 2.68629 53.3137 0 50 0H6ZM5.71875 13.4287C5.71875 12.3241 6.61418 11.4287 7.71875 11.4287H49.433C50.5376 11.4287 51.433 12.3241 51.433 13.4287C51.433 14.5333 50.5376 15.4287 49.433 15.4287H7.71875C6.61418 15.4287 5.71875 14.5333 5.71875 13.4287ZM5.71875 21.4287C5.71875 20.3241 6.61418 19.4287 7.71875 19.4287H49.433C50.5376 19.4287 51.433 20.3241 51.433 21.4287C51.433 22.5333 50.5376 23.4287 49.433 23.4287H7.71875C6.61418 23.4287 5.71875 22.5333 5.71875 21.4287ZM5.71875 29.4287C5.71875 28.3241 6.61418 27.4287 7.71875 27.4287H18.0045C19.109 27.4287 20.0045 28.3241 20.0045 29.4287C20.0045 30.5333 19.109 31.4287 18.0045 31.4287H7.71875C6.61418 31.4287 5.71875 30.5333 5.71875 29.4287Z" fill="white"/>
</svg>
