<svg fill="none" height="72" viewBox="0 0 73 72" width="73" xmlns="http://www.w3.org/2000/svg"><path d="m70.0659 41.269c-7.624-12.962-6.814-26.238-10.487-32.48297-3.673-6.245-14.622-17.011-40.489 1.74997-25.86697 18.761-19.287976 39.155-15.24598 46.021 18.92198 32.159 79.72198 7.659 66.22198-15.288z" fill="#f3f3f3"/><path d="m13.732 43.8551 15.045-26.062c.7333-1.2705 1.7882-2.3256 3.0586-3.0591 1.2704-.7336 2.7115-1.1197 4.1784-1.1197 1.467 0 2.9081.3861 4.1784 1.1197 1.2704.7335 2.3253 1.7886 3.0586 3.0591l15.048 26.062c.7327 1.2702 1.1182 2.7109 1.1178 4.1773s-.3867 2.9068-1.1201 4.1767c-.7333 1.2698-1.7879 2.3243-3.0579 3.0575-1.2699.7332-2.7104 1.1193-4.1768 1.1195h-30.093c-1.4664-.0002-2.9069-.3863-4.1768-1.1195s-2.3245-1.7877-3.0579-3.0575c-.7334-1.2699-1.1196-2.7103-1.12-4.1767s.3851-2.9071 1.1177-4.1773z" fill="#ffe419"/><path d="m36.0139 49.3141c1.4718 0 2.665-1.1931 2.665-2.665 0-1.4718-1.1932-2.665-2.665-2.665-1.4719 0-2.665 1.1932-2.665 2.665 0 1.4719 1.1931 2.665 2.665 2.665z" fill="#fff"/><path d="m36.0139 39.0331c-.3502.0004-.697-.0683-1.0207-.202-.3237-.1338-.6179-.33-.8656-.5775-.2478-.2475-.4444-.5414-.5785-.865-.1341-.3235-.2032-.6703-.2032-1.0205v-11.019c0-.7068.2808-1.3847.7806-1.8845.4998-.4997 1.1776-.7805 1.8844-.7805s1.3847.2808 1.8845.7805c.4998.4998.7805 1.1777.7805 1.8845v11.019c0 .7063-.2803 1.3837-.7794 1.8834-.4992.4997-1.1763.7808-1.8826.7816z" fill="#fff"/><g fill="#000"><path d="m51.062 57.3421h-11.097c-.2413-.0156-.4676-.1225-.633-.299-.1653-.1764-.2574-.4091-.2574-.651 0-.2418.0921-.4745.2574-.651.1654-.1764.3917-.2833.633-.299h11.1c1.3004.0012 2.5781-.3403 3.7045-.9902 1.1264-.6498 2.0617-1.585 2.7116-2.7114.6499-1.1263.9916-2.4041.9905-3.7045s-.3448-2.5776-.9966-3.7029l-15.047-26.064c-.649-1.1267-1.5834-2.0626-2.7091-2.7134-1.1258-.6507-2.4031-.9933-3.7034-.9933s-2.5777.3426-3.7034.9933c-1.1258.6508-2.0602 1.5867-2.7091 2.7134l-15.047 26.064c-.6497 1.1252-.9916 2.4016-.9914 3.7009.0001 1.2993.3423 2.5756.9922 3.7006.6499 1.1251 1.5846 2.0592 2.71 2.7084 1.1254.6493 2.4019.9907 3.7012.9901h10.716c.2413.0157.4676.1226.6329.299.1654.1765.2574.4092.2574.651 0 .2419-.092.4746-.2574.651-.1653.1765-.3916.2834-.6329.299h-10.716c-1.6328-.0008-3.2365-.431-4.6504-1.2476-1.4139-.8165-2.5881-1.9906-3.4048-3.4043-.8168-1.4138-1.2472-3.0175-1.2482-4.6503-.0011-1.6327.4274-3.237 1.2424-4.6518l15.047-26.062c.8169-1.415 1.9919-2.59 3.4069-3.407 1.415-.8169 3.0202-1.247 4.6541-1.247s3.239.4301 4.654 1.247c1.415.817 2.59 1.992 3.407 3.407l15.047 26.062c.8172 1.4151 1.2475 3.0203 1.2476 4.6543.0001 1.6341-.4299 3.2394-1.2469 4.6545-.817 1.4152-1.9921 2.5903-3.4073 3.4073-1.4151.817-3.0204 1.2471-4.6544 1.2469z"/><path d="m36.0151 57.3422c-.2203.0001-.4338-.0762-.6041-.2159-.1703-.1396-.2869-.334-.3299-.55s-.0099-.4403.0939-.6346.2717-.3466.4752-.4309c.2034-.0843.4298-.0955.6406-.0316.2108.0638.3929.1988.5154.3819.1224.1831.1775.403.156.6222s-.1184.4241-.2741.5799c-.1785.1786-.4206.2789-.673.279z"/><path d="m36.015 50.2662c-.7154 0-1.4147-.2121-2.0096-.6095-.5948-.3975-1.0584-.9624-1.3321-1.6233-.2738-.6609-.3454-1.3882-.2058-2.0898.1395-.7016.484-1.3461.9898-1.852.5059-.5058 1.1504-.8503 1.852-.9899.7016-.1395 1.4289-.0679 2.0898.2059.6609.2737 1.2258.7373 1.6233 1.3321.3974.5948.6096 1.2941.6096 2.0095 0 .9593-.3811 1.8793-1.0594 2.5576-.6784.6783-1.5984 1.0594-2.5576 1.0594zm0-5.331c-.3388 0-.67.1005-.9517.2887s-.5013.4558-.631.7688c-.1296.313-.1635.6574-.0974.9897s.2292.6375.4688.8771c.2395.2396.5448.4027.8771.4688.3322.0661.6767.0322.9897-.0975.313-.1296.5805-.3492.7688-.6309.1882-.2817.2886-.6129.2886-.9517 0-.4543-.1804-.89-.5017-1.2112-.3212-.3213-.7569-.5018-1.2112-.5018z"/><path d="m36.015 39.9852c-.9596 0-1.88-.381-2.559-1.0592-.6789-.6782-1.0609-1.5982-1.062-2.5578v-11.019c0-.9593.3811-1.8793 1.0594-2.5576s1.5984-1.0594 2.5576-1.0594c.9593 0 1.8793.3811 2.5576 1.0594.6784.6783 1.0594 1.5983 1.0594 2.5576v11.019c-.001.9582-.3819 1.877-1.0591 2.555s-1.5956 1.0599-2.5539 1.062zm0-16.349c-.4541.0005-.8895.1812-1.2106.5023-.3212.3211-.5018.7565-.5024 1.2107v11.019c0 .4544.1806.8903.5019 1.2116.3214.3214.7572.5019 1.2116.5019.4545 0 .8903-.1805 1.2117-.5019.3213-.3213.5018-.7572.5018-1.2116v-11.019c-.0005-.4544-.1813-.8899-.5026-1.2111-.3214-.3211-.757-.5017-1.2114-.5019z"/><path d="m26.3381 31.9111c-.2203.0001-.4337-.0762-.604-.2159-.1704-.1397-.287-.3341-.33-.5501s-.0099-.4403.0939-.6345c.1038-.1943.2717-.3466.4752-.4309.2034-.0844.4299-.0956.6406-.0317.2108.0639.3929.1989.5154.382.1224.1831.1775.4029.156.6221s-.1184.4242-.2741.58c-.1785.1785-.4206.2789-.673.279z"/><path d="m18.87 44.9361c-.1667-.0003-.3304-.0442-.4748-.1276s-.2644-.2032-.3479-.3475c-.0835-.1442-.1277-.3079-.1281-.4746-.0004-.1668.043-.3307.1258-.4753l5.444-9.5c.0622-.1085.1451-.2037.2441-.2801.0989-.0764.212-.1326.3327-.1653.1206-.0328.2466-.0414.3706-.0255.124.016.2436.0562.3521.1184.1085.0621.2036.1451.2801.244.0764.099.1326.212.1653.3327s.0414.2466.0254.3706c-.0159.124-.0561.2437-.1183.3522l-5.444 9.5c-.0835.1454-.204.2662-.3492.3502-.1452.0839-.31.128-.4778.1278z"/></g></svg>