<svg fill="none" height="14" viewBox="0 0 14 14" width="14" xmlns="http://www.w3.org/2000/svg"><path d="m12.7483 7.94601c.2422-.24059.3773-.5603.3773-.89277 0-.33248-.1351-.65218-.3773-.89278l-.2691-.26775c-.0568-.05634-.0977-.12532-.1189-.20058-.0213-.07526-.0222-.15437-.0027-.23006l.0914-.3581c.0832-.32323.0316-.66437-.1441-.95247-.1756-.2881-.4616-.50098-.7987-.59434l-.3732-.10404c-.0791-.02173-.1511-.06203-.2094-.11717s-.1009-.12333-.1239-.19824l-.1094-.35355c-.0983-.31975-.3231-.59118-.6276-.75762-.30452-.16643-.6651-.215-1.00648-.13557l-.378.08663c-.07999.01861-.16364.01777-.24318-.00245-.07955-.02022-.15241-.05915-.21182-.11319l-.28219-.25449c-.25396-.22946-.59143-.35747-.94237-.35747-.35095 0-.68842.12801-.94238.35747l-.28262.2549c-.05966.05354-.13248.09213-.21185.11225-.07938.02012-.16281.02114-.24271.00298l-.37538-.08663c-.34135-.07879-.70163-.02994-1.00595.1364s-.52927.43739-.62811.75679l-.10981.35355c-.02294.07494-.06548.14318-.12369.19839-.0582.05521-.13017.09561-.20925.11744l-.37319.10362c-.33733.09336-.62364.30643-.79927.59481s-.22705.62984-.14354.95324l.09144.35811c.01948.07578.01851.15499-.00282.23032-.02134.07533-.06234.14436-.11924.20073l-.26863.26734c-.24221.24059-.377331.5603-.377331.89277s.135121.65218.377331.89278l.26906.26775c.05679.05634.0977.12532.11895.20058.02126.07525.02218.15437.00268.23005l-.09144.35811c-.08275.32305-.03096.66388.14461.9517.17558.28785.46143.50055.7982.59385l.37319.1041c.07911.0217.15114.062.20942.1171.05828.0552.10091.1234.12395.1983l.10982.3539c.09826.3197.32307.591.62747.7574.30441.1663.66488.2148 1.00615.1354l.378-.0866c.07999-.0184.16359-.0175.2431.0027s.15238.059.2119.1129l.28219.2545c.25401.2294.59146.3573.94237.3573s.68836-.1279.94238-.3573l.28262-.2549c.05943-.0539.13224-.0927.21169-.1128.07946-.0201.16299-.021.24287-.0024l.378.0866c.34099.0783.70071.0292 1.00446-.1371.3038-.1664.5283-.4371.627-.7561l.1098-.3535c.0229-.075.0655-.1432.1237-.1984s.1302-.0956.2092-.1175l.3737-.104c.3371-.0934.6232-.3065.7988-.59477.1755-.28827.2269-.62958.1435-.95287l-.0914-.3581c-.0195-.07578-.0185-.15499.0028-.23032.0213-.07534.0623-.14437.1192-.20074zm-2.90459-2.03755-3.1758 2.88556c-.08148.0741-.19004.11547-.30297.11547-.11294 0-.2215-.04137-.30297-.11547l-1.90575-1.73042c-.04145-.03769-.07466-.08275-.09773-.1326s-.03556-.10352-.03673-.15794c-.00238-.10991.04142-.21622.12177-.29553.08036-.07931.19067-.12513.30669-.12738.11601-.00226.22822.03924.31194.11536l1.603 1.45812 2.87218-2.61118c.08466-.06952.19424-.10561.30616-.10086.11192.00476.21764.05001.29539.12643.07775.07641.12159.17818.12248.28431.0009.10613-.04121.20854-.11766.28613z" fill="#fff" opacity=".6"/></svg>