<svg fill="none" height="14" viewBox="0 0 14 14" width="14" xmlns="http://www.w3.org/2000/svg">
    <g fill="#79d563">
        <path
            d="m7 11.8463c-1.12405 0-2.18034-.295-3.09616-.8111v2.5611c0 .137.06948.2647.18457.3391.11504.0744.26001.0853.385.0291l2.52659-1.1369 2.52659 1.1369c.05291.0238.10937.0356.16568.0356.07667 0 .15296-.0218.21932-.0647.11511-.0744.18461-.2021.18461-.3391v-2.5611c-.91586.5161-1.97215.8111-3.0962.8111z" />
        <path
            d="m8.58192 5.32947.5557-1.0445-1.18239-.04099c-.13423-.00465-.25742-.07577-.32854-.18971l-.62669-1.00349-.62669 1.00352c-.07115.11394-.19431.18503-.32854.18971l-1.18239.04099.5557 1.04447c.06311.11859.06311.26078 0 .37937l-.5557 1.04448 1.18239.04098c.13423.00465.25742.07577.32854.18972l.62669 1.00348.62669-1.00351c.07115-.11394.19431-.18504.32854-.18971l1.18239-.04099-.5557-1.04448c-.06311-.11856-.06311-.26075 0-.37934z" />
        <path
            d="m7 0c-3.0433 0-5.51923 2.47589-5.51923 5.51923 0 1.91945.98512 3.61287 2.47609 4.60207.01479.0098.02956.0196.04446.0293.01802.0117.03607.0233.05422.0347.01504.0096.03016.019.04529.0283.01802.0112.03595.0224.05411.0334.02412.0145.04842.0289.07279.0431.02275.0132.04566.0263.06863.0392.01646.0093.0329.0186.04944.0277.01816.01.03634.0199.05463.0297.0169.0091.03391.018.05092.0269.01777.0093.03549.0186.05337.0277.0283.0144.05679.0286.08534.0425.01966.0096.03943.0189.05923.0283.01903.009.03806.018.0572.0268.01769.0081.03546.0161.05327.024.0193.0086.03866.0171.05807.0254.01701.0074.03402.0148.05111.022.03339.014.06688.0277.1006.0411.01482.0059.02972.0115.04459.0172.02256.0088.04515.0174.06784.0259.01677.0062.03364.0123.05048.0184.02212.008.04435.0158.06658.0235.01581.0055.03161.011.04747.0164.03566.0119.07142.0236.10741.0349.01219.0038.02453.0074.03675.0112.0266.0081.05326.0161.08003.0238.01564.0045.03131.0089.04701.0133.02496.007.04998.0137.07508.0203.0146.0039.02912.0078.04375.0115.03785.0097.07583.019.114.0279.00908.0021.01827.004.02734.0061.03101.0071.06213.0139.09333.0204.01441.003.02885.0059.04326.0088.02764.0055.05534.0108.08315.0159.01345.0025.02693.0051.04044.0074.03984.0071.07979.0138.1199.02.00585.0009.0117.0016.01756.0025.03538.0054.07087.0103.10642.015.01342.0017.02693.0034.04039.005.02972.0037.05947.0071.08933.0102.01288.0014.0257.0028.03858.0041.0414.0041.08293.0079.1246.0111.00282.0002.00566.0004.00848.0006.03932.0029.07872.0054.11824.0075.01287.0007.02575.0013.03866.0019.03112.0014.06226.0026.09354.0035.01272.0004.02543.0008.03815.0011.04263.001.08528.0016.12816.0016.04287 0 .08553-.0006.12816-.0016.01274-.0003.02543-.0007.03814-.0011.03126-.0009.06243-.0021.09355-.0035.0129-.0006.02578-.0012.03866-.0019.03951-.0021.07897-.0046.11823-.0075.00279-.0002.00566-.0004.00848-.0006.04167-.0032.08318-.007.12461-.0111.0129-.0013.02573-.0027.03858-.0041.02986-.0031.05964-.0066.08933-.0102.01345-.0017.02693-.0033.04039-.005.0356-.0046.07104-.0096.10642-.015.00585-.0009.0117-.0016.01755-.0025.04012-.0062.08007-.0129.11991-.02.0135-.0024.02696-.0049.04044-.0074.02778-.0051.05548-.0104.08312-.0159.01444-.0029.02891-.0058.04326-.0088.0312-.0065.06229-.0133.09332-.0204.00911-.0021.01827-.004.02735-.0061.03814-.0088.07612-.0182.11399-.0279.01463-.0037.02918-.0076.04376-.0115.0251-.0066.05012-.0134.07508-.0203.0157-.0044.03136-.0088.04701-.0133.02676-.0077.05342-.0157.08003-.0238.01225-.0038.02455-.0074.03675-.0112.03596-.0113.07175-.023.10741-.0349.01588-.0054.03166-.0109.04746-.0164.02226-.0077.04449-.0155.06659-.0235.01684-.0061.03368-.0122.05047-.0184.0227-.0085.04529-.0171.06784-.0259.01488-.0057.02981-.0113.0446-.0172.03369-.0134.06719-.0271.10054-.0411.01712-.0072.03416-.0147.05119-.022.01939-.0084.03875-.0169.05803-.0254.0178-.008.03557-.016.05326-.0241.01914-.0087.03817-.0177.0572-.0267.0198-.0094.03957-.0187.05923-.0283.0286-.014.05704-.0281.08534-.0425.01788-.0091.0356-.0184.05335-.0277.01701-.0089.03401-.0179.05091-.0269.01827-.0098.03648-.0197.05464-.0297.01657-.0091.033-.0184.04943-.0277.02297-.0129.04586-.026.06864-.0393.02436-.0142.04867-.0285.07279-.0431.01815-.0109.03609-.0221.05411-.0333.01512-.0094.03027-.0188.04528-.0283.01816-.0115.0362-.0231.05422-.0348.01489-.0096.02969-.0194.04449-.0292 1.4909-.98923 2.4761-2.68265 2.4761-4.6021-.0001-3.04331-2.476-5.5192-5.5193-5.5192zm3.1545 6.94493c.0654.12296.0628.27098-.0068.39159-.0697.12061-.19657.19687-.33577.20169l-1.61397.05591-.85539 1.36976c-.0738.11813-.20325.18993-.34254.18993s-.26873-.0718-.34253-.18993l-.8554-1.36976-1.61397-.05591c-.1392-.00482-.26611-.08108-.33575-.20169s-.07224-.26863-.00678-.39159l.75854-1.4257-.75854-1.42571c-.06546-.12296-.06286-.27097.00678-.39159.06964-.12061.19655-.19687.33575-.20168l1.61397-.05592.8554-1.36976c.0738-.11812.20324-.18993.34253-.18993s.26874.07181.34254.18993l.85539 1.36976 1.61397.05592c.1392.00481.26607.08107.33577.20168.0696.12062.0722.26863.0068.39159l-.75858 1.42571z" />
    </g>
</svg>