<svg width="20" height="20" viewBox="0 0 20 20" fill="none" xmlns="http://www.w3.org/2000/svg">
<path d="M16.668 3.33333H3.33464C2.41797 3.33333 1.66797 4.08333 1.66797 5V15C1.66797 15.9167 2.41797 16.6667 3.33464 16.6667H16.668C17.5846 16.6667 18.3346 15.9167 18.3346 15V5C18.3346 4.08333 17.5846 3.33333 16.668 3.33333ZM16.668 15H3.33464V5H16.668V15ZM3.33464 0H16.668V1.66667H3.33464V0ZM3.33464 18.3333H16.668V20H3.33464V18.3333ZM10.0013 10C11.1513 10 12.0846 9.06667 12.0846 7.91667C12.0846 6.76667 11.1513 5.83333 10.0013 5.83333C8.8513 5.83333 7.91797 6.76667 7.91797 7.91667C7.91797 9.06667 8.8513 10 10.0013 10ZM10.0013 7.08333C10.4596 7.08333 10.8346 7.45833 10.8346 7.91667C10.8346 8.375 10.4596 8.75 10.0013 8.75C9.54297 8.75 9.16797 8.375 9.16797 7.91667C9.16797 7.45833 9.54297 7.08333 10.0013 7.08333ZM14.168 13.325C14.168 11.5833 11.4096 10.8333 10.0013 10.8333C8.59297 10.8333 5.83464 11.5833 5.83464 13.325V14.1667H14.168V13.325ZM7.34297 12.9167C7.8513 12.4833 9.03464 12.0833 10.0013 12.0833C10.9763 12.0833 12.1596 12.4833 12.668 12.9167H7.34297Z" fill="#DCDCDC"/>
</svg>
