<svg width="18" height="20" viewBox="0 0 18 20" fill="none" xmlns="http://www.w3.org/2000/svg">
<path d="M15.668 3.33333H2.33464C1.41797 3.33333 0.667969 4.08333 0.667969 5V15C0.667969 15.9167 1.41797 16.6667 2.33464 16.6667H15.668C16.5846 16.6667 17.3346 15.9167 17.3346 15V5C17.3346 4.08333 16.5846 3.33333 15.668 3.33333ZM15.668 15H2.33464V5H15.668V15ZM2.33464 0H15.668V1.66667H2.33464V0ZM2.33464 18.3333H15.668V20H2.33464V18.3333ZM9.0013 10C10.1513 10 11.0846 9.06667 11.0846 7.91667C11.0846 6.76667 10.1513 5.83333 9.0013 5.83333C7.8513 5.83333 6.91797 6.76667 6.91797 7.91667C6.91797 9.06667 7.8513 10 9.0013 10ZM9.0013 7.08333C9.45964 7.08333 9.83464 7.45833 9.83464 7.91667C9.83464 8.375 9.45964 8.75 9.0013 8.75C8.54297 8.75 8.16797 8.375 8.16797 7.91667C8.16797 7.45833 8.54297 7.08333 9.0013 7.08333ZM13.168 13.325C13.168 11.5833 10.4096 10.8333 9.0013 10.8333C7.59297 10.8333 4.83464 11.5833 4.83464 13.325V14.1667H13.168V13.325ZM6.34297 12.9167C6.8513 12.4833 8.03464 12.0833 9.0013 12.0833C9.9763 12.0833 11.1596 12.4833 11.668 12.9167H6.34297Z" fill="#AF1E57"/>
</svg>
