<svg fill="none" height="24" viewBox="0 0 24 24" width="24" xmlns="http://www.w3.org/2000/svg"><g fill="#000"><path d="m20.5716 0c-.0156 0-.0312.00014062-.0468.00042188v-.00042188h-17.09647c-1.55011 0-2.811234 1.26112-2.811234 2.81123v16.44577c0 1.5501 1.261124 2.8112 2.811234 2.8112h5.52356v1.9304l2.81101-1.1935 2.8115 1.1949v-1.9318h2.2489c1.5501 0 2.8113-1.2611 2.8113-2.8112v-12.18206h.937c1.5501 0 2.8113-1.26113 2.8113-2.81124v-1.45247c0-1.55011-1.2612-2.81123-2.8113-2.81123zm-7.8714 21.1671-.9369-.3981-.9373.3979v-1.6291c.0066.0001.0131.0001.0196.0001.1655 0 .3329-.0277.4952-.0853l.4223-.1498.4221.1498c.1689.0599.3432.0875.515.0852zm1.3687-5.6868c-.0158.0202-.0308.041-.0449.0624-.2061.3122-.2061.6256-.2061.7938v.346l-.3203.092c-.3285.0945-.6159.3013-.8095.582l-.1582.2296-.27-.0958c-.3205-.1138-.6733-.1137-.9932-.0002l-.2704.096-.1582-.2296c-.1935-.2807-.481-.4875-.8098-.582l-.31999-.092v-.2257c0-.0198.00038-.0392.00075-.0581.00347-.2003.01003-.5724-.25706-.9163l-.16069-.2088.162-.2119c.26733-.3456.25941-.728.25561-.9124-.00028-.0127-.00061-.0252-.00061-.0371v-.2684l.25345-.0531c.02246-.0048.04474-.0103.06684-.0166.3285-.0946.616-.3013.8095-.5821l.1582-.2295.27.0957c.3203.1139.6731.1139.9932.0002l.2704-.0959.1582.2295c.1936.2808.4811.4875.8098.5821l.32.092v.2261c0 .0148-.0002.0303-.0004.0463-.0028.2212-.0079.6214.2765.9538l.1384.1797zm3.6915-12.66907v16.44577c0 .5167-.4204.937-.9371.937h-2.2489v-1.7788l.0031-.0009c.6401-.184 1.1265-.8522 1.1146-1.527v-.4395l.208-.265c.4186-.5335.4197-1.2781.0032-1.8128l-.2112-.2742v-.5647c0-.6539-.4375-1.2021-1.1146-1.3968l-.4267-.1226-.249-.3612c-.3794-.5505-1.0853-.7783-1.7164-.5545l-.4223.1498-.4221-.1497c-.6313-.2242-1.3373.0039-1.71664.5544l-.2385.3459-.40688.0853c-.02245.0047-.04472.0102-.0667.0166-.64969.1868-1.09083.7792-1.07831 1.4447v.5508l-.2122.2775c-.41443.5331-.41405 1.2746.00107 1.8075l.21113.2743v.5741c-.01167.6454.42398 1.1886 1.11459 1.387l.00319.001v1.7788h-5.52342c-.5167 0-.93708-.4204-.93708-.9371v-16.44567c0-.5167.42038-.93707.93708-.93707h14.49267c-.104.2932-.1606.60867-.1606.93707zm3.7483 1.45247c0 .51671-.4204.93708-.9371.93708h-.937v-2.38955c0-.5167.4203-.93707.937-.93707s.9371.42037.9371.93707z"/><path d="m15.8863 3.74805h-11.47405v1.87415h11.47405z"/><path d="m11.2009 7.49609h-6.78865v1.87416h6.78865z"/></g></svg>