<svg xmlns="http://www.w3.org/2000/svg" width="32" height="32" viewBox="0 0 32 32">
    <g transform="translate(-50 -408)">
        <rect fill="none" width="32" height="32" transform="translate(50 408)" />
        <g transform="translate(50 354.074)">
            <g transform="translate(0 57.75)">
                <path fill="#fff"
                    d="M28.094,57.75H3.913A3.916,3.916,0,0,0,0,61.663V78.189A3.916,3.916,0,0,0,3.913,82.1H28.087A3.916,3.916,0,0,0,32,78.189V61.67A3.912,3.912,0,0,0,28.094,57.75Zm2.125,20.439a2.128,2.128,0,0,1-2.125,2.125H3.913a2.128,2.128,0,0,1-2.125-2.125V61.67a2.128,2.128,0,0,1,2.125-2.125H28.087a2.128,2.128,0,0,1,2.125,2.125v16.52Z"
                    transform="translate(0 -57.75)" />
                <path fill="#fff"
                    d="M72.242,117.487l7.826-7.018a.9.9,0,0,0-1.2-1.331l-10.792,9.687-2.106-1.88c-.007-.007-.013-.013-.013-.02a1.324,1.324,0,0,0-.146-.126l-8.568-7.667a.9.9,0,0,0-1.192,1.337l7.919,7.078-7.886,7.383a.9.9,0,0,0-.04,1.265.914.914,0,0,0,.655.285.9.9,0,0,0,.609-.238l8-7.489,2.172,1.94a.892.892,0,0,0,1.192-.007l2.231-2,7.959,7.561a.9.9,0,0,0,1.265-.033.9.9,0,0,0-.033-1.265Z"
                    transform="translate(-52.061 -105.516)" />
            </g>
        </g>
    </g>
</svg>