<svg fill="none" height="14" viewBox="0 0 14 14" width="14" xmlns="http://www.w3.org/2000/svg"><g opacity=".8"><path d="m7 0c-3.86599 0-7 3.13401-7 7 0 3.866 3.13401 7 7 7 3.866 0 7-3.134 7-7 0-3.86599-3.134-7-7-7z" fill="#fff"/><path d="m6.01299 6.99792-1.61 1.603c-.13181.13181-.20587.31059-.20587.497s.07406.36518.20587.497c.13181.13181.31059.20586.497.20586s.36519-.07405.497-.20586l1.603-1.61 1.603 1.61c.13181.13181.31059.20586.497.20586s.36519-.07405.497-.20586c.13181-.13182.20586-.31059.20586-.497s-.07405-.36519-.20586-.497l-1.61-1.603 1.61-1.603c.06561-.06508.11768-.1425.15322-.2278s.05384-.17679.05384-.2692-.0183-.1839-.05384-.26921c-.03554-.0853-.08761-.16272-.15322-.22779-.06508-.06561-.1425-.11769-.2278-.15323-.0853-.03553-.17679-.05383-.2692-.05383s-.1839.0183-.26921.05383c-.0853.03554-.16272.08762-.22779.15323l-1.603 1.61-1.603-1.61c-.06508-.06561-.1425-.11769-.2278-.15323-.0853-.03553-.17679-.05383-.2692-.05383s-.1839.0183-.26921.05383c-.0853.03554-.16272.08762-.22779.15323-.06561.06507-.11769.14249-.15323.22779-.03553.08531-.05383.1768-.05383.26921s.0183.1839.05383.2692c.03554.0853.08762.16272.15323.2278z" fill="#ff1616"/></g></svg>