<svg width="20" height="20" viewBox="0 0 20 20" fill="none" xmlns="http://www.w3.org/2000/svg">
<path d="M11.8323 10.0001L19.6172 2.21367C19.8601 1.9707 19.9966 1.64116 19.9966 1.29755C19.9966 0.953933 19.8601 0.624394 19.6172 0.381423C19.3743 0.138452 19.0448 0.00195244 18.7013 0.00195244C18.3577 0.00195244 18.0283 0.138452 17.7853 0.381423L10.0004 8.16785L2.21555 0.381423C1.97279 0.137789 1.64321 0.000587855 1.29932 1.88464e-06C0.95542 -0.000584085 0.625375 0.135493 0.381789 0.378299C0.138203 0.621104 0.00102885 0.950748 0.000442998 1.29471C-0.000142857 1.63868 0.135908 1.96879 0.378665 2.21242L8.16356 9.99884L0.378665 17.7865C0.258382 17.9072 0.163033 18.0503 0.0980613 18.2078C0.03309 18.3653 -0.000230865 18.534 1.20391e-06 18.7044C0.000469888 19.0485 0.137578 19.3783 0.381164 19.6213C0.62475 19.8642 0.954861 20.0005 1.29887 20C1.64289 19.9995 1.97263 19.8624 2.21555 19.6188L10.0004 11.8298L17.7853 19.6163C18.0279 19.8599 18.3573 19.9972 18.7011 19.9979C19.0449 19.9986 19.3749 19.8626 19.6185 19.62C19.8621 19.3774 19.9993 19.0479 20 18.704C20.0007 18.3602 19.8648 18.0301 19.6222 17.7865L11.8323 10.0001Z" fill="#1D1D1D"/>
</svg>
