<svg width="14" height="19" viewBox="0 0 14 19" fill="none" xmlns="http://www.w3.org/2000/svg">
<path d="M9.25 2.03571V16.9643C9.25 17.5042 9.46448 18.022 9.84625 18.4038C10.228 18.7855 10.7458 19 11.2857 19H11.9643C12.5042 19 13.022 18.7855 13.4038 18.4038C13.7855 18.022 14 17.5042 14 16.9643V2.03571C14 1.49581 13.7855 0.978017 13.4038 0.596247C13.022 0.214476 12.5042 0 11.9643 0H11.2857C10.7458 0 10.228 0.214476 9.84625 0.596247C9.46448 0.978017 9.25 1.49581 9.25 2.03571ZM2.46429 0H3.14286C3.68276 0 4.20055 0.214476 4.58232 0.596247C4.96409 0.978017 5.17857 1.49581 5.17857 2.03571V16.9643C5.17857 17.5042 4.96409 18.022 4.58232 18.4038C4.20055 18.7855 3.68276 19 3.14286 19H2.46429C1.92438 19 1.40659 18.7855 1.02482 18.4038C0.643047 18.022 0.428571 17.5042 0.428571 16.9643V2.03571C0.428571 1.49581 0.643047 0.978017 1.02482 0.596247C1.40659 0.214476 1.92438 0 2.46429 0Z" fill="black"/>
</svg>
