<svg width="12" height="24" viewBox="0 0 12 24" fill="none" xmlns="http://www.w3.org/2000/svg">
<path d="M1.94999 23.6675C2.19898 23.6683 2.445 23.6133 2.66997 23.5066C2.89493 23.3999 3.09313 23.2442 3.24999 23.0508L11.3 13.0508C11.5451 12.7526 11.6791 12.3785 11.6791 11.9925C11.6791 11.6064 11.5451 11.2323 11.3 10.9341L2.96666 0.934119C2.68376 0.593757 2.27724 0.379717 1.83653 0.339084C1.39582 0.298451 0.95702 0.434554 0.616658 0.717452C0.276298 1.00035 0.0622578 1.40687 0.0216246 1.84758C-0.0190086 2.28829 0.117094 2.72709 0.399992 3.06745L7.84999 12.0008L0.649993 20.9341C0.446188 21.1788 0.316726 21.4767 0.276926 21.7926C0.237127 22.1085 0.288655 22.4292 0.425415 22.7167C0.562175 23.0043 0.778441 23.2466 1.04862 23.4151C1.31881 23.5836 1.6316 23.6712 1.94999 23.6675Z" fill="#1D1D1D"/>
</svg>
