<svg fill="none" height="14" viewBox="0 0 14 14" width="14" xmlns="http://www.w3.org/2000/svg"><path d="m10.5 6.3v-2.79999c0-1.9299-1.57081-3.50001-3.50001-3.50001-1.93059 0-3.50001 1.57011-3.50001 3.50001v2.79999c-.77207 0-1.39997.62721-1.39997 1.40001v4.89999c0 .7721.6279 1.4 1.4 1.4h6.99999c.7721 0 1.4-.6279 1.4-1.4v-4.89999c0-.7728-.6279-1.40001-1.4-1.40001zm-3.50001 4.9c-.5796 0-1.05-.4704-1.05-1.05 0-.57962.4704-1.05002 1.05-1.05002s1.05.4704 1.05 1.05002c0 .5796-.4704 1.05-1.05 1.05zm2.09999-4.9h-4.19999v-2.79999c0-1.15779.94221-2.1 2.1-2.1 1.15778 0 2.09999.94221 2.09999 2.1z" fill="#fff" opacity=".7"/></svg>