<svg xmlns="http://www.w3.org/2000/svg" width="12" height="12" viewBox="0 0 12 12">
    <g transform="translate(-72.664)">
        <rect fill="none" width="12" height="12" transform="translate(72.664)" />
        <g transform="translate(19.361 0)">
            <g transform="translate(54.637 0)">
                <path fill="#fff"
                    d="M54.668,6.42A4.58,4.58,0,0,1,59.16,1.312V.081A.088.088,0,0,1,59.3.018l2.533,1.861a.078.078,0,0,1,0,.125L59.3,3.865a.088.088,0,0,1-.142-.064V2.573a3.316,3.316,0,0,0-3,2.032,3.275,3.275,0,0,0,.467,3.339.632.632,0,1,1-.994.782A4.517,4.517,0,0,1,54.668,6.42Zm7.314-2.365a3.275,3.275,0,0,1,.467,3.339,3.312,3.312,0,0,1-3,2.032V8.2a.088.088,0,0,0-.142-.064L56.774,10a.078.078,0,0,0,0,.125L59.3,11.982a.088.088,0,0,0,.142-.064V10.688A4.58,4.58,0,0,0,63.938,5.58a4.493,4.493,0,0,0-.965-2.306.631.631,0,1,0-.992.782Z"
                    transform="translate(-54.637 0)" />
            </g>
        </g>
    </g>
</svg>