<svg fill="none" height="24" viewBox="0 0 24 24" width="24" xmlns="http://www.w3.org/2000/svg"><path d="m10.4011 22.125h-5.38548c-1.03381 0-1.88012-.8412-1.88012-1.875v-14.15625c0-1.03381.84631-1.875 1.88012-1.875h2.948v.46875c0 1.5509 1.2616 2.8125 2.81248 2.8125 1.5507 0 2.8125-1.2616 2.8125-2.8125v-.46875h2.9531c1.0339 0 1.875.84119 1.875 1.875v7.21875c0 .5178.4197.9375.9375.9375.5177 0 .9375-.4197.9375-.9375v-7.21875c0-2.06781-1.6823-3.75-3.75-3.75h-2.9531v-1.40625c0-.517822-.4198-.9375-.9375-.9375h-3.74998c-.51782 0-.9375.419678-.9375.9375v1.40625h-2.948c-2.06781 0-3.75 1.68219-3.75 3.75v14.15625c0 2.0678 1.68219 3.75 3.75 3.75h5.38548c.5177 0 .9375-.4197.9375-.9375s-.4198-.9375-.9375-.9375zm-.56248-20.25h1.87498v2.8125c0 .51691-.4206.9375-.9375.9375-.5171 0-.93748-.42059-.93748-.9375zm12.76048 14.7021-4.6397 6.4808c-.0103.0141-.0207.028-.0315.0416-.4214.5242-1.0478.8505-1.7187.8952-.0531.0035-.1062.0053-.1591.0053-.616 0-1.2147-.2375-1.6631-.6645l-2.9947-2.8755c-.3734-.3585-.3855-.9519-.0268-1.3255.3584-.3733.952-.3856 1.3255-.0267l2.9916 2.8724c.1452.1382.3142.1492.4018.1437.0847-.0057.2429-.0374.3691-.1837l4.621-6.4546c.3012-.421.8868-.518 1.3079-.2166.421.3014.5181.8869.2167 1.3081zm-14.86985-5.374c0 .5178-.41986.9375-.9375.9375h-.46875c-.51782 0-.9375-.4197-.9375-.9375s.41968-.9375.9375-.9375h.46875c.51764 0 .9375.4197.9375.9375zm8.53125 0c0 .5178-.4199.9375-.9375.9375h-5.25c-.51782 0-.9375-.4197-.9375-.9375s.41968-.9375.9375-.9375h5.25c.5176 0 .9375.4197.9375.9375zm-8.53125 3.75c0 .5178-.41986.9375-.9375.9375h-.46875c-.51782 0-.9375-.4197-.9375-.9375s.41968-.9375.9375-.9375h.46875c.51764 0 .9375.4197.9375.9375zm8.53125 0c0 .5178-.4199.9375-.9375.9375h-5.25c-.51782 0-.9375-.4197-.9375-.9375s.41968-.9375.9375-.9375h5.25c.5176 0 .9375.4197.9375.9375z" fill="#000"/></svg>