<svg fill="none" height="30" viewBox="0 0 32 30" width="32" xmlns="http://www.w3.org/2000/svg"><path d="m28.6667.333984h-25.33339c-1.83731 0-3.33331 1.495996-3.33331 3.333376v22.66664c0 1.8374 1.496 3.3334 3.33331 3.3334h25.33329c1.8373 0 3.3333-1.496 3.3333-3.3334v-22.66664c.0001-1.83738-1.4959-3.333376-3.3332-3.333376zm2 26.000016c0 1.1027-.8973 2-2 2h-25.33339c-1.10268 0-2-.8973-2-2v-19.33333h29.33329v19.33333zm0-20.66664h-29.33339v-2c0-1.10269.89732-2 2-2h25.33329c1.1027 0 2 .89731 2 2v2z" fill="#fff"/></svg>