<svg fill="none" height="341" viewBox="0 0 393 341" width="393" xmlns="http://www.w3.org/2000/svg"><path d="m378.91 0h-154.574v131.544h154.574z" fill="#e6e6e6"/><path d="m383.954 0h-157.261v131.544h157.261z" fill="#f0f0f0"/><path d="m378.91 131.544h-154.574v9.374h154.574z" fill="#e6e6e6"/><path d="m392.358 131.544h-157.26v9.374h157.26z" fill="#f0f0f0"/><path d="m376.893 7.06152h-143.135v117.42048h143.135z" fill="#fafafa"/><path d="m324.877 124.484 11.311-117.42052h19.571l-11.311 117.42052z" fill="#fff"/><path d="m237.025 84.6797c-.143-.0004-.28-.0576-.382-.1588-.101-.1013-.158-.2385-.159-.3818v-72.4832c0-.1434.057-.2809.159-.3823.101-.1014.239-.1584.382-.1584.071-.0002.142.0136.207.0407.066.0271.126.0669.176.1172.05.0502.09.1099.117.1756s.041.1361.041.2072v72.4832c0 .071-.014.1413-.041.2069-.028.0656-.067.1252-.118.1754-.05.0502-.109.09-.175.1172s-.136.0411-.207.0411z" fill="#f0f0f0"/><path d="m348.643 124.484 11.311-117.42052h7.628l-11.311 117.42052z" fill="#fff"/><path d="m376.893 7.06152h-.897v117.42048h.897z" fill="#e6e6e6"/><g fill="#e0e0e0"><path d="m385.629 19.8644h-154.573l-.65-10.0519h154.575z" opacity=".5"/><path d="m385.629 36.3997h-154.573l-.65-10.0589h154.575z" opacity=".5"/><path d="m385.629 52.9339h-154.573l-.65-10.0501h154.575z" opacity=".5"/><path d="m385.629 69.468h-154.573l-.65-10.0588h154.575z" opacity=".5"/><path d="m385.629 86.0042h-154.573l-.65-10.0589h154.575z" opacity=".5"/><path d="m385.629 102.542h-154.573l-.65-10.0586h154.575z" opacity=".5"/></g><path d="m264.194 121.081-10.272-7.094v-.024c-1.009-3.698-2.393-7.282-4.13-10.699l2.631-10.3245-14.899-15.9547-10.486 1.9194c-3.291-1.9654-6.772-3.5904-10.392-4.8498h-.027l-6.375-10.7422-21.81-.7448-7.095 10.2702-.04.0105c-3.694 1.0057-7.277 2.3847-10.691 4.1155l-10.323-2.6309-15.956 14.8964 1.916 10.4657v.0088c-1.975 3.2954-3.601 6.7884-4.852 10.4214l-10.744 6.373-.747 21.814 10.281 7.099c.993 3.715 2.374 7.315 4.12 10.742l-2.625 10.295 14.899 15.953 10.422-1.907c3.317 1.97 6.827 3.599 10.474 4.86h.011l6.365 10.719 21.815.749 7.09-10.264c3.723-1.007 7.334-2.391 10.777-4.129l10.277 2.619 15.956-14.897-1.917-10.466c1.975-3.296 3.6-6.79 4.851-10.423l10.744-6.375zm-67.986 33.159c-4.853-.164-9.547-1.763-13.491-4.595-3.943-2.832-6.958-6.77-8.663-11.315s-2.024-9.494-.916-14.22c1.109-4.727 3.594-9.018 7.142-12.333 3.547-3.314 7.998-5.502 12.789-6.286 4.792-.785 9.709-.131 14.128 1.878 4.42 2.009 8.145 5.284 10.703 9.409 2.559 4.126 3.836 8.918 3.67 13.77-.225 6.505-3.024 12.654-7.782 17.096-4.758 4.443-11.086 6.814-17.592 6.593z" fill="#ebebeb"/><path d="m386.789 245.589h-27.004v50.566h27.004z" fill="#e6e6e6"/><path d="m381.66 296.155h5.129v-19.019h-10.508z" fill="#f0f0f0"/><path d="m232.707 245.589h-27.004v50.566h27.004z" fill="#e6e6e6"/><path d="m386.789 245.589h-158.559v45.376h158.559z" fill="#f0f0f0"/><path d="m233.359 296.155h-5.129v-19.019h10.508z" fill="#f0f0f0"/><path d="m280.506 253.441h-47.002v28.99h47.002z" fill="#e6e6e6"/><path d="m261.654 263.451h-9.3c-4.04 0-7.901-4.073-10.678-11.27h30.646c-2.76 7.197-6.635 11.27-10.668 11.27z" fill="#f0f0f0"/><path d="m331.012 253.441h-47.002v28.99h47.002z" fill="#e6e6e6"/><path d="m312.635 263.451h-9.3c-4.04 0-7.901-4.073-10.679-11.27h30.656c-2.776 7.197-6.639 11.27-10.677 11.27z" fill="#f0f0f0"/><path d="m381.517 253.441h-47.001v28.99h47.001z" fill="#e6e6e6"/><path d="m363.14 263.451h-9.299c-4.041 0-7.901-4.073-10.679-11.27h30.647c-2.773 7.197-6.63 11.27-10.669 11.27z" fill="#f0f0f0"/><path d="m186.35 175.742h-47.104v120.413h47.104z" fill="#e6e6e6"/><path d="m181.613 296.155h4.738v-16.398h-9.706z" fill="#f0f0f0"/><path d="m112.536 175.742h-47.1044v120.413h47.1044z" fill="#e6e6e6"/><path d="m186.352 175.742h-77.952v110.35h77.952z" fill="#f0f0f0"/><path d="m182.676 180.633h-70.6v30.263h70.6z" fill="#e6e6e6"/><path d="m154.289 190.038h-10.644c-4.623 0-9.042-3.734-12.221-10.325h35.085c-3.178 6.591-7.605 10.325-12.22 10.325z" fill="#f0f0f0"/><path d="m113.14 296.155h-4.738v-16.398h9.707z" fill="#f0f0f0"/><path d="m182.676 215.786h-70.6v30.263h70.6z" fill="#e6e6e6"/><path d="m154.289 225.191h-10.644c-4.623 0-9.042-3.733-12.221-10.325h35.085c-3.178 6.592-7.605 10.325-12.22 10.325z" fill="#f0f0f0"/><path d="m182.676 250.939h-70.6v30.263h70.6z" fill="#e6e6e6"/><path d="m154.289 260.344h-10.644c-4.623 0-9.042-3.733-12.221-10.324h35.085c-3.178 6.591-7.605 10.324-12.22 10.324z" fill="#f0f0f0"/><path d="m266.351 186.884h-18.15c-6.141 0-11.119 4.977-11.119 11.117v36.351c0 6.14 4.978 11.117 11.119 11.117h18.15c6.141 0 11.119-4.977 11.119-11.117v-36.351c0-6.14-4.978-11.117-11.119-11.117z" fill="#f5f5f5"/><path d="m341.895 212.873s-.997 32.596-39.173 32.596-39.173-32.596-39.173-32.596z" fill="#f0f0f0"/><path d="m35.8258 270.014h1.9374c-.0194-8.296.0107-11.073.2044-59.293.3523-87.399 1.0215-92.728 1.0215-92.728l-4.6393 40.348c-2.929 44.681.8613 71.314 1.476 111.673z" fill="#f0f0f0"/><path d="m35.3826 296.156c-6.0557 0-11.9289-2.072-16.6439-5.872-4.715-3.799-7.988-9.097-9.2754-15.013-.62392-3.185-1.52793-6.308-2.70171-9.334l-.19909-.484h57.6311l-.1989.484c-1.173 3.026-2.0772 6.149-2.7019 9.334-1.2867 5.915-4.5583 11.212-9.2715 15.011-4.7133 3.799-10.5845 5.872-16.6387 5.874z" fill="#fafafa"/><path d="m67.9343 268.369h-65.10432l-1.865136-14.088h68.832856z" fill="#f0f0f0"/><path d="m34.1509 191.681c11.3762-19.81-18.1112-26.905-27.67321-44.554-11.48537 13.944 14.34731 67.767 27.67321 44.554z" fill="#f0f0f0"/><path d="m36.3457 175.406c-4.3856-9.985 16.7321-22.095 21.2886-38.325 8.4189 9.369-8.3044 67.889-21.2886 38.325z" fill="#f0f0f0"/><path d="m36.1896 205.521c3.5701-12.586 24.017-3.507 34.4456-27.15 11.0873 33.389-44.3705 62.106-34.4456 27.15z" fill="#f0f0f0"/><path d="m37.0848 220.553c-.2342-11.965-13.2254-1.349-36.787984-22.649-4.205966 21.981 37.693284 68.835 36.787984 22.649z" fill="#f0f0f0"/><path d="m193.802 340.778c99.032 0 179.313-9.349 179.313-20.882s-80.281-20.882-179.313-20.882c-99.0324 0-179.3137 9.349-179.3137 20.882s80.2813 20.882 179.3137 20.882z" fill="#f5f5f5"/><path d="m177.172 309.134-1.186 9.95-19.509 14.704-13.494 1.731-3.219-3.894z" fill="#407bff"/><path d="m177.172 309.134-1.186 9.95-19.509 14.704-13.494 1.731-3.219-3.894z" fill="#000" opacity=".2"/><path d="m153.366 306.531 23.805 2.596-23.805 19.466-13.605 3.029-3.984-9.95z" fill="#407bff"/><path d="m161.46 228.599-13.361 35.79c-.229.613-.25 1.284-.06 1.909l13.738 45.199c.186.611.563 1.146 1.077 1.527.513.38 1.135.586 1.774.586h2.591c.472 0 .937-.111 1.357-.326.421-.214.784-.525 1.06-.908.277-.382.458-.824.53-1.29.072-.467.032-.943-.116-1.391l-14.299-43.247c-.235-.716-.192-1.495.122-2.18l14.901-32.371c.331-.718.363-1.537.089-2.279-.273-.741-.83-1.344-1.548-1.674-.154-.073-.314-.132-.479-.177l-3.801-1.009c-.718-.195-1.483-.114-2.145.227-.661.34-1.172.916-1.43 1.614z" fill="#263238"/><path d="m210.43 309.133 1.185 9.95 19.51 14.708 13.493 1.731 3.22-3.894z" fill="#407bff"/><path d="m210.43 309.133 1.185 9.95 19.51 14.708 13.493 1.731 3.22-3.894z" fill="#000" opacity=".2"/><path d="m234.235 306.531-23.805 2.596 23.805 19.466 13.604 3.029 3.984-9.95z" fill="#407bff"/><path d="m226.143 228.599 13.37 35.791c.229.612.25 1.283.06 1.909l-13.738 45.198c-.186.611-.563 1.147-1.076 1.527-.513.381-1.135.586-1.774.586h-2.591c-.79 0-1.548-.314-2.107-.873-.559-.558-.873-1.316-.873-2.107 0-.317.051-.633.15-.935l14.298-43.247c.235-.716.192-1.494-.122-2.18l-14.9-32.371c-.164-.355-.256-.739-.271-1.13-.016-.391.046-.782.182-1.149.135-.367.342-.704.608-.991s.585-.519.941-.683c.153-.073.313-.132.477-.176l3.801-1.009c.717-.192 1.479-.11 2.139.23.659.341 1.167.915 1.426 1.61z" fill="#263238"/><path d="m167.312 133.501c1.38-22.249-1.157-62.6923 40.669-57.3371 44.83 5.7374 32.004 58.1501 32.004 58.1501z" fill="#263238"/><path d="m212.366 93.0335c-4.103-9.2124-14.898-13.3553-24.111-9.2535s-13.356 14.895-9.253 24.107c4.103 9.213 14.898 13.356 24.112 9.254 9.213-4.102 13.355-14.895 9.252-24.1075z" fill="#fff"/><path d="m202.223 100.529c-.326 4.709-3.095 8.146-6.192 7.672-3.097-.475-5.325-4.674-5.013-9.3828.312-4.7085 3.094-8.1455 6.192-7.6721 3.098.4735 5.336 4.6752 5.013 9.3829z" fill="#263238"/><path d="m211.038 112.084c-2.299 3.034-5.448 5.318-9.046 6.564-3.598 1.245-7.485 1.396-11.169.432-3.685-.963-7-2.997-9.528-5.845-2.528-2.847-4.155-6.38-4.675-10.152-.52-3.7721.09-7.6134 1.753-11.0382 1.664-3.4249 4.306-6.2796 7.592-8.2031s7.069-2.8295 10.87-2.6034 7.45 1.5741 10.485 3.8736c2.016 1.5268 3.711 3.4358 4.989 5.6176 1.277 2.1819 2.113 4.594 2.458 7.0987.345 2.5048.194 5.0528-.446 7.4988s-1.755 4.742-3.283 6.757zm-29.111-22.0528c-2.063 2.7217-3.273 5.994-3.476 9.4032-.203 3.4096.61 6.8016 2.336 9.7496 1.725 2.947 4.286 5.317 7.359 6.809 3.072 1.493 6.518 2.04 9.902 1.574 3.383-.465 6.553-1.924 9.107-4.191 2.554-2.268 4.379-5.241 5.243-8.545s.729-6.7904-.389-10.0178c-1.117-3.2273-3.167-6.0509-5.889-8.1136-3.653-2.7596-8.251-3.9578-12.786-3.332-4.535.6257-8.636 3.0245-11.404 6.67z" fill="#407bff"/><path d="m234.888 132.943c-.04-.001-.08-.005-.118-.014-.128-.032-.238-.112-.307-.224-.068-.112-.09-.247-.06-.375 1.868-8.979 1.838-18.249-.09-27.215-.033-.127-.015-.263.051-.377.067-.114.176-.197.303-.23.128-.034.264-.016.378.051.113.066.196.175.23.303v.019c1.962 9.119 1.992 18.548.09 27.68-.025.108-.086.204-.172.274-.087.069-.194.107-.305.108z" fill="#fff" opacity=".3"/><path d="m232.122 97.6676c-.095-.0003-.188-.0278-.268-.0793s-.144-.1248-.184-.2113c-1.239-2.7259-2.822-5.2819-4.71-7.6058-.077-.1026-.112-.2313-.097-.3591s.08-.2446.179-.3259c.1-.0813.228-.1207.356-.1098.128.0108.247.071.332.1679 1.943 2.3881 3.57 5.0159 4.843 7.8189.035.0756.051.1588.045.2419s-.032.1634-.077.2336c-.045.0701-.107.1279-.18.1679s-.155.0609-.239.061z" fill="#fff" opacity=".3"/><path d="m84.5061 111.81c-.1407.022-.2795.054-.4156.096-.3742.115-.7222.302-1.024.551s-.5515.555-.735.9c-.1835.346-.297.724-.3342 1.114-.0372.389.0027.782.1175 1.156 1.4623 4.773 3.4657 23.2-.5031 38.398-.175.671-.1105 1.382.1826 2.011.2931.628.7962 1.135 1.4228 1.433 14.8739 7.057 43.6799 3.671 44.8989 3.522.787-.078 1.51-.466 2.011-1.077.5-.612.738-1.397.659-2.183-.078-.787-.466-1.51-1.077-2.01-.612-.501-1.397-.738-2.184-.66-.042.004-.084.009-.126.016-.266.031-25.451 2.989-39.4208-2.077 3.2663-15.03 1.7396-32.878-.1761-39.118-.2091-.683-.6572-1.268-1.2624-1.649-.6051-.38-1.3269-.531-2.0336-.423z" fill="#263238"/><path d="m90.0473 114.849c-1.2357 4.922-10.1432 5.78-15.9426 2.634-3.6224-2.477-6.5763-5.81-8.5989-9.704-.1649-.432-.243-.893-.2299-1.355s.1173-.918.3064-1.34.4596-.803.7959-1.121c.3364-.317.7319-.565 1.1642-.73.4024-.154.8298-.232 1.2607-.23 3.4288-.238 8.8435 3.953 8.8435 3.953-3.5636-2.545.0883-5.308 6.7196-1.86 3.6853 1.916 7.0639 4.24 5.6811 9.753z" fill="#407bff"/><path d="m247.786 240.157-117.008-3.875-4.856-113.433 138.173 3.088z" fill="#407bff"/><path d="m167.32 237.985c-.124 0-.244-.047-.335-.131-.092-.084-.149-.199-.16-.323l-9.379-113.938c-.008-.129.036-.257.121-.355s.205-.159.334-.17c.13-.011.258.03.358.113s.164.202.177.331l9.379 113.929c.009.13-.034.258-.119.357s-.205.16-.335.171z" fill="#263238"/><path d="m247.785 240.157 31.45-4.787 9.905-105.484-25.044-3.959z" fill="#407bff"/><path d="m247.785 240.157 31.45-4.787 9.905-105.484-25.044-3.959z" fill="#000" opacity=".2"/><path d="m140.775 214.414-2.885-67.394c-.138-3.229 1.012-6.38 3.198-8.761 2.186-2.38 5.227-3.796 8.457-3.934.264-.011.528-.014.792 0l87.466 1.954c1.724.037 3.421.439 4.978 1.18 1.558.741 2.94 1.804 4.056 3.119 1.115 1.316 1.939 2.853 2.416 4.51s.596 3.397.35 5.103l-9.697 67.919c-.425 2.973-1.932 5.684-4.233 7.613-2.301 1.93-5.234 2.942-8.235 2.842l-74.883-2.481c-3.075-.1-5.997-1.358-8.182-3.522-2.185-2.165-3.47-5.076-3.598-8.148z" fill="#263238"/><path d="m211.934 213.123c-.104 0-.207-.022-.303-.064-.095-.042-.181-.104-.252-.181l-4.907-5.369-5.294 4.836c-.147.133-.34.202-.538.193s-.384-.095-.519-.241l-4.907-5.369-5.294 4.836c-.147.132-.341.201-.538.192-.198-.009-.384-.095-.519-.24l-4.907-5.369-5.294 4.836c-.147.132-.341.202-.539.193-.197-.009-.384-.095-.518-.241l-4.907-5.369-5.295 4.835c-.07.073-.154.13-.246.17-.093.039-.193.059-.294.059-.1 0-.2-.02-.293-.06-.092-.039-.176-.096-.247-.169-.07-.072-.125-.158-.161-.252s-.053-.194-.05-.295c.003-.1.026-.199.068-.291.043-.091.103-.173.177-.241l.032-.03 5.837-5.339c.146-.134.34-.204.538-.195s.385.096.519.242l4.907 5.37 5.294-4.836c.147-.133.34-.203.538-.194.198.008.384.094.519.24l4.905 5.369 5.294-4.836c.147-.133.341-.202.539-.193.197.009.384.095.518.241l4.905 5.369 5.295-4.836c.147-.133.34-.202.538-.193s.384.095.519.241l5.414 5.924c.098.108.163.241.187.385.023.144.005.292-.054.425-.059.134-.155.247-.277.327-.122.079-.265.122-.411.122z" fill="#fff"/><path d="m285.915 159.516c-1.184 8.046-7.846 13.979-13.268 13.183-5.421-.796-5.646-7.983-4.463-16.025 1.184-8.043 3.327-13.912 8.748-13.108 5.422.805 10.17 7.904 8.983 15.95z" fill="#263238"/><path d="m154.822 127.396c.449 0 .813-.365.813-.814s-.364-.813-.813-.813c-.45 0-.814.364-.814.813s.364.814.814.814z" fill="#263238"/><path d="m163.098 132.444c0 .161-.048.319-.137.452-.089.134-.216.239-.365.3-.149.062-.312.078-.47.046-.158-.031-.303-.108-.417-.222s-.191-.259-.223-.417c-.031-.158-.015-.321.047-.47.061-.149.166-.276.299-.365.134-.089.291-.137.452-.137.216 0 .423.086.576.238.152.153.238.36.238.575z" fill="#263238"/><path d="m164.01 228.68c0 .161-.048.318-.137.452s-.216.238-.365.299c-.149.062-.312.078-.47.047-.158-.032-.303-.109-.417-.223s-.191-.259-.223-.416c-.031-.158-.015-.322.047-.471.061-.148.166-.275.299-.365.134-.089.292-.137.453-.137.215 0 .422.086.575.239.152.152.238.359.238.575z" fill="#263238"/><path d="m171.457 234.542c0 .161-.047.318-.137.452-.089.134-.216.238-.365.3-.149.061-.312.077-.47.046s-.303-.109-.417-.223c-.114-.113-.191-.258-.222-.416-.032-.158-.016-.322.046-.47.062-.149.166-.276.3-.365.133-.09.291-.137.452-.137.215 0 .423.085.575.238.153.152.238.359.238.575z" fill="#263238"/><path d="m182.853 187.041c-1.778-3.232-2.71-6.861-2.71-10.55 0-3.688.932-7.317 2.71-10.549.867-1.031 1.929-1.881 3.125-2.501 1.196-.621 2.502-.999 3.844-1.115s2.694.034 3.978.441 2.476 1.063 3.507 1.93c.45.378.867.795 1.245 1.245 1.788 3.228 2.728 6.857 2.731 10.547.004 3.69-.93 7.32-2.712 10.552-.965 1.143-2.169 2.062-3.526 2.692-1.358.63-2.836.957-4.333.957-1.496 0-2.975-.327-4.332-.957-1.358-.63-2.561-1.549-3.527-2.692zm10.568-3.85c1.101-4.399 1.101-9.001 0-13.399-.165-.591-.518-1.112-1.006-1.484s-1.084-.574-1.698-.576-1.211.196-1.702.564c-.49.368-.848.887-1.017 1.476-1.101 4.405-1.101 9.013 0 13.417.167.591.522 1.11 1.012 1.48.489.37 1.086.571 1.7.571.613 0 1.21-.201 1.699-.571.49-.37.845-.889 1.012-1.48z" fill="#fff"/><path d="m320.536 111.809c.141.022.28.054.416.096.374.115.722.302 1.024.551s.552.555.735.9c.183.346.297.724.334 1.114.037.389-.003.782-.117 1.156-1.463 4.773-3.466 23.2.503 38.398.175.671.11 1.382-.183 2.011-.293.628-.796 1.135-1.423 1.433-14.875 7.056-43.681 3.669-44.902 3.523-.787-.078-1.51-.466-2.011-1.077s-.738-1.397-.66-2.183c.079-.787.466-1.51 1.078-2.01.611-.501 1.397-.738 2.183-.66.042.004.085.009.126.016.266.031 25.452 2.989 39.421-2.077-3.266-15.03-1.739-32.878.177-39.118.209-.684.657-1.27 1.263-1.651s1.329-.531 2.036-.422z" fill="#263238"/><path d="m314.994 114.848c1.236 4.923 10.143 5.781 15.942 2.635 3.623-2.477 6.577-5.81 8.599-9.704.165-.432.243-.893.23-1.355-.013-.463-.117-.918-.306-1.34s-.46-.803-.796-1.121c-.336-.317-.732-.566-1.164-.73-.403-.154-.83-.232-1.261-.23-3.429-.238-8.843 3.953-8.843 3.953 3.563-2.545-.089-5.308-6.72-1.86-3.685 1.916-7.063 4.238-5.681 9.752z" fill="#407bff"/></svg>