<svg height="310" viewBox="0 0 310 310" width="310" xmlns="http://www.w3.org/2000/svg">
    <path d="m0 0h310v310h-310z" fill="none" />
    <path
        d="m586.224 187.963h1.105c-.011-4.711.006-6.288.116-33.67.2-49.63.58-52.656.58-52.656l-2.634 22.912c-1.668 25.371.484 40.495.833 63.414z"
        fill="#f0f0f0" transform="translate(-313.267 40.849)" />
    <path
        d="m574.252 267.554a15.061 15.061 0 0 1 -14.716-11.86 31.384 31.384 0 0 0 -1.534-5.3l-.113-.275h32.726l-.113.275a31.333 31.333 0 0 0 -1.534 5.3 15.061 15.061 0 0 1 -14.716 11.86z"
        fill="#fafafa" transform="translate(-301.547 -23.898)" />
    <g fill="#f0f0f0">
        <path d="m590.277 246.867h-36.964l-1.059-8h39.081z" transform="translate(-299.09 -18.99)" />
        <path
            d="m572.256 156.268c6.459-11.249-10.283-15.278-15.712-25.3-6.521 7.918 8.146 38.48 15.712 25.3z"
            transform="translate(-300.251 28.061)" />
        <path
            d="m587.614 142.618c-2.49-5.67 9.5-12.547 12.087-21.763 4.78 5.32-4.715 38.551-12.087 21.763z"
            transform="translate(-314.362 32.469)" />
        <path
            d="m587.187 177.85c2.027-7.147 13.636-1.991 19.557-15.417 6.299 18.96-25.188 35.267-19.557 15.417z"
            transform="translate(-314.028 14.338)" />
        <path
            d="m572.338 194.963c-.133-6.794-7.509-.766-20.887-12.861-2.388 12.482 21.401 39.088 20.887 12.861z"
            transform="translate(-298.667 5.761)" />
    </g>
    <path d="m93.857 193.233h77.227v59.564h-77.227z" fill="#ebebeb" />
    <path
        d="m1296.439 527.6c-.107 0-.193-13.277-.193-29.651s.086-29.654.193-29.654.193 13.274.193 29.654-.086 29.651-.193 29.651z"
        fill="#e0e0e0" transform="translate(-1144.704 -275.226)" />
    <path d="m158.615 239.239h5.921v6.693h-5.921z" fill="#fafafa" />
    <path d="m117.417 193.386h8.772v12.71h-8.772z" fill="#e0e0e0" />
    <path d="m117.417 239.91h8.772v12.71h-8.772z" fill="#e0e0e0" />
    <ellipse cx="150.346" cy="262.1" fill="#f5f5f5" rx="129.808" ry="19.951" />
    <g transform="translate(150.346 52.538)">
        <path d="m0 0h106.832v90.93h-106.832z" fill="#e6e6e6" />
        <path d="m1.629 0h108.69v90.93h-108.69z" fill="#f0f0f0" />
        <path d="m0 90.93h106.832v6.479h-106.832z" fill="#e6e6e6" />
        <path d="m7.438 90.93h108.69v6.479h-108.69z" fill="#f0f0f0" />
        <path d="m0 0h81.167v98.927h-81.167z" fill="#fafafa"
            transform="matrix(0 1 -1 0 105.437 4.881)" />
        <path d="m1388.352 366.513 7.817-81.167h13.525l-7.817 81.167z" fill="#fff"
            transform="translate(-1318.863 -280.465)" />
        <path
            d="m1306.332 339.977a.373.373 0 0 1 -.373-.374v-50.103a.373.373 0 1 1 .747 0v50.1a.374.374 0 0 1 -.374.377z"
            fill="#f0f0f0" transform="translate(-1297.561 -281.442)" />
        <path d="m1410.511 366.513 7.817-81.167h5.273l-7.817 81.167z" fill="#fff"
            transform="translate(-1324.592 -280.465)" />
        <path d="m0 0h81.167v.62h-81.167z" fill="#e6e6e6"
            transform="matrix(0 1 -1 0 105.438 4.881)" />
        <g fill="#e0e0e0">
            <path d="m1407.568 294.858h-106.832l-.449-6.953h106.832z" opacity=".5"
                transform="translate(-1296.095 -281.126)" />
            <path d="m1407.568 310.273h-106.832l-.449-6.953h106.832z" opacity=".5"
                transform="translate(-1296.095 -285.112)" />
            <path d="m1407.568 325.688h-106.832l-.449-6.953h106.832z" opacity=".5"
                transform="translate(-1296.095 -289.097)" />
            <path d="m1407.568 341.1h-106.832l-.449-6.953h106.832z" opacity=".5"
                transform="translate(-1296.095 -293.082)" />
            <path d="m1407.568 356.518h-106.832l-.449-6.953h106.832z" opacity=".5"
                transform="translate(-1296.095 -297.068)" />
            <path d="m1407.568 371.933h-106.832l-.449-6.953h106.832z" opacity=".5"
                transform="translate(-1296.095 -301.053)" />
        </g>
    </g>
    <path
        d="m1374.189 330.456s-.2 0-.58-.007a14.109 14.109 0 0 0 -1.7.009 18.866 18.866 0 0 0 -6.319 1.457 19.437 19.437 0 0 0 -8.024 6.254 17.436 17.436 0 0 0 -2.8 5.731 19.258 19.258 0 0 0 1.975 14.585 16.714 16.714 0 0 0 2.523 3.346 13.508 13.508 0 0 0 3.411 2.669 8.358 8.358 0 0 0 4.28 1.077 6.159 6.159 0 0 0 4.145-1.671 6 6 0 0 0 1.652-4.275 7.844 7.844 0 0 0 -1.5-4.543 15.545 15.545 0 0 0 -8.35-5.506 20.541 20.541 0 0 0 -10.532-.146 21.813 21.813 0 0 0 -5.072 2.016 18.386 18.386 0 0 0 -4.354 3.416c-.3.354-.65.672-.921 1.055l-.837 1.13a19.681 19.681 0 0 0 -2.978 7.938 20.708 20.708 0 0 0 1.5 11.123 17.123 17.123 0 0 0 7.159 8.122 11.784 11.784 0 0 0 5.07 1.541 9 9 0 0 0 5-1.2 7.894 7.894 0 0 0 3.385-3.687 6.713 6.713 0 0 0 .077-4.848 9.681 9.681 0 0 0 -2.788-3.942 12.645 12.645 0 0 0 -4.1-2.383 15.926 15.926 0 0 0 -9.027-.156 17.614 17.614 0 0 0 -7.4 4.128 16.893 16.893 0 0 0 -4.245 6.578 19.055 19.055 0 0 0 .194 13.322 20.161 20.161 0 0 0 6.109 8.149 21.53 21.53 0 0 0 5.612 3.269c.7.265 1.234.454 1.6.558s.55.182.55.182-.192-.043-.561-.145-.916-.268-1.62-.523a21.1 21.1 0 0 1 -5.678-3.224 20.23 20.23 0 0 1 -6.216-8.187 19.255 19.255 0 0 1 -.251-13.494 17.159 17.159 0 0 1 4.3-6.7 17.917 17.917 0 0 1 7.526-4.221 16.238 16.238 0 0 1 9.22.145 12.976 12.976 0 0 1 4.22 2.442 10.034 10.034 0 0 1 2.894 4.085 7.076 7.076 0 0 1 -.077 5.107 8.257 8.257 0 0 1 -3.536 3.867 9.364 9.364 0 0 1 -5.207 1.255 12.155 12.155 0 0 1 -5.234-1.584 17.493 17.493 0 0 1 -7.327-8.3 21.088 21.088 0 0 1 -1.527-11.332 20.056 20.056 0 0 1 3.039-8.1l.856-1.156c.277-.391.63-.718.942-1.078a18.746 18.746 0 0 1 4.447-3.486 22.175 22.175 0 0 1 5.168-2.051 20.892 20.892 0 0 1 10.726.159 15.885 15.885 0 0 1 8.539 5.657 8.189 8.189 0 0 1 1.56 4.747 6.335 6.335 0 0 1 -1.761 4.515 6.489 6.489 0 0 1 -4.372 1.76 8.685 8.685 0 0 1 -4.444-1.126 13.8 13.8 0 0 1 -3.483-2.737 17.036 17.036 0 0 1 -2.558-3.411 19.5 19.5 0 0 1 -1.954-14.8 17.634 17.634 0 0 1 2.864-5.8 19.5 19.5 0 0 1 8.141-6.263 18.539 18.539 0 0 1 6.372-1.4 12.534 12.534 0 0 1 1.7.029c.382.037.577.059.577.059z"
        fill="#263238" transform="translate(-1153.813 -239.565)" />
    <path d="m141.119 175.146h103.961v80.184h-103.961z" fill="#e8505b" />
    <path d="m1282.189 444.122 19.2 17.91h102.2l-17.44-17.91z" fill="#e8505b"
        transform="translate(-1141.07 -268.976)" />
    <path
        d="m1282.189 444.056 103.961-.19h.08l.056.058 17.262 17.723.179.184.32.328h-.458l-102.2-.076h-.047l-.033-.032-19.123-17.995 19.281 17.825-.079-.031 102.2-.076-.139.328-.179-.185-17.257-17.728.135.057z"
        fill="#263238" transform="translate(-1141.07 -268.91)" />
    <path d="m1323.562 493.988a2.129 2.129 0 1 0 .16.006" fill="#263238"
        transform="translate(-1151.218 -281.868)" />
    <path d="m1356.668 493.988a2.128 2.128 0 1 0 .16.006" fill="#263238"
        transform="translate(-1159.777 -281.868)" />
    <path
        d="m1348.86 516.122a15.124 15.124 0 0 0 -2.058-4.609 13.606 13.606 0 0 0 -3.927-3.768 11.993 11.993 0 0 0 -12.7-.348 13.6 13.6 0 0 0 -4.129 3.548 15.109 15.109 0 0 0 -2.307 4.489 1.238 1.238 0 0 1 .061-.351 7.817 7.817 0 0 1 .272-.985 11.869 11.869 0 0 1 1.756-3.319 13.521 13.521 0 0 1 4.171-3.692 12.179 12.179 0 0 1 13.069.358 13.512 13.512 0 0 1 3.961 3.915 11.863 11.863 0 0 1 1.573 3.411 7.917 7.917 0 0 1 .218 1 1.2 1.2 0 0 1 .04.351z"
        fill="#263238" transform="translate(-1151.811 -284.808)" />
    <path d="m1282.507 445.311 18.385 23.311h85.34v-6.282h-84.759z" opacity=".5"
        transform="translate(-1141.153 -269.283)" />
    <path
        d="m1394.684 530.294c-.107 0-.193-13.947-.193-31.147s.086-31.15.193-31.15.193 13.944.193 31.15-.086 31.147-.193 31.147z"
        fill="#263238" transform="translate(-1170.104 -275.148)" />
    <path d="m231.74 236.969h9.164v10.359h-9.164z" fill="#f5f5f5" />
    <path d="m1274.747 444.122-21.344 17.91h21.344z" fill="#e8505b"
        transform="translate(-1133.628 -268.976)" />
    <path d="m1274.747 444.122-21.344 17.91h21.344z" opacity=".4"
        transform="translate(-1133.628 -268.976)" />
    <path d="m1187.939 540.851-.885 7.429-14.564 10.981-10.072 1.292-2.4-2.907z" fill="#407bff"
        transform="translate(-1107.253 -293.5)" />
    <path d="m1187.939 540.851-.885 7.429-14.564 10.981-10.072 1.292-2.4-2.907z" opacity=".2"
        transform="translate(-1107.253 -293.5)" />
    <path d="m1169.131 538.237 17.771 1.938-17.771 14.534-10.156 2.261-2.975-7.428z" fill="#407bff"
        transform="translate(-1106.216 -292.824)" />
    <path
        d="m1178.329 459.262-9.98 26.722a2.229 2.229 0 0 0 -.044 1.425l10.252 33.746a2.224 2.224 0 0 0 2.128 1.578h1.934a2.225 2.225 0 0 0 2.112-2.923l-10.674-32.289a2.228 2.228 0 0 1 .091-1.628l11.123-24.169a2.225 2.225 0 0 0 -1.449-3.08l-2.837-.753a2.225 2.225 0 0 0 -2.656 1.371z"
        fill="#263238" transform="translate(-1109.372 -272.032)" />
    <path d="m1224.356 558.057.885 7.429 14.564 10.981 10.073 1.292 2.4-2.907z" fill="#407bff"
        transform="translate(-1126.118 -298.432)" />
    <path d="m1224.356 558.057.885 7.429 14.564 10.981 10.073 1.292 2.4-2.907z" opacity=".2"
        transform="translate(-1126.118 -298.432)" />
    <path d="m1242.126 555.443-17.771 1.938 17.771 14.534 10.156 2.261 2.974-7.429z" fill="#407bff"
        transform="translate(-1126.118 -297.756)" />
    <path
        d="m1237.682 476.468 9.98 26.722a2.226 2.226 0 0 1 .044 1.424l-10.251 33.746a2.224 2.224 0 0 1 -2.128 1.578h-1.934a2.224 2.224 0 0 1 -2.112-2.923l10.674-32.288a2.227 2.227 0 0 0 -.091-1.628l-11.123-24.169a2.225 2.225 0 0 1 1.449-3.08l2.837-.753a2.225 2.225 0 0 1 2.655 1.371z"
        fill="#263238" transform="translate(-1127.715 -276.964)" />
    <path
        d="m1298.5 423.048a2.218 2.218 0 0 1 -1.344-.453c-7.708-5.858-18.125-16.257-22.123-26.29a2.225 2.225 0 0 1 -.127-.455c-1.949-11.591-3.812-35.991-3.89-37.024a2.224 2.224 0 1 1 4.435-.336c.019.249 1.9 24.888 3.8 36.386 3.988 9.755 14.8 19.772 20.595 24.177a2.225 2.225 0 0 1 -1.348 4z"
        fill="#263238" transform="translate(-1138.18 -246.305)" />
    <path
        d="m1311.453 446.737a10.281 10.281 0 0 1 -5.794-2.317 2.225 2.225 0 0 1 2.609-3.6c1.837 1.329 2.84 1.473 3.185 1.473a2.224 2.224 0 1 1 0 4.449z"
        fill="#263238" transform="translate(-1146.9 -268.012)" />
    <path
        d="m1306.785 443.826c2.38-7.071 12.138-5.674 15.5-4.624a35.67 35.67 0 0 1 8.207 3.561c1.82 1.19 1.849 3.177-.578 4.312-2.993 1.4-10.5.158-10.5.158 3.886 1.7-.008 4.428-6.825 1.75-2.221-.871-6.645-2.568-5.804-5.157z"
        fill="#407bff" transform="translate(-1147.402 -267.481)" />
    <path
        d="m1278.764 371.1c-.884 6.007-5.858 10.437-9.9 9.842s-4.215-5.96-3.332-11.967 2.484-10.381 6.53-9.787 7.585 5.903 6.702 11.912z"
        fill="#263238" transform="translate(-1136.65 -247.003)" />
    <path d="m1167.884 450.608a.608.608 0 1 1 -.608-.607.608.608 0 0 1 .608.607z" fill="#263238"
        transform="translate(-1111.203 -270.496)" />
    <path
        d="m1229.066 352.354c7.451-14.882 17.53-43.408 44.7-27.507 29.117 17.045 4.986 49.305 4.986 49.305z"
        fill="#263238" transform="translate(-1127.335 -236.93)" />
    <circle cx="148.086" cy="114.125" fill="#fff" r="13.625" />
    <path
        d="m1295.339 345.65a13.951 13.951 0 0 0 -18.559 3.368l23.691 10.142c1.603-5.331-3.121-12.303-5.132-13.51z"
        fill="#263238" transform="translate(-1139.671 -242.961)" />
    <path
        d="m1302.175 368.193c-1.728 3.12-4.7 4.779-6.638 3.706s-2.106-4.473-.377-7.593 4.7-4.779 6.637-3.706 2.103 4.473.378 7.593z"
        fill="#263238" transform="translate(-1144.115 -247.298)" />
    <path
        d="m1280.267 369.721a14.366 14.366 0 1 1 19.216-6.6 14.382 14.382 0 0 1 -19.216 6.6zm11.966-24.48a12.883 12.883 0 1 0 5.917 17.232 12.9 12.9 0 0 0 -5.916-17.232z"
        fill="#407bff" transform="translate(-1138.49 -242.69)" />
    <path
        d="m1244.015 354.9a.389.389 0 0 0 .082.03.371.371 0 0 0 .446-.277 49.105 49.105 0 0 1 9.192-18.121.371.371 0 1 0 -.566-.479 49.9 49.9 0 0 0 -9.348 18.431.37.37 0 0 0 .194.416z"
        fill="#fff" opacity=".3" transform="translate(-1131.147 -241.003)" />
    <path
        d="m1262.469 329.561a.369.369 0 0 0 .4-.042 26.188 26.188 0 0 1 5.693-3.492.371.371 0 0 0 -.3-.677 26.9 26.9 0 0 0 -5.854 3.59.369.369 0 0 0 -.058.521.374.374 0 0 0 .119.1z"
        fill="#fff" opacity=".3" transform="translate(-1135.918 -238.261)" />
    <path d="m1213.552 448.952-62.985-29.944 30.5-79.064 74.813 34.338z" fill="#407bff"
        transform="translate(-1107.041 -242.042)" />
    <path
        d="m1176.839 431.348a.333.333 0 0 1 -.138-.429l28.162-80.459a.355.355 0 0 1 .406-.262.326.326 0 0 1 .161.437l-28.162 80.459a.355.355 0 0 1 -.406.262z"
        fill="#263238" transform="translate(-1113.791 -244.691)" />
    <path d="m1232.457 459.961 23 5.9 37.635-69.57-16.046-10.039z" fill="#407bff"
        transform="translate(-1128.212 -254.016)" />
    <path d="m1232.457 459.961 23 5.9 37.635-69.57-16.046-10.039z" opacity=".2"
        transform="translate(-1128.212 -254.016)" />
    <ellipse cx=".608" cy=".485" fill="#263238" rx=".608" ry=".485"
        transform="matrix(.39150215 -.92017719 .92017719 .39150215 88.083 107.577)" />
    <path d="m1215.056 360.258a.5.5 0 1 1 -.208-.749.557.557 0 0 1 .208.749z" fill="#263238"
        transform="translate(-1123.467 -247.092)" />
    <path d="m1177.791 449.714a.5.5 0 1 1 -.208-.749.558.558 0 0 1 .208.749z" fill="#263238"
        transform="translate(-1113.833 -270.22)" />
    <path
        d="m1326.526 456.353a2.143 2.143 0 0 1 -1.231.182c-8.137-1.28-19.958-4.774-26.495-10.411a1.581 1.581 0 0 1 -.253-.276c-5.405-7.513-14.983-24.165-15.388-24.87a1.827 1.827 0 0 1 .858-2.464 1.915 1.915 0 0 1 2.6.564c.1.17 9.768 16.986 15.105 24.449 6.436 5.444 18.445 8.519 24.566 9.48a1.615 1.615 0 0 1 1.374 2.058 2.068 2.068 0 0 1 -1.136 1.288z"
        fill="#263238" transform="translate(-1141.267 -262.285)" />
    <path
        d="m1343.349 470.381a10.276 10.276 0 0 1 -5.794-2.317 2.224 2.224 0 1 1 2.608-3.6c1.837 1.329 2.84 1.473 3.186 1.473a2.224 2.224 0 1 1 0 4.449z"
        fill="#263238" transform="translate(-1155.146 -274.125)" />
    <path
        d="m1338.681 467.47c2.379-7.07 12.138-5.673 15.5-4.623a35.662 35.662 0 0 1 8.208 3.561c1.82 1.189 1.849 3.177-.578 4.312-2.993 1.4-10.5.158-10.5.158 3.886 1.7-.008 4.428-6.825 1.75-2.222-.872-6.646-2.568-5.805-5.158z"
        fill="#407bff" transform="translate(-1155.647 -273.594)" />
    <path
        d="m1292.366 422.537c-3.321 5.083-9.695 7.018-13.119 4.78s-1.327-7.178 1.995-12.261 6.609-8.383 10.033-6.145 4.412 8.544 1.091 13.626z"
        fill="#263238" transform="translate(-1139.856 -259.689)" />
</svg>