<svg version="1.1" id="Layer_1" xmlns="http://www.w3.org/2000/svg" xmlns:xlink="http://www.w3.org/1999/xlink" x="0px" y="0px"
	 width="100%" viewBox="0 0 1080 1440" enable-background="new 0 0 1080 1440" xml:space="preserve">
<path fill="#D9D9D9" opacity="1.000000" stroke="none" 
	d="
M1.000000,1440.000000 
	C1.000000,960.382080 1.000000,480.764099 1.000000,1.073077 
	C360.914703,1.073077 720.829407,1.073077 1081.000000,1.073077 
	C1081.000000,480.366028 1081.000000,959.732056 1080.789307,1439.673096 
	C1080.264648,1440.405396 1080.071777,1440.656006 1080.000000,1441.000000 
	C720.967285,1441.000000 361.934540,1441.000000 2.351622,1440.777100 
	C1.561185,1440.330566 1.294040,1440.145874 1.000000,1440.000000 
M805.969482,589.500000 
	C805.969543,567.668152 805.972351,545.836243 805.968262,524.004395 
	C805.966553,514.759155 803.266113,511.990967 794.219116,511.990967 
	C625.895203,511.990814 457.571320,511.992706 289.247406,512.000061 
	C278.339233,512.000549 276.031097,514.305664 276.031006,525.094543 
	C276.029877,656.087219 276.030121,787.079895 276.029968,918.072571 
	C276.029968,919.072510 275.988495,920.074341 276.035461,921.072083 
	C276.285156,926.375732 279.568695,929.723206 284.812317,929.979614 
	C286.475159,930.060974 288.144836,930.008301 289.811371,930.008301 
	C457.635315,930.008850 625.459290,930.008667 793.283203,930.008240 
	C803.574646,930.008240 805.973083,927.644470 805.973083,917.481689 
	C805.972778,808.487793 805.970886,699.493896 805.969482,589.500000 
z"/>
<path fill="#FEFEFE" opacity="1.000000" stroke="none" 
	d="
M1.000000,1440.500000 
	C1.294040,1440.145874 1.561185,1440.330566 1.900717,1440.777100 
	C1.666667,1441.000000 1.333333,1441.000000 1.000000,1440.500000 
z"/>
<path fill="#FEFEFE" opacity="1.000000" stroke="none" 
	d="
M1080.500000,1441.000000 
	C1080.071777,1440.656006 1080.264648,1440.405396 1080.789307,1440.124023 
	C1081.000000,1440.333374 1081.000000,1440.666626 1080.500000,1441.000000 
z"/>
<path fill="#8C8C8C" opacity="1.000000" stroke="none" 
	d="
M805.969482,590.000000 
	C805.970886,699.493896 805.972778,808.487793 805.973083,917.481689 
	C805.973083,927.644470 803.574646,930.008240 793.283203,930.008240 
	C625.459290,930.008667 457.635315,930.008850 289.811371,930.008301 
	C288.144836,930.008301 286.475159,930.060974 284.812317,929.979614 
	C279.568695,929.723206 276.285156,926.375732 276.035461,921.072083 
	C275.988495,920.074341 276.029968,919.072510 276.029968,918.072571 
	C276.030121,787.079895 276.029877,656.087219 276.031006,525.094543 
	C276.031097,514.305664 278.339233,512.000549 289.247406,512.000061 
	C457.571320,511.992706 625.895203,511.990814 794.219116,511.990967 
	C803.266113,511.990967 805.966553,514.759155 805.968262,524.004395 
	C805.972351,545.836243 805.969543,567.668152 805.969482,590.000000 
M642.933594,746.452698 
	C680.098999,784.961487 717.264465,823.470276 754.429871,861.979065 
	C754.879211,861.800171 755.328552,861.621338 755.777893,861.442444 
	C755.777893,859.354126 755.777832,857.265747 755.777893,855.177368 
	C755.779114,759.706116 755.781494,664.234863 755.778992,568.763611 
	C755.778809,562.218079 755.761902,562.204285 749.141724,562.204163 
	C610.350159,562.200745 471.558624,562.199951 332.767090,562.201965 
	C326.247467,562.202026 326.242371,562.216064 326.242096,568.859802 
	C326.238281,660.498901 326.234650,752.137939 326.244019,843.777039 
	C326.244171,845.344788 326.405762,846.912598 326.492004,848.480347 
	C326.990204,848.772766 327.488373,849.065186 327.986572,849.357605 
	C328.301544,848.582947 328.469208,847.698364 328.953278,847.049866 
	C337.812561,835.181824 346.751373,823.372986 355.591431,811.490723 
	C384.902191,772.093079 414.172211,732.665100 443.477356,693.263245 
	C449.751801,684.827026 450.656372,684.830078 457.127319,692.819397 
	C488.867065,732.006470 520.628540,771.176086 552.307678,810.412109 
	C554.515015,813.145935 555.992615,813.264038 558.670044,810.890198 
	C583.327698,789.027954 608.152588,767.354370 632.798828,745.479309 
	C636.509338,742.185974 639.379639,742.100525 642.933594,746.452698 
z"/>
<path fill="#D9D9D9" opacity="1.000000" stroke="none" 
	d="
M642.670166,746.198975 
	C639.379639,742.100525 636.509338,742.185974 632.798828,745.479309 
	C608.152588,767.354370 583.327698,789.027954 558.670044,810.890198 
	C555.992615,813.264038 554.515015,813.145935 552.307678,810.412109 
	C520.628540,771.176086 488.867065,732.006470 457.127319,692.819397 
	C450.656372,684.830078 449.751801,684.827026 443.477356,693.263245 
	C414.172211,732.665100 384.902191,772.093079 355.591431,811.490723 
	C346.751373,823.372986 337.812561,835.181824 328.953278,847.049866 
	C328.469208,847.698364 328.301544,848.582947 327.986572,849.357605 
	C327.488373,849.065186 326.990204,848.772766 326.492004,848.480347 
	C326.405762,846.912598 326.244171,845.344788 326.244019,843.777039 
	C326.234650,752.137939 326.238281,660.498901 326.242096,568.859802 
	C326.242371,562.216064 326.247467,562.202026 332.767090,562.201965 
	C471.558624,562.199951 610.350159,562.200745 749.141724,562.204163 
	C755.761902,562.204285 755.778809,562.218079 755.778992,568.763611 
	C755.781494,664.234863 755.779114,759.706116 755.777893,855.177368 
	C755.777832,857.265747 755.777893,859.354126 755.777893,861.442444 
	C755.328552,861.621338 754.879211,861.800171 754.429871,861.979065 
	C717.264465,823.470276 680.098999,784.961487 642.670166,746.198975 
M662.064697,666.511353 
	C668.264404,657.519714 670.617676,647.778076 669.261841,636.777527 
	C666.330994,612.997314 641.929565,596.229919 618.865173,602.582642 
	C593.973755,609.438660 581.495422,634.366577 590.919067,658.410400 
	C597.365845,674.858948 615.890625,685.501648 633.451721,683.215576 
	C645.158203,681.691589 654.420349,676.286377 662.064697,666.511353 
z"/>
<path fill="#8C8C8C" opacity="1.000000" stroke="none" 
	d="
M661.829773,666.784241 
	C654.420349,676.286377 645.158203,681.691589 633.451721,683.215576 
	C615.890625,685.501648 597.365845,674.858948 590.919067,658.410400 
	C581.495422,634.366577 593.973755,609.438660 618.865173,602.582642 
	C641.929565,596.229919 666.330994,612.997314 669.261841,636.777527 
	C670.617676,647.778076 668.264404,657.519714 661.829773,666.784241 
z"/>
</svg>