<svg xmlns="http://www.w3.org/2000/svg" width="159.962" height="143.956" viewBox="0 0 159.962 143.956">
    <path
        d="M41.253,141.523c-3.391,-0.72 -44.087,-7.326 -41.1,-56s6.751,-63.331 22.587,-68.69 54.293,-30.7 84.478,-6.607S169.982,55.941 157.052,94.413c-12.925,38.488 -15.037,51.317 -48.774,49.35C74.558,141.811 57.361,145.011 41.253,141.523Z"
        fill="#e4e4e4"/>
    <path
        d="M44.846,55.494h81.821v45.665h-81.821z"
        fill="#e5e5e5"/>
    <path
        d="M44.968,55.494l-20.1,7.825v45.665l20.1,-7.535Z"
        fill="#e5e5e5"/>
    <path
        d="M44.788,55.27l-17.625,6.861 -2.475,0.964c-0.537,0.209 -0.059,0.61 0.358,0.447l17.625,-6.861 2.475,-0.963c0.537,-0.209 0.059,-0.61 -0.358,-0.448Z"
        fill="#6a79a8"/>
    <path
        d="M45.386,101.335L45.386,58.049c0,-0.116 -0.837,0 -0.837,0.225v43.287c0,0.116 0.837,0 0.837,-0.224Z"
        fill="#6a79a8"/>
    <path
        d="M24.492,63.318h82.075v45.665h-82.075z"
        fill="#f2f2f2"/>
    <path
        d="M106.567,63.318L26.826,63.318v38.264a5.2,5.2 0,0 0,5.2 5.2h74.54Z"
        fill="#fff"/>
    <path
        d="M126.667,55.494l-20.1,7.825v45.665l20.1,-7.535Z"
        fill="#e5e5e5"/>
    <path
        d="M124.479,56.327l-17.912,6.991L106.567,106.9l14.224,-5.322a5.678,5.678 0,0 0,3.688 -5.318Z"
        fill="#f2f2f2"/>
    <path
        d="M106.145,65.756v41.175c0,0.4 0.843,0.25 0.843,-0.082L106.988,65.674c0,-0.4 -0.843,-0.25 -0.843,0.082Z"
        fill="#6a79a8"/>
    <path
        d="M24.339,63.592h78.071c1.31,0 2.674,0.11 3.981,0a8.077,8.077 0,0 0,2.057 -0.725l5.791,-2.254 11.835,-4.607 0.769,-0.3c0.539,-0.21 0.057,-0.584 -0.352,-0.425l-9.164,3.568 -6.742,2.625c-1.312,0.511 -2.672,0.96 -3.956,1.54 -0.439,0.2 0.088,0.054 0.033,0.031a1.51,1.51 0,0 0,-0.456 0h-66.22c-5.038,0 -10.083,-0.073 -15.121,0 -0.074,0 -0.147,0 -0.221,0 -0.362,0 -0.871,0.547 -0.307,0.547Z"
        fill="#6a79a8"/>
    <path
        d="M126.249,56.361v45.2l0.279,-0.19 -14.889,5.582 -3.722,1.4 -1.068,0.4a2.615,2.615 0,0 0,-0.312 0.117c-0.278,0.149 0.133,-0.267 0.306,-0.04 -0.127,-0.166 -1.595,0 -1.791,0L25.179,108.83a1.623,1.623 0,0 1,-0.318 0c-0.2,-0.042 0.054,0.067 0.05,0.04a5.694,5.694 0,0 1,0 -0.974L24.911,65.807c0,-0.105 -0.837,0 -0.837,0.224L24.074,109.098c0,0.045 0.132,0.046 0.144,0.046L102.288,109.144c1.311,0 2.672,0.105 3.981,0a8.218,8.218 0,0 0,2.066 -0.69l5.777,-2.166 11.92,-4.469 0.777,-0.291c0.072,-0.027 0.278,-0.085 0.278,-0.19v-45.2c0,-0.1 -0.837,0 -0.837,0.224Z"
        fill="#6a79a8"/>
    <path
        d="M38.958,80.654h23.877v16.41h-23.877z"
        fill="#f7e0e1"/>
    <path
        d="M44.09,91.777h21.9c0.181,0 0.948,-0.345 0.542,-0.345h-21.9c-0.181,0 -0.948,0.345 -0.542,0.345Z"
        fill="#6a79a8"/>
    <path
        d="M44.091,87.783h21.9c0.172,0 0.945,-0.331 0.546,-0.331h-21.9c-0.173,0 -0.945,0.331 -0.546,0.331Z"
        fill="#6a79a8"/>
    <path
        d="M44.09,83.853h21.9c0.184,0 0.95,-0.351 0.541,-0.351h-21.9c-0.184,0 -0.949,0.351 -0.54,0.351Z"
        fill="#6a79a8"/>
    <path
        d="M44.325,94.932h4.861c0.481,0 0.64,-0.622 0.072,-0.622h-4.861c-0.481,0 -0.64,0.622 -0.072,0.622Z"
        fill="#6a79a8"/>
    <path
        d="M52.724,94.88h4.861c0.35,0 0.875,-0.529 0.311,-0.529h-4.861c-0.35,0 -0.875,0.529 -0.311,0.529Z"
        fill="#6a79a8"/>
    <path
        d="M61.227,94.845h4.861c0.3,0 0.895,-0.448 0.333,-0.448h-4.861c-0.3,0 -0.895,0.448 -0.333,0.448Z"
        fill="#6a79a8"/>
    <path
        d="M121.826,66.361c0.492,1.839 -1.753,3.233 -3.171,3.789 -1.563,0.613 -4.869,1.174 -5.661,-0.9 -0.112,-0.293 -0.941,-0.047 -0.837,0.224 0.9,2.368 4.633,1.8 6.455,1.164 1.708,-0.592 4.653,-2.25 4.052,-4.5 -0.078,-0.292 -0.916,-0.07 -0.837,0.224Z"
        fill="#6a79a8"/>
    <path
        d="M95.372,91.524a11.291,11.291 0,0 0,-5.346 -3.425,11.9 11.9,0 0,0 -9.9,1.531 9.524,9.524 0,0 0,-1.894 1.545c-0.269,0.3 0.363,0.363 0.537,0.161a10.5,10.5 0,0 1,5.024 -2.9,10.885 10.885,0 0,1 9.444,1.934 9.132,9.132 0,0 1,1.545 1.424c0.161,0.215 0.779,-0.027 0.591,-0.269Z"
        fill="#6a79a8"/>
    <path
        d="M79.506,81.718a1.216,1.216 0,1 0,-1.222 1.209A1.215,1.215 0,0 0,79.506 81.718Z"
        fill="#6a79a8"/>
    <path
        d="M94.907,83.01a1.209,1.209 48.059,1 0,0.129 -2.415a1.209,1.209 48.059,1 0,-0.129 2.415z"
        fill="#6a79a8"/>
    <path
        d="M72.224,87.229a2.351,1.76 89.379,1 0,3.52 -0.038a2.351,1.76 89.379,1 0,-3.52 0.038z"
        fill="#ff9c81"/>
    <path
        d="M97.464,86.947a2.351,1.76 89.379,1 0,3.52 -0.038a2.351,1.76 89.379,1 0,-3.52 0.038z"
        fill="#ff9c81"/>
</svg>