<svg width="311" height="310" viewBox="0 0 311 310" fill="none" xmlns="http://www.w3.org/2000/svg">
    <path d="M273.457 228.812H274.562C274.551 224.101 274.568 222.524 274.678 195.142C274.878 145.512 275.258 142.486 275.258 142.486L272.624 165.398C270.956 190.769 273.108 205.893 273.457 228.812Z" fill="#F0F0F0"/>
    <path d="M273.205 243.656C269.767 243.656 266.432 242.479 263.755 240.322C261.078 238.164 259.22 235.156 258.489 231.796C258.134 229.988 257.621 228.214 256.955 226.496L256.842 226.221H289.568L289.455 226.496C288.789 228.214 288.275 229.988 287.921 231.796C287.19 235.156 285.332 238.164 282.655 240.322C279.978 242.479 276.643 243.656 273.205 243.656Z" fill="#FAFAFA"/>
    <path d="M291.687 227.877H254.723L253.664 219.877H292.745L291.687 227.877Z" fill="#F0F0F0"/>
    <path d="M272.505 184.329C278.964 173.08 262.222 169.051 256.793 159.029C250.272 166.947 264.939 197.509 272.505 184.329Z" fill="#F0F0F0"/>
    <path d="M273.752 175.087C271.262 169.417 283.252 162.54 285.839 153.324C290.619 158.644 281.124 191.875 273.752 175.087Z" fill="#F0F0F0"/>
    <path d="M273.658 192.188C275.685 185.041 287.294 190.197 293.215 176.771C299.514 195.731 268.027 212.038 273.658 192.188Z" fill="#F0F0F0"/>
    <path d="M274.171 200.724C274.038 193.93 266.662 199.958 253.284 187.863C250.896 200.345 274.685 226.951 274.171 200.724Z" fill="#F0F0F0"/>
    <path d="M171.584 193.233H94.3574V252.797H171.584V193.233Z" fill="#EBEBEB"/>
    <path d="M152.235 252.374C152.128 252.374 152.042 239.097 152.042 222.723C152.042 206.349 152.128 193.069 152.235 193.069C152.342 193.069 152.428 206.343 152.428 222.723C152.428 239.103 152.342 252.374 152.235 252.374Z" fill="#E0E0E0"/>
    <path d="M165.036 239.239H159.115V245.932H165.036V239.239Z" fill="#FAFAFA"/>
    <path d="M126.689 193.386H117.917V206.096H126.689V193.386Z" fill="#E0E0E0"/>
    <path d="M126.689 239.91H117.917V252.62H126.689V239.91Z" fill="#E0E0E0"/>
    <path d="M150.846 282.051C222.537 282.051 280.654 273.119 280.654 262.1C280.654 251.081 222.537 242.149 150.846 242.149C79.1551 242.149 21.0381 251.081 21.0381 262.1C21.0381 273.119 79.1551 282.051 150.846 282.051Z" fill="#F5F5F5"/>
    <path d="M257.678 52.538H150.846V143.468H257.678V52.538Z" fill="#E6E6E6"/>
    <path d="M261.165 52.538H152.475V143.468H261.165V52.538Z" fill="#F0F0F0"/>
    <path d="M257.678 143.468H150.846V149.947H257.678V143.468Z" fill="#E6E6E6"/>
    <path d="M266.974 143.468H158.284V149.947H266.974V143.468Z" fill="#F0F0F0"/>
    <path d="M256.282 138.586V57.4189L157.355 57.4189V138.586H256.282Z" fill="#FAFAFA"/>
    <path d="M220.335 138.586L228.152 57.4189H241.677L233.86 138.586H220.335Z" fill="white"/>
    <path d="M159.617 111.073C159.568 111.073 159.52 111.063 159.474 111.044C159.429 111.026 159.388 110.998 159.353 110.963C159.318 110.929 159.291 110.887 159.272 110.842C159.254 110.797 159.244 110.748 159.244 110.699V60.596C159.244 60.4969 159.283 60.4019 159.354 60.3319C159.424 60.2618 159.519 60.2225 159.618 60.2225C159.717 60.2225 159.812 60.2618 159.882 60.3319C159.952 60.4019 159.991 60.4969 159.991 60.596V110.696C159.992 110.745 159.982 110.794 159.964 110.84C159.945 110.886 159.917 110.927 159.883 110.962C159.848 110.997 159.807 111.025 159.761 111.044C159.715 111.063 159.667 111.073 159.617 111.073Z" fill="#F0F0F0"/>
    <path d="M236.765 138.586L244.582 57.4189H249.855L242.038 138.586H236.765Z" fill="white"/>
    <path d="M256.284 138.586V57.4189H255.664V138.586H256.284Z" fill="#E6E6E6"/>
    <path opacity="0.5" d="M262.319 66.27H155.487L155.038 59.317H261.87L262.319 66.27Z" fill="#E0E0E0"/>
    <path opacity="0.5" d="M262.319 77.699H155.487L155.038 70.746H261.87L262.319 77.699Z" fill="#E0E0E0"/>
    <path opacity="0.5" d="M262.319 89.129H155.487L155.038 82.176H261.87L262.319 89.129Z" fill="#E0E0E0"/>
    <path opacity="0.5" d="M262.319 100.556H155.487L155.038 93.603H261.87L262.319 100.556Z" fill="#E0E0E0"/>
    <path opacity="0.5" d="M262.319 111.988H155.487L155.038 105.035H261.87L262.319 111.988Z" fill="#E0E0E0"/>
    <path opacity="0.5" d="M262.319 123.418H155.487L155.038 116.465H261.87L262.319 123.418Z" fill="#E0E0E0"/>
    <path d="M220.876 90.891C220.876 90.891 220.676 90.891 220.296 90.884C219.73 90.8528 219.162 90.8558 218.596 90.893C216.421 91.0103 214.283 91.5032 212.277 92.35C209.094 93.6853 206.325 95.8439 204.253 98.604C202.975 100.326 202.026 102.269 201.453 104.335C200.154 109.266 200.864 114.512 203.428 118.92C204.125 120.137 204.973 121.261 205.951 122.266C206.937 123.333 208.089 124.235 209.362 124.935C210.666 125.671 212.144 126.043 213.642 126.012C215.184 125.994 216.663 125.397 217.787 124.341C218.881 123.191 219.476 121.653 219.439 120.066C219.424 118.432 218.9 116.844 217.939 115.523C215.838 112.818 212.903 110.882 209.589 110.017C206.151 109.054 202.521 109.003 199.057 109.871C197.288 110.328 195.584 111.005 193.985 111.887C192.369 112.799 190.902 113.951 189.631 115.303C189.331 115.657 188.981 115.975 188.71 116.358L187.873 117.488C186.315 119.886 185.299 122.595 184.895 125.426C184.361 129.201 184.88 133.05 186.395 136.549C187.84 139.959 190.352 142.809 193.554 144.671C195.105 145.563 196.839 146.09 198.624 146.212C200.372 146.307 202.109 145.89 203.624 145.012C205.122 144.183 206.31 142.889 207.009 141.325C207.638 139.775 207.665 138.046 207.086 136.477C206.504 134.949 205.545 133.592 204.298 132.535C203.094 131.489 201.703 130.681 200.198 130.152C197.267 129.23 194.132 129.176 191.171 129.996C188.405 130.749 185.865 132.166 183.771 134.124C181.86 135.954 180.406 138.207 179.526 140.702C177.985 145.021 178.054 149.751 179.72 154.024C181.025 157.218 183.129 160.024 185.829 162.173C187.523 163.54 189.416 164.642 191.441 165.442C192.141 165.707 192.675 165.896 193.041 166C193.407 166.104 193.591 166.182 193.591 166.182C193.591 166.182 193.399 166.139 193.03 166.037C192.661 165.935 192.114 165.769 191.41 165.514C189.361 164.74 187.446 163.653 185.732 162.29C182.99 160.142 180.848 157.322 179.516 154.103C177.807 149.783 177.718 144.99 179.265 140.609C180.153 138.069 181.626 135.774 183.565 133.909C185.692 131.91 188.276 130.461 191.091 129.688C194.114 128.844 197.316 128.895 200.311 129.833C201.859 130.373 203.291 131.202 204.531 132.275C205.825 133.37 206.821 134.776 207.425 136.36C208.036 138.013 208.008 139.834 207.348 141.467C206.62 143.106 205.379 144.463 203.812 145.334C202.235 146.25 200.426 146.687 198.605 146.589C196.762 146.465 194.973 145.924 193.371 145.005C190.094 143.105 187.523 140.192 186.044 136.705C184.501 133.14 183.972 129.219 184.517 125.373C184.928 122.484 185.966 119.72 187.556 117.273L188.412 116.117C188.689 115.726 189.042 115.399 189.354 115.039C190.652 113.659 192.151 112.484 193.801 111.553C195.431 110.655 197.167 109.966 198.969 109.502C202.497 108.621 206.194 108.675 209.695 109.661C213.088 110.552 216.09 112.541 218.234 115.318C219.236 116.699 219.781 118.359 219.794 120.065C219.829 121.744 219.195 123.368 218.033 124.58C216.848 125.694 215.287 126.322 213.661 126.34C212.105 126.369 210.571 125.981 209.217 125.214C207.916 124.495 206.74 123.571 205.734 122.477C204.742 121.452 203.882 120.306 203.176 119.066C201.894 116.848 201.062 114.4 200.727 111.86C200.391 109.321 200.56 106.74 201.222 104.266C201.811 102.173 202.782 100.206 204.086 98.466C206.191 95.6883 209.002 93.5256 212.227 92.203C214.251 91.3633 216.409 90.8893 218.599 90.803C219.166 90.7742 219.734 90.7838 220.299 90.832C220.681 90.869 220.876 90.891 220.876 90.891Z" fill="#263238"/>
    <path d="M245.58 175.146H141.619V255.33H245.58V175.146Z" fill="#E8505B"/>
    <path d="M141.619 175.146L160.819 193.056H263.019L245.579 175.146H141.619Z" fill="#E8505B"/>
    <path d="M141.619 175.146L245.58 174.956H245.66L245.716 175.014L262.978 192.737L263.157 192.921L263.477 193.249H263.019L160.819 193.173H160.772L160.739 193.141L141.616 175.146L160.897 192.971L160.818 192.94L263.018 192.864L262.879 193.192L262.7 193.007L245.443 175.279L245.578 175.336L141.619 175.146Z" fill="#263238"/>
    <path d="M172.844 212.12C172.286 212.12 171.751 212.339 171.353 212.73C170.955 213.12 170.726 213.652 170.715 214.209C170.705 214.767 170.914 215.306 171.297 215.712C171.68 216.117 172.207 216.356 172.764 216.376C173.321 216.397 173.865 216.199 174.277 215.823C174.69 215.448 174.938 214.926 174.969 214.369C175.001 213.812 174.813 213.265 174.445 212.846C174.077 212.426 173.56 212.168 173.004 212.126" fill="#263238"/>
    <path d="M197.39 212.12C196.833 212.12 196.298 212.339 195.9 212.729C195.502 213.12 195.273 213.651 195.263 214.208C195.253 214.766 195.461 215.305 195.844 215.71C196.227 216.115 196.754 216.354 197.311 216.374C197.868 216.395 198.411 216.197 198.823 215.822C199.235 215.446 199.484 214.924 199.515 214.368C199.547 213.811 199.358 213.265 198.991 212.845C198.624 212.426 198.106 212.168 197.55 212.126" fill="#263238"/>
    <path d="M197.549 231.314C197.126 229.673 196.43 228.115 195.491 226.705C194.449 225.197 193.113 223.916 191.564 222.937C189.692 221.696 187.509 221.005 185.264 220.943C183.018 220.882 180.801 221.452 178.864 222.589C177.262 223.481 175.858 224.688 174.735 226.137C173.719 227.493 172.94 229.011 172.428 230.626C172.431 230.507 172.452 230.388 172.489 230.275C172.558 229.941 172.649 229.612 172.761 229.29C173.166 228.098 173.759 226.977 174.517 225.971C175.636 224.464 177.056 223.207 178.688 222.279C180.675 221.09 182.96 220.492 185.274 220.556C187.589 220.619 189.838 221.341 191.757 222.637C193.335 223.653 194.684 224.986 195.718 226.552C196.42 227.598 196.951 228.75 197.291 229.963C197.385 230.291 197.458 230.625 197.509 230.963C197.539 231.077 197.553 231.196 197.549 231.314Z" fill="#263238"/>
    <path opacity="0.5" d="M141.854 176.028L160.24 199.339H245.58V193.057H160.821L141.854 176.028Z" fill="black"/>
    <path d="M225.08 255.146C224.973 255.146 224.887 241.199 224.887 223.999C224.887 206.799 224.973 192.849 225.08 192.849C225.187 192.849 225.273 206.793 225.273 223.999C225.273 241.205 225.187 255.146 225.08 255.146Z" fill="#263238"/>
    <path d="M241.404 236.969H232.24V247.328H241.404V236.969Z" fill="#F5F5F5"/>
    <path d="M141.619 175.146L120.275 193.056H141.619V175.146Z" fill="#E8505B"/>
    <g opacity="0.4">
        <path opacity="0.4" d="M141.619 175.146L120.275 193.056H141.619V175.146Z" fill="black"/>
    </g>
    <path d="M81.1866 247.351L80.3016 254.78L65.7377 265.761L55.6656 267.053L53.2656 264.146L81.1866 247.351Z" fill="#407BFF"/>
    <path opacity="0.2" d="M81.1866 247.351L80.3016 254.78L65.7377 265.761L55.6656 267.053L53.2656 264.146L81.1866 247.351Z" fill="black"/>
    <path d="M63.4152 245.413L81.1862 247.351L63.4152 261.885L53.2592 264.146L50.2842 256.718L63.4152 245.413Z" fill="#407BFF"/>
    <path d="M69.4569 187.23L59.4769 213.952C59.3067 214.409 59.2913 214.91 59.433 215.377L69.685 249.123C69.8235 249.579 70.1051 249.979 70.4883 250.263C70.8715 250.548 71.336 250.701 71.813 250.701H73.747C74.099 250.701 74.4459 250.617 74.7593 250.457C75.0727 250.297 75.3435 250.064 75.5497 249.779C75.7559 249.494 75.8915 249.164 75.9452 248.816C75.999 248.468 75.9693 248.112 75.8589 247.778L65.185 215.489C65.0085 214.954 65.0409 214.373 65.2759 213.861L76.3989 189.692C76.5344 189.397 76.6039 189.077 76.6026 188.753C76.6012 188.428 76.5289 188.108 76.3909 187.815C76.2529 187.522 76.0524 187.262 75.8035 187.054C75.5546 186.846 75.2633 186.695 74.95 186.612L72.1129 185.859C71.579 185.717 71.0113 185.779 70.5204 186.032C70.0295 186.285 69.6504 186.712 69.4569 187.23Z" fill="#263238"/>
    <path d="M98.7383 259.625L99.6233 267.054L114.187 278.035L124.26 279.327L126.66 276.42L98.7383 259.625Z" fill="#407BFF"/>
    <path opacity="0.2" d="M98.7383 259.625L99.6233 267.054L114.187 278.035L124.26 279.327L126.66 276.42L98.7383 259.625Z" fill="black"/>
    <path d="M116.508 257.687L98.7373 259.625L116.508 274.159L126.664 276.42L129.638 268.991L116.508 257.687Z" fill="#407BFF"/>
    <path d="M110.467 199.504L120.447 226.226C120.617 226.683 120.633 227.183 120.491 227.65L110.24 261.396C110.101 261.852 109.82 262.252 109.437 262.536C109.053 262.821 108.589 262.974 108.112 262.974H106.178C105.826 262.974 105.479 262.891 105.165 262.73C104.852 262.57 104.581 262.338 104.375 262.052C104.168 261.767 104.033 261.437 103.979 261.089C103.925 260.741 103.955 260.385 104.066 260.051L114.74 227.763C114.916 227.228 114.884 226.647 114.649 226.135L103.526 201.966C103.39 201.671 103.321 201.351 103.322 201.027C103.324 200.702 103.396 200.382 103.534 200.089C103.672 199.795 103.872 199.536 104.121 199.328C104.37 199.12 104.662 198.969 104.975 198.886L107.812 198.133C108.346 197.991 108.913 198.053 109.404 198.306C109.895 198.56 110.273 198.987 110.467 199.504Z" fill="#263238"/>
    <path d="M160.821 176.743C160.335 176.743 159.863 176.584 159.477 176.29C151.769 170.432 141.352 160.033 137.354 150C137.295 149.853 137.253 149.701 137.227 149.545C135.278 137.954 133.415 113.554 133.337 112.521C133.311 112.228 133.344 111.933 133.433 111.652C133.522 111.372 133.666 111.112 133.857 110.888C134.047 110.664 134.28 110.48 134.543 110.346C134.805 110.212 135.091 110.132 135.384 110.11C135.678 110.088 135.972 110.124 136.252 110.216C136.531 110.309 136.789 110.456 137.011 110.649C137.233 110.842 137.415 111.077 137.545 111.341C137.676 111.604 137.753 111.891 137.772 112.185C137.791 112.434 139.672 137.073 141.572 148.571C145.56 158.326 156.372 168.343 162.167 172.748C162.539 173.029 162.813 173.421 162.951 173.867C163.089 174.313 163.083 174.791 162.933 175.234C162.784 175.676 162.5 176.06 162.12 176.332C161.741 176.604 161.285 176.749 160.819 176.748L160.821 176.743Z" fill="#263238"/>
    <path d="M165.053 178.725C162.928 178.572 160.904 177.762 159.259 176.408C158.809 176.052 158.514 175.536 158.436 174.967C158.358 174.399 158.502 173.822 158.838 173.358C159.175 172.893 159.678 172.576 160.243 172.474C160.807 172.372 161.39 172.491 161.868 172.808C163.705 174.137 164.708 174.281 165.053 174.281C165.643 174.281 166.209 174.515 166.626 174.932C167.043 175.35 167.278 175.915 167.278 176.505C167.278 177.095 167.043 177.661 166.626 178.078C166.209 178.496 165.643 178.73 165.053 178.73V178.725Z" fill="#263238"/>
    <path d="M159.883 176.345C162.263 169.274 172.021 170.671 175.383 171.721C178.258 172.559 181.015 173.755 183.59 175.282C185.41 176.472 185.439 178.459 183.012 179.594C180.019 180.994 172.512 179.752 172.512 179.752C176.398 181.452 172.504 184.18 165.687 181.502C163.466 180.631 159.042 178.934 159.883 176.345Z" fill="#407BFF"/>
    <path d="M142.615 124.097C141.731 130.104 136.757 134.534 132.715 133.939C128.673 133.344 128.5 127.979 129.383 121.972C130.266 115.965 131.867 111.591 135.913 112.185C139.959 112.779 143.498 118.088 142.615 124.097Z" fill="#263238"/>
    <path d="M57.1818 180.112C57.182 180.232 57.1464 180.35 57.0798 180.45C57.0131 180.55 56.9182 180.628 56.8072 180.674C56.6961 180.721 56.5737 180.733 56.4557 180.709C56.3377 180.686 56.2293 180.628 56.1442 180.543C56.0591 180.458 56.0011 180.35 55.9776 180.232C55.954 180.114 55.966 179.992 56.012 179.88C56.058 179.769 56.1359 179.674 56.2359 179.607C56.3359 179.541 56.4535 179.505 56.5738 179.505C56.7348 179.505 56.8893 179.569 57.0033 179.683C57.1173 179.796 57.1815 179.951 57.1818 180.112Z" fill="#263238"/>
    <path d="M102.231 115.424C109.682 100.542 119.761 72.0159 146.931 87.9169C176.048 104.962 151.917 137.222 151.917 137.222L102.231 115.424Z" fill="#263238"/>
    <path d="M148.586 127.75C156.111 127.75 162.211 121.65 162.211 114.125C162.211 106.6 156.111 100.5 148.586 100.5C141.061 100.5 134.961 106.6 134.961 114.125C134.961 121.65 141.061 127.75 148.586 127.75Z" fill="white"/>
    <path d="M156.168 102.689C153.215 100.826 149.67 100.138 146.233 100.761C142.797 101.385 139.72 103.274 137.609 106.057L161.3 116.199C162.903 110.868 158.179 103.896 156.168 102.689Z" fill="#263238"/>
    <path d="M158.561 120.895C156.833 124.015 153.861 125.674 151.923 124.601C149.985 123.528 149.817 120.128 151.546 117.008C153.275 113.888 156.246 112.229 158.183 113.302C160.12 114.375 160.286 117.775 158.561 120.895Z" fill="#263238"/>
    <path d="M142.277 127.031C139.725 125.783 137.599 123.807 136.17 121.351C134.741 118.896 134.072 116.071 134.247 113.236C134.423 110.4 135.436 107.68 137.157 105.419C138.879 103.159 141.232 101.46 143.919 100.537C146.606 99.6142 149.507 99.5088 152.254 100.234C155.001 100.96 157.471 102.484 159.352 104.613C161.233 106.742 162.441 109.382 162.822 112.197C163.203 115.013 162.741 117.878 161.493 120.431C159.817 123.851 156.853 126.467 153.25 127.705C149.648 128.942 145.701 128.7 142.277 127.031ZM154.243 102.551C151.954 101.432 149.385 101.017 146.86 101.359C144.335 101.7 141.967 102.783 140.058 104.469C138.148 106.156 136.781 108.371 136.13 110.835C135.48 113.298 135.574 115.899 136.401 118.309C137.229 120.719 138.752 122.83 140.779 124.374C142.806 125.918 145.245 126.826 147.788 126.984C150.332 127.141 152.864 126.541 155.067 125.26C157.269 123.978 159.041 122.072 160.16 119.783C161.656 116.713 161.873 113.174 160.764 109.944C159.655 106.714 157.311 104.055 154.244 102.551H154.243Z" fill="#407BFF"/>
    <path opacity="0.3" d="M113.368 113.897C113.394 113.91 113.422 113.92 113.45 113.927C113.498 113.938 113.547 113.94 113.595 113.932C113.643 113.924 113.689 113.907 113.73 113.881C113.772 113.855 113.808 113.822 113.836 113.782C113.865 113.742 113.885 113.697 113.896 113.65C115.663 107.035 118.794 100.862 123.088 95.5289C123.122 95.4921 123.148 95.4488 123.164 95.4017C123.181 95.3547 123.187 95.3048 123.184 95.255C123.181 95.2052 123.168 95.1566 123.145 95.112C123.123 95.0674 123.092 95.0279 123.054 94.9956C123.015 94.9634 122.971 94.9392 122.924 94.9244C122.876 94.9097 122.826 94.9047 122.776 94.9098C122.727 94.9148 122.679 94.9299 122.635 94.9539C122.591 94.978 122.553 95.0107 122.522 95.0499C118.154 100.474 114.97 106.752 113.174 113.481C113.155 113.562 113.164 113.647 113.199 113.723C113.234 113.798 113.294 113.86 113.368 113.897Z" fill="white"/>
    <path opacity="0.3" d="M127.051 91.3C127.115 91.3324 127.187 91.3457 127.258 91.3382C127.329 91.3308 127.396 91.3029 127.451 91.258C129.192 89.8558 131.106 88.6822 133.144 87.766C133.228 87.7223 133.292 87.6485 133.323 87.5595C133.354 87.4705 133.35 87.3729 133.312 87.2867C133.274 87.2005 133.204 87.1321 133.117 87.0953C133.031 87.0586 132.933 87.0563 132.844 87.089C130.748 88.0306 128.78 89.2371 126.99 90.679C126.952 90.7092 126.92 90.7468 126.897 90.7894C126.873 90.832 126.858 90.8789 126.853 90.9274C126.847 90.9758 126.852 91.0248 126.865 91.0716C126.879 91.1184 126.902 91.162 126.932 91.2C126.965 91.2413 127.005 91.2753 127.051 91.3Z" fill="white"/>
    <path d="M107.011 206.91L44.0264 176.966L74.5264 97.9019L149.339 132.24L107.011 206.91Z" fill="#407BFF"/>
    <path d="M63.5484 186.657C63.4759 186.616 63.4214 186.549 63.3959 186.469C63.3703 186.39 63.3756 186.304 63.4105 186.228L91.5725 105.769C91.5946 105.682 91.6487 105.607 91.724 105.558C91.7993 105.51 91.8903 105.491 91.9785 105.507C92.0181 105.525 92.0536 105.55 92.0832 105.582C92.1128 105.614 92.1357 105.651 92.1507 105.692C92.1657 105.732 92.1725 105.776 92.1705 105.819C92.1686 105.862 92.1581 105.905 92.1395 105.944L63.9774 186.403C63.9553 186.49 63.9012 186.565 63.8259 186.614C63.7506 186.662 63.6598 186.681 63.5715 186.665L63.5484 186.657Z" fill="#263238"/>
    <path d="M104.745 205.945L127.745 211.845L165.38 142.275L149.334 132.236L104.745 205.945Z" fill="#407BFF"/>
    <path opacity="0.2" d="M104.745 205.945L127.745 211.845L165.38 142.275L149.334 132.236L104.745 205.945Z" fill="black"/>
    <path d="M89.7136 107.397C89.8451 107.088 89.7518 106.753 89.5054 106.648C89.2589 106.543 88.9525 106.709 88.821 107.017C88.6896 107.326 88.7828 107.662 89.0293 107.767C89.2758 107.872 89.5822 107.706 89.7136 107.397Z" fill="#263238"/>
    <path d="M92.0898 113.166C92.0349 113.243 91.9594 113.303 91.872 113.338C91.7846 113.374 91.689 113.384 91.596 113.368C91.503 113.352 91.4165 113.309 91.3466 113.246C91.2767 113.182 91.2261 113.1 91.2008 113.009C91.1756 112.918 91.1766 112.822 91.2038 112.732C91.2309 112.641 91.2832 112.56 91.3544 112.498C91.4256 112.436 91.513 112.396 91.6064 112.381C91.6997 112.367 91.7951 112.379 91.8818 112.417C92.0072 112.49 92.0991 112.609 92.138 112.749C92.1768 112.889 92.1596 113.039 92.0898 113.166Z" fill="#263238"/>
    <path d="M64.4579 179.494C64.403 179.571 64.3276 179.631 64.2402 179.666C64.1528 179.702 64.0571 179.712 63.9641 179.696C63.8711 179.68 63.7846 179.637 63.7147 179.574C63.6448 179.51 63.5943 179.428 63.5691 179.337C63.5438 179.246 63.5447 179.15 63.5719 179.06C63.599 178.969 63.6513 178.888 63.7225 178.826C63.7937 178.764 63.8811 178.724 63.9745 178.709C64.0678 178.695 64.1632 178.707 64.2499 178.745C64.3751 178.818 64.4669 178.937 64.5057 179.077C64.5445 179.217 64.5274 179.367 64.4579 179.494Z" fill="#263238"/>
    <path d="M185.759 194.068C185.376 194.249 184.948 194.312 184.528 194.25C176.391 192.97 164.57 189.476 158.033 183.839C157.938 183.757 157.853 183.665 157.78 183.563C152.375 176.05 142.797 159.398 142.392 158.693C142.284 158.475 142.221 158.238 142.206 157.996C142.191 157.753 142.224 157.51 142.304 157.281C142.384 157.051 142.509 156.84 142.671 156.66C142.834 156.479 143.03 156.333 143.25 156.229C143.672 155.968 144.179 155.881 144.664 155.986C145.149 156.091 145.574 156.38 145.85 156.793C145.95 156.963 155.618 173.779 160.955 181.242C167.391 186.686 179.4 189.761 185.521 190.722C185.756 190.748 185.982 190.824 186.183 190.947C186.385 191.069 186.557 191.234 186.688 191.431C186.819 191.627 186.905 191.849 186.941 192.082C186.977 192.315 186.961 192.554 186.895 192.78C186.809 193.063 186.663 193.325 186.467 193.547C186.271 193.77 186.03 193.947 185.759 194.068Z" fill="#263238"/>
    <path d="M188.703 196.256C186.578 196.103 184.554 195.293 182.909 193.939C182.662 193.772 182.45 193.557 182.288 193.307C182.125 193.057 182.014 192.777 181.962 192.483C181.91 192.189 181.917 191.888 181.984 191.597C182.051 191.306 182.176 191.031 182.351 190.79C182.526 190.548 182.748 190.344 183.003 190.19C183.259 190.036 183.543 189.935 183.838 189.893C184.134 189.851 184.435 189.868 184.723 189.945C185.012 190.022 185.282 190.156 185.517 190.339C187.354 191.668 188.357 191.812 188.703 191.812C189.293 191.812 189.859 192.046 190.276 192.463C190.693 192.881 190.928 193.446 190.928 194.036C190.928 194.626 190.693 195.192 190.276 195.609C189.859 196.027 189.293 196.261 188.703 196.261V196.256Z" fill="#263238"/>
    <path d="M183.535 193.876C185.914 186.806 195.673 188.203 199.035 189.253C201.909 190.091 204.667 191.287 207.243 192.814C209.063 194.003 209.092 195.991 206.665 197.126C203.672 198.526 196.165 197.284 196.165 197.284C200.051 198.984 196.157 201.712 189.34 199.034C187.118 198.162 182.694 196.466 183.535 193.876Z" fill="#407BFF"/>
    <path d="M153.01 162.848C149.689 167.931 143.315 169.866 139.891 167.628C136.467 165.39 138.564 160.45 141.886 155.367C145.208 150.284 148.496 146.984 151.92 149.222C155.344 151.46 156.331 157.766 153.01 162.848Z" fill="#263238"/>
</svg>
