<svg width="311" height="312" viewBox="0 0 311 312" fill="none" xmlns="http://www.w3.org/2000/svg">
    <path d="M254.248 117.512H166.486V192.21H254.248V117.512Z" fill="#E6E6E6"/>
    <path d="M257.111 117.512H167.824V192.21H257.111V117.512Z" fill="#F0F0F0"/>
    <path d="M254.248 192.21H166.486V197.533H254.248V192.21Z" fill="#E6E6E6"/>
    <path d="M261.884 192.21H172.597V197.533H261.884V192.21Z" fill="#F0F0F0"/>
    <path d="M253.102 121.522H171.835V188.2H253.102V121.522Z" fill="#FAFAFA"/>
    <path d="M223.57 188.201L229.992 121.523H241.104L234.682 188.201H223.57Z" fill="white"/>
    <path d="M173.692 165.598C173.61 165.598 173.532 165.566 173.475 165.508C173.417 165.451 173.385 165.373 173.385 165.291V124.131C173.385 124.05 173.417 123.972 173.475 123.914C173.532 123.857 173.61 123.824 173.692 123.824C173.732 123.824 173.772 123.832 173.809 123.848C173.847 123.863 173.881 123.886 173.909 123.914C173.938 123.943 173.96 123.977 173.976 124.014C173.991 124.051 173.999 124.091 173.999 124.131V165.291C173.999 165.332 173.991 165.372 173.975 165.409C173.96 165.446 173.937 165.48 173.909 165.509C173.88 165.537 173.846 165.56 173.809 165.575C173.772 165.591 173.732 165.598 173.692 165.598Z" fill="#F0F0F0"/>
    <path d="M237.063 188.201L243.485 121.523H247.817L241.395 188.201H237.063Z" fill="white"/>
    <path d="M253.103 121.522H252.594V188.2H253.103V121.522Z" fill="#E6E6E6"/>
    <path opacity="0.5" d="M258.064 128.792H170.303L169.934 123.084H257.696L258.064 128.792Z" fill="#E0E0E0"/>
    <path opacity="0.5" d="M258.064 138.182H170.303L169.934 132.47H257.696L258.064 138.182Z" fill="#E0E0E0"/>
    <path opacity="0.5" d="M258.064 147.571H170.303L169.934 141.864H257.696L258.064 147.571Z" fill="#E0E0E0"/>
    <path opacity="0.5" d="M258.064 156.96H170.303L169.934 151.248H257.696L258.064 156.96Z" fill="#E0E0E0"/>
    <path opacity="0.5" d="M258.064 166.35H170.303L169.934 160.638H257.696L258.064 166.35Z" fill="#E0E0E0"/>
    <path opacity="0.5" d="M258.064 175.741H170.303L169.934 170.029H257.696L258.064 175.741Z" fill="#E0E0E0"/>
    <path d="M189.116 186.268L183.284 182.24V182.227C182.711 180.127 181.925 178.091 180.939 176.151L182.433 170.288L173.974 161.228L168.02 162.318C166.152 161.202 164.175 160.28 162.12 159.564H162.105L158.485 153.464L146.102 153.042L142.074 158.874L142.051 158.879C139.954 159.451 137.92 160.234 135.981 161.216L130.12 159.723L121.061 168.181L122.149 174.124V174.129C121.028 176.001 120.104 177.984 119.394 180.047L113.294 183.667L112.87 196.053L118.707 200.085C119.271 202.194 120.055 204.239 121.046 206.184L119.556 212.03L128.015 221.089L133.932 220.007C135.816 221.126 137.808 222.05 139.879 222.766H139.885L143.499 228.853L155.885 229.279L159.91 223.451C162.024 222.878 164.074 222.093 166.029 221.105L171.864 222.592L180.923 214.133L179.835 208.19C180.956 206.318 181.879 204.335 182.589 202.271L188.689 198.651L189.116 186.268ZM150.516 205.098C147.761 205.005 145.096 204.097 142.857 202.489C140.618 200.881 138.906 198.645 137.938 196.064C136.97 193.483 136.789 190.672 137.418 187.989C138.047 185.305 139.458 182.868 141.473 180.986C143.487 179.104 146.014 177.861 148.734 177.416C151.455 176.97 154.246 177.341 156.756 178.482C159.265 179.623 161.38 181.483 162.832 183.826C164.285 186.168 165.01 188.889 164.916 191.645C164.788 195.338 163.199 198.83 160.497 201.353C157.796 203.875 154.203 205.222 150.509 205.096L150.516 205.098Z" fill="#EBEBEB"/>
    <path d="M258.721 256.971H243.389V285.685H258.721V256.971Z" fill="#E6E6E6"/>
    <path d="M255.808 285.685H258.72V274.885H252.754L255.808 285.685Z" fill="#F0F0F0"/>
    <path d="M171.238 256.971H155.906V285.685H171.238V256.971Z" fill="#E6E6E6"/>
    <path d="M258.721 256.971H168.697V282.738H258.721V256.971Z" fill="#F0F0F0"/>
    <path d="M171.609 285.685H168.697V274.885H174.663L171.609 285.685Z" fill="#F0F0F0"/>
    <path d="M198.376 261.43H171.69V277.892H198.376V261.43Z" fill="#E6E6E6"/>
    <path d="M187.673 267.114H182.393C180.099 267.114 177.907 264.801 176.33 260.714H193.73C192.163 264.801 189.963 267.114 187.673 267.114Z" fill="#F0F0F0"/>
    <path d="M227.052 261.43H200.366V277.892H227.052V261.43Z" fill="#E6E6E6"/>
    <path d="M216.618 267.114H211.338C209.044 267.114 206.852 264.801 205.275 260.714H222.68C221.104 264.801 218.911 267.114 216.618 267.114Z" fill="#F0F0F0"/>
    <path d="M255.727 261.43H229.041V277.892H255.727V261.43Z" fill="#E6E6E6"/>
    <path d="M245.293 267.114H240.013C237.719 267.114 235.527 264.801 233.95 260.714H251.35C249.776 264.801 247.586 267.114 245.293 267.114Z" fill="#F0F0F0"/>
    <path d="M144.919 217.308H118.175V285.685H144.919V217.308Z" fill="#E6E6E6"/>
    <path d="M142.229 285.685H144.919V276.373H139.408L142.229 285.685Z" fill="#F0F0F0"/>
    <path d="M103.009 217.308H76.2646V285.685H103.009V217.308Z" fill="#E6E6E6"/>
    <path d="M144.918 217.308H100.66V279.971H144.918V217.308Z" fill="#F0F0F0"/>
    <path d="M142.832 220.085H102.748V237.27H142.832V220.085Z" fill="#E6E6E6"/>
    <path d="M126.714 225.426H120.671C118.046 225.426 115.537 223.306 113.732 219.563H133.652C131.848 223.306 129.334 225.426 126.714 225.426Z" fill="#F0F0F0"/>
    <path d="M103.352 285.685H100.662V276.373H106.173L103.352 285.685Z" fill="#F0F0F0"/>
    <path d="M142.832 240.047H102.748V257.232H142.832V240.047Z" fill="#E6E6E6"/>
    <path d="M126.714 245.388H120.671C118.046 245.388 115.537 243.268 113.732 239.525H133.652C131.848 243.268 129.334 245.388 126.714 245.388Z" fill="#F0F0F0"/>
    <path d="M142.832 260.009H102.748V277.194H142.832V260.009Z" fill="#E6E6E6"/>
    <path d="M126.714 265.35H120.671C118.046 265.35 115.537 263.23 113.732 259.487H133.652C131.848 263.23 129.334 265.35 126.714 265.35Z" fill="#F0F0F0"/>
    <path d="M190.341 223.635H180.036C176.549 223.635 173.723 226.462 173.723 229.948V250.59C173.723 254.077 176.549 256.903 180.036 256.903H190.341C193.827 256.903 196.654 254.077 196.654 250.59V229.948C196.654 226.462 193.827 223.635 190.341 223.635Z" fill="#F5F5F5"/>
    <path d="M233.232 238.393C233.232 238.393 232.666 256.904 210.991 256.904C189.316 256.904 188.75 238.393 188.75 238.393H233.232Z" fill="#F0F0F0"/>
    <path d="M59.4574 270.841H60.5574C60.5464 266.13 60.5635 264.553 60.6735 237.171C60.8735 187.541 61.2534 184.516 61.2534 184.516L58.6194 207.427C56.9564 232.799 59.1084 247.923 59.4574 270.841Z" fill="#F0F0F0"/>
    <path d="M59.2048 285.686C55.7667 285.686 52.432 284.509 49.755 282.352C47.078 280.194 45.2197 277.186 44.4888 273.826C44.1345 272.018 43.6213 270.244 42.9548 268.526L42.8418 268.251H75.5627L75.4498 268.526C74.7838 270.245 74.2705 272.018 73.9158 273.826C73.1852 277.185 71.3278 280.193 68.6517 282.351C65.9757 284.508 62.6422 285.685 59.2048 285.686Z" fill="#FAFAFA"/>
    <path d="M77.687 269.907H40.723L39.6641 261.907H78.745L77.687 269.907Z" fill="#F0F0F0"/>
    <path d="M58.5045 226.359C64.9635 215.11 48.2216 211.081 42.7926 201.059C36.2716 208.977 50.9385 239.541 58.5045 226.359Z" fill="#F0F0F0"/>
    <path d="M59.7523 217.117C57.2623 211.447 69.2522 204.57 71.8392 195.354C76.6192 200.674 67.1243 233.905 59.7523 217.117Z" fill="#F0F0F0"/>
    <path d="M59.6631 234.219C61.6901 227.072 73.2991 232.228 79.2201 218.802C85.5151 237.762 54.0281 254.069 59.6631 234.219Z" fill="#F0F0F0"/>
    <path d="M60.1707 242.754C60.0377 235.96 52.6618 241.988 39.2838 229.893C36.8958 242.375 60.6847 268.981 60.1707 242.754Z" fill="#F0F0F0"/>
    <path d="M149.149 311.024C205.376 311.024 250.957 305.715 250.957 299.166C250.957 292.617 205.376 287.308 149.149 287.308C92.9218 287.308 47.3408 292.617 47.3408 299.166C47.3408 305.715 92.9218 311.024 149.149 311.024Z" fill="#F5F5F5"/>
    <path d="M139.708 293.055L139.035 298.706L127.958 307.055L120.297 308.038L118.469 305.827L139.708 293.055Z" fill="#407BFF"/>
    <path opacity="0.2" d="M139.708 293.055L139.035 298.706L127.958 307.055L120.297 308.038L118.469 305.827L139.708 293.055Z" fill="black"/>
    <path d="M126.191 291.578L139.707 293.052L126.191 304.106L118.467 305.826L116.205 300.176L126.191 291.578Z" fill="#407BFF"/>
    <path d="M130.788 247.323L123.202 267.647C123.072 267.995 123.06 268.376 123.168 268.732L130.968 294.397C131.073 294.745 131.288 295.049 131.579 295.265C131.871 295.481 132.224 295.598 132.587 295.597H134.058C134.326 295.598 134.59 295.534 134.828 295.413C135.067 295.291 135.273 295.114 135.43 294.897C135.587 294.68 135.69 294.429 135.731 294.164C135.772 293.899 135.749 293.629 135.665 293.374L127.547 268.816C127.413 268.41 127.438 267.968 127.616 267.578L136.076 249.196C136.264 248.789 136.282 248.324 136.127 247.902C135.971 247.481 135.655 247.139 135.248 246.951C135.16 246.91 135.069 246.877 134.976 246.851L132.818 246.279C132.41 246.168 131.976 246.214 131.6 246.407C131.224 246.6 130.935 246.927 130.788 247.323Z" fill="#263238"/>
    <path d="M158.591 293.055L159.264 298.706L170.341 307.057L178.002 308.04L179.83 305.829L158.591 293.055Z" fill="#407BFF"/>
    <path opacity="0.2" d="M158.591 293.055L159.264 298.706L170.341 307.057L178.002 308.04L179.83 305.829L158.591 293.055Z" fill="black"/>
    <path d="M172.107 291.578L158.591 293.052L172.107 304.106L179.831 305.826L182.093 300.176L172.107 291.578Z" fill="#407BFF"/>
    <path d="M167.511 247.323L175.102 267.647C175.233 267.995 175.244 268.376 175.136 268.731L167.336 294.397C167.231 294.745 167.017 295.049 166.726 295.265C166.434 295.481 166.081 295.597 165.718 295.597H164.248C163.799 295.597 163.368 295.419 163.051 295.102C162.734 294.785 162.555 294.354 162.555 293.905C162.556 293.725 162.584 293.546 162.64 293.374L170.758 268.816C170.892 268.41 170.868 267.968 170.69 267.578L162.229 249.196C162.136 248.995 162.084 248.776 162.076 248.554C162.067 248.332 162.102 248.111 162.179 247.902C162.256 247.694 162.373 247.503 162.524 247.339C162.675 247.176 162.857 247.044 163.058 246.951C163.146 246.91 163.236 246.877 163.329 246.851L165.487 246.278C165.894 246.169 166.327 246.216 166.702 246.409C167.076 246.603 167.365 246.929 167.511 247.323Z" fill="#263238"/>
    <path d="M134.11 193.321C134.893 180.687 133.453 157.721 157.2 160.762C182.653 164.02 175.371 193.783 175.371 193.783L134.11 193.321Z" fill="#263238"/>
    <path d="M159.69 170.342C157.36 165.111 151.231 162.759 146 165.088C140.769 167.418 138.417 173.547 140.746 178.778C143.076 184.009 149.205 186.361 154.436 184.032C159.667 181.702 162.019 175.573 159.69 170.342Z" fill="white"/>
    <path d="M153.93 174.598C153.745 177.272 152.172 179.224 150.414 178.955C148.656 178.685 147.391 176.301 147.568 173.627C147.745 170.953 149.325 169.002 151.084 169.27C152.843 169.539 154.113 171.925 153.93 174.598Z" fill="#263238"/>
    <path d="M158.936 181.16C157.63 182.883 155.842 184.18 153.799 184.887C151.756 185.594 149.549 185.68 147.457 185.133C145.366 184.586 143.483 183.431 142.048 181.814C140.612 180.197 139.689 178.191 139.394 176.049C139.099 173.907 139.445 171.726 140.39 169.781C141.334 167.837 142.834 166.215 144.7 165.123C146.566 164.031 148.714 163.516 150.872 163.644C153.03 163.773 155.102 164.538 156.825 165.844C157.969 166.711 158.932 167.795 159.657 169.034C160.383 170.273 160.857 171.642 161.053 173.065C161.249 174.487 161.163 175.934 160.799 177.323C160.436 178.712 159.803 180.015 158.936 181.16ZM142.407 168.638C141.236 170.183 140.549 172.042 140.434 173.978C140.318 175.913 140.78 177.84 141.76 179.514C142.739 181.187 144.193 182.533 145.938 183.38C147.682 184.227 149.639 184.539 151.56 184.274C153.481 184.009 155.28 183.181 156.731 181.893C158.181 180.606 159.217 178.917 159.708 177.041C160.198 175.165 160.122 173.185 159.487 171.353C158.853 169.52 157.689 167.917 156.143 166.746C154.07 165.179 151.459 164.498 148.884 164.854C146.309 165.209 143.981 166.571 142.409 168.642L142.407 168.638Z" fill="#407BFF"/>
    <path opacity="0.3" d="M172.478 193.004C172.455 193.004 172.433 193.002 172.411 192.996C172.338 192.979 172.276 192.933 172.237 192.869C172.198 192.806 172.186 192.729 172.203 192.656C173.264 187.558 173.246 182.294 172.152 177.202C172.133 177.13 172.143 177.053 172.181 176.988C172.219 176.924 172.281 176.877 172.353 176.857C172.425 176.838 172.502 176.849 172.567 176.887C172.632 176.924 172.679 176.986 172.698 177.058V177.069C173.812 182.248 173.829 187.602 172.749 192.788C172.735 192.849 172.7 192.904 172.651 192.943C172.602 192.982 172.541 193.004 172.478 193.004Z" fill="white"/>
    <path opacity="0.3" d="M170.906 172.974C170.852 172.973 170.799 172.958 170.754 172.928C170.708 172.899 170.672 172.858 170.649 172.809C169.946 171.261 169.047 169.809 167.975 168.49C167.931 168.431 167.911 168.358 167.92 168.286C167.929 168.213 167.965 168.147 168.022 168.101C168.079 168.054 168.151 168.032 168.224 168.038C168.297 168.044 168.364 168.079 168.412 168.134C169.515 169.49 170.439 170.982 171.162 172.574C171.182 172.616 171.191 172.664 171.187 172.711C171.184 172.758 171.169 172.804 171.144 172.844C171.118 172.883 171.083 172.916 171.042 172.939C171 172.962 170.953 172.973 170.906 172.974Z" fill="white"/>
    <path d="M87.0953 181.004C87.0154 181.017 86.9366 181.035 86.8593 181.059C86.6469 181.124 86.4493 181.23 86.2779 181.372C86.1066 181.513 85.9648 181.687 85.8606 181.883C85.7565 182.079 85.692 182.294 85.6709 182.515C85.6498 182.736 85.6724 182.959 85.7376 183.172C86.5678 185.882 87.7053 196.346 85.452 204.976C85.3526 205.357 85.3892 205.761 85.5556 206.118C85.722 206.475 86.0077 206.763 86.3635 206.932C94.8083 210.939 111.163 209.016 111.856 208.932C112.302 208.888 112.713 208.668 112.997 208.32C113.281 207.973 113.416 207.527 113.372 207.081C113.327 206.634 113.107 206.223 112.76 205.939C112.413 205.655 111.967 205.52 111.52 205.565C111.496 205.567 111.472 205.57 111.449 205.574C111.298 205.592 96.998 207.271 89.0666 204.394C90.9211 195.859 90.0543 185.724 88.9667 182.181C88.8479 181.793 88.5935 181.461 88.2499 181.244C87.9064 181.028 87.4965 180.943 87.0953 181.004Z" fill="#263238"/>
    <path d="M90.2419 182.73C89.5403 185.525 84.4829 186.012 81.1902 184.226C79.1336 182.819 77.4564 180.926 76.3081 178.715C76.2144 178.47 76.1701 178.208 76.1775 177.946C76.185 177.683 76.2441 177.425 76.3515 177.185C76.4589 176.945 76.6125 176.729 76.8034 176.549C76.9944 176.368 77.219 176.227 77.4644 176.134C77.6928 176.046 77.9355 176.002 78.1802 176.003C80.1269 175.868 83.2012 178.248 83.2012 178.248C81.1779 176.803 83.2513 175.234 87.0164 177.192C89.1088 178.28 91.027 179.599 90.2419 182.73Z" fill="#407BFF"/>
    <path d="M179.799 253.887L113.366 251.687L110.609 187.273L189.059 189.027L179.799 253.887Z" fill="#407BFF"/>
    <path d="M134.114 252.653C134.044 252.653 133.976 252.627 133.924 252.579C133.872 252.531 133.84 252.466 133.833 252.395L128.508 187.695C128.504 187.622 128.528 187.549 128.577 187.494C128.625 187.438 128.693 187.403 128.767 187.397C128.84 187.391 128.913 187.414 128.97 187.461C129.027 187.509 129.063 187.576 129.07 187.65L134.395 252.344C134.4 252.418 134.376 252.491 134.328 252.547C134.28 252.603 134.211 252.638 134.137 252.644L134.114 252.653Z" fill="#263238"/>
    <path d="M179.8 253.887L197.656 251.169L203.28 191.269L189.061 189.021L179.8 253.887Z" fill="#407BFF"/>
    <path opacity="0.2" d="M179.8 253.887L197.656 251.169L203.28 191.269L189.061 189.021L179.8 253.887Z" fill="black"/>
    <path d="M119.044 239.269L117.406 200.999C117.327 199.165 117.981 197.376 119.221 196.024C120.462 194.672 122.189 193.868 124.023 193.79C124.173 193.784 124.323 193.782 124.473 193.79L174.133 194.9C175.112 194.92 176.075 195.148 176.959 195.569C177.844 195.99 178.628 196.594 179.262 197.341C179.895 198.087 180.363 198.96 180.634 199.901C180.904 200.842 180.972 201.83 180.833 202.8L175.327 241.368C175.086 243.055 174.23 244.595 172.923 245.691C171.617 246.786 169.952 247.361 168.248 247.305L125.732 245.896C123.986 245.839 122.327 245.124 121.087 243.895C119.846 242.666 119.116 241.013 119.044 239.269Z" fill="#263238"/>
    <path d="M159.444 238.536C159.385 238.535 159.327 238.523 159.272 238.499C159.218 238.475 159.169 238.44 159.129 238.397L156.343 235.348L153.337 238.094C153.254 238.169 153.144 238.208 153.032 238.203C152.919 238.198 152.814 238.149 152.737 238.067L149.951 235.018L146.945 237.764C146.862 237.838 146.752 237.878 146.64 237.873C146.528 237.867 146.422 237.819 146.345 237.737L143.559 234.688L140.553 237.434C140.47 237.509 140.36 237.548 140.248 237.543C140.135 237.538 140.03 237.489 139.953 237.407L137.167 234.358L134.161 237.104C134.122 237.145 134.074 237.177 134.021 237.2C133.969 237.222 133.912 237.233 133.855 237.233C133.798 237.233 133.741 237.222 133.688 237.199C133.636 237.177 133.588 237.145 133.548 237.103C133.508 237.062 133.477 237.014 133.457 236.96C133.436 236.907 133.426 236.85 133.428 236.793C133.43 236.736 133.443 236.68 133.467 236.628C133.491 236.576 133.525 236.529 133.567 236.491L133.585 236.474L136.899 233.442C136.983 233.366 137.092 233.326 137.205 233.331C137.317 233.336 137.423 233.385 137.499 233.469L140.285 236.518L143.291 233.772C143.375 233.696 143.484 233.656 143.597 233.661C143.709 233.666 143.815 233.715 143.891 233.798L146.676 236.847L149.682 234.101C149.766 234.025 149.876 233.986 149.988 233.991C150.1 233.996 150.206 234.045 150.282 234.128L153.067 237.177L156.073 234.431C156.157 234.355 156.267 234.316 156.379 234.321C156.491 234.326 156.597 234.375 156.673 234.458L159.747 237.822C159.803 237.883 159.84 237.959 159.853 238.04C159.867 238.122 159.856 238.206 159.823 238.282C159.789 238.357 159.735 238.422 159.665 238.467C159.596 238.512 159.515 238.536 159.432 238.537L159.444 238.536Z" fill="white"/>
    <path d="M201.449 208.094C200.777 212.663 196.994 216.033 193.916 215.581C190.838 215.129 190.71 211.048 191.382 206.481C192.054 201.914 193.271 198.581 196.349 199.038C199.427 199.495 202.123 203.525 201.449 208.094Z" fill="#263238"/>
    <path d="M127.019 189.854C127.274 189.854 127.481 189.648 127.481 189.392C127.481 189.137 127.274 188.93 127.019 188.93C126.763 188.93 126.557 189.137 126.557 189.392C126.557 189.648 126.763 189.854 127.019 189.854Z" fill="#263238"/>
    <path d="M131.717 192.722C131.717 192.813 131.69 192.902 131.639 192.978C131.588 193.054 131.516 193.113 131.432 193.148C131.347 193.183 131.254 193.192 131.165 193.175C131.075 193.157 130.993 193.113 130.928 193.048C130.864 192.984 130.82 192.901 130.802 192.812C130.784 192.722 130.793 192.629 130.828 192.545C130.863 192.46 130.922 192.388 130.998 192.337C131.074 192.287 131.164 192.26 131.255 192.26C131.377 192.26 131.495 192.308 131.582 192.395C131.668 192.481 131.717 192.599 131.717 192.722Z" fill="#263238"/>
    <path d="M132.234 247.369C132.234 247.461 132.207 247.55 132.157 247.626C132.106 247.702 132.034 247.761 131.949 247.796C131.865 247.831 131.772 247.84 131.682 247.823C131.593 247.805 131.51 247.761 131.446 247.696C131.381 247.632 131.337 247.549 131.319 247.46C131.302 247.37 131.311 247.277 131.346 247.193C131.381 247.108 131.44 247.036 131.516 246.985C131.592 246.935 131.681 246.907 131.773 246.907C131.895 246.907 132.013 246.956 132.099 247.043C132.186 247.129 132.234 247.247 132.234 247.369Z" fill="#263238"/>
    <path d="M136.463 250.698C136.463 250.79 136.436 250.879 136.385 250.955C136.334 251.031 136.262 251.09 136.178 251.125C136.093 251.16 136 251.169 135.911 251.152C135.821 251.134 135.739 251.09 135.674 251.025C135.61 250.961 135.566 250.878 135.548 250.789C135.53 250.699 135.539 250.606 135.574 250.522C135.609 250.437 135.668 250.365 135.744 250.314C135.82 250.264 135.91 250.236 136.001 250.236C136.123 250.236 136.241 250.285 136.328 250.372C136.414 250.458 136.463 250.576 136.463 250.698Z" fill="#263238"/>
    <path d="M142.934 223.724C141.924 221.889 141.395 219.829 141.395 217.734C141.395 215.639 141.924 213.579 142.934 211.744C143.426 211.158 144.029 210.676 144.708 210.323C145.387 209.971 146.128 209.756 146.89 209.69C147.652 209.624 148.42 209.71 149.149 209.941C149.878 210.172 150.554 210.544 151.14 211.037C151.395 211.251 151.632 211.488 151.847 211.744C152.862 213.577 153.396 215.637 153.397 217.733C153.399 219.828 152.87 221.89 151.858 223.724C151.309 224.374 150.626 224.895 149.855 225.253C149.085 225.611 148.245 225.797 147.396 225.797C146.546 225.797 145.706 225.611 144.936 225.253C144.165 224.895 143.482 224.374 142.934 223.724ZM148.934 221.538C149.559 219.041 149.559 216.427 148.934 213.93C148.84 213.594 148.639 213.298 148.362 213.087C148.085 212.876 147.747 212.761 147.398 212.76C147.05 212.759 146.711 212.871 146.432 213.08C146.154 213.289 145.951 213.584 145.855 213.918C145.23 216.42 145.23 219.036 145.855 221.538C145.95 221.873 146.151 222.168 146.429 222.378C146.707 222.588 147.046 222.702 147.394 222.702C147.743 222.702 148.081 222.588 148.359 222.378C148.637 222.168 148.839 221.873 148.934 221.538V221.538Z" fill="white"/>
    <path d="M221.106 181.004C221.186 181.016 221.265 181.035 221.342 181.058C221.555 181.123 221.752 181.23 221.923 181.371C222.095 181.512 222.237 181.686 222.341 181.882C222.445 182.079 222.509 182.294 222.531 182.515C222.552 182.736 222.529 182.959 222.464 183.171C221.634 185.882 220.496 196.346 222.749 204.976C222.849 205.357 222.812 205.761 222.646 206.118C222.479 206.475 222.194 206.762 221.838 206.931C213.392 210.938 197.037 209.015 196.344 208.932C195.897 208.888 195.487 208.668 195.202 208.32C194.918 207.973 194.783 207.527 194.828 207.081C194.872 206.634 195.092 206.224 195.439 205.939C195.787 205.655 196.233 205.52 196.679 205.565C196.703 205.567 196.727 205.57 196.751 205.574C196.902 205.592 211.201 207.271 219.133 204.394C217.278 195.859 218.145 185.724 219.233 182.181C219.351 181.793 219.606 181.46 219.95 181.243C220.294 181.027 220.704 180.942 221.106 181.004Z" fill="#263238"/>
    <path d="M217.959 182.73C218.661 185.525 223.718 186.012 227.011 184.226C229.067 182.819 230.745 180.926 231.893 178.715C231.987 178.47 232.031 178.208 232.023 177.946C232.016 177.683 231.957 177.424 231.85 177.185C231.742 176.945 231.589 176.729 231.398 176.548C231.207 176.368 230.982 176.227 230.737 176.133C230.508 176.046 230.265 176.002 230.021 176.003C228.074 175.868 225 178.248 225 178.248C227.023 176.803 224.95 175.234 221.185 177.191C219.092 178.28 217.175 179.598 217.959 182.73Z" fill="#407BFF"/>
</svg>
