<svg fill="none" height="9" viewBox="0 0 13 9" width="13" xmlns="http://www.w3.org/2000/svg"><g fill="#fff"><path d="m7.60511 7.61838c0-.20777.06926-.34629.20778-.48481l3.46291-3.4629c.277-.27704.6926-.27704.9696 0 .277.27703.277.69258 0 .96961l-3.4629 3.46291c-.27703.27703-.69258.27703-.96961 0-.13852-.13852-.20778-.27704-.20778-.48481z"/><path d="m7.63148.692581c0-.207774.06926-.34629.20778-.484807.27703-.2770321.69258-.2770321.96961 0l3.46293 3.462906c.277.27703.277.69258 0 .96962-.2771.27703-.6926.27703-.9696 0l-3.46294-3.46291c-.13852-.13852-.20778-.277034-.20778-.484809z"/><path d="m.00002289 4.12618c0-.41555.27703311-.69259.69258211-.69259h11.081295c.4156 0 .6926.27704.6926.69259 0 .41554-.277.69258-.6926.69258h-11.081295c-.415549 0-.69258211-.27704-.69258211-.69258z"/></g></svg>