<svg height="16.4" viewBox="0 0 16.4 16.4" width="16.4" xmlns="http://www.w3.org/2000/svg"><g fill="#46aae1" stroke="#fff" stroke-width=".4"><path d="m147.5 180.135a4.07 4.07 0 1 0 -4.207-4.067 4.139 4.139 0 0 0 4.207 4.067zm0-6.553a2.5 2.5 0 1 1 -2.579 2.494 2.537 2.537 0 0 1 2.579-2.495zm0 0" transform="translate(-139.301 -171.8)"/><path d="m116.668 325.123a9.03 9.03 0 0 0 -5.663 1.849 5.853 5.853 0 0 0 -2.338 4.618.921.921 0 0 0 1.008.787h13.985a.92.92 0 0 0 1.008-.787 5.853 5.853 0 0 0 -2.338-4.618 9.03 9.03 0 0 0 -5.662-1.849zm-6.154 5.68a4.666 4.666 0 0 1 1.8-2.73 7.277 7.277 0 0 1 4.358-1.389 7.836 7.836 0 0 1 4.5 1.556 4.338 4.338 0 0 1 1.795 2.563zm.979 0" transform="translate(-108.468 -316.176)"/></g></svg>