<svg width="15" height="15" viewBox="0 0 15 15" fill="none" xmlns="http://www.w3.org/2000/svg">
    <path
        d="M13.391 0.833008H1.02001C0.837804 0.833008 0.663063 0.905388 0.534225 1.03423C0.405388 1.16306 0.333008 1.3378 0.333008 1.52001V13.891C0.333008 14.0732 0.405388 14.248 0.534225 14.3768C0.598019 14.4406 0.673754 14.4912 0.757104 14.5257C0.840455 14.5602 0.92979 14.578 1.02001 14.578H13.391C13.5732 14.578 13.748 14.5056 13.8768 14.3768C14.0056 14.248 14.078 14.0732 14.078 13.891V1.52001C14.078 1.3378 14.0056 1.16306 13.8768 1.03423C13.748 0.905388 13.5732 0.833008 13.391 0.833008ZM1.70801 2.20801H12.708V3.58201H1.70801V2.20801ZM12.708 13.208H1.70801V4.95701H12.708V13.208Z"
        fill="#656565" />
    <path
        d="M3.76904 8.39301H10.642C10.8244 8.39301 10.9992 8.32057 11.1282 8.19164C11.2571 8.06271 11.3295 7.88784 11.3295 7.70551C11.3295 7.52317 11.2571 7.3483 11.1282 7.21937C10.9992 7.09044 10.8244 7.01801 10.642 7.01801H3.76904C3.58671 7.01801 3.41184 7.09044 3.28291 7.21937C3.15398 7.3483 3.08154 7.52317 3.08154 7.70551C3.08154 7.88784 3.15398 8.06271 3.28291 8.19164C3.41184 8.32057 3.58671 8.39301 3.76904 8.39301Z"
        fill="#656565" />
    <path
        d="M3.76904 11.143H7.20504C7.38738 11.143 7.56225 11.0706 7.69118 10.9416C7.82011 10.8127 7.89254 10.6378 7.89254 10.4555C7.89254 10.2732 7.82011 10.0983 7.69118 9.96937C7.56225 9.84044 7.38738 9.76801 7.20504 9.76801H3.76904C3.58671 9.76801 3.41184 9.84044 3.28291 9.96937C3.15398 10.0983 3.08154 10.2732 3.08154 10.4555C3.08154 10.6378 3.15398 10.8127 3.28291 10.9416C3.41184 11.0706 3.58671 11.143 3.76904 11.143Z"
        fill="#656565" />
</svg>
