<svg width="24" height="25" viewBox="0 0 24 25" fill="none" xmlns="http://www.w3.org/2000/svg">
    <path d="M9.74878 19.9326H14.2495V21.4329H9.74878V19.9326Z" fill="#ADADAD" />
    <path d="M11.249 0.43335H12.7493V3.89026H11.249V0.43335Z" fill="#ADADAD" />
    <path d="M17.5061 5.86429L19.9505 3.41988L21.0113 4.48072L18.5669 6.92512L17.5061 5.86429Z"
        fill="#ADADAD" />
    <path d="M20.543 11.6823H23.9999V13.1825H20.543V11.6823Z" fill="#ADADAD" />
    <path d="M17.5061 19.0044L18.5669 17.9436L21.0113 20.388L19.9505 21.4488L17.5061 19.0044Z"
        fill="#ADADAD" />
    <path d="M2.97949 20.3871L5.4239 17.9427L6.48473 19.0036L4.04032 21.448L2.97949 20.3871Z"
        fill="#ADADAD" />
    <path d="M0 11.6823H3.45691V13.1825H0V11.6823Z" fill="#ADADAD" />
    <path d="M2.9834 4.47766L4.04423 3.41683L6.48863 5.86123L5.4278 6.92206L2.9834 4.47766Z"
        fill="#ADADAD" />
    <path
        d="M13.2499 24.4333H10.7462C10.4932 24.4253 10.2446 24.3646 10.0163 24.2552C9.78803 24.1458 9.58505 23.99 9.42034 23.7977C9.25562 23.6054 9.13279 23.381 9.05966 23.1386C8.98654 22.8962 8.96473 22.6413 8.99564 22.39V20.6259C9.00786 20.1278 8.90511 19.6337 8.69536 19.1818C8.4856 18.7298 8.17449 18.3324 7.7862 18.0202C7.01711 17.4431 6.37519 16.7138 5.90047 15.8776C5.42576 15.0414 5.12844 14.1164 5.02705 13.1603C4.92567 12.2041 5.0224 11.2373 5.31121 10.3202C5.60001 9.40307 6.07471 8.55529 6.70567 7.82976C7.33664 7.10422 8.11034 6.51648 8.97851 6.10321C9.84669 5.68993 10.7907 5.45998 11.7517 5.42771C12.7127 5.39544 13.67 5.56153 14.5639 5.91563C15.4579 6.26972 16.2693 6.80423 16.9475 7.4858L15.8863 8.54694C15.3524 8.01547 14.715 7.59938 14.0136 7.32451C13.3121 7.04964 12.5617 6.92183 11.8089 6.94904C11.056 6.97624 10.3168 7.15787 9.637 7.48265C8.95725 7.80743 8.35149 8.26844 7.85732 8.83706C7.36315 9.40569 6.9911 10.0698 6.76426 10.7882C6.53742 11.5066 6.46063 12.2639 6.53865 13.0132C6.61668 13.7625 6.84785 14.4878 7.21783 15.144C7.58781 15.8003 8.0887 16.3735 8.68943 16.8281C9.26282 17.2804 9.72412 17.859 10.0374 18.5187C10.3507 19.1784 10.5076 19.9014 10.4959 20.6317V22.3958C10.4959 22.4863 10.5074 22.9389 10.7462 22.9389H13.2499C13.3162 22.9389 13.3799 22.9125 13.4269 22.8655C13.4738 22.8186 13.5002 22.7549 13.5002 22.6885V20.4526C13.5138 19.7306 13.6919 19.0213 14.0209 18.3785C14.35 17.7357 14.8213 17.1765 15.3991 16.7434C16.3412 16.0033 17.0158 14.9758 17.3203 13.8172C17.6249 12.6585 17.5426 11.4321 17.0862 10.3245L18.4728 9.74675C19.0546 11.1565 19.1599 12.7177 18.7726 14.1928C18.3853 15.6679 17.5267 16.9761 16.3274 17.9181C15.9291 18.2114 15.6028 18.5915 15.3732 19.0297C15.1437 19.4678 15.0168 19.9524 15.0024 20.4468V22.6692C15.0039 22.9003 14.9597 23.1295 14.8723 23.3434C14.7849 23.5574 14.6561 23.752 14.4932 23.9159C14.3303 24.0799 14.1366 24.21 13.9232 24.2988C13.7098 24.3876 13.481 24.4333 13.2499 24.4333Z"
        fill="#ADADAD" />
</svg>
