<svg fill="none" height="17" viewBox="0 0 16 17" width="16" xmlns="http://www.w3.org/2000/svg"><path d="m11.7333.00146484h-7.46663c-2.35642 0-4.26667 1.91025516-4.26667 4.26666516v7.46667c0 2.3564 1.91025 4.2667 4.26667 4.2667h7.46663c2.3564 0 4.2667-1.9103 4.2667-4.2667v-7.46667c0-2.35641-1.9103-4.26666516-4.2667-4.26666516z" fill="#fff" opacity=".5"/><path d="m10.8016 7.00463c.1701.09113.3124.22671.4115.3923.0992.16558.1515.35497.1515.54797s-.0523.38238-.1515.54796c-.0991.16559-.2414.30117-.4115.3923l-4.14131 2.21864c-.16251.087-.34479.1304-.52907.126s-.36427-.0565-.52242-.1512c-.15814-.0947-.28905-.2288-.37994-.3892-.0909-.1603-.13869-.3415-.13871-.5258v-4.43737c.00002-.18433.04781-.36552.13871-.52588.09089-.16036.2218-.29444.37994-.38914.15815-.0947.33814-.14681.52242-.15123.18428-.00443.36656.03898.52907.12598z" fill="#8d1846"/></svg>