<svg fill="none" height="30" viewBox="0 0 30 30" width="30" xmlns="http://www.w3.org/2000/svg"><path d="m22 0h-14c-4.41828 0-8 3.58172-8 8v14c0 4.4183 3.58172 8 8 8h14c4.4183 0 8-3.5817 8-8v-14c0-4.41828-3.5817-8-8-8z" fill="#fff" opacity=".5"/><path d="m20.253 13.1312c.319.1708.5856.4251.7715.7355.1859.3105.2841.6656.2841 1.0275s-.0982.7169-.2841 1.0274-.4525.5647-.7715.7356l-7.765 4.16c-.3047.1631-.6465.2445-.992.2362-.3456-.0083-.6831-.106-.9796-.2836-.2965-.1775-.54194-.4289-.71237-.7296s-.26003-.6404-.26007-.986v-8.32c.00004-.3456.08964-.6854.26007-.98605.17043-.30068.41587-.55206.71237-.72963.2965-.17758.634-.27527.9796-.28357.3455-.00829.6873.07309.992.23623z" fill="#1d1d1d"/></svg>