<svg xmlns="http://www.w3.org/2000/svg" width="28" height="28" viewBox="0 0 28 28">
    <g transform="translate(-19.581 -538)">
        <rect fill="#fff" opacity="0.158" width="28" height="28" rx="8"
            transform="translate(19.581 538)" />
        <path fill="#fff"
            d="M1.7,6.077A1.709,1.709,0,0,0,0,7.779v7.853a1.709,1.709,0,0,0,1.7,1.7H12.878a1.709,1.709,0,0,0,1.7-1.7V7.779a1.709,1.709,0,0,0-1.7-1.7Zm2.655,2.1A2.009,2.009,0,1,1,2.348,10.19,2.018,2.018,0,0,1,4.357,8.181Zm12.3-.276a1.611,1.611,0,0,0-.332.072l-1.021.336V15.1l1.021.336a1.338,1.338,0,0,0,1.822-1.32V9.3A1.419,1.419,0,0,0,17.6,8.139a1.291,1.291,0,0,0-.6-.231A1.457,1.457,0,0,0,16.659,7.9Z"
            transform="translate(25.506 540.295)" />
    </g>
</svg>