<svg width="1920" height="1080" viewBox="0 0 1920 1080" fill="none" xmlns="http://www.w3.org/2000/svg">
<rect width="1920" height="1080" fill="#F4F4F4"/>
<path d="M805 145.186C806.213 141.918 808.543 139.184 811.578 137.468C814.613 135.752 818.157 135.165 821.583 135.811C822.019 131.595 823.458 127.544 825.78 123.997C828.101 120.45 831.237 117.51 834.926 115.422C838.615 113.334 842.75 112.16 846.986 111.996C851.222 111.832 855.436 112.684 859.275 114.481C862.534 111.276 866.492 108.871 870.838 107.455C875.184 106.038 879.799 105.649 884.321 106.318C888.843 106.987 893.148 108.696 896.897 111.311C900.647 113.925 903.739 117.373 905.93 121.385C909.727 121.755 913.361 123.109 916.475 125.313C919.588 127.518 922.072 130.496 923.682 133.955C925.597 133.306 927.633 133.092 929.641 133.329C931.649 133.566 933.579 134.247 935.291 135.323C937.003 136.399 938.454 137.843 939.538 139.55C940.621 141.257 941.311 143.184 941.557 145.191L805 145.186Z" fill="white"/>
<path d="M1748 488.265C1748.81 486.074 1750.38 484.242 1752.41 483.092C1754.44 481.942 1756.82 481.549 1759.12 481.981C1759.41 479.155 1760.37 476.441 1761.93 474.063C1763.48 471.686 1765.59 469.716 1768.06 468.316C1770.53 466.917 1773.3 466.13 1776.14 466.02C1778.98 465.91 1781.8 466.481 1784.38 467.686C1786.56 465.537 1789.21 463.925 1792.13 462.976C1795.04 462.026 1798.13 461.765 1801.16 462.213C1804.19 462.661 1807.08 463.806 1809.59 465.558C1812.11 467.309 1814.18 469.62 1815.65 472.308C1818.19 472.557 1820.63 473.465 1822.71 474.942C1824.8 476.42 1826.47 478.416 1827.55 480.734C1828.83 480.299 1830.19 480.156 1831.54 480.315C1832.89 480.473 1834.18 480.93 1835.33 481.651C1836.47 482.373 1837.45 483.34 1838.17 484.484C1838.9 485.628 1839.36 486.92 1839.53 488.265H1748Z" fill="white"/>
<path d="M1662 1040C1660.13 1035 1656.55 1030.81 1651.88 1028.18C1647.22 1025.56 1641.77 1024.66 1636.5 1025.65C1635.83 1019.19 1633.61 1012.99 1630.04 1007.56C1626.47 1002.13 1621.65 997.626 1615.98 994.429C1610.3 991.233 1603.95 989.434 1597.43 989.183C1590.92 988.933 1584.44 990.237 1578.53 992.988C1573.52 988.081 1567.44 984.398 1560.75 982.229C1554.07 980.059 1546.97 979.463 1540.02 980.487C1533.07 981.51 1526.45 984.125 1520.68 988.127C1514.92 992.129 1510.16 997.408 1506.79 1003.55C1500.95 1004.12 1495.36 1006.19 1490.57 1009.57C1485.79 1012.94 1481.97 1017.5 1479.49 1022.8C1476.54 1021.8 1473.41 1021.48 1470.32 1021.84C1467.24 1022.2 1464.27 1023.24 1461.64 1024.89C1459 1026.54 1456.77 1028.75 1455.11 1031.36C1453.44 1033.98 1452.38 1036.93 1452 1040H1662Z" fill="white"/>
<path d="M874 782C875.519 777.913 878.437 774.495 882.238 772.349C886.038 770.204 890.476 769.47 894.766 770.277C895.313 765.005 897.115 759.94 900.022 755.505C902.928 751.07 906.855 747.394 911.475 744.784C916.095 742.173 921.273 740.705 926.577 740.5C931.881 740.295 937.157 741.36 941.964 743.607C946.045 739.599 951.001 736.592 956.443 734.82C961.884 733.048 967.663 732.561 973.325 733.397C978.987 734.233 984.378 736.369 989.074 739.637C993.769 742.905 997.642 747.216 1000.39 752.231C1005.14 752.695 1009.69 754.389 1013.59 757.145C1017.49 759.901 1020.6 763.625 1022.62 767.949C1025.02 767.139 1027.56 766.872 1030.08 767.168C1032.59 767.464 1035.01 768.316 1037.15 769.661C1039.3 771.007 1041.11 772.813 1042.47 774.947C1043.83 777.081 1044.69 779.491 1045 782H874Z" fill="white"/>
<path d="M703 371C704.519 366.913 707.437 363.495 711.238 361.349C715.038 359.204 719.476 358.47 723.766 359.277C724.313 354.005 726.115 348.94 729.022 344.505C731.928 340.07 735.855 336.394 740.475 333.784C745.095 331.173 750.273 329.705 755.577 329.5C760.881 329.295 766.157 330.36 770.964 332.607C775.045 328.599 780.001 325.592 785.443 323.82C790.884 322.048 796.663 321.561 802.325 322.397C807.987 323.233 813.378 325.369 818.074 328.637C822.769 331.905 826.642 336.216 829.386 341.231C834.141 341.695 838.692 343.389 842.59 346.145C846.489 348.901 849.6 352.625 851.617 356.949C854.015 356.139 856.564 355.872 859.078 356.168C861.593 356.464 864.01 357.316 866.153 358.661C868.297 360.007 870.113 361.813 871.471 363.947C872.828 366.081 873.692 368.491 874 371H703Z" fill="white"/>
<path d="M1425 663.265C1425.81 661.074 1427.38 659.242 1429.41 658.092C1431.44 656.942 1433.82 656.549 1436.12 656.981C1436.41 654.155 1437.37 651.441 1438.93 649.063C1440.48 646.686 1442.59 644.716 1445.06 643.316C1447.53 641.917 1450.3 641.13 1453.14 641.02C1455.98 640.91 1458.8 641.481 1461.38 642.686C1463.56 640.537 1466.21 638.925 1469.13 637.976C1472.04 637.026 1475.13 636.765 1478.16 637.213C1481.19 637.661 1484.08 638.806 1486.59 640.558C1489.11 642.309 1491.18 644.62 1492.65 647.308C1495.19 647.557 1497.63 648.465 1499.71 649.942C1501.8 651.42 1503.47 653.416 1504.55 655.734C1505.83 655.299 1507.19 655.156 1508.54 655.315C1509.89 655.473 1511.18 655.93 1512.33 656.651C1513.47 657.373 1514.45 658.34 1515.17 659.484C1515.9 660.628 1516.36 661.92 1516.53 663.265H1425Z" fill="white"/>
<path d="M1103 937.265C1103.81 935.074 1105.38 933.242 1107.41 932.092C1109.44 930.942 1111.82 930.549 1114.12 930.981C1114.41 928.155 1115.37 925.441 1116.93 923.063C1118.48 920.686 1120.59 918.716 1123.06 917.316C1125.53 915.917 1128.3 915.13 1131.14 915.02C1133.98 914.91 1136.8 915.481 1139.38 916.686C1141.56 914.537 1144.21 912.925 1147.13 911.976C1150.04 911.026 1153.13 910.765 1156.16 911.213C1159.19 911.661 1162.08 912.806 1164.59 914.558C1167.11 916.309 1169.18 918.62 1170.65 921.308C1173.19 921.557 1175.63 922.465 1177.71 923.942C1179.8 925.42 1181.47 927.416 1182.55 929.734C1183.83 929.299 1185.19 929.156 1186.54 929.315C1187.89 929.473 1189.18 929.93 1190.33 930.651C1191.47 931.373 1192.45 932.34 1193.17 933.484C1193.9 934.628 1194.36 935.92 1194.53 937.265H1103Z" fill="white"/>
<path d="M1296 56.2651C1296.81 54.0744 1298.38 52.242 1300.41 51.0921C1302.44 49.9421 1304.82 49.5487 1307.12 49.9814C1307.41 47.1554 1308.37 44.4405 1309.93 42.0633C1311.48 39.6861 1313.59 37.7156 1316.06 36.3164C1318.53 34.9172 1321.3 34.1298 1324.14 34.0201C1326.98 33.9103 1329.8 34.4814 1332.38 35.6855C1334.56 33.5374 1337.21 31.9251 1340.13 30.9756C1343.04 30.026 1346.13 29.7649 1349.16 30.213C1352.19 30.661 1355.08 31.8059 1357.59 33.5576C1360.11 35.3094 1362.18 37.6202 1363.65 40.3085C1366.19 40.557 1368.63 41.4648 1370.71 42.9423C1372.8 44.4198 1374.47 46.4159 1375.55 48.7336C1376.83 48.2991 1378.19 48.156 1379.54 48.3147C1380.89 48.4735 1382.18 48.9301 1383.33 49.6513C1384.47 50.3726 1385.45 51.3404 1386.17 52.4844C1386.9 53.6284 1387.36 54.9199 1387.53 56.2651H1296Z" fill="white"/>
<path d="M1637 226.578C1638.57 222.359 1641.57 218.831 1645.49 216.616C1649.41 214.402 1653.98 213.644 1658.4 214.477C1658.97 209.036 1660.82 203.808 1663.82 199.231C1666.82 194.653 1670.86 190.859 1675.62 188.164C1680.39 185.47 1685.72 183.953 1691.19 183.741C1696.66 183.53 1702.09 184.629 1707.05 186.947C1711.25 182.811 1716.36 179.706 1721.97 177.878C1727.58 176.05 1733.54 175.547 1739.37 176.41C1745.21 177.273 1750.76 179.478 1755.6 182.851C1760.44 186.224 1764.44 190.674 1767.26 195.85C1772.17 196.328 1776.86 198.075 1780.87 200.921C1784.89 203.766 1788.1 207.611 1790.18 212.075C1792.65 211.238 1795.28 210.962 1797.87 211.268C1800.46 211.574 1802.95 212.453 1805.16 213.842C1807.37 215.231 1809.24 217.094 1810.64 219.297C1812.04 221.501 1812.93 223.988 1813.25 226.578H1637Z" fill="white"/>
<path d="M288 874C291.323 864.992 297.705 857.457 306.017 852.728C314.329 847.999 324.036 846.382 333.419 848.161C334.615 836.542 338.556 825.379 344.913 815.605C351.27 805.83 359.859 797.728 369.961 791.974C380.064 786.221 391.388 782.983 402.988 782.53C414.588 782.078 426.127 784.425 436.642 789.375C445.568 780.543 456.408 773.914 468.309 770.01C480.211 766.106 492.85 765.034 505.234 766.876C517.617 768.718 529.407 773.426 539.677 780.629C549.946 787.831 558.416 797.333 564.42 808.386C574.819 809.406 584.774 813.138 593.301 819.214C601.828 825.29 608.632 833.5 613.04 843.032C618.286 841.244 623.861 840.656 629.361 841.308C634.861 841.961 640.148 843.838 644.836 846.804C649.525 849.769 653.498 853.749 656.467 858.453C659.436 863.158 661.326 868.469 662 874H288Z" fill="white"/>
<path d="M70 620.578C71.5658 616.359 74.5734 612.831 78.4906 610.616C82.4078 608.402 86.9821 607.644 91.4041 608.477C91.9677 603.036 93.825 597.808 96.8207 593.231C99.8165 588.653 103.864 584.859 108.625 582.164C113.386 579.47 118.722 577.953 124.189 577.741C129.656 577.53 135.093 578.629 140.049 580.947C144.255 576.811 149.363 573.706 154.972 571.878C160.581 570.05 166.537 569.547 172.373 570.41C178.208 571.273 183.765 573.478 188.604 576.851C193.444 580.224 197.435 584.674 200.265 589.85C205.165 590.328 209.857 592.075 213.875 594.921C217.893 597.766 221.1 601.611 223.177 606.075C225.649 605.238 228.277 604.962 230.869 605.268C233.461 605.574 235.952 606.453 238.161 607.842C240.371 609.231 242.243 611.094 243.643 613.297C245.042 615.501 245.932 617.988 246.25 620.578H70Z" fill="white"/>
<path d="M572 295C569.104 287.16 563.541 280.601 556.295 276.485C549.05 272.37 540.589 270.962 532.41 272.511C531.367 262.398 527.932 252.682 522.391 244.174C516.85 235.667 509.364 228.615 500.558 223.607C491.751 218.599 481.881 215.781 471.77 215.388C461.658 214.994 451.6 217.037 442.435 221.345C434.655 213.658 425.206 207.888 414.832 204.49C404.458 201.093 393.441 200.159 382.647 201.762C371.853 203.366 361.576 207.463 352.624 213.732C343.672 220.001 336.29 228.271 331.057 237.892C321.992 238.779 313.315 242.027 305.882 247.316C298.45 252.604 292.519 259.75 288.676 268.046C284.104 266.491 279.244 265.978 274.45 266.546C269.656 267.114 265.048 268.748 260.961 271.329C256.874 273.91 253.411 277.374 250.823 281.469C248.235 285.563 246.587 290.186 246 295H572Z" fill="white"/>
<path d="M1004 462C1006.82 454.411 1012.23 448.063 1019.27 444.079C1026.32 440.095 1034.54 438.732 1042.5 440.232C1043.51 430.441 1046.85 421.034 1052.23 412.797C1057.62 404.56 1064.9 397.733 1073.47 392.884C1082.03 388.036 1091.63 385.307 1101.46 384.927C1111.3 384.546 1121.08 386.524 1129.99 390.696C1137.56 383.254 1146.74 377.669 1156.83 374.38C1166.92 371.09 1177.63 370.186 1188.13 371.738C1198.62 373.29 1208.62 377.256 1217.32 383.325C1226.03 389.394 1233.2 397.399 1238.29 406.713C1247.11 407.572 1255.54 410.716 1262.77 415.835C1270 420.954 1275.76 427.87 1279.5 435.9C1283.95 434.393 1288.67 433.897 1293.34 434.447C1298 434.996 1302.48 436.578 1306.45 439.078C1310.43 441.577 1313.8 444.931 1316.31 448.896C1318.83 452.861 1320.43 457.337 1321 461.998L1004 462Z" fill="white"/>
<path d="M320 106C317.894 100.329 313.85 95.5854 308.583 92.6085C303.316 89.6315 297.165 88.6132 291.22 89.7337C290.463 82.4172 287.966 75.388 283.938 69.233C279.91 63.078 274.467 57.976 268.065 54.3529C261.662 50.7299 254.485 48.691 247.133 48.4066C239.782 48.1222 232.469 49.6006 225.805 52.7182C220.15 47.1572 213.281 42.9835 205.739 40.5254C198.197 38.0672 190.188 37.3915 182.34 38.5514C174.493 39.7113 167.022 42.6752 160.514 47.21C154.006 51.7448 148.639 57.727 144.835 64.6863C138.246 65.3282 131.938 67.6778 126.535 71.5029C121.132 75.328 116.821 80.4961 114.027 86.4969C110.702 85.371 107.169 84.9999 103.683 85.4106C100.197 85.8213 96.8464 87.0036 93.8748 88.8713C90.9033 90.7391 88.3854 93.2454 86.5043 96.2081C84.6232 99.1708 83.426 102.515 83 105.999L320 106Z" fill="white"/>
<path d="M496 584.265C496.813 582.074 498.375 580.242 500.409 579.092C502.443 577.942 504.819 577.549 507.115 577.981C507.408 575.155 508.372 572.441 509.928 570.063C511.484 567.686 513.586 565.716 516.058 564.316C518.531 562.917 521.302 562.13 524.141 562.02C526.98 561.91 529.804 562.481 532.378 563.686C534.562 561.537 537.214 559.925 540.127 558.976C543.04 558.026 546.133 557.765 549.163 558.213C552.194 558.661 555.079 559.806 557.593 561.558C560.106 563.309 562.179 565.62 563.648 568.308C566.192 568.557 568.628 569.465 570.715 570.942C572.802 572.42 574.467 574.416 575.546 576.734C576.83 576.299 578.194 576.156 579.54 576.315C580.886 576.473 582.18 576.93 583.327 577.651C584.474 578.373 585.447 579.34 586.173 580.484C586.9 581.628 587.362 582.92 587.527 584.265H496Z" fill="white"/>
</svg>
