<svg fill="none" height="823" viewBox="0 0 411 823" width="411" xmlns="http://www.w3.org/2000/svg">
    <clipPath id="a">
        <path d="m0 0h411v823h-411z" />
    </clipPath>
    <g clip-path="url(#a)">
        <path d="m411 0h-411v826h411z" fill="#afe0ff" />
        <path
            d="m413.948 334.897c1.322 1.438 5.452.534 7.176-.057 1.405-.374 2.681-1.119 3.692-2.157 1.012-1.038 1.72-2.33 2.049-3.736 1.278-4.999-3.599-8.316-8.323-7.126.194-3.95-3.695-5.578-7.119-7.039-2.264-.965-5.382-1.341-7.355.276-1.832-3.415-8.391-6.718-11.73-3.098-5.095-4.936-17.135 3.371-16.64 9.684-2.747.179-5.46 3.804-5.575 6.43-.238 5.412 5.243 7.32 9.466 7.904 1.633.226 3.71.072 5.28.458 1.764.433 2.837 1.741 4.955 1.988 1.946.355 3.949.222 5.83-.385s3.58-1.67 4.944-3.092c3.172 4.047 11.05 4.404 13.35-.05z"
            fill="#dcf1ff" />
        <path
            d="m373.697 328.824c.338-.037.68-.011 1.008.076.675.178 1.385 1.119 1.915.159.678-1.233-.63-3.055 1.205-3.702.584-.183 1.205-.212 1.803-.084.598.129 1.151.41 1.606.816.587.495 1.701 2.209 2.463 1.017 1.145-1.781-1.953-5.998 2.308-4.943.668.098 1.297.371 1.823.791.527.42.931.971 1.171 1.598.371.956 1.033 2.9 2.46 2.291.925-.396.687-1.661.929-2.411.854-2.647 4.53-3.969 7.087-3.741 2.58.316 4.995 1.428 6.905 3.178 1.002 1.118 1.581 2.549 1.635 4.044.044.713-.216 2.863.958 2.881.951.016 1.356-2.23 1.751-2.863.355-.529.865-.937 1.462-1.169.596-.232 1.25-.277 1.873-.128.912.198 1.748.652 2.408 1.308.314.311.559.684.718 1.096.16.411.23.851.207 1.291.19 1.552 1.41 2.726 1.958.567.619-2.446 1.27-4.73 4.435-4.506 1.251.127 2.409.715 3.245 1.648-.035.303-.091.604-.167.9-.329 1.406-1.037 2.698-2.049 3.736-1.011 1.038-2.287 1.783-3.692 2.157-1.728.598-5.858 1.495-7.176.057-2.3 4.462-10.178 4.108-13.339.043-1.364 1.422-3.063 2.485-4.944 3.092s-3.885.739-5.83.385c-2.119-.248-3.191-1.555-4.955-1.988-1.57-.387-3.647-.232-5.28-.458-3.289-.454-7.327-1.721-8.847-4.81.191-.568.528-1.078.976-1.479.552-.479 1.241-.776 1.97-.849z"
            fill="#85ccfb" />
        <path
            d="m322.706 366.648c1.003.757 3.785.57 2.799-1.4-.774-1.543-3.433-.713-4.721-.891-2.153-.28-2.433-2.09-3.854-3.301-1.211-.726-2.588-1.133-4.002-1.185-1.706-.137-3.423-.077-5.115.178-1.293.45-2.705.435-3.988-.042-1.52-.754-1.746-2.662-3.136-3.398-1.045-.55-2.483-.01-3.492-.575-.681-.381-.897-1.121-1.595-1.545-.87-.441-1.812-.728-2.782-.846-1.869-.231-3.765-.11-5.589.356-1.873.535-2.207 2.156-3.748 2.938-.906.46-2.068-.034-2.996.492-1.216.688-1.128 2.262-2.558 2.631-1.276.328-3.066-1.03-4.609-.752-1.186.235-2.252.875-3.011 1.81-.741.802.18.944-1.024 1.384-.459.168-1.05-.356-1.462-.219-.43.159-.795.455-1.036.842s-.345.843-.295 1.296c.507 2.494 7.129 2.997 8.929 2.633 1.663-.335 2.111-.891 3.656-.196 2.117.96 2.914 2.863 5.372 1.509 2.707-1.489 1.794-1.901 4.912-.743 2.529.939 4.333.232 6.857-.078 2.007-.184 4.031-.074 6.007.324 1.648.187 3.316.075 4.924-.329 1.724-.214 2.419 1.318 3.768 1.387 1.577.082 3.073-1.945 4.898-1.942.836 0 1.871.653 2.597.549.819-.117.795-.447 1.418-.7.972-.406 1.353-.989 2.876-.187z"
            fill="#dcf1ff" />
        <path
            d="m267.776 364.278c.603-.091 1.216.728 1.832.664.669-.073.775-.792 1.424-.88 1.563-.208 2.842 1.791 4.586 1.618.829-.196 1.608-.56 2.287-1.071.679-.51 1.245-1.155 1.66-1.894 1.513-2.137 2.643.506 4.358-.092 1.202-.419 1.1-2.364 2.592-2.339.339.032.663.153.939.35.277.197.496.464.635.772.107.397-.18.581-.19.969-.018 1.388 1.306 1.586 2.603 1.381 1.763-.278 2.318-1.604 2.691-3.18.271-1.155.179-2.127 1.661-2.113 1.19.054 2.35.387 3.386.973 1.361.872 2.511 2.034 3.365 3.401.539.766 1.149 2.248 2.06 2.656 1.927.862 2.915-1.721 4.665-.153 1.891 1.685 2.038.267 3.263-1.164 1.936-2.26 3.78-.413 5.368 1.172 1.365 1.365 2.264.063 3.768.015.888-.031 1.29.604 2.251.547.499-.029 2.176-.145 2.668.333-.276.994-2.153 1.003-2.946.404-1.523-.802-1.903-.212-2.879.178-.623.253-.6.583-1.418.7-.726.104-1.762-.545-2.598-.548-1.824 0-3.32 2.023-4.897 1.942-1.346-.07-2.04-1.604-3.768-1.388-1.608.404-3.277.516-4.925.329-1.975-.398-3.999-.507-6.006-.324-2.525.31-4.328 1.017-6.857.078-3.122-1.157-2.205-.746-4.913.743-2.457 1.354-3.254-.548-5.371-1.509-1.545-.7-1.993-.14-3.657.196-1.559.314-6.722-.021-8.412-1.735.074-.484.319-.96.775-1.031z"
            fill="#85ccfb" />
        <path
            d="m364.827 106.637c3.687 3.533 15.212 1.331 20.031-.14 8.321-2.537 13.777-6.7503 16.022-14.4997 3.563-12.2922-10.047-20.4602-23.225-17.5475.538-9.718-10.311-13.7174-19.86-17.3178-6.317-2.3765-15.01-3.3028-20.505.6788-5.11-8.4033-23.409-16.5286-32.726-7.623-14.215-12.1443-47.807 8.2946-46.428 23.8255-7.661.4418-15.23 9.3581-15.553 15.8195-.667 13.3152 14.627 18.0092 26.411 19.4462 4.555.554 10.352.179 14.733 1.125 4.921 1.068 7.912 4.275 13.827 4.891 11.552 1.192 21.974-.915 30.057-8.551 8.818 9.998 30.801 10.869 37.216-.107z"
            fill="#dcf1ff" />
        <path
            d="m255.592 94.9317c1.666-.5526 3.399-.8804 5.153-.9745 4.462-.3349 7.366 2.3587 11.272 3.8124 4.292 1.6033 3.748-.775 2.313-3.9496-2.099-4.6318 3.509-9.6199 6.997-11.9002 4.426-2.9003 9.474-5.5939 14.923-4.1259 4.557 1.231 5.562 5.5386 7.653 9.1603 1.052 1.8207 2.227 3.3848 4.468 3.2387 2.461-.1567 3.866-2.2197 5.102 1.0689.775 2.0701.429 3.8854 2.562 5.0078 2.731 1.4376 4.819-.4668 5.617-2.9484 1.328-4.133-.832-8.5511.02-12.6485 1.653-7.9418 11.929-11.8646 19.229-11.234 2.996.1732 5.879 1.1913 8.312 2.9348 2.433 1.7434 4.314 4.1398 5.424 6.9079 1.659 4.5659 1.964 13.06 6.943 15.6022 1.726-2.2999 1.277-5.0273.703-7.5054-1.209-5.2233 1.604-6.0054 6.568-5.3551 7.218.9477 16.124 6.2013 14.55 14.6936 5.383.1354 9.688-1.3094 13.842 2.3017-3.279 3.6686-7.591 6.2756-12.379 7.4826-4.819 1.471-16.344 3.673-20.031.14-6.416 10.976-28.399 10.105-37.217.104-8.082 7.639-18.504 9.746-30.056 8.551-5.921-.61-8.906-3.825-13.827-4.892-4.382-.95-10.178-.57-14.734-1.124-6.778-.827-14.702-2.744-20.093-6.747 1.819-2.086 2.217-4.8186 4.485-6.4719.677-.4772 1.418-.8575 2.201-1.1294z"
            fill="#85ccfb" />
        <path
            d="m255.702 406.629c.606.58 2.499.219 3.292-.024.614-.124 1.183-.411 1.646-.83.464-.419.804-.955.986-1.551.585-2.021-1.651-3.362-3.816-2.883.089-1.603-1.694-2.255-3.264-2.85-.532-.242-1.113-.358-1.698-.339-.584.02-1.156.173-1.671.449-.84-1.38-3.847-2.715-5.382-1.247-2.333-1.995-7.855 1.363-7.629 3.919-.645.117-1.237.429-1.695.895s-.758 1.062-.86 1.705c-.109 2.187 2.404 2.959 4.34 3.196.748.09 1.701.028 2.42.178.81.178 1.301.703 2.272.803.876.149 1.776.1 2.631-.143s1.644-.675 2.308-1.262c1.453 1.649 5.061 1.788 6.12-.016z"
            fill="#dcf1ff" />
        <path
            d="m237.753 404.705c.274-.091.559-.145.847-.16.734-.055 1.211.388 1.853.627.706.262.616-.128.379-.65-.344-.761.578-1.579 1.15-1.96.336-.282.728-.488 1.152-.605.423-.118.867-.143 1.301-.074.748.203.913.911 1.256 1.506.179.299.358.556.733.534.404-.027.635-.365.838.178.128.341.07.64.422.823.448.237.791-.076.922-.484.219-.679-.136-1.406 0-2.079.242-.615.684-1.132 1.257-1.467.574-.334 1.243-.468 1.902-.379.492.029.966.196 1.366.483.399.286.709.68.891 1.135.273.75.323 2.138 1.141 2.563.111-.183.18-.39.199-.603.02-.213-.008-.429-.084-.629-.199-.859.264-.987 1.077-.88 1.185.155 2.648 1.018 2.389 2.413.887.024 1.593-.215 2.275.378-.539.603-1.248 1.031-2.034 1.229-.793.243-2.691.604-3.292.023-1.054 1.805-4.665 1.661-6.115.018-.664.588-1.453 1.019-2.308 1.263-.855.243-1.754.292-2.631.143-.971-.1-1.462-.629-2.271-.804-.718-.156-1.672-.094-2.42-.178-1.176-.095-2.31-.475-3.303-1.108.299-.344.359-.793.739-1.069.114-.079.238-.142.369-.187z"
            fill="#85ccfb" />
        <path
            d="m74.9757 155.699c7.3989 5.578 27.9103 4.205 20.6321-10.322-5.698-11.378-25.3093-5.303-34.8054-6.532-15.9136-2.06-17.9319-15.399-28.4094-24.332-6.7116-5.724-21.1129-7.918-29.50387-8.729-12.57922-1.027-25.23593-.597-37.71533 1.279-10.4865 1.534-18.6854 4.988-29.4087-.326-11.1987-5.553-12.8761-19.6193-23.1276-25.0368-7.6984-4.0689-18.2995-.0873-25.7385-4.2506-5.023-2.8148-6.586-8.2554-11.761-11.3854-5.28-3.1942-14.328-5.3819-20.514-6.2352-13.779-1.6942-27.755-.7986-41.2 2.6401-13.814 3.9567-16.269 15.8997-27.629 21.6592-6.679 3.3849-15.249-.244-22.097 3.6254-8.962 5.0665-8.312 16.6803-18.855 19.3963-9.411 2.425-22.605-7.5869-33.989-5.544-9.593 1.723-15.913 6.554-22.193 13.362-5.457 5.905 1.292 6.962-7.547 10.198-3.393 1.247-7.742-2.672-10.781-1.603-5.888 2.068-11.152 9.16-9.817 15.722 3.742 18.395 52.558 22.09 65.829 19.418 12.269-2.475 15.572-6.601 26.961-1.44 15.609 7.073 21.477 21.107 39.608 11.126 19.951-10.985 13.192-14.024 36.207-5.482 18.658 6.925 31.947 1.712 50.563-.582 14.734-1.818 29.9413-.057 44.2886 2.401 14.9914 2.569 22.489-.713 36.2999-2.432 12.7219-1.582 17.8332 9.716 27.7545 10.231 11.629281.604 22.6593-14.348 36.1168-14.314 6.1555.016 13.8001 4.81 19.1572 4.035 6.0264-.864 5.8541-3.297 10.4488-5.166 7.1907-2.945 10.0021-7.279 21.2259-1.381z"
            fill="#dcf1ff" />
        <path
            d="m-329.664 134.836c4.547-1.603 9.054 2.809 14.197.606 4.717-2.019 5.655-5.167 12.137-5.097 9.51-.169 18.707 3.371 25.618 9.86 5.162-8.686 11.312-17.636 22.726-12.8 10.185 4.322 13.837 14.161 26.848 10.018 8.371-2.673 6.294-6.143 10.62-12.626 1.803-2.567 4.357-4.523 7.315-5.603 2.959-1.081 6.181-1.233 9.23-.438 6.304 1.525 8.279 7.607 13.005 11.58 7.535-18.132 28.623-24.893 47.158-20.824 6.797 1.493 14.693 5.566 20.484 8.729 4.179 2.284 23.8943 20.986 19.836 26.452 8.5973-11.58 16.3261-12.494 22.3561 1.97 8.4322-14.882 33.6231-16.83 48.6701-16.033 14.9197.794 26.18307 6.948 30.420709 22.129 4.896091-10.867 25.223191-16.136 35.357991-9.668 4.6484 2.966 4.1263 5.854 11.0497 5.523 4.9929-.234 9.6485-2.339 14.532-3.084 11.7531-1.781 26.9114-1.279 33.0525 10.229-5.3177 5.122-14.245 2.945-19.9789-.069-11.2275-5.906-14.0352-1.564-21.2223 1.35-4.5947 1.864-4.4224 4.297-10.4487 5.167-5.3572.767-13.0018-4.021-19.1573-4.037-13.4557-.034-24.487512 14.918-36.1168 14.314-9.9213-.515-15.0329-11.813-27.7547-10.231-13.8145 1.717-21.3083 5-36.2997 2.432-14.3527-2.459-29.5537-4.219-44.2887-2.402-18.616 2.295-31.905 7.507-50.563.583-23.015-8.543-16.256-5.503-36.207 5.481-18.131 9.977-24.005-4.053-39.608-11.125-11.389-5.166-14.692-1.035-26.961 1.439-12.415 2.494-55.928-.568-64.555-16.033 1.774-3.563 4.822-6.341 8.548-7.792z"
            fill="#85ccfb" />
        <path
            d="m175.933 348.144c1.667 1.247 6.288.948 4.65-2.327-1.284-2.563-5.703-1.195-7.844-1.471-3.588-.463-4.04-3.47-6.401-5.482-2.009-1.203-4.293-1.881-6.638-1.968-2.835-.233-5.687-.136-8.499.287-2.363.345-4.21 1.126-6.625-.073-2.525-1.247-2.901-4.42-5.203-5.642-1.735-.916-4.127-.018-5.799-.957-1.133-.634-1.483-1.86-2.65-2.565-1.446-.734-3.011-1.211-4.623-1.408-3.104-.38-6.253-.178-9.283.595-3.11.891-3.665 3.583-6.225 4.882-1.505.762-3.437-.056-4.98.815-2.019 1.142-1.872 3.759-4.247 4.372-2.1205.545-5.0952-1.71-7.6589-1.247-1.9708.389-3.7409 1.454-5.0001 3.009-1.2308 1.331.2906 1.57-1.7008 2.298-.7643.282-1.7439-.604-2.4292-.356-.7138.261-1.3193.751-1.7201 1.393-.4009.641-.5741 1.398-.4921 2.148.8432 4.146 11.8409 4.978 14.8317 4.374 2.7645-.558 3.5095-1.487 6.0745-.324 3.517 1.603 4.844 4.756 8.926 2.506 4.494-2.474 2.973-3.158 8.158-1.234 4.203 1.56 7.198.386 11.392-.132 3.335-.306 6.698-.126 9.981.534 3.376.579 5.066-.16 8.177-.548 2.871-.357 4.019 2.189 6.254 2.307 2.621.135 5.106-3.234 8.138-3.227 1.387 0 3.109 1.084 4.317.909 1.358-.194 1.319-.743 2.354-1.162 1.602-.659 2.235-1.637 4.765-.306z"
            fill="#dcf1ff" />
        <path
            d="m84.4038 343.675c.6853-.24 1.6649.643 2.4292.357 1.9573-.713 1.9734-4.276 5.0036-3.654 1.7187.356 3.2779 4.175 5.133 3.709 2.196-.554 2.1241-6.398 5.3484-5.222 2.346.857-1.292 6.146 2.971 6.301 3.947.145.872-4.115 2.777-5.793 2.79-2.458 4.844 3.385 7.16 2.617 1.457-.481 1.583-3.116 2.198-4.217.829-1.577 2.033-2.93 3.506-3.942 5.168-3.207 11.502 3.385 14.912 6.755 1.957 1.928 2.953 3.991 5.921 3.919 1.69-.118 3.307-.727 4.652-1.751 3.758-2.186 7.085-2.562 10.779 0 1.255.87 1.882 3.098 3.049 3.631 1.127.513 2.263-.622 3.298-.812 1.555-.251 3.147-.164 4.665.256 1.907.921 4.015 1.358 6.134 1.272 1.84-.028 4.625-.575 5.769 1.308-.662.304-1.391.438-2.12.39-.728-.048-1.433-.277-2.049-.667-2.53-1.33-3.163-.356-4.783.305-1.035.419-.996.967-2.354 1.162-1.207.178-2.93-.905-4.317-.909-3.032 0-5.516 3.362-8.138 3.226-2.235-.117-3.387-2.663-6.254-2.307-3.111.389-4.801 1.128-8.177.549-3.283-.66-6.645-.84-9.981-.534-4.194.518-7.188 1.692-11.392.131-5.185-1.924-3.664-1.247-8.158 1.235-4.085 2.25-5.409-.912-8.926-2.507-2.565-1.163-3.31-.233-6.0743.325-2.8508.575-12.9622-.162-14.6289-3.823.4026-.593.9769-1.049 1.647-1.31z"
            fill="#85ccfb" />
        <path
            d="m67.9859 316.548c3.5649 2.688 13.4556 2.027 9.9446-4.972-2.745-5.482-12.1997-2.556-16.7692-3.148-7.668-.992-8.6404-7.418-13.689-11.724-3.2293-2.756-10.1726-3.814-14.2165-4.208-6.0604-.495-12.1581-.288-18.1704.617-5.0521.739-9.00276 2.405-14.173336-.157-5.394824-2.672-6.204064-9.454-11.143164-12.064-3.7102-1.96-8.8198-.041-12.4008-2.047-2.422-1.358-3.1736-3.978-5.6674-5.487-3.0919-1.569-6.4373-2.587-9.8837-3.007-6.6389-.817-13.3735-.385-19.8517 1.272-6.6507 1.906-7.8382 7.66-13.312 10.436-3.2186 1.63-7.3559-.118-10.6463 1.745-4.3184 2.443-4.0043 8.039-9.0852 9.346-4.5337 1.169-10.8918-3.655-16.3768-2.672-4.213.833-7.998 3.11-10.692 6.433-2.629 2.85.622 3.354-3.637 4.915-1.634.598-3.73-1.292-5.203-.777-1.524.561-2.817 1.611-3.674 2.983-.856 1.372-1.227 2.989-1.055 4.594 1.803 8.863 25.322 10.641 31.716 9.351 5.9113-1.192 7.5028-3.18 12.9909-.693 7.5173 3.408 10.3483 10.17 19.0837 5.36 9.6127-5.292 6.3565-6.757 17.4457-2.642 8.9884 3.337 15.3915.827 24.3602-.279 7.1353-.651 14.328-.261 21.3497 1.156 7.22122 1.247 10.83438-.344 17.4887-1.171 6.1304-.762 8.592 4.682 13.3733 4.93 5.6029.29 10.9169-6.914 17.4026-6.898 2.9656.009 6.6489 2.316 9.2306 1.945 2.9028-.417 2.8204-1.589 5.0343-2.494 3.4644-1.402 4.817-3.493 10.2262-.643z"
            fill="#dcf1ff" />
        <path
            d="m-118.348 312.589c6.338 1.151 5.007-7.358 9.564-8.897 4.399-1.484 8.612 3.185 12.1028 4.988 3.7084 1.917 5.5204 1.538 8.843-1.069 3.0751-2.407 4.4387-3.107 8.5382-2.089 2.6104.648 5.9096 2.727 8.703 2.262 5.5617-.921 4.5211-9.452 8.9974-11.936 8.5327-4.747 11.5073 10.712 18.9509 8.704 4.0367-1.088 4.374-6.427 9.654-6.03 5.768.435 7.0796 7.392 12.826 8.029 5.3392.592 10.86323-3.518 16.34417-3.887 7.96038-.534 18.75013 1.142 24.47863 7.35 2.022 2.19 3.145 7.011 7.1207 6.041 2.4185-.587 4.4529-4.236 6.4228-5.665 3.5021-2.54 6.1699-3.981 10.5026-3.242 2.5442.429 4.9865 1.321 7.2033 2.633 1.9215 1.199 3.5613 4.08 5.5509 4.422 5.7824.994 17.6556-7.741 20.8114 1.628-1.6147 2.85-7.6446 2.694-10.2694.713-5.4091-2.851-6.7618-.754-10.2262.652-2.2139.89-2.1314 2.07-5.0343 2.494-2.5816.37-6.2649-1.937-9.2306-1.946-6.4838-.016-11.7978 7.189-17.4026 6.898-4.7812-.247-7.2427-5.701-13.3731-4.929-6.65425.826-10.26762 2.408-17.48885 1.17-7.02175-1.416-14.21445-1.806-21.34975-1.156-8.9704 1.106-15.3717 3.616-24.3601.28-11.0893-4.115-7.833-2.651-17.4457 2.642-8.7355 4.81-11.5665-1.96-19.0837-5.361-5.4881-2.494-7.0794-.499-12.991.693-5.9925 1.21-27.0335-.278-31.1315-7.769.135-.271.291-.532.467-.778 3.846-5.386 8.459 2.453 12.306 3.155z"
            fill="#85ccfb" />
        <path
            d="m199.027 389.909c3.995-.823 6.372-2.57 2.96-6.201-2.322-2.469-7.071-4.165-9.805-1.521-.269-3.471-4.458-9.3-8.75-7.962-3.487 1.087-2.757 5.302-6.848 4.848-3.958-.44-4.77-4.301-7.442-.161-.985 1.531-.321 2.329-2.092 2.979-1.533.563-3.331-.802-4.946-.638-.649 1.144-.985 4.151-1.729 4.844-.993.925-2.094-.388-3.022.511-3.706 3.59 2.185 3.919 4.825 3.919 7.481-.017 14.961 0 22.442 0 4.811.253 9.635.046 14.407-.618z"
            fill="#dcf1ff" />
        <path
            d="m160.158 388.026c.523-.178.497-.826 1.053-.947 1.062-.232 1.769 1.086 2.775 1.108 1.527.03 2.207-1.734 4.058-1.554 2.652.257 3.079 2.647 5.167.064.68-.839.863-1.943 2.209-1.938 1.1 0 1.857 1.096 2.587 1.767 1.116-.607 1.184-2.483 2.043-3.402.953-.91 2.179-1.483 3.492-1.632 3.78-.225 5.691 4.644 7.259 7.286 2.265-2.017 4.711-3.16 7.284-1.156.737.574.195.591 1.051.848.48.061.969.026 1.435-.103 1.152-.197 2.207-.76 3.009-1.604-.011 1.637-1.904 2.605-4.552 3.15-4.772.662-9.597.867-14.408.613-7.481 0-14.963-.018-22.442 0-1.846.12-3.694-.209-5.383-.959.241-.513.582-.974 1.003-1.355.741-.733 1.547.087 2.36-.186z"
            fill="#85ccfb" />
        <path
            d="m291.397 300.955c7.038 1.84 6.931-12.203 4.306-16.541-.581-.957-2.616-.691-2.844-1.041-.506-.776-.513-2.027-.96-2.734-2.086-3.3-2.623-5.941-6.266-8.633-3.026-2.318-6.631-3.773-10.428-4.21-2.191-.441-4.467-.17-6.491.773-1.166.569-1.686 2.576-2.404 2.86-2.512.988-5.664-.357-8.285 1.015-3.168 1.646-6.459 6.508-4.684 9.771-11.967.073-9.53 15.376-.436 18.234 1.324.417 3.023-.478 4.306.057 1.598.663 2.153 3.287 4.245 3.949 3.43 1.084 7.176-1.603 9.234-3.901 3.744 6.581 13.484 6.732 14.397-1.575.677 1.044 1.657 1.86 2.809 2.341 1.153.481 2.425.604 3.65.355.579-.448.692-1.009-.149-.72z"
            fill="#dcf1ff" />
        <path
            d="m252.896 300.449c-2.161-.772-4.044-2.162-5.41-3.995s-2.155-4.027-2.267-6.305c2.225-4.14 7.986-2.268 11.312.91.517.613 1.197 1.07 1.963 1.318.765.249 1.586.279 2.368.088 5.188-.738 3.155-12.018 10.655-9.073 1.896.744 2.153 2.85 3.64 3.974 2.702 2.054 3.036-.852 5.043-1.888.628-.259 1.303-.385 1.982-.372s1.348.166 1.965.448c1.136.533 2.103 1.364 2.799 2.402.695 1.039 1.092 2.246 1.148 3.491.262 2.069.734 5.11 3.432 3.754 1.278-.641 2.333-2.624 3.947-2.093.451.182.843.485 1.131.875.287.39.46.852.498 1.334-.538 3.44-2.106 6.126-5.115 5.718-.026.132-.079.257-.157.367-.077.11-.177.203-.293.273-1.225.25-2.497.126-3.65-.355-1.152-.481-2.131-1.297-2.809-2.34-.913 8.307-10.653 8.155-14.397 1.574-2.063 2.304-5.804 4.988-9.234 3.902-2.098-.663-2.647-3.289-4.243-3.95-1.285-.525-2.984.365-4.308-.057z"
            fill="#85ccfb" />
        <path d="m811.011 506.946-605.506-50.126-605.505 50.126v316.418h1211.011z" fill="#9cbc40" />
        <path
            d="m200.733 456.334v-.018c.001-.108-.021-.214-.062-.314s-.102-.19-.179-.266-.168-.137-.268-.178-.208-.062-.316-.062-.215.022-.314.065-.187.106-.26.185c-.078-.281-.247-.529-.48-.706s-.518-.273-.812-.274c-.147-.004-.293.02-.43.071v-.053c0-.425-.171-.833-.473-1.134-.303-.301-.714-.47-1.142-.47-.197 0-.391.036-.574.107.014-.033.02-.07.018-.107 0-.425-.17-.833-.473-1.133-.303-.301-.714-.47-1.142-.47-.36 0-.709.121-.99.345-.28.223-.476.535-.553.884-.153-.208-.352-.377-.583-.495-.23-.118-.485-.18-.745-.182-.325-.002-.643.093-.912.275-.27.181-.477.44-.595.741-.285-.256-.656-.396-1.04-.392-.223-.002-.444.044-.648.133s-.387.22-.536.384c-2.281-1.12-4.275-2.74-5.831-4.739-.791-.002-1.552.305-2.117.855-.305-.108-.627-.162-.951-.16-.709-.008-1.397.239-1.938.694-.365-.144-.755-.217-1.148-.213-.454-.002-.903.102-1.309.302-.269-.452-.652-.827-1.111-1.086-.46-.26-.98-.395-1.509-.392h-.054c-2.18.762-4.524.942-6.797.523s-4.396-1.422-6.156-2.91h-.036c-.101-.93-.422-1.823-.936-2.606-.515-.783-1.208-1.435-2.024-1.902.296-.73.449-1.51.448-2.298-.001-1.555-.615-3.049-1.71-4.161-1.095-1.113-2.585-1.756-4.151-1.793s-3.085.535-4.232 1.594c-1.148 1.059-1.832 2.522-1.909 4.075-.64-.222-1.313-.336-1.991-.338-1.577.001-3.09.615-4.217 1.71.067-.346.097-.699.09-1.051.003-1.842-.683-3.619-1.926-4.987-1.243-1.367-2.954-2.226-4.8-2.411-1.846-.184-3.694.32-5.187 1.414-1.492 1.094-2.522 2.7-2.888 4.505-.083-.014-.167-.02-.251-.017-1.43-.001-2.829.407-4.032 1.175-1.202.767-2.157 1.862-2.75 3.154-.747-1.466-1.888-2.697-3.298-3.555-1.41-.859-3.032-1.312-4.686-1.309h-.143c.093-.505.141-1.018.143-1.532.001-2.355-.94-4.613-2.615-6.28s-3.948-2.605-6.3192-2.61c-.1861-.005-.3725.007-.5563.036-.4789-1.308-1.2637-2.484-2.2899-3.432-1.0262-.947-2.2643-1.64-3.6125-2.019.3615-1.056.5432-2.163.5381-3.278 0-2.74-1.0962-5.369-3.0477-7.306-1.9514-1.938-4.5981-3.027-7.3579-3.027s-5.4065 1.089-7.3579 3.027c-1.9515 1.937-3.0479 4.566-3.0479 7.306-.0034.154.0026.309.0179.463-.9991-.308-2.0395-.464-3.0858-.463-1.0404-.003-2.0753.154-3.068.463.0149-.154.021-.309.018-.463.0005-2.604-.8682-5.134-2.47-7.195s-3.8463-3.537-6.3827-4.197c-2.5363-.66-5.2216-.466-7.6353.551-2.4138 1.017-4.42 2.799-5.7049 5.069-2.1778-2.026-5.0534-3.148-8.0375-3.136.0009-3.137-1.1211-6.172-3.1657-8.564s-4.8787-3.985-7.9963-4.493c-3.1177-.509-6.3161.099-9.0241 1.715-2.7081 1.616-4.7496 4.135-5.76011 7.108-1.90704-2.112-4.22763-3.816-6.82025-5.007-2.592589-1.191-5.40262-1.845-8.25824-1.921-2.85565-.076-5.6969.427-8.3502 1.478s-5.063 2.629-7.0816 4.636c-.516-3.487-2.2771-6.673-4.962-8.977-2.6848-2.304-6.1146-3.573-9.6634-3.576-.3408 0-.6816.018-1.0225.036 1.4154-3.808 1.3347-8.006-.2258-11.758s-4.4864-6.783-8.1956-8.49c-3.7091-1.707-7.9296-1.964-11.8212-.721-3.8917 1.243-7.1692 3.896-9.1805 7.43-2.6554-.828-5.45-1.125-8.2217-.873s-5.4653 1.048-7.9251 2.341c-3.15-3.054-7.3313-4.835-11.7304-4.996-4.3991-.162-8.7018 1.307-12.0698 4.121-1.41-3.067-3.679-5.666-6.536-7.489-2.856-1.822-6.18-2.791-9.575-2.79-.305 0-.61 0-.915.018 1.311-4.07 1.208-8.459-.292-12.464-1.501-4.005-4.313-7.393-7.984-9.622-3.672-2.228-7.991-3.168-12.265-2.668s-8.254 2.41-11.304 5.425c-1.663-2.958-4.091-5.421-7.034-7.134-2.943-1.714-6.294-2.615-9.705-2.611-.485 0-.951.018-1.417.053 1.918-4.865 1.895-10.274-.065-15.124-1.96-4.849-5.709-8.774-10.483-10.972-4.774-2.199-10.213-2.506-15.207-.859s-9.167 5.124-11.668 9.721c-1.313-.252-2.646-.381-3.983-.384-2.918-.001-5.804.604-8.473 1.774s-5.063 2.881-7.028 5.022c-2.93-3.897-7.081-6.716-11.8-8.014s-9.739-1.001-14.27.844c.018-.268.018-.553.018-.82-.001-3.267-.649-6.502-1.909-9.521-1.26-3.018-3.107-5.76-5.434-8.07-2.328-2.309-5.091-4.141-8.131-5.389-3.041-1.249-6.299-1.891-9.59-1.889-.977-.004-1.954.055-2.924.178v-.178c.005-5.46-1.911-10.749-5.416-14.955s-8.379-7.064-13.781-8.081c-5.401-1.016-10.991-.128-15.803 2.512-4.812 2.641-8.544 6.867-10.552 11.949-3.329-1.13-6.882-1.455-10.364-.947-3.481.509-6.789 1.835-9.65 3.87-2.861 2.034-5.191 4.717-6.796 7.827-1.605 3.109-2.44 6.553-2.434 10.047 0 .729.04 1.45.11 2.161-3.612-3.178-8.071-5.252-12.841-5.974-4.771-.722-9.65-.06-14.051 1.905-4.401 1.966-8.136 5.152-10.757 9.175-2.622 4.023-4.017 8.712-4.019 13.504v178.112l605.505-50.126z"
            fill="#446117" />
        <path
            d="m173.436 458.969h-.034c-.388-.696-1.03-1.217-1.794-1.457-.016-.107-.011-.196-.023-.285-.094-.696-.428-1.339-.945-1.819-.516-.481-1.184-.769-1.89-.816s-1.407.15-1.984.557c-.576.407-.994 1-1.181 1.677-.512-.216-1.073-.292-1.625-.222-.356.059-.701.174-1.021.34-.489-.449-1.073-.785-1.709-.982-.635-.197-1.308-.251-1.967-.158-.59.084-1.159.279-1.676.575-.446-.598-1.035-1.076-1.714-1.39-.679-.315-1.426-.457-2.174-.413-.748.043-1.473.272-2.11.664-.636.392-1.165.935-1.537 1.581-.114-.005-.229-.001-.343.012-1.095.153-2.095.703-2.806 1.545-1.115-.591-2.39-.815-3.642-.641-.884.769-1.976 1.265-3.14 1.428s-2.351-.015-3.415-.511c-.455.062-.901.179-1.328.347-.729-1.313-1.842-2.377-3.193-3.049-1.35-.672-2.874-.921-4.371-.715-1.3.191-2.526.723-3.55 1.541-.02-.016-.038-.012-.058-.028l-.021-.141c-.136-.964-.462-1.892-.96-2.731s-1.157-1.572-1.94-2.157c-.783-.586-1.675-1.012-2.624-1.256-.949-.243-1.938-.297-2.908-.161-1.465.194-2.835.826-3.929 1.81-1.104-1.553-2.617-2.775-4.374-3.532-1.756-.757-3.689-1.02-5.585-.759-.368.056-.732.131-1.091.224.436-1.151.626-2.379.557-3.607s-.396-2.428-.959-3.523c-.5624-1.095-1.3492-2.062-2.3098-2.838s-2.0738-1.345-3.2683-1.669c-1.1944-.324-2.4441-.398-3.6687-.215-1.2247.182-2.3975.617-3.4434 1.275-1.046.658-1.9421 1.526-2.631 2.548-.6888 1.022-1.1552 2.175-1.3694 3.387-.9758-.203-1.9792-.24-2.9673-.107-1.608.231-3.1222.893-4.379 1.915-1.2568 1.023-2.2085 2.367-2.7527 3.887-1.4159-.735-2.9836-1.135-4.5809-1.168-1.5973-.034-3.1808.299-4.6269.973-1.4462.675-2.7158 1.672-3.7098 2.914-.9939 1.242-1.6851 2.695-2.0198 4.246-1.2475-.301-2.5419-.362-3.8125-.178-1.4998.209-2.9355.741-4.2062 1.559s-2.3457 1.902-3.1495 3.177c-2.12-1.12-4.5334-1.572-6.9186-1.296s-4.629 1.266-6.433 2.84l-.0108-.071c-.288-2.034-1.1076-3.958-2.3771-5.579-1.2694-1.622-2.9447-2.885-4.8586-3.663 1.1357-1.794 1.763-3.858 1.8158-5.976.0527-2.118-.4711-4.211-1.5162-6.058s-2.5726-3.379-4.4217-4.436-3.9511-1.598-6.0844-1.568c1.0152-2.744 1.0868-5.745.2037-8.534-.8832-2.789-2.6715-5.21-5.0858-6.883-2.41425-1.674-5.31866-2.507-8.25977-2.369-2.941097.138-5.75326 1.239-7.99783 3.132-1.92166-.939-4.01089-1.491-6.1479-1.627-2.137-.135-4.28.149-6.3063.837-2.0262.688-3.8959 1.766-5.502 3.172-1.6062 1.406-2.9173 3.113-3.8583 5.023-2.0534-.495-4.1902-.544-6.2646-.144-2.0744.399-4.0376 1.239-5.7557 2.46-1.7369-1.438-3.758-2.5-5.9331-3.116-2.1749-.616-4.4558-.773-6.6956-.461-1.5901.222-3.1373.682-4.5892 1.363-1.1208-2.134-2.7089-3.992-4.6478-5.437-1.9388-1.444-4.1791-2.439-6.5561-2.911-2.377-.471-4.8301-.408-7.1792.186-2.3491.593-4.5345 1.702-6.3952 3.245-5.3585-2.78-11.6002-3.366-17.3883-1.632-1.5547-3.777-4.3832-6.899-8.0012-8.833s-7.801-2.558-11.832-1.767c-4.03.792-7.659 2.95-10.263 6.106-2.605 3.156-4.023 7.112-4.013 11.192l-.179.025c-3.331.462-6.524 1.629-9.361 3.423s-5.252 4.172-7.082 6.974c-3.165-1.678-6.741-2.439-10.32-2.195-3.579.243-7.018 1.48-9.923 3.57.051-1.385-.019-2.772-.208-4.145-.862-6.059-4.078-11.542-8.959-15.276-4.881-3.735-11.04-5.425-17.16-4.709.926-4.016.61-8.216-.906-12.051s-4.162-7.127-7.592-9.445-7.485-3.555-11.634-3.549-8.2 1.255-11.623 3.584c-2.103-4.613-5.655-8.425-10.123-10.866s-9.612-3.379-14.662-2.673c-.481.067-.953.187-1.435.272l-.009-.071c-.691-4.837-2.984-9.308-6.517-12.707-3.534-3.4-8.108-5.533-12.998-6.064-4.891-.531-9.821.57-14.011 3.131-4.19 2.56-7.402 6.433-9.129 11.008-2.443-.425-4.937-.47-7.393-.135-3.697.518-7.217 1.902-10.269 4.037s-5.549 4.96-7.285 8.242c-2.784-1.522-5.85-2.468-9.013-2.781s-6.357.013-9.389.958c-3.032.946-5.841 2.491-8.255 4.544-2.415 2.052-4.386 4.569-5.794 7.398-3.625-3.71-8.326-6.203-13.447-7.131-5.121-.929-10.406-.245-15.117 1.954 1.741-3.488 2.633-7.332 2.605-11.225-.029-3.892-.976-7.724-2.767-11.187-1.791-3.462-4.375-6.46-7.544-8.75-3.169-2.291-6.836-3.811-10.705-4.439v149.402l574.931-47.594c-.43-.315-.966-.451-1.495-.378z"
            fill="#577a20" />
        <path
            d="m811.011 295.129v211.817l-605.506-50.125 6.854-.682c-.022-.076-.034-.154-.036-.232.001-.241.098-.471.269-.641.172-.171.404-.267.646-.268.205.007.401.082.556.214.058-.28.21-.532.432-.713.222-.182.5-.282.788-.284.229.01.451.077.646.196.092-.27.257-.509.477-.691.22-.183.487-.301.77-.344.283-.042.573-.006.837.104s.493.29.661.521c.15-.195.343-.354.563-.465.221-.111.464-.171.711-.177.203.006.404.048.592.125.089-.281.238-.539.437-.758.199-.218.443-.39.716-.506.273-.115.568-.17.865-.161.296.009.587.082.852.214.184-.307.443-.561.754-.739.312-.178.664-.273 1.023-.277h.035c.288-.744.854-1.35 1.579-1.692 0-.107-.018-.196-.018-.285-.003-.702.238-1.383.682-1.929s1.064-.923 1.756-1.067c.692-.145 1.412-.048 2.04.274s1.125.849 1.407 1.493c.478-.284 1.022-.438 1.579-.446.361.01.718.076 1.058.196.421-.513.951-.927 1.554-1.21.602-.284 1.26-.43 1.927-.429.596.002 1.187.117 1.74.339.358-.653.874-1.206 1.502-1.611.627-.405 1.346-.648 2.092-.709.746-.06 1.495.066 2.18.365s1.284.763 1.743 1.349c.113-.022.227-.033.341-.036 1.106.001 2.173.407 2.996 1.141 1.021-.74 2.252-1.139 3.517-1.141.984.64 2.134.98 3.31.98s2.326-.34 3.31-.98c.459 0 .917.054 1.363.161.538-1.402 1.491-2.609 2.734-3.462 1.243-.852 2.717-1.31 4.227-1.313 1.315.009 2.603.366 3.732 1.034.018-.018.036-.018.054-.036v-.143c-.001-.973.192-1.937.567-2.836.374-.9.924-1.717 1.617-2.405.694-.689 1.516-1.235 2.422-1.607s1.877-.563 2.857-.562c1.477-.011 2.922.424 4.145 1.247.874-1.692 2.2-3.112 3.833-4.105s3.51-1.52 5.424-1.525c.377 0 .754.036 1.113.071-.594-1.079-.955-2.269-1.059-3.494-.105-1.226.05-2.459.453-3.622.404-1.163 1.047-2.229 1.889-3.131.842-.901 1.865-1.618 3.002-2.105s2.364-.733 3.603-.722c1.238.011 2.461.279 3.589.786s2.137 1.242 2.963 2.159c.826.916 1.45 1.994 1.832 3.164.938-.336 1.927-.511 2.924-.517 1.625.006 3.217.452 4.605 1.29 1.388.839 2.519 2.037 3.271 3.467 1.299-.924 2.796-1.537 4.372-1.791 1.577-.255 3.192-.144 4.718.324 1.527.467 2.924 1.278 4.083 2.37s2.048 2.435 2.597 3.925c1.193-.474 2.466-.716 3.75-.713 1.514-.001 3.01.327 4.383.961s2.59 1.559 3.565 2.709c1.942-1.403 4.268-2.184 6.668-2.242 2.401-.057 4.762.613 6.77 1.921v-.071c-.001-2.054.54-4.072 1.57-5.854 1.029-1.782 2.511-3.264 4.296-4.301-1.376-1.618-2.288-3.575-2.638-5.665s-.125-4.235.65-6.208c.775-1.974 2.072-3.704 3.755-5.006 1.682-1.303 3.688-2.131 5.804-2.396-1.391-2.577-1.884-5.539-1.401-8.423.482-2.885 1.913-5.529 4.068-7.521 2.156-1.992 4.915-3.219 7.847-3.49s5.872.43 8.36 1.993c1.771-1.195 3.762-2.032 5.859-2.462s4.259-.446 6.362-.045c2.103.4 4.106 1.209 5.894 2.379s3.327 2.678 4.527 4.439c1.965-.775 4.074-1.12 6.186-1.013 2.111.108 4.175.666 6.049 1.637 1.518-1.665 3.371-2.996 5.438-3.907s4.303-1.383 6.565-1.384c1.606-.001 3.203.239 4.736.712.81-2.268 2.122-4.327 3.839-6.026 1.716-1.699 3.795-2.994 6.082-3.791 2.287-.796 4.725-1.073 7.135-.811 2.409.262 4.728 1.057 6.788 2.327 3.97-2.794 8.715-4.294 13.581-4.294 1.141.008 2.28.098 3.409.268 1.009-3.955 3.371-7.438 6.682-9.853 3.311-2.416 7.364-3.614 11.466-3.388 4.102.225 7.998 1.859 11.02 4.622s4.983 6.484 5.547 10.525h.18c3.363-.004 6.688.709 9.749 2.092 3.062 1.383 5.788 3.404 7.994 5.924 2.898-2.099 6.332-3.347 9.911-3.603 3.578-.255 7.156.494 10.327 2.16-.245-1.364-.371-2.747-.377-4.133.002-6.118 2.416-11.993 6.724-16.367 4.309-4.375 10.169-6.902 16.33-7.041-1.482-3.85-1.76-8.054-.797-12.062.962-4.009 3.121-7.636 6.193-10.407 3.072-2.772 6.914-4.558 11.025-5.126 4.11-.568 8.298.108 12.015 1.942 1.436-4.859 4.418-9.125 8.499-12.159 4.082-3.035 9.044-4.676 14.143-4.676.484 0 .968.053 1.453.071v-.071c.004-4.886 1.647-9.631 4.669-13.486s7.251-6.601 12.019-7.804 9.805-.795 14.313 1.16c4.509 1.955 8.234 5.346 10.586 9.637 2.359-.76 4.822-1.15 7.302-1.158 3.733.001 7.413.883 10.735 2.574 3.322 1.692 6.192 4.143 8.372 7.153 2.543-1.892 5.445-3.254 8.533-4.002 3.087-.748 6.294-.867 9.429-.351s6.132 1.657 8.811 3.354 4.984 3.915 6.776 6.521c3.068-4.176 7.373-7.297 12.313-8.926 4.941-1.629 10.27-1.685 15.244-.159-2.214-3.218-3.636-6.906-4.152-10.769s-.111-7.792 1.182-11.471c1.293-3.68 3.438-7.006 6.263-9.711 2.824-2.705 6.249-4.714 9.998-5.865 3.75-1.15 7.719-1.41 11.588-.759 3.869.652 7.53 2.196 10.688 4.51 3.158 2.313 5.725 5.33 7.493 8.809 1.769 3.478 2.69 7.321 2.69 11.218z"
            fill="#446117" />
        <path
            d="m811.011 440.038c-4.365-.119-8.685.898-12.532 2.95.234-.675.438-1.366.607-2.077.812-3.398.795-6.939-.049-10.33-.844-3.39-2.49-6.531-4.803-9.162s-5.225-4.676-8.494-5.965c-3.268-1.288-6.8-1.783-10.3-1.444-.779-5.404-3.435-10.368-7.508-14.035s-9.308-5.806-14.801-6.048c-5.492-.241-10.897 1.429-15.281 4.724s-7.471 8.007-8.728 13.322l-.042.178c-.915-.34-1.852-.62-2.804-.839-3.202-.752-6.521-.869-9.769-.346-3.247.522-6.359 1.675-9.158 3.392-2.799 1.718-5.23 3.965-7.154 6.615s-3.303 5.651-4.059 8.83c-.061.26-.128.535-.171.802-3.984-2.828-8.802-4.26-13.695-4.072-4.894.187-9.586 1.985-13.338 5.109-1.742-3.124-4.266-5.749-7.328-7.621-3.062-1.873-6.559-2.929-10.152-3.068-1.371-5.045-4.629-9.381-9.109-12.122-4.48-2.742-9.844-3.683-14.999-2.632-5.155 1.052-9.712 4.016-12.741 8.289s-4.302 9.533-3.559 14.706c-.445-.141-.897-.264-1.367-.374-3.32-.782-6.789-.669-10.049.328-3.261.997-6.193 2.84-8.495 5.341-2.27-3.632-5.703-6.401-9.748-7.863-4.045-1.461-8.467-1.532-12.557-.199-4.09 1.332-7.611 3.991-9.997 7.548s-3.5 7.807-3.162 12.068c-.292-.087-.59-.157-.886-.226-3.305-.775-6.764-.59-9.966.532-3.201 1.123-6.01 3.136-8.092 5.799-2.628-3.506-6.477-5.916-10.796-6.762-4.319-.845-8.8-.065-12.572 2.189-2.095-1.819-4.533-3.207-7.173-4.084-2.639-.877-5.428-1.225-8.204-1.025-1.133-3.908-3.708-7.247-7.212-9.352s-7.678-2.82-11.69-2.003c-4.012.818-7.565 3.108-9.951 6.412-2.386 3.305-3.429 7.382-2.92 11.417-.329-.094-.655-.191-.987-.267-3.455-.807-7.087-.353-10.233 1.278s-5.597 4.33-6.906 7.606c-1.5-2.414-3.481-4.499-5.82-6.127s-4.988-2.765-7.785-3.342-5.683-.581-8.482-.013c-2.798.568-5.451 1.697-7.795 3.318-.295-3.125-1.699-6.044-3.961-8.235-2.262-2.192-5.235-3.513-8.388-3.729-3.153-.215-6.281.689-8.824 2.553-2.543 1.863-4.336 4.564-5.059 7.619-2.902-.693-5.961-.256-8.549 1.22-.726-2.501-2.266-4.693-4.38-6.233s-4.682-2.34-7.303-2.277c-2.621.064-5.147.989-7.182 2.629-2.036 1.641-3.467 3.905-4.068 6.439-.039.15-.069.302-.09.456-.892-.527-1.86-.915-2.871-1.151-1.017-.24-2.066-.325-3.109-.253.05-.146.091-.295.124-.445.616-2.661.146-5.456-1.306-7.774-1.453-2.318-3.77-3.971-6.446-4.598s-5.494-.176-7.836 1.253c-2.343 1.429-4.021 3.721-4.667 6.375-.263 1.083-.343 2.202-.235 3.311-1.399.064-2.762.456-3.979 1.145-1.216.688-2.25 1.653-3.018 2.816-.174-.071-.355-.124-.539-.161-2.309-.536-4.738-.141-6.753 1.099-2.016 1.241-3.454 3.224-3.998 5.516-.116.501-.188 1.011-.214 1.525l-.14-.034c-1.609-.38-3.293-.309-4.863.206-1.571.515-2.967 1.452-4.032 2.708-.279-1.391-.955-2.674-1.948-3.695-.993-1.022-2.26-1.738-3.651-2.064-.082-.022-.166-.035-.25-.039.061-1.841-.57-3.638-1.77-5.043-1.2-1.404-2.882-2.316-4.721-2.557s-3.702.205-5.228 1.252-2.605 2.62-3.028 4.413c-.088.341-.14.69-.156 1.042-.601-.943-1.455-1.701-2.467-2.187s-2.141-.68-3.258-.562c.284-1.529-.045-3.108-.917-4.4s-2.218-2.194-3.75-2.515c-1.533-.321-3.131-.034-4.454.798-1.322.833-2.265 2.146-2.627 3.659-.182.766-.214 1.561-.095 2.339-.902.268-1.727.744-2.409 1.389-.681.645-1.2 1.44-1.513 2.322h-.036c-.635.688-1.47 1.165-2.389 1.364s-1.878.111-2.745-.253c-.866-.363-1.599-.984-2.096-1.777-.497-.792-.735-1.719-.682-2.651-1.053-.245-2.161-.108-3.122.384-.962.493-1.715 1.31-2.126 2.304l-.051-.012c-.514-.124-1.052-.111-1.559.036-.507.148-.966.425-1.332.804-.35-.287-.763-.49-1.205-.593-.382-.092-.778-.11-1.166-.053-.422-.566-1.035-.963-1.726-1.117-.315-.077-.64-.097-.962-.061-.423-.664-1.093-1.137-1.864-1.315-1.977 1.591-4.292 2.714-6.771 3.282-.108-.194-.255-.362-.433-.495s-.382-.227-.599-.276c-.373-.092-.767-.041-1.103.144-.045-.32-.187-.619-.407-.857s-.508-.404-.826-.476c-.253-.057-.515-.055-.767.007s-.486.182-.682.35c.006-.358-.112-.706-.333-.988-.222-.281-.533-.479-.884-.561-.206-.048-.42-.056-.629-.022-.21.034-.41.108-.591.219-.18.11-.337.255-.461.426s-.213.364-.262.569c-.008.036-.008.073 0 .109-.162-.111-.345-.191-.538-.235-.417-.097-.855-.026-1.219.197-.364.224-.624.583-.722.996l-.012.052c-.122-.081-.259-.138-.402-.167-.286-.066-.586-.037-.854.082s-.489.321-.63.577c-.053-.094-.125-.175-.212-.24-.086-.064-.185-.11-.291-.134-.105-.025-.214-.03-.321-.013-.108.018-.21.056-.302.112-.093.057-.173.131-.236.218-.063.088-.108.187-.133.292v.018l-4.757-.615 2.187.713 593.013 49.092z"
            fill="#577a20" />
        <g fill="#3d3c3d">
            <path d="m33.1741 170.025-3.1375-2.197v312.173l3.1375-.45z" />
            <path d="m376.827 170.025 3.137-2.197v312.173l-3.137-.45z" />
            <path d="m30.0366 167.828 3.1375 2.197h343.6539l3.137-2.197z" />
        </g>
        <path
            d="m25.0005 167.78v312.22h5.0363v-312.172h349.9282v312.172h5.035v-312.22c0-1.002-.524-1.964-1.456-2.673-.933-.709-2.198-1.107-3.517-1.107h-350.0523c-1.3191 0-2.5841.398-3.5169 1.107-.9329.709-1.457 1.67-1.4573 2.673z"
            fill="#6e6c6d" />
    </g>
</svg>