<svg fill="none" height="1080" viewBox="0 0 1920 1080" width="1920" xmlns="http://www.w3.org/2000/svg" xmlns:xlink="http://www.w3.org/1999/xlink"><clipPath id="a"><path d="m0 0h1920v1080h-1920z"/></clipPath><g clip-path="url(#a)"><path d="m1920 0h-1919.99755859v1080h1919.99755859z" fill="#afe0ff"/><path d="m1286.34 374.401c2.09 2.279 8.64.847 11.37-.091 2.23-.592 4.25-1.774 5.86-3.42 1.6-1.646 2.72-3.693 3.25-5.923 2.02-7.925-5.71-13.184-13.2-11.298.31-6.262-5.86-8.843-11.29-11.159-3.59-1.531-8.53-2.127-11.66.438-2.9-5.415-13.3-10.651-18.6-4.912-8.07-7.827-27.16 5.344-26.38 15.354-4.35.282-8.65 6.03-8.84 10.193-.37 8.581 8.32 11.606 15.01 12.532 2.59.359 5.88.113 8.37.726 2.8.686 4.5 2.76 7.86 3.152 3.08.562 6.26.352 9.24-.61 2.98-.963 5.68-2.648 7.84-4.903 5.03 6.417 17.52 6.982 21.17-.079z" fill="#dcf1ff"/><path d="m1222.52 364.772c.54-.059 1.08-.017 1.6.121 1.07.282 2.2 1.774 3.03.251 1.08-1.954-.99-4.844 1.92-5.869.92-.29 1.91-.336 2.85-.132.95.203 1.83.649 2.55 1.293.93.785 2.7 3.502 3.91 1.613 1.81-2.825-3.1-9.51 3.65-7.838 1.06.155 2.06.588 2.9 1.254.83.666 1.47 1.54 1.85 2.533.59 1.517 1.64 4.599 3.9 3.633 1.47-.627 1.09-2.633 1.47-3.822 1.36-4.197 7.19-6.293 11.24-5.931 4.09.5 7.92 2.263 10.95 5.039 1.59 1.772 2.5 4.04 2.59 6.411.07 1.13-.34 4.539 1.52 4.567 1.51.026 2.15-3.536 2.77-4.539.57-.839 1.38-1.486 2.32-1.854.95-.368 1.98-.438 2.97-.202 1.45.314 2.77 1.033 3.82 2.073.5.494.89 1.086 1.14 1.738s.36 1.349.33 2.047c.3 2.46 2.23 4.322 3.1.898.98-3.878 2.01-7.499 7.03-7.143 1.99.201 3.82 1.133 5.15 2.613-.06.481-.15.957-.27 1.426-.52 2.23-1.64 4.278-3.25 5.923-1.6 1.646-3.62 2.828-5.85 3.421-2.74.949-9.29 2.369-11.38.09-3.64 7.075-16.13 6.513-21.15.068-2.16 2.255-4.85 3.94-7.83 4.903-2.99.962-6.16 1.172-9.25.61-3.36-.393-5.06-2.466-7.85-3.152-2.49-.613-5.79-.367-8.37-.726-5.22-.72-11.62-2.728-14.03-7.626.3-.901.84-1.709 1.55-2.344.87-.76 1.96-1.231 3.12-1.347z" fill="#85ccfb"/><path d="m1141.68 424.74c1.59 1.201 6 .904 4.43-2.22-1.22-2.445-5.44-1.129-7.48-1.412-3.41-.443-3.86-3.313-6.11-5.233-1.92-1.151-4.1-1.797-6.35-1.879-2.7-.217-5.42-.122-8.11.283-2.05.713-4.28.689-6.32-.068-2.41-1.195-2.77-4.22-4.97-5.386-1.66-.873-3.94-.017-5.54-.913-1.08-.604-1.42-1.776-2.52-2.448-1.38-.7-2.88-1.155-4.42-1.342-2.96-.366-5.97-.175-8.86.565-2.97.847-3.5 3.417-5.94 4.657-1.44.729-3.28-.053-4.75.78-1.93 1.09-1.79 3.587-4.06 4.172-2.02.519-4.86-1.633-7.3-1.192-1.88.371-3.57 1.387-4.78 2.869-1.17 1.271.29 1.497-1.62 2.195-.73.265-1.66-.565-2.32-.347-.68.25-1.26.72-1.64 1.334s-.55 1.337-.47 2.055c.81 3.954 11.31 4.751 14.16 4.174 2.63-.531 3.35-1.412 5.79-.31 3.36 1.522 4.62 4.539 8.52 2.392 4.29-2.361 2.85-3.014 7.79-1.178 4.01 1.489 6.87.367 10.87-.124 3.18-.291 6.39-.118 9.52.514 2.62.296 5.26.119 7.81-.522 2.74-.339 3.84 2.09 5.98 2.2 2.5.13 4.87-3.085 7.76-3.079 1.33 0 2.97 1.034 4.12.87 1.3-.186 1.26-.709 2.25-1.11 1.54-.644 2.14-1.568 4.56-.297z" fill="#dcf1ff"/><path d="m1054.59 420.985c.95-.144 1.93 1.155 2.9 1.053 1.06-.115 1.23-1.256 2.26-1.395 2.48-.33 4.51 2.839 7.27 2.565 1.31-.311 2.55-.889 3.63-1.698 1.07-.809 1.97-1.831 2.63-3.002 2.4-3.39 4.19.802 6.91-.147 1.9-.664 1.74-3.748 4.11-3.709.53.052 1.05.244 1.49.556.43.313.78.735 1 1.224.17.63-.28.921-.3 1.536-.03 2.201 2.07 2.514 4.13 2.189 2.79-.44 3.67-2.542 4.26-5.041.43-1.831.29-3.373 2.64-3.35 1.89.085 3.73.614 5.37 1.542 2.16 1.383 3.98 3.225 5.33 5.392.86 1.214 1.82 3.564 3.27 4.211 3.05 1.367 4.62-2.728 7.39-.243 3 2.672 3.23.424 5.18-1.844 3.07-3.584 5.99-.655 8.51 1.858 2.16 2.164 3.59.099 5.97.023 1.41-.048 2.05.957 3.57.867.79-.045 3.45-.229 4.23.528-.44 1.576-3.41 1.59-4.67.641-2.41-1.271-3.02-.336-4.57.283-.98.401-.95.923-2.24 1.11-1.15.164-2.8-.864-4.12-.87-2.89 0-5.27 3.208-7.77 3.079-2.13-.111-3.23-2.542-5.97-2.201-2.55.641-5.19.818-7.81.523-3.13-.632-6.34-.805-9.52-.514-4 .491-6.86 1.613-10.87.124-4.95-1.836-3.5-1.183-7.79 1.178-3.9 2.146-5.16-.87-8.52-2.392-2.45-1.11-3.16-.224-5.79.31-2.48.497-10.66-.034-13.34-2.751.12-.768.51-1.522 1.23-1.635z" fill="#85ccfb"/><path d="m1208.46 12.5072c5.84 5.6008 24.12 2.1099 31.76-.2231 13.19-4.02205 21.84-10.70188 25.4-22.9882 5.65-19.4887-15.93-32.4387-36.82-27.8208.85-15.4073-16.35-21.7482-31.49-27.4564-10.02-3.7678-23.8-5.2365-32.51 1.0761-8.1-13.3229-37.12-26.2052-51.89-12.0858-22.53-19.2542-75.79 13.1506-73.61 37.7741-12.14.7005-24.14 14.8368-24.65 25.0811-1.06 21.1099 23.19 28.5523 41.87 30.8316 7.22.8784 16.41.2825 23.36 1.7823 7.8 1.6946 12.54 6.7786 21.92 7.7559 18.32 1.8895 34.84-1.4518 47.65-13.5574 13.98 15.8508 48.84 17.232 59.01-.1694z" fill="#dcf1ff"/><path d="m1035.27-6.05229c2.64-.87616 5.39-1.3958 8.17-1.54496 7.07-.531 11.68 3.73956 17.87 6.04431 6.81 2.541999 5.94-1.22862 3.67-6.26178-3.33-7.34358 5.56-15.25198 11.09-18.86728 7.02-4.5982 15.02-8.8688 23.66-6.5414 7.23 1.9517 8.82 8.7812 12.14 14.5233 1.66 2.8865 3.53 5.3664 7.08 5.1348 3.9-.2486 6.13-3.5193 8.09 1.6947 1.23 3.28197.68 6.16009 4.06 7.93949 4.33 2.27933 7.64-.74 8.91-4.67445 2.1-6.55274-1.32-13.55734.03-20.05354 2.62-12.5914 18.91-18.8108 30.48-17.811 4.75.2746 9.32 1.8888 13.18 4.6529s6.84 6.5635 8.6 10.9522c2.63 7.239 3.12 20.706 11.01 24.73647 2.74-3.64635 2.02-7.97057 1.11-11.89937-1.91-8.2813 2.55-9.5212 10.42-8.4903 11.44 1.5026 25.56 9.8319 23.07 23.296 8.53.21466 15.36-2.07594 21.94 3.649206-5.2 5.817054-12.03 9.949794-19.63 11.862694-7.64 2.333-25.91 5.824-31.75.2231-10.18 17.4014-45.03 16.0202-59.01.1638-12.81 12.1112-29.34 15.4525-47.65 13.5573-9.39-.9659-14.12-6.0641-21.92-7.7559-6.95-1.5054-16.14-.9038-23.36-1.7822-10.75-1.3106-23.31-4.3497-31.86-10.69619 2.88-3.30742 3.52-7.64011 7.11-10.26119 1.07-.75672 2.25-1.35955 3.49-1.79071z" fill="#5dbdfb"/><path d="m1035.44 488.126c.97.921 3.97.347 5.22-.037.98-.197 1.88-.652 2.61-1.317.74-.664 1.28-1.514 1.57-2.459.92-3.203-2.62-5.33-6.05-4.57.14-2.542-2.69-3.576-5.18-4.519-.84-.383-1.76-.567-2.69-.537-.93.031-1.83.274-2.65.712-1.33-2.189-6.1-4.304-8.53-1.977-3.7-3.163-12.46 2.161-12.1 6.214-1.02.184-1.96.68-2.69 1.418-.72.738-1.2 1.683-1.36 2.703-.17 3.468 3.81 4.691 6.88 5.067 1.19.144 2.7.045 3.84.282 1.28.282 2.06 1.116 3.6 1.274 1.39.236 2.82.159 4.17-.227 1.36-.386 2.61-1.07 3.66-2.002 2.31 2.616 8.03 2.836 9.7-.025z" fill="#dcf1ff"/><path d="m1006.99 485.076c.43-.145.88-.23 1.34-.254 1.16-.087 1.92.616 2.94.994 1.12.416.98-.203.6-1.031-.55-1.206.92-2.502 1.82-3.106.53-.447 1.16-.775 1.83-.961.67-.185 1.37-.225 2.06-.116 1.19.322 1.45 1.444 1.99 2.387.29.475.57.881 1.17.847.64-.042 1-.579 1.32.283.21.539.12 1.014.67 1.305.71.375 1.26-.122 1.46-.768.35-1.077-.21-2.229 0-3.297.39-.975 1.09-1.794 2-2.324.91-.531 1.97-.743 3.01-.602.78.046 1.53.312 2.17.766.63.454 1.12 1.078 1.41 1.799.43 1.189.51 3.389 1.81 4.064.18-.291.29-.618.32-.956.03-.339-.02-.68-.14-.998-.31-1.362.42-1.565 1.71-1.395 1.88.245 4.2 1.615 3.79 3.827 1.4.036 2.52-.342 3.61.598-.86.956-1.98 1.635-3.23 1.949-1.26.384-4.27.958-5.22.037-1.67 2.861-7.4 2.632-9.69.028-1.06.932-2.31 1.616-3.66 2.002-1.36.386-2.78.463-4.17.227-1.54-.158-2.32-.997-3.61-1.274-1.13-.249-2.65-.15-3.83-.283-1.87-.151-3.67-.754-5.24-1.756.48-.545.57-1.257 1.17-1.695.18-.126.38-.226.59-.297z" fill="#85ccfb"/><path d="m1391.07 238.705c-6.05 4.561-22.82 3.44-16.88-8.437 4.66-9.304 20.7-4.338 28.46-5.341 13.01-1.694 14.66-12.591 23.23-19.895 5.49-4.68 17.26-6.474 24.12-7.143 10.29-.84 20.64-.489 30.84 1.045 8.57 1.257 15.28 4.081 24.04-.266 9.16-4.539 10.53-16.04 18.91-20.471 6.3-3.327 14.97-.071 21.05-3.474 4.11-2.302 5.39-6.751 9.62-9.321 5.25-2.664 10.93-4.391 16.78-5.104 11.27-1.385 22.69-.653 33.69 2.158 11.28 3.237 13.3 12.993 22.59 17.709 5.46 2.768 12.47-.197 18.07 2.963 7.32 4.144 6.79 13.639 15.41 15.862 7.7 1.977 18.49-6.213 27.79-4.519 7.15 1.413 13.58 5.277 18.15 10.917 4.46 4.829-1.06 5.694 6.17 8.34 2.77 1.017 6.33-2.192 8.81-1.319 2.59.952 4.79 2.733 6.24 5.062 1.45 2.328 2.08 5.071 1.79 7.795-3.06 15.04-42.97 18.057-53.82 15.871-10.03-2.023-12.73-5.398-22.05-1.178-12.75 5.781-17.55 17.257-32.38 9.095-16.31-8.979-10.79-11.465-29.6-4.48-15.26 5.649-26.12 1.412-41.34-.477-12.11-1.097-24.31-.431-36.21 1.977-12.26 2.101-18.39-.585-29.68-1.977-10.41-1.291-14.58 7.945-22.69 8.366-9.51.494-18.53-11.733-29.53-11.702-5.04 0-11.29 3.926-15.67 3.299-4.93-.709-4.78-2.697-8.53-4.223-5.91-2.423-8.2-5.959-17.38-1.132z" fill="#dcf1ff"/><path d="m1406.24 229.345c8.88-.438 17.13 1.551 24.91-3.033 6.13-3.61 9.99-6.454 17.5-4.392 7.3 2.008 13.37 9.108 20.96 10.185 4.4.624 3.53.161 7.65-1.37 1.81-.823 3.61-1.67 5.4-2.542 1.63-1.514 2.79-3.461 3.33-5.61 5.95-4.293 13.78 1.977 19.47 4.519 9.68 4.322 17.92-.807 19.74-10.995.85-4.802.24-13.357 5.46-16.571 7.29-4.497 17.12.655 23.1 4.488 11.62 7.445 15.32 26.039 31.11 24.07 6.86-.847 10.37-5.46 16.41-7.544 8.3-2.864 13.65 3.954 20.72 5.49 6.15 1.345 12.7-8.063 19.04-9.281 11.03-2.115 16.71 5.243 22.45 12.71 12.84-9.236 44.66-26.202 48.5 1.413 3.6-1.695 7.64-6.299 11.58-6.994 3.55-.627 5.28.848 5.85 3.051-5.53 13.608-42.86 16.328-53.3 14.224-10.03-2.023-12.73-5.398-22.05-1.178-12.75 5.781-17.56 17.257-32.38 9.094-16.31-8.978-10.79-11.464-29.6-4.479-15.26 5.649-26.12 1.412-41.34-.477-12.11-1.097-24.31-.431-36.22 1.977-12.25 2.101-18.38-.585-29.68-1.977-10.4-1.291-14.58 7.945-22.69 8.366-9.5.494-18.52-11.733-29.53-11.705-5.03 0-11.28 3.929-15.66 3.302-4.93-.709-4.79-2.697-8.53-4.223-5.88-2.381-8.18-5.931-17.36-1.104-4.45 3.358-14.69 3.618-17.42-1.212.16-.459.34-.91.55-1.35 4.42-8.919 23.72-6.442 32.03-6.852z" fill="#85ccfb"/><path d="m1792.53 102.312c32.14 6.705 31.66-44.4847 19.63-60.2931-2.66-3.4854-11.95-2.5223-12.99-3.7933-2.31-2.8244-2.35-7.3887-4.39-9.9674-9.53-12.0237-11.98-21.66073-28.63-31.47002-14.48-8.66768-30.78-13.91758-47.63-15.34518-11.1-1.2032-19.91-.9716-29.65 2.8244-5.33 2.0732-7.71 9.3885-10.99 10.41942-11.45 3.60964-25.88-1.26255-37.85 3.70282-14.47 6.00194-29.51 23.72536-21.4 35.62186-54.67.2655-43.54 56.0483-1.99 66.4625 6.05 1.519 13.82-1.7403 19.7.206 7.3 2.415 9.81 11.981 19.39 14.404 15.67 3.955 32.76-5.818 42.18-14.221 17.11 24.008 61.6 24.545 65.78-5.7361 6.16 7.7591 17.09 11.3461 29.54 9.8231 2.62-1.624 3.15-3.674-.7-2.638z" fill="#dcf1ff"/><path d="m1697.91 100.849c-9.42 8.403-26.51 18.17-42.18 14.221-9.58-2.415-12.09-11.981-19.39-14.405-5.89-1.9458-13.66 1.314-19.7-.206-6.97-1.621-13.47-4.779-19.03-9.2395-5.57-4.4605-10.05-10.1087-13.11-16.525.45-2.5084 1.11-4.9738 1.99-7.369 2.16-5.9793 5.97-11.1819 12.68-9.6454 10.51 2.4092 16.87 10.9617 24.21 17.794 8.38 7.8039 9.95 2.2991 18.52-.2118 1.47-.6747 3.14-.8109 4.7-.3846 1.57.4264 2.93 1.3879 3.85 2.7147 1.76 1.8557 5.12 7.8124 8.49 5.2959 2.59-1.9433.23-6.7166-.15-9.123-.33-1.5932-.3-3.2371.09-4.8174.38-1.5803 1.1-3.0591 2.12-4.3338 4.04-4.9061 9.95-2.2596 13.24 1.4602 2.35 2.6409 6.91 7.9621 7.71 1.1496.53-4.4514-1.92-7.1063-2.67-11.247-2.28-12.5687 3.29-27.9619 17.79-28.894 12.96-.8473 25.79 10.7526 32.88 20.6862 4.65 6.5245 9.41 14.7097 10.39 22.765.39 3.1747-.99 15.8819 4.84 14.8735 9.51-1.641-2.39-21.9007 10.38-24.8353 7.61-1.7511 17.35 4.7479 21.07 11.0605 4.5 7.626 5.02 16.2265 15.93 14.8622 3.05-.3694 6.01-1.3116 8.7-2.7764 2.78-1.5067 5.27-3.4812 7.37-5.8353 1.93-2.3386 2.02-5.2873 3.76-7.5723 4.14-5.4399 6.3-.8473 7.2 3.9288-.88 15.8169-7.85 30.3462-24.33 28.4982-.07.588-.81 1.435-2.05 2.192-12.45 1.523-23.37-2.064-29.54-9.8232-4.16 30.2862-48.66 29.7332-65.76 5.7422z" fill="#85ccfb"/><path d="m748.913 90.2926c11.73 8.8433 44.251 6.6657 32.711-16.3649-9.034-18.0397-40.127-8.4083-55.182-10.3572-25.231-3.265-28.43-24.4145-45.042-38.5762-10.641-9.075-33.474-12.5547-46.777-13.8398-19.944-1.62747-40.01-.947-59.796 2.0279-16.625 2.4319-29.624 7.9085-46.626-.5169-17.755-8.80375-20.414-31.1056-36.667-39.6947-12.206-6.451-29.014-.1384-40.807-6.7391-7.964-4.4627-10.442-13.0885-18.648-18.051-8.371-5.0643-22.716-8.5327-32.523-9.8856-21.845-2.6861-44.004-1.2661-65.32 4.1858-21.902 6.2731-25.793 25.2082-43.804 34.3396-10.59 5.3665-24.178-.3869-35.035 5.7478-14.208 8.03271-13.179 26.44527-29.892 30.7525-14.922 3.8441-35.841-12.02927-53.889-8.78963-15.209 2.73124-25.23 10.39113-35.185 21.18333-8.653 9.363 2.048 11.0379-11.967 16.1699-5.378 1.9771-12.273-4.2366-17.092-2.542-9.3354 3.2792-17.6811 14.5233-15.5648 24.9258 5.9335 29.1652 83.3278 35.023 104.3678 30.7864 19.454-3.9232 24.69-10.4646 42.747-2.2822 24.747 11.2126 34.05 33.4636 62.796 17.6386 31.63-17.4154 20.916-22.2339 57.404-8.691 29.582 10.979 50.651 2.715 80.165-.923 23.361-2.8812 47.471-.091 70.218 3.807 23.768 4.073 35.655-1.13 57.551-3.855 20.17-2.5084 28.274 15.404 44.004 16.22 18.437.958 35.925-22.7476 57.261-22.694 9.76.0254 21.88 7.626 30.373 6.397 9.555-1.3695 9.281-5.2276 16.566-8.1905 11.401-4.6688 15.858-11.5406 33.653-2.1889z" fill="#dcf1ff"/><path d="m107.378 57.2156c7.207-2.542 14.353 4.4541 22.508.9603 7.478-3.2001 8.965-8.1909 19.242-8.0808 15.077-.267 29.659 5.3456 40.616 15.6334 8.184-13.772 17.934-27.962 36.031-20.2937 16.147 6.8521 21.939 22.4515 42.567 15.8819 13.272-4.2367 9.978-9.7387 16.836-20.0169 2.859-4.0704 6.908-7.1714 11.599-8.8842s9.798-1.9548 14.632-.6934c9.996 2.4177 13.127 12.0603 20.62 18.3588 11.946-28.7472 45.38-39.4659 74.766-33.0149 10.777 2.3669 23.296 8.8236 32.478 13.8398 6.624 3.6209 37.882 33.2719 31.448 41.9373 13.63-18.3589 25.884-19.8078 35.444 3.1239 13.369-23.5954 53.308-26.6826 77.164-25.42 23.655 1.2597 41.512 11.0153 48.231 35.0852 7.762-17.2291 39.99-25.5838 56.058-15.3283 7.37 4.7027 6.542 9.2812 17.519 8.7558 7.916-.37 15.297-3.7085 23.04-4.8891 18.634-2.8244 42.666-2.0279 52.403 16.218-8.431 8.1203-22.585 4.6688-31.676-.1102-17.8-9.363-22.252-2.4798-33.647 2.1409-7.284 2.9544-7.011 6.8126-16.566 8.1906-8.493 1.218-20.613-6.3744-30.373-6.3998-21.333-.0537-38.823 23.6518-57.261 22.6948-15.73-.817-23.834-18.7293-44.004-16.221-21.902 2.723-33.783 7.928-57.551 3.855-22.756-3.898-46.857-6.6881-70.218-3.807-29.514 3.638-50.583 11.902-80.165.923-36.488-13.5428-25.773-8.7243-57.404 8.691-28.745 15.817-38.058-6.425-62.796-17.6384-18.057-8.1909-23.293-1.6411-42.746 2.2821-19.684 3.9542-88.67-.901-102.3493-25.42 2.8137-5.6483 7.6463-10.0529 13.5543-12.3541z" fill="#85ccfb"/><path d="m908.975 395.403c2.642 1.977 9.97 1.502 7.373-3.689-2.037-4.065-9.043-1.895-12.436-2.333-5.689-.735-6.406-5.502-10.149-8.691-3.186-1.908-6.807-2.982-10.524-3.121-4.494-.369-9.016-.216-13.475.455-3.746.548-6.676 1.785-10.504-.116-4.002-1.977-4.599-7.008-8.249-8.945-2.75-1.452-6.542-.028-9.193-1.517-1.798-1.005-2.353-2.949-4.202-4.067-2.293-1.164-4.774-1.919-7.33-2.231-4.921-.603-9.914-.283-14.717.943-4.932 1.412-5.811 5.68-9.87 7.739-2.386 1.209-5.45-.088-7.896 1.294-3.2 1.81-2.967 5.959-6.733 6.931-3.362.864-8.078-2.712-12.143-1.977-3.124.616-5.931 2.305-7.927 4.77-1.952 2.11.461 2.488-2.697 3.644-1.211.446-2.765-.958-3.851-.565-1.132.413-2.092 1.19-2.727 2.208-.636 1.017-.91 2.216-.78 3.407 1.336 6.572 18.773 7.891 23.514 6.934 4.384-.884 5.564-2.359 9.632-.514 5.575 2.542 7.68 7.541 14.151 3.974 7.125-3.923 4.713-5.008 12.934-1.958 6.664 2.475 11.412.613 18.062-.209 5.288-.484 10.619-.199 15.823.848 5.354.918 8.033-.255 12.965-.87 4.551-.565 6.372 3.471 9.916 3.657 4.156.215 8.095-5.126 12.902-5.115 2.199 0 4.93 1.718 6.844 1.441 2.153-.308 2.091-1.178 3.732-1.842 2.54-1.045 3.544-2.595 7.555-.485z" fill="#dcf1ff"/><path d="m763.86 388.319c1.087-.381 2.64 1.019 3.852.565 3.103-1.13 3.128-6.779 7.932-5.793 2.725.565 5.198 6.62 8.139 5.88 3.481-.878 3.367-10.142 8.479-8.278 3.72 1.358-2.048 9.744 4.71 9.99 6.258.229 1.383-6.525 4.403-9.185 4.423-3.898 7.68 5.366 11.352 4.149 2.31-.763 2.509-4.94 3.485-6.686 1.315-2.5 3.223-4.645 5.558-6.25 8.195-5.084 18.236 5.366 23.643 10.71 3.103 3.056 4.682 6.327 9.387 6.214 2.679-.187 5.244-1.153 7.375-2.776 5.959-3.466 11.233-4.062 17.09 0 1.991 1.378 2.983 4.911 4.835 5.756 1.787.813 3.587-.986 5.228-1.288 2.466-.397 4.989-.259 7.396.407 3.024 1.46 6.365 2.152 9.725 2.016 2.919-.045 7.333-.912 9.148 2.073-1.051.483-2.207.696-3.362.62-1.155-.077-2.272-.44-3.249-1.057-4.01-2.11-5.014-.565-7.583.483-1.641.663-1.579 1.533-3.732 1.841-1.914.283-4.645-1.435-6.844-1.44-4.807 0-8.746 5.329-12.902 5.115-3.544-.187-5.37-4.223-9.916-3.658-4.932.616-7.611 1.788-12.965.87-5.204-1.046-10.535-1.332-15.823-.847-6.651.822-11.398 2.683-18.062.209-8.221-3.051-5.809-1.977-12.934 1.957-6.477 3.567-8.576-1.446-14.151-3.974-4.068-1.844-5.248-.37-9.632.514-4.519.912-20.55-.257-23.193-6.061.638-.939 1.549-1.663 2.611-2.076z" fill="#85ccfb"/><path d="m737.831 345.308c5.652 4.262 21.333 3.214 15.766-7.883-4.352-8.691-19.342-4.053-26.586-4.991-12.157-1.573-13.699-11.761-21.703-18.588-5.12-4.369-16.129-6.047-22.54-6.671-9.608-.785-19.276-.457-28.808.977-8.01 1.172-14.274 3.813-22.471-.248-8.554-4.237-9.837-14.99-17.667-19.127-5.883-3.107-13.984-.065-19.661-3.246-3.84-2.152-5.032-6.307-8.985-8.699-4.903-2.488-10.206-4.101-15.671-4.768-10.525-1.294-21.203-.61-31.474 2.017-10.544 3.022-12.427 12.145-21.105 16.546-5.103 2.584-11.662-.187-16.879 2.768-6.847 3.872-6.349 12.743-14.404 14.817-7.188 1.852-17.269-5.796-25.964-4.237-6.681 1.321-12.681 4.931-16.953 10.199-4.167 4.519.987 5.318-5.766 7.793-2.591.949-5.914-2.048-8.249-1.232-2.417.89-4.466 2.554-5.824 4.729-1.358 2.176-1.947 4.739-1.674 7.284 2.859 14.051 40.147 16.87 50.284 14.825 9.373-1.889 11.896-5.042 20.597-1.099 11.918 5.404 16.407 16.125 30.256 8.499 15.241-8.391 10.078-10.713 27.66-4.189 14.25 5.291 24.402 1.311 38.621-.443 11.313-1.031 22.717-.413 33.849 1.833 11.449 1.977 17.178-.545 27.728-1.856 9.719-1.208 13.622 7.423 21.202 7.816 8.884.46 17.309-10.962 27.591-10.937 4.702.015 10.542 3.672 14.635 3.085 4.602-.661 4.472-2.52 7.982-3.955 5.492-2.222 7.637-5.538 16.213-1.019z" fill="#dcf1ff"/><path d="m442.407 339.03c10.05 1.825 7.939-11.665 15.164-14.105 6.974-2.353 13.653 5.05 19.189 7.908 5.879 3.039 8.752 2.438 14.02-1.694 4.875-3.816 7.037-4.926 13.537-3.314 4.138 1.029 9.369 4.325 13.798 3.587 8.818-1.46 7.168-14.986 14.265-18.923 13.528-7.527 18.244 16.983 30.046 13.8 6.4-1.726 6.934-10.191 15.305-9.561 9.145.689 11.225 11.719 20.335 12.73 8.466.938 17.224-5.578 25.913-6.163 12.621-.847 29.728 1.811 38.81 11.654 3.206 3.471 4.986 11.114 11.29 9.577 3.834-.932 7.059-6.716 10.182-8.981 5.553-4.028 9.783-6.313 16.652-5.141 4.034.68 7.906 2.095 11.42 4.175 3.047 1.901 5.646 6.468 8.801 7.01 9.168 1.576 27.992-12.272 32.995 2.581-2.56 4.52-12.12 4.271-16.281 1.13-8.576-4.519-10.721-1.194-16.213 1.034-3.51 1.412-3.38 3.282-7.982 3.954-4.093.588-9.933-3.07-14.635-3.084-10.279-.025-18.704 11.397-27.591 10.936-7.58-.392-11.482-9.038-21.202-7.815-10.55 1.311-16.279 3.819-27.728 1.856-11.132-2.247-22.536-2.864-33.849-1.833-14.222 1.754-24.371 5.733-38.621.443-17.582-6.524-12.419-4.203-27.66 4.189-13.849 7.626-18.338-3.107-30.256-8.499-8.701-3.954-11.224-.791-20.596 1.099-9.501 1.917-42.861-.441-49.357-12.318.213-.43.46-.843.739-1.234 6.099-8.538 13.412 3.889 19.51 5.002z" fill="#85ccfb"/><path d="m945.589 461.618c6.335-1.305 10.103-4.075 4.693-9.832-3.681-3.914-11.21-6.603-15.545-2.412-.426-5.502-7.068-14.743-13.872-12.622-5.53 1.723-4.372 8.405-10.857 7.685-6.275-.697-7.564-6.818-11.799-.254-1.562 2.426-.509 3.692-3.316 4.722-2.432.893-5.283-1.271-7.843-1.011-1.03 1.814-1.561 6.581-2.742 7.68-1.573 1.466-3.319-.616-4.79.811-5.876 5.691 3.465 6.213 7.649 6.213 11.861-.028 23.72 0 35.581 0 7.628.401 15.277.073 22.841-.98z" fill="#dcf1ff"/><path d="m883.964 458.634c.83-.283.788-1.311 1.67-1.503 1.684-.367 2.804 1.723 4.4 1.757 2.421.048 3.499-2.748 6.434-2.463 4.204.407 4.881 4.197 8.192.102 1.078-1.331 1.368-3.082 3.501-3.073 1.744 0 2.944 1.737 4.102 2.802 1.769-.964 1.878-3.938 3.24-5.395 1.51-1.442 3.454-2.351 5.535-2.587 5.993-.356 9.023 7.363 11.509 11.552 3.592-3.198 7.469-5.011 11.548-1.833 1.169.909.31.937 1.667 1.344.762.097 1.536.041 2.276-.164 1.825-.312 3.499-1.204 4.77-2.542-.017 2.596-3.018 4.13-7.216 4.994-7.566 1.05-15.216 1.375-22.844.971-11.861 0-23.723-.028-35.581 0-2.927.19-5.856-.331-8.534-1.519.381-.814.922-1.545 1.59-2.15 1.175-1.16 2.452.139 3.741-.293z" fill="#85ccfb"/><path d="m1092.04 320.586c11.16 2.918 10.99-19.347 6.82-26.225-.92-1.517-4.14-1.096-4.5-1.65-.81-1.231-.82-3.214-1.53-4.335-3.3-5.231-4.15-9.42-9.93-13.687-4.8-3.675-10.51-5.982-16.53-6.674-3.48-.7-7.09-.27-10.29 1.225-1.85.901-2.68 4.085-3.82 4.534-3.98 1.567-8.98-.565-13.13 1.609-5.02 2.61-10.24 10.318-7.43 15.493-18.97.115-15.11 24.377-.69 28.908 2.1.661 4.79-.757 6.83.09 2.53 1.051 3.41 5.211 6.73 6.262 5.44 1.717 11.37-2.542 14.64-6.186 5.93 10.434 21.38 10.674 22.82-2.496 1.08 1.654 2.63 2.948 4.46 3.711 1.82.762 3.84.958 5.78.562.92-.709 1.1-1.599-.23-1.141z" fill="#dcf1ff"/><path d="m1031 319.785c-3.43-1.224-6.42-3.429-8.58-6.335-2.17-2.906-3.42-6.385-3.6-9.996 3.53-6.564 12.67-3.596 17.94 1.443.82.972 1.9 1.696 3.11 2.09s2.52.442 3.76.138c8.22-1.169 5-19.053 16.89-14.384 3 1.18 3.41 4.519 5.77 6.301 4.28 3.256 4.81-1.35 8-2.994.99-.41 2.06-.611 3.14-.59 1.07.021 2.14.263 3.11.711 1.8.845 3.34 2.162 4.44 3.808 1.1 1.647 1.73 3.56 1.82 5.536.42 3.279 1.16 8.1 5.44 5.951 2.03-1.017 3.7-4.161 6.26-3.319.72.288 1.34.769 1.79 1.387.46.619.73 1.351.79 2.115-.85 5.454-3.34 9.714-8.11 9.067-.04.209-.12.407-.25.581-.12.175-.28.322-.46.433-1.94.396-3.96.2-5.79-.563-1.82-.762-3.38-2.056-4.45-3.711-1.45 13.171-16.89 12.931-22.83 2.497-3.27 3.652-9.2 7.909-14.64 6.186-3.32-1.051-4.19-5.214-6.72-6.262-2.04-.833-4.73.579-6.83-.09z" fill="#85ccfb"/><path d="m1920 647.174-959.998-79.471-959.99907031 79.471v429.596h1919.99707031z" fill="#9cbc40"/><path d="m952.436 566.933v-.028c0-.171-.034-.34-.099-.497-.066-.158-.163-.302-.284-.422-.122-.121-.266-.217-.425-.282s-.329-.098-.501-.098c-.171-.001-.341.034-.497.102-.157.068-.298.168-.413.293-.124-.445-.392-.838-.761-1.118-.37-.281-.822-.433-1.287-.435-.233-.006-.465.032-.683.113v-.085c0-.674-.27-1.321-.75-1.797-.48-.477-1.131-.745-1.81-.745-.311-.001-.62.057-.91.17.023-.054.033-.112.028-.17 0-.674-.269-1.321-.749-1.797-.48-.477-1.132-.745-1.811-.745-.57-.001-1.124.192-1.569.546-.445.355-.754.85-.877 1.403-.242-.33-.558-.599-.924-.785-.365-.187-.77-.285-1.181-.288-.516-.005-1.02.147-1.447.435-.427.287-.756.697-.942 1.175-.452-.406-1.041-.627-1.65-.622-.353-.002-.703.07-1.027.211-.323.141-.613.348-.85.608-3.616-1.774-6.778-4.344-9.245-7.513-1.254-.003-2.46.484-3.356 1.356-.484-.171-.994-.257-1.507-.254-1.125-.012-2.215.38-3.073 1.101-.579-.228-1.197-.344-1.82-.339-.72-.001-1.431.163-2.077.481-.425-.718-1.032-1.312-1.761-1.723-.728-.412-1.553-.626-2.391-.622h-.086c-3.457 1.208-7.173 1.494-10.777.83-3.603-.664-6.969-2.255-9.76-4.614h-.056c-.161-1.474-.67-2.89-1.485-4.132-.816-1.241-1.915-2.274-3.209-3.014.47-1.158.712-2.395.711-3.644-.002-2.466-.975-4.834-2.712-6.597-1.736-1.764-4.097-2.784-6.58-2.843-2.484-.059-4.891.848-6.711 2.527-1.819 1.679-2.905 3.998-3.026 6.461-1.015-.352-2.082-.533-3.157-.536-2.5.001-4.899.974-6.685 2.711.105-.549.153-1.107.142-1.666.006-2.921-1.083-5.739-3.054-7.907-1.971-2.167-4.683-3.53-7.609-3.822s-5.858.506-8.224 2.241c-2.366 1.734-3.999 4.28-4.579 7.143-.132-.023-.265-.033-.398-.028-2.267 0-4.485.647-6.392 1.864-1.906 1.216-3.42 2.952-4.361 5-1.183-2.324-2.993-4.275-5.228-5.636-2.235-1.362-4.807-2.08-7.429-2.075h-.228c.148-.802.224-1.614.228-2.429.001-3.733-1.49-7.314-4.146-9.957-2.656-2.642-6.26-4.13-10.019-4.137-.295-.009-.591.009-.882.056-.76-2.073-2.004-3.938-3.631-5.44-1.627-1.503-3.59-2.6-5.727-3.202.573-1.674.861-3.43.853-5.197 0-4.345-1.738-8.512-4.832-11.584s-7.29-4.798-11.666-4.798c-4.375 0-8.571 1.726-11.665 4.798s-4.833 7.239-4.833 11.584c-.005.245.005.49.029.734-1.584-.489-3.234-.736-4.892-.734-1.65-.004-3.291.243-4.865.734.024-.244.034-.489.029-.734 0-4.128-1.377-8.14-3.916-11.408-2.54-3.268-6.098-5.608-10.12-6.653-4.021-1.046-8.278-.739-12.105.873s-7.008 4.438-9.045 8.036c-3.453-3.211-8.012-4.99-12.743-4.971.001-4.974-1.777-9.786-5.019-13.579-3.242-3.792-7.735-6.316-12.678-7.123s-10.014.157-14.307 2.719c-4.294 2.563-7.53 6.557-9.132 11.27-3.024-3.349-6.703-6.05-10.814-7.938-4.11-1.889-8.565-2.925-13.093-3.046-4.527-.121-9.032.677-13.239 2.343-4.206 1.667-8.027 4.168-11.227 7.35-.818-5.528-3.61-10.579-7.867-14.232s-9.694-5.666-15.321-5.669c-.54 0-1.08.028-1.621.056 2.244-6.038 2.116-12.693-.358-18.642-2.474-5.948-7.113-10.754-12.994-13.46-5.88-2.706-12.572-3.114-18.742-1.143s-11.366 6.176-14.555 11.78c-4.21-1.313-8.64-1.784-13.035-1.384-4.394.399-8.665 1.66-12.565 3.711-4.994-4.841-11.623-7.665-18.598-7.921-6.974-.256-13.795 2.073-19.136 6.534-2.236-4.862-5.833-8.984-10.361-11.873-4.529-2.89-9.799-4.425-15.182-4.424-.484 0-.967 0-1.451.028 2.08-6.452 1.916-13.411-.463-19.76-2.379-6.35-6.837-11.722-12.658-15.255-5.822-3.534-12.669-5.024-19.445-4.231-6.776.792-13.087 3.821-17.923 8.601-2.636-4.689-6.486-8.594-11.152-11.311-4.665-2.716-9.978-4.145-15.386-4.139-.768 0-1.508.029-2.247.085 3.042-7.714 3.005-16.29-.102-23.979-3.108-7.688-9.052-13.91-16.621-17.396-7.569-3.485-16.191-3.972-24.11-1.361-7.918 2.611-14.534 8.123-18.5 15.412-2.08-.4-4.195-.604-6.314-.61-4.626 0-9.201.958-13.433 2.814-4.232 1.855-8.027 4.567-11.143 7.962-4.645-6.178-11.226-10.648-18.708-12.706s-15.441-1.588-22.625 1.337c.029-.424.029-.875.029-1.299-.001-5.18-1.03-10.309-3.027-15.095-1.998-4.785-4.925-9.133-8.615-12.794-3.69-3.662-8.071-6.565-12.891-8.546-4.821-1.98-9.988-2.997-15.204-2.994-1.55-.006-3.099.088-4.637.282v-.282c.008-8.656-3.029-17.042-8.586-23.71s-13.285-11.2-21.849-12.812-17.426-.203-25.056 3.983c-7.629 4.186-13.546 10.887-16.729 18.945-5.278-1.793-10.912-2.308-16.431-1.502-5.5193.806-10.7649 2.909-15.3003 6.135-4.5354 3.225-8.2295 7.48-10.7747 12.409s-3.8681 10.391-3.8583 15.93c0 1.155.0627 2.299.1736 3.426-5.726-5.038-12.7956-8.327-20.359-9.471-7.5634-1.145-15.2989-.096-22.2763 3.02s-12.9 8.167-17.0559 14.546c-4.1559 6.378-6.36833242 13.812-6.37117031 21.409v282.388l959.99907031-79.471z" fill="#446117"/><path d="m909.157 571.109h-.054c-.615-1.103-1.633-1.93-2.844-2.31-.026-.169-.017-.311-.037-.452-.149-1.104-.678-2.123-1.497-2.884-.819-.762-1.878-1.219-2.997-1.293-1.12-.075-2.231.237-3.145.882-.915.646-1.576 1.585-1.873 2.66-.812-.342-1.702-.464-2.577-.353-.565.094-1.111.276-1.619.539-.775-.712-1.7-1.244-2.708-1.557-1.008-.312-2.074-.398-3.12-.251-.936.134-1.837.444-2.657.913-.707-.948-1.641-1.706-2.717-2.205s-2.261-.724-3.447-.654c-1.186.069-2.335.431-3.345 1.052-1.009.622-1.847 1.483-2.437 2.507-.181-.008-.363-.002-.544.02-1.736.242-3.321 1.114-4.448 2.449-1.768-.937-3.79-1.293-5.774-1.017-1.403 1.219-3.133 2.006-4.979 2.264-1.846.259-3.727-.023-5.415-.809-.721.098-1.428.283-2.105.55-1.155-2.083-2.921-3.768-5.062-4.834s-4.558-1.461-6.93-1.134c-2.062.302-4.005 1.146-5.629 2.443-.031-.025-.06-.019-.091-.045l-.034-.223c-.216-1.528-.733-3-1.522-4.329-.789-1.33-1.834-2.493-3.076-3.421-1.241-.928-2.655-1.605-4.16-1.99s-3.072-.472-4.611-.256c-2.322.308-4.494 1.309-6.229 2.87-1.751-2.463-4.15-4.401-6.934-5.601-2.785-1.2-5.849-1.616-8.856-1.203-.582.089-1.16.208-1.729.356.691-1.825.992-3.772.883-5.719-.11-1.947-.627-3.849-1.52-5.586-.892-1.736-2.139-3.269-3.662-4.499-1.523-1.231-3.288-2.132-5.182-2.646-1.894-.515-3.875-.631-5.817-.341-1.941.289-3.801.978-5.459 2.021-1.658 1.044-3.079 2.42-4.171 4.04s-1.832 3.449-2.171 5.369c-1.548-.321-3.138-.379-4.705-.169-2.549.366-4.95 1.416-6.943 3.037-1.992 1.621-3.501 3.752-4.364 6.162-2.245-1.165-4.73-1.799-7.263-1.852-2.532-.054-5.043.475-7.335 1.544-2.293 1.069-4.306 2.65-5.882 4.619s-2.672 4.273-3.202 6.733c-1.978-.479-4.03-.575-6.045-.283-2.378.331-4.654 1.174-6.669 2.471-2.014 1.297-3.719 3.016-4.993 5.037-3.361-1.776-7.188-2.492-10.969-2.055-3.782.437-7.339 2.008-10.199 4.503l-.017-.113c-.457-3.224-1.756-6.274-3.769-8.845s-4.669-4.573-7.703-5.808c1.8-2.843 2.795-6.116 2.879-9.474.083-3.358-.747-6.676-2.404-9.604s-4.079-5.358-7.011-7.033c-2.931-1.676-6.264-2.535-9.646-2.486 1.609-4.351 1.723-9.109.323-13.531s-4.236-8.259-8.063-10.913c-3.828-2.653-8.433-3.973-13.096-3.755-4.663.219-9.121 1.965-12.68 4.965-3.047-1.488-6.359-2.364-9.747-2.579s-6.786.236-9.999 1.327c-3.212 1.09-6.176 2.799-8.723 5.029-2.546 2.229-4.625 4.936-6.117 7.964-3.255-.784-6.643-.863-9.932-.229s-6.401 1.964-9.125 3.901c-2.754-2.281-5.959-3.964-9.407-4.941-3.448-.976-7.064-1.225-10.616-.731-2.521.353-4.974 1.081-7.276 2.161-1.776-3.384-4.294-6.329-7.368-8.619s-6.626-3.867-10.395-4.615c-3.768-.748-7.658-.648-11.382.294-3.724.941-7.189 2.699-10.139 5.145-8.496-4.408-18.392-5.337-27.569-2.588-2.464-5.987-6.949-10.938-12.685-14.004s-12.368-4.056-18.758-2.801c-6.391 1.255-12.144 4.677-16.273 9.681-4.129 5.003-6.378 11.276-6.362 17.744l-.284.04c-5.282.731-10.343 2.582-14.841 5.426s-8.327 6.615-11.229 11.057c-5.017-2.66-10.687-3.866-16.362-3.48-5.674.385-11.126 2.347-15.732 5.661.081-2.196-.03-4.395-.329-6.573-1.367-9.605-6.465-18.298-14.204-24.22-7.738-5.921-17.504-8.6-27.206-7.464 1.468-6.368.967-13.027-1.437-19.107s-6.599-11.299-12.037-14.974c-5.438-3.676-11.866-5.637-18.445-5.627-6.578.01-13 1.99-18.428 5.682-3.334-7.314-8.966-13.358-16.049-17.228-7.084-3.869-15.24-5.356-23.246-4.238-.763.107-1.511.296-2.276.432l-.014-.113c-1.094-7.669-4.73-14.758-10.332-20.147-5.603-5.389-12.854-8.771-20.608-9.613s-15.57.904-22.213 4.963c-6.644 4.06-11.736 10.2-14.474 17.453-3.872-.673-7.827-.745-11.722-.214-5.861.822-11.441 3.016-16.28 6.401-4.838 3.385-8.798 7.864-11.55 13.068-4.415-2.413-9.275-3.913-14.29-4.41-5.014-.497-10.078.02-14.8855 1.519-4.8078 1.499-9.26 3.95-13.0882 7.204s-6.953 7.244-9.1861 11.729c-5.7466-5.882-13.2003-9.835-21.3194-11.306-8.1191-1.472-16.4981-.388-23.967 3.099 2.7595-5.53 4.1738-11.626 4.1292-17.797s-1.547-12.246-4.3861-17.736-6.9357-10.242-11.9608-13.874c-5.025-3.632-10.83834-6.042-16.97217031-7.037v236.869l911.52407031-75.458c-.681-.499-1.532-.714-2.37-.599z" fill="#577a20"/><path d="m1920 311.349v335.826l-959.999-79.471 10.866-1.082c-.035-.119-.054-.243-.057-.367.002-.382.155-.747.427-1.017s.64-.422 1.024-.424c.324.01.636.13.882.339.091-.443.333-.843.685-1.131s.793-.447 1.249-.45c.362.016.714.123 1.024.31.147-.427.408-.806.757-1.095s.771-.477 1.22-.544.908-.011 1.327.164.782.46 1.048.826c.239-.309.544-.561.894-.737.349-.176.734-.272 1.126-.28.322.008.64.075.938.198.141-.446.377-.856.693-1.202s.704-.619 1.136-.802c.433-.183.9-.27 1.37-.256.47.015.932.13 1.353.339.29-.486.702-.89 1.195-1.172s1.051-.433 1.621-.438h.056c.457-1.18 1.353-2.141 2.504-2.683 0-.17-.029-.311-.029-.452-.005-1.113.377-2.193 1.081-3.058.704-.866 1.688-1.464 2.784-1.693 1.097-.229 2.239-.075 3.235.435 1 .511 1.78 1.347 2.23 2.367.76-.45 1.62-.693 2.5-.706.58.016 1.14.121 1.68.311.67-.814 1.51-1.47 2.46-1.92.96-.449 2-.681 3.06-.679.94.004 1.88.186 2.76.537.57-1.035 1.38-1.912 2.38-2.554.99-.642 2.13-1.028 3.32-1.123 1.18-.096 2.37.103 3.45.577 1.09.474 2.04 1.21 2.77 2.139.17-.034.36-.053.54-.056 1.75 0 3.44.644 4.75 1.808 1.62-1.173 3.57-1.806 5.57-1.808 1.56 1.013 3.39 1.553 5.25 1.553s3.69-.54 5.25-1.553c.73-.001 1.45.085 2.16.254.85-2.223 2.36-4.136 4.33-5.488 1.97-1.351 4.31-2.077 6.71-2.081 2.08.013 4.12.579 5.91 1.638.03-.028.06-.028.09-.057v-.226c0-1.543.3-3.071.9-4.497.59-1.426 1.46-2.722 2.56-3.813 1.1-1.092 2.41-1.957 3.84-2.547 1.44-.59 2.98-.893 4.53-.892 2.34-.017 4.63.672 6.57 1.977 1.39-2.682 3.49-4.933 6.08-6.507 2.59-1.575 5.56-2.411 8.6-2.418.6 0 1.19.056 1.76.113-.94-1.711-1.51-3.598-1.68-5.541-.16-1.943.08-3.899.72-5.742s1.66-3.534 3-4.964c1.33-1.429 2.95-2.566 4.76-3.338 1.8-.772 3.75-1.161 5.71-1.144 1.96.018 3.9.442 5.69 1.246s3.39 1.97 4.7 3.423 2.3 3.161 2.9 5.016c1.49-.532 3.06-.809 4.64-.819 2.57.009 5.1.716 7.3 2.045s3.99 3.23 5.19 5.496c2.05-1.464 4.43-2.436 6.93-2.839 2.5-.404 5.06-.228 7.48.513s4.63 2.027 6.47 3.758c1.84 1.732 3.25 3.861 4.12 6.222 1.89-.751 3.91-1.134 5.94-1.129 2.4-.002 4.78.519 6.95 1.524 2.18 1.005 4.11 2.47 5.65 4.294 3.08-2.223 6.77-3.463 10.58-3.554 3.8-.091 7.55.972 10.73 3.046v-.113c0-3.257.86-6.457 2.49-9.281 1.63-2.825 3.98-5.176 6.81-6.819-2.18-2.566-3.63-5.669-4.18-8.982-.56-3.314-.2-6.714 1.03-9.843s3.28-5.871 5.95-7.937c2.67-2.065 5.85-3.377 9.2-3.798-2.2-4.086-2.98-8.782-2.22-13.355.77-4.573 3.03-8.765 6.45-11.923s7.79-5.104 12.44-5.533c4.65-.43 9.31.681 13.26 3.159 2.8-1.895 5.96-3.221 9.29-3.903 3.32-.683 6.75-.707 10.08-.072 3.34.635 6.51 1.917 9.35 3.772 2.83 1.855 5.27 4.247 7.17 7.039 3.12-1.23 6.46-1.777 9.81-1.607 3.35.171 6.62 1.056 9.59 2.595 2.41-2.639 5.35-4.749 8.62-6.194 3.28-1.445 6.83-2.192 10.41-2.195 2.55-.001 5.08.38 7.51 1.13 1.29-3.596 3.37-6.861 6.09-9.555 2.72-2.693 6.01-4.747 9.64-6.009 3.63-1.263 7.49-1.702 11.31-1.287 3.82.416 7.5 1.677 10.76 3.689 6.3-4.428 13.82-6.807 21.54-6.806 1.81.012 3.61.154 5.4.423 1.6-6.269 5.35-11.792 10.6-15.621 5.24-3.83 11.67-5.729 18.17-5.372 6.51.357 12.68 2.948 17.48 7.329 4.79 4.381 7.9 10.28 8.79 16.686h.29c5.33-.006 10.6 1.125 15.45 3.318 4.86 2.193 9.18 5.396 12.68 9.392 4.59-3.328 10.04-5.308 15.71-5.712 5.67-.405 11.35.782 16.37 3.424-.38-2.163-.59-4.355-.6-6.552.01-9.701 3.84-19.015 10.67-25.951 6.83-6.935 16.12-10.942 25.89-11.162-2.35-6.104-2.79-12.769-1.27-19.124 1.53-6.356 4.95-12.107 9.82-16.5 4.87-4.394 10.96-7.226 17.48-8.127s13.16.172 19.05 3.079c2.28-7.703 7-14.466 13.48-19.278 6.47-4.811 14.33-7.412 22.42-7.413.77 0 1.53.084 2.3.113v-.113c.01-7.746 2.61-15.268 7.4-21.381 4.79-6.112 11.5-10.465 19.06-12.373 7.56-1.907 15.54-1.26 22.69 1.84 7.15 3.099 13.06 8.475 16.79 15.278 3.74-1.204 7.64-1.824 11.57-1.836 5.92.001 11.75 1.4 17.02 4.082 5.27 2.681 9.82 6.568 13.28 11.339 4.03-3 8.63-5.158 13.52-6.344 4.9-1.186 9.98-1.375 14.95-.557s9.73 2.627 13.97 5.318c4.25 2.691 7.9 6.208 10.75 10.339 4.86-6.622 11.68-11.57 19.52-14.152 7.83-2.583 16.28-2.671 24.17-.253-3.51-5.1-5.77-10.948-6.59-17.073-.82-6.124-.17-12.354 1.88-18.187s5.45-11.107 9.93-15.396c4.47-4.289 9.9-7.474 15.85-9.298 5.94-1.824 12.24-2.236 18.37-1.203 6.13 1.032 11.94 3.481 16.95 7.149 5 3.668 9.07 8.452 11.88 13.967 2.8 5.515 4.26 11.607 4.26 17.785z" fill="#446117"/><path d="m1920 541.096c-6.92-.189-13.77 1.423-19.87 4.677.37-1.07.7-2.166.96-3.293 1.29-5.388 1.26-11.002-.07-16.377-1.34-5.376-3.95-10.356-7.62-14.527-3.67-4.172-8.28-7.413-13.47-9.456-5.18-2.043-10.78-2.828-16.33-2.29-1.23-8.568-5.44-16.439-11.9-22.252-6.46-5.814-14.76-9.205-23.46-9.588-8.71-.384-17.28 2.266-24.23 7.489-6.95 5.224-11.85 12.694-13.84 21.12l-.07.283c-1.45-.539-2.93-.983-4.44-1.33-5.08-1.191-10.34-1.378-15.49-.549s-10.08 2.657-14.52 5.379c-4.44 2.723-8.29 6.286-11.34 10.488-3.05 4.201-5.24 8.958-6.44 13.999-.1.413-.2.848-.27 1.271-6.32-4.483-13.95-6.754-21.71-6.456-7.76.297-15.2 3.147-21.15 8.1-2.76-4.953-6.76-9.114-11.62-12.083-4.85-2.968-10.4-4.644-16.09-4.864-2.18-7.998-7.34-14.872-14.44-19.219-7.11-4.346-15.61-5.839-23.79-4.172-8.17 1.667-15.39 6.367-20.19 13.142-4.81 6.775-6.83 15.113-5.65 23.315-.7-.223-1.42-.418-2.17-.593-5.26-1.239-10.76-1.06-15.93.52s-9.82 4.504-13.47 8.467c-3.59-5.757-9.04-10.147-15.45-12.464-6.41-2.318-13.42-2.43-19.91-.317-6.48 2.113-12.07 6.327-15.85 11.967s-5.55 12.378-5.01 19.134c-.47-.139-.94-.249-1.41-.359-5.24-1.229-10.72-.936-15.8.844-5.07 1.78-9.53 4.971-12.83 9.194-4.16-5.559-10.26-9.38-17.11-10.721-6.85-1.34-13.95-.103-19.94 3.471-3.32-2.884-7.18-5.085-11.37-6.475-4.18-1.391-8.6-1.943-13-1.626-1.8-6.195-5.88-11.49-11.44-14.827-5.55-3.337-12.17-4.471-18.53-3.175s-12 4.926-15.78 10.166-5.44 11.703-4.63 18.1c-.52-.149-1.04-.302-1.56-.423-5.48-1.279-11.24-.56-16.23 2.026s-8.87 6.866-10.95 12.059c-2.38-3.827-5.52-7.132-9.22-9.713-3.71-2.581-7.91-4.384-12.35-5.299-4.43-.915-9.01-.922-13.44-.021-4.44.901-8.65 2.691-12.36 5.261-.47-4.954-2.7-9.582-6.28-13.057-3.59-3.475-8.3-5.57-13.3-5.912-5-.341-9.96 1.093-13.99 4.048-4.03 2.954-6.88 7.235-8.02 12.079-4.6-1.098-9.45-.405-13.56 1.935-1.15-3.966-3.59-7.441-6.94-9.882s-7.42-3.711-11.58-3.61-8.16 1.567-11.39 4.168c-3.22 2.601-5.49 6.191-6.45 10.208-.06.238-.11.48-.14.723-1.41-.835-2.95-1.451-4.55-1.824-1.61-.381-3.28-.516-4.93-.402.08-.231.14-.467.2-.706.97-4.218.23-8.649-2.07-12.324-2.31-3.676-5.98-6.296-10.22-7.29-4.25-.994-8.71-.28-12.43 1.986-3.71 2.266-6.37 5.9-7.4 10.107-.41 1.717-.54 3.492-.37 5.251-2.22.101-4.38.722-6.31 1.814-1.93 1.091-3.57 2.621-4.78 4.464-.28-.111-.56-.196-.86-.254-3.66-.85-7.51-.223-10.7 1.743-3.2 1.966-5.48 5.111-6.34 8.744-.19.795-.3 1.604-.34 2.418l-.22-.054c-2.55-.602-5.22-.489-7.71.327s-4.71 2.303-6.4 4.294c-.44-2.207-1.51-4.241-3.08-5.86-1.58-1.619-3.59-2.754-5.79-3.271-.13-.035-.27-.056-.4-.063.1-2.918-.9-5.767-2.81-7.994-1.9-2.227-4.57-3.672-7.48-4.055-2.92-.382-5.87.325-8.29 1.985s-4.13 4.154-4.8 6.997c-.14.541-.22 1.095-.25 1.652-.95-1.495-2.3-2.697-3.91-3.467-1.6-.77-3.39-1.079-5.16-.891.45-2.424-.08-4.928-1.46-6.976s-3.51-3.479-5.94-3.988c-2.43-.508-4.97-.054-7.06 1.266-2.1 1.32-3.6 3.402-4.17 5.801-.29 1.215-.34 2.474-.15 3.708-1.43.425-2.74 1.18-3.82 2.202s-1.9 2.284-2.4 3.681h-.06c-1 1.092-2.33 1.848-3.78 2.163-1.46.316-2.98.176-4.35-.4-1.38-.576-2.54-1.561-3.33-2.818s-1.16-2.725-1.08-4.204c-1.67-.387-3.43-.171-4.95.61s-2.72 2.076-3.37 3.652l-.08-.019c-.82-.196-1.67-.176-2.47.058-.81.234-1.54.673-2.11 1.275-.56-.456-1.21-.777-1.92-.941-.6-.145-1.23-.174-1.84-.085-.67-.897-1.64-1.526-2.74-1.77-.5-.122-1.02-.154-1.53-.096-.67-1.054-1.73-1.803-2.95-2.085-3.13 2.522-6.81 4.302-10.74 5.203-.17-.307-.4-.575-.68-.785-.28-.211-.61-.36-.95-.438-.59-.146-1.22-.064-1.75.229-.07-.508-.3-.982-.65-1.359-.35-.378-.8-.641-1.31-.754-.4-.091-.813-.087-1.212.011s-.769.288-1.081.554c.009-.567-.178-1.119-.528-1.565-.351-.447-.845-.761-1.401-.89-.327-.077-.666-.089-.998-.035-.332.053-.65.171-.936.346-.286.176-.535.406-.731.676-.197.271-.338.578-.415.903-.013.057-.013.115 0 .172-.259-.177-.548-.303-.854-.373-.66-.154-1.356-.041-1.933.314s-.989.922-1.144 1.579l-.02.082c-.193-.129-.41-.219-.637-.266-.453-.104-.929-.059-1.353.13-.425.189-.776.51-1 .915-.084-.148-.198-.277-.335-.379s-.294-.175-.461-.214c-.167-.04-.341-.046-.511-.019-.169.027-.332.087-.478.177-.147.089-.273.207-.374.346-.1.139-.171.296-.21.462v.028l-7.543-.974 3.467 1.13 940.188 77.833z" fill="#577a20"/><g fill="#3d3c3d"><path d="m392.018 199.459-10.371-7.461v500.002l10.371-1.528z"/><path d="m1527.98 199.459 10.37-7.461v500.002l-10.37-1.528z"/><path d="m381.647 192 10.371 7.461h1135.972l10.37-7.461z"/></g><path d="m365 191.838v500.162h16.648v-499.999h1156.712v499.999h16.64v-500.162c0-3.405-1.73-6.67-4.81-9.078-3.09-2.407-7.27-3.76-11.63-3.76h-1157.117c-4.361 0-8.542 1.352-11.626 3.76-3.083 2.407-4.816 5.673-4.817 9.078z" fill="#6e6c6d"/></g></svg>