<svg width="31" height="24" viewBox="0 0 31 24" fill="none" xmlns="http://www.w3.org/2000/svg">
<path d="M27.4987 1.33464C26.0187 0.867969 24.392 0.667969 22.832 0.667969C20.232 0.667969 17.432 1.2013 15.4987 2.66797C13.5654 1.2013 10.7654 0.667969 8.16536 0.667969C5.56536 0.667969 2.76536 1.2013 0.832031 2.66797V22.2013C0.832031 22.5346 1.16536 22.868 1.4987 22.868C1.63203 22.868 1.6987 22.8013 1.83203 22.8013C3.63203 21.9346 6.23203 21.3346 8.16536 21.3346C10.7654 21.3346 13.5654 21.868 15.4987 23.3346C17.2987 22.2013 20.5654 21.3346 22.832 21.3346C25.032 21.3346 27.2987 21.7346 29.1654 22.7346C29.2987 22.8013 29.3654 22.8013 29.4987 22.8013C29.832 22.8013 30.1654 22.468 30.1654 22.1346V2.66797C29.3654 2.06797 28.4987 1.66797 27.4987 1.33464ZM27.4987 19.3346C26.032 18.868 24.432 18.668 22.832 18.668C20.5654 18.668 17.2987 19.5346 15.4987 20.668V5.33464C17.2987 4.2013 20.5654 3.33464 22.832 3.33464C24.432 3.33464 26.032 3.53464 27.4987 4.0013V19.3346Z" fill="white"/>
<path d="M22.832 8.66797C24.0054 8.66797 25.1387 8.78797 26.1654 9.01464V6.98797C25.112 6.78797 23.9787 6.66797 22.832 6.66797C20.5654 6.66797 18.512 7.05464 16.832 7.77464V9.98797C18.3387 9.13463 20.432 8.66797 22.832 8.66797Z" fill="white"/>
<path d="M16.832 11.3213V13.5346C18.3387 12.6813 20.432 12.2146 22.832 12.2146C24.0054 12.2146 25.1387 12.3346 26.1654 12.5613V10.5346C25.112 10.3346 23.9787 10.2146 22.832 10.2146C20.5654 10.2146 18.512 10.6146 16.832 11.3213Z" fill="white"/>
<path d="M22.832 13.7746C20.5654 13.7746 18.512 14.1613 16.832 14.8813V17.0946C18.3387 16.2413 20.432 15.7746 22.832 15.7746C24.0054 15.7746 25.1387 15.8946 26.1654 16.1213V14.0946C25.112 13.8813 23.9787 13.7746 22.832 13.7746Z" fill="white"/>
</svg>
