<svg width="12" height="25" viewBox="0 0 12 25" fill="none" xmlns="http://www.w3.org/2000/svg">
<path d="M10.05 24.0014C9.80102 24.0023 9.555 23.9473 9.33003 23.8406C9.10507 23.7339 8.90687 23.5781 8.75001 23.3848L0.700009 13.3848C0.454872 13.0865 0.320862 12.7125 0.320862 12.3264C0.320862 11.9404 0.454872 11.5663 0.700009 11.2681L9.03334 1.2681C9.31624 0.927742 9.72276 0.713701 10.1635 0.673068C10.6042 0.632435 11.043 0.768538 11.3833 1.05144C11.7237 1.33433 11.9377 1.74085 11.9784 2.18156C12.019 2.62227 11.8829 3.06107 11.6 3.40144L4.15001 12.3348L11.35 21.2681C11.5538 21.5127 11.6833 21.8106 11.7231 22.1266C11.7629 22.4425 11.7113 22.7632 11.5746 23.0507C11.4378 23.3383 11.2216 23.5806 10.9514 23.7491C10.6812 23.9176 10.3684 24.0052 10.05 24.0014Z" fill="#1D1D1D"/>
</svg>
