<svg height="20" viewBox="0 0 20 20" width="20" xmlns="http://www.w3.org/2000/svg"><g fill="#fff" transform="translate(1.401 -45.56)"><path d="m15.615 50.728h-1.715a.571.571 0 0 1 -.407-.168l-1.5-1.5a1.573 1.573 0 0 0 -1.119-.464h-4.548a1.572 1.572 0 0 0 -1.119.464l-1.5 1.5a.572.572 0 0 1 -.407.168h-1.714a1.585 1.585 0 0 0 -1.586 1.582v8.633a1.582 1.582 0 0 0 1.583 1.583h14.032a1.585 1.585 0 0 0 1.585-1.583v-8.633a1.582 1.582 0 0 0 -1.585-1.582zm.575 10.216a.576.576 0 0 1 -.575.575h-14.032a.575.575 0 0 1 -.575-.575v-8.633a.576.576 0 0 1 .575-.575h1.717a1.572 1.572 0 0 0 1.119-.464l1.5-1.5a.571.571 0 0 1 .407-.168h4.549a.571.571 0 0 1 .407.169l1.5 1.5a1.572 1.572 0 0 0 1.119.464h1.711a.575.575 0 0 1 .575.575z"/><path d="m148.411 160.33a3.741 3.741 0 1 0 3.741 3.741 3.745 3.745 0 0 0 -3.741-3.741zm0 6.475a2.734 2.734 0 1 1 2.734-2.734 2.737 2.737 0 0 1 -2.734 2.729z" transform="translate(-139.811 -107.984)"/><path d="m32.731 49.6h1.079a.5.5 0 0 0 0-1.008h-1.079a.5.5 0 0 0 0 1.008z" transform="translate(-31.145 -.001)"/></g><path d="m0 0h20v20h-20z" fill="none"/></svg>