<svg height="43" viewBox="0 0 43 43" width="43" xmlns="http://www.w3.org/2000/svg"><path d="m41.977 24.889c-4.551-7.189-4.067-14.557-6.261-18.021s-8.732-9.438-24.181.971-11.519 21.722-9.105 25.532c11.298 17.841 47.609 4.249 39.547-8.482z" opacity=".092" transform="translate(-.134 -1.993)"/><path d="m26.25 27.25a2 2 0 0 1 -2 2h-15.5a2 2 0 0 1 -2-2v-15.5a2 2 0 0 1 2-2h15.5a2 2 0 0 1 2 2z" fill="#2fdf84" transform="translate(3.502 1.799)"/><path d="m9 27.25v-15.5a2 2 0 0 1 2-2h-2.25a2 2 0 0 0 -2 2v15.5a2 2 0 0 0 2 2h2.25a2 2 0 0 1 -2-2z" fill="#00b871" transform="translate(3.504 1.799)"/><g fill="#fff"><path d="m0 0h2.961v1.481h-2.961z" transform="matrix(.70710678 -.70710678 .70710678 .70710678 39.67 5.067)"/><path d="m0 0h1.481v2.961h-1.481z" transform="matrix(.70710678 -.70710678 .70710678 .70710678 33.65 3.757)"/><path d="m0 0h1.481v2.961h-1.481z" transform="matrix(.70710678 -.70710678 .70710678 .70710678 39.669 9.777)"/><path d="m0 0h1.664v.832h-1.664z" transform="matrix(-.70710678 .70710678 -.70710678 -.70710678 7.47 35.348)"/><path d="m0 0h.832v1.664h-.832z" transform="matrix(-.70710678 .70710678 -.70710678 -.70710678 10.854 36.085)"/><path d="m0 0h.832v1.664h-.832z" transform="matrix(-.70710678 .70710678 -.70710678 -.70710678 7.47 32.701)"/><path d="m6.721 8.459a2.221 2.221 0 1 1 2.221-2.221 2.224 2.224 0 0 1 -2.221 2.221zm0-2.961a.74.74 0 1 0 .74.74.742.742 0 0 0 -.74-.738z" transform="translate(-3.237 .333)"/><path d="m6.721 8.459a2.221 2.221 0 1 1 2.221-2.221 2.224 2.224 0 0 1 -2.221 2.221zm0-2.961a.74.74 0 1 0 .74.74.742.742 0 0 0 -.74-.738z" transform="translate(28.745 26.258)"/><path d="m5.725 6.468a1.225 1.225 0 1 1 1.226-1.226 1.227 1.227 0 0 1 -1.226 1.226zm0-1.634a.408.408 0 1 0 .408.408.409.409 0 0 0 -.408-.408z" transform="translate(20.748 36.532)"/></g><path d="m24.25 30h-15.5a2.752 2.752 0 0 1 -2.75-2.75v-15.5a2.752 2.752 0 0 1 2.75-2.75h12.5v1.5h-12.5a1.252 1.252 0 0 0 -1.25 1.25v15.5a1.252 1.252 0 0 0 1.25 1.25h15.5a1.252 1.252 0 0 0 1.25-1.25v-8.5h1.5v8.5a2.752 2.752 0 0 1 -2.75 2.75z" transform="translate(3.5 1.883)"/><path d="m18.25 21.5a.744.744 0 0 1 -.53-.22l-4.5-4.5 1.061-1.061 3.97 3.97 10.469-10.469 1.061 1.061-11 11a.751.751 0 0 1 -.531.219z" transform="translate(3.5 1.883)"/></svg>