<svg width="34" height="32" viewBox="0 0 34 32" fill="none" xmlns="http://www.w3.org/2000/svg">
<path d="M0 16C0 20.1171 3.33705 23.4667 7.4375 23.4667H12.75C13.3373 23.4667 13.8125 22.9891 13.8125 22.4C13.8125 21.8109 13.3373 21.3333 12.75 21.3333H7.4375C4.50845 21.3333 2.125 18.9405 2.125 16C2.125 13.0595 4.50845 10.6667 7.4375 10.6667H8.5C9.0873 10.6667 9.5625 10.1891 9.5625 9.6C9.5625 5.48293 12.8995 2.13333 17 2.13333C21.1005 2.13333 24.4375 5.48293 24.4375 9.6C24.4375 10.1891 24.9127 10.6667 25.5 10.6667H26.5625C29.4915 10.6667 31.875 13.0595 31.875 16C31.875 18.9405 29.4915 21.3333 26.5625 21.3333H21.25C20.6627 21.3333 20.1875 21.8109 20.1875 22.4C20.1875 22.9891 20.6627 23.4667 21.25 23.4667H26.5625C30.663 23.4667 34 20.1171 34 16C34 11.8829 30.663 8.53333 26.5625 8.53333H26.5033C25.9731 3.74 21.9141 0 17 0C12.0859 0 8.02692 3.74 7.49673 8.53333H7.4375C3.33678 8.53333 0 11.8829 0 16ZM13.5012 25.9125L15.9375 28.3584V14.9333C15.9375 14.3443 16.4127 13.8667 17 13.8667C17.5873 13.8667 18.0625 14.3443 18.0625 14.9333V28.3584L20.4988 25.9125C20.914 25.4957 21.5863 25.4957 22.0012 25.9125C22.4161 26.3293 22.4164 27.0043 22.0012 27.4208L17.7512 31.6875C17.5437 31.8957 17.2717 32 17 32C16.7283 32 16.4563 31.8957 16.2488 31.6875L11.9988 27.4208C11.5836 27.004 11.5836 26.3291 11.9988 25.9125C12.414 25.496 13.0863 25.4957 13.5012 25.9125Z" fill="black"/>
</svg>
