<svg height="24" viewBox="0 0 24 24" width="24" xmlns="http://www.w3.org/2000/svg"><path d="m0 0h24v24h-24z" fill="none"/><g fill="#fff"><path d="m13.682 13a.681.681 0 0 0 -.682.682v5.457a.682.682 0 1 0 1.364 0v-5.457a.681.681 0 0 0 -.682-.682z" transform="translate(-3.046 -3.047)"/><path d="m17.682 13a.681.681 0 0 0 -.682.682v5.457a.682.682 0 1 0 1.364 0v-5.457a.681.681 0 0 0 -.682-.682z" transform="translate(-4.317 -3.047)"/><path d="m14.232 3h-4.093a1.366 1.366 0 0 0 -1.364 1.364v1.364h-4.093a.682.682 0 1 0 0 1.364h1.364v11.6a2.049 2.049 0 0 0 2.046 2.046h8.185a2.049 2.049 0 0 0 2.046-2.046v-11.599h1.364a.682.682 0 0 0 0-1.364h-4.087v-1.365a1.366 1.366 0 0 0 -1.368-1.364zm2.728 15.689a.682.682 0 0 1 -.682.682h-8.185a.682.682 0 0 1 -.682-.682v-11.596h9.55zm-6.821-12.961v-1.364h4.093v1.364z" transform="translate(-.185 .132)"/></g></svg>