<svg fill="none" height="608" viewBox="0 0 526 608" width="526" xmlns="http://www.w3.org/2000/svg"><path d="m442.158.344482c10.676.987858 17.819 2.051758 26.311 3.951478 25.912 5.81314 49.868 16.88854 71.24 32.92224 9.574 7.181 19.073 15.8818 26.691 24.4305.893.9879 1.653 1.8428 1.71 1.8998s.569.6458 1.139 1.3297 1.083 1.2729 1.14 1.3299c.551.5129 4.332 5.3192 6.915 8.7387 7.656 10.2206 14.761 22.1129 19.909 33.3402 1.729 3.762 2.109 4.635 3.572 8.283 7.789 19.301 12.063 38.526 13.298 59.727.266 4.37.494 37.33.266 37.33-.095 0-.513-.323-.931-.722-3.002-2.792-10.904-9.252-16.376-13.393-6.117-4.616-14.153-10.126-20.099-13.792-1.558-.969-3.058-1.919-3.324-2.071-.266-.171-.646-.418-.855-.532s-1.14-.665-2.09-1.215c-6.896-4.047-9.366-5.377-17.401-9.385-31.745-15.825-66.339-25.324-101.807-27.945-11.512-.855-9.403-.836-117.308-.285-39.913.209-75.97.38-80.111.38h-7.561l-.019-14.495c-.019-7.96-.095-18.902-.152-24.298l-.114-9.8212-5.985 3.7995c-3.286 2.0897-6.497 4.1227-7.124 4.5217-.626.399-2.07 1.329-3.229 2.051-3.173 2.014-12.747 8.074-21.752 13.792-4.445 2.812-9.651 6.117-11.588 7.352-3.952 2.508-15.274 9.689-17.535 11.114-.817.532-2.469 1.576-3.704 2.355-3.401 2.147-13.127 8.321-17.706 11.228-2.241 1.425-6.554 4.16-9.593 6.079-3.021 1.919-6.06 3.837-6.744 4.274s-3.363 2.147-5.984 3.8c-2.603 1.653-6.593 4.179-8.834 5.604-2.242 1.425-7.029 4.464-10.639 6.744-3.609 2.28-7.238 4.578-8.074 5.129-.835.532-3.381 2.147-5.661 3.591-2.2794 1.444-4.1032 2.659-4.0652 2.716.057.038.6839.437 1.3868.893.7224.437 4.9394 3.059 9.3844 5.813 4.446 2.755 11.19 6.953 15.008 9.309 3.819 2.356 10.563 6.554 15.008 9.309 4.445 2.754 8.72 5.395 9.499 5.889 9.099 5.623 11.493 7.143 11.55 7.257.038.095.133.152.228.152s2.793 1.634 6.022 3.628c3.211 1.995 6.972 4.332 8.321 5.168 1.368.835 3.115 1.918 3.894 2.412.779.475 3.686 2.28 6.459 3.99 2.774 1.69 5.244 3.229 5.51 3.419.266.171 1.975 1.235 3.799 2.375s4.863 3.02 6.744 4.179c1.881 1.178 5.813 3.61 8.739 5.414 2.925 1.824 6.649 4.123 8.264 5.13 1.614 1.007 7.466 4.616 12.975 8.036 5.509 3.419 11.36 7.048 13.013 8.073 1.634 1.026 3.097 1.938 3.23 2.014.189.114.208-4.426.114-24.164l-.133-24.317 4.445-.114c2.451-.057 44.681-.285 93.865-.513 94.816-.437 93.676-.456 102.738.399 18.123 1.71 34.974 5.737 51.577 12.348 2.299.912 5.035 2.052 6.079 2.508 1.045.475 2.546 1.14 3.325 1.482 7.694 3.438 19.757 10.258 26.729 15.122 5.186 3.609 7.257 5.148 11.266 8.32 2.336 1.862 5.167 4.18 6.06 4.997.247.228 1.045.912 1.747 1.519 1.691 1.463 10.278 10.088 12.444 12.501 11.816 13.146 21.125 26.805 28.818 42.269 1.767 3.533 2.527 5.129 3.61 7.599.209.475.513 1.196.703 1.614s.969 2.299 1.71 4.18c7.637 19.073 11.835 37.975 13.127 58.986.285 4.655.285 18.751 0 23.177-1.216 19.13-4.655 35.791-10.981 53.287-1.368 3.8-3.78 9.746-5.091 12.558-.475.987-.855 1.861-.855 1.899 0 .266-4.692 9.404-6.307 12.31-6.288 11.266-14.02 22.265-22.455 31.935-5.243 6.003-12.652 13.412-18.18 18.161-.247.209-.969.836-1.577 1.368-4.426 3.857-11.55 9.233-17.876 13.431-25.704 17.136-55.339 27.546-86.153 30.282-9.138.817.76.722-148.312 1.463-82.391.399-115.408.513-118.543.361-6.174-.266-11.873-.76-16.679-1.444-1.14-.171-2.66-.38-3.363-.456-9.442-1.254-24.088-4.882-33.872-8.397-5.642-2.033-8.872-3.324-15.483-6.25-2.849-1.254-11.1892-5.528-14.7227-7.542-11.6073-6.611-21.8279-13.944-32.2004-23.101-3.3815-2.982-12.6522-12.291-15.3688-15.406-5.2242-5.985-8.6058-10.24-12.5002-15.673-10.2585-14.362-18.6363-30.586-24.3355-47.132-1.08287-3.116-2.29869-6.839-2.50766-7.675-.09498-.323-.58892-2.147-1.12084-4.085-3.32453-11.968-5.24325-23.499-6.307094-37.899-.170975-2.394-.569922-42.022-.4179435-42.25.0379946-.057 3.1915375 2.716 3.6664675 3.21.057.057 1.08286.969 2.27969 2.014 17.49648 15.255 37.25368 28.534 57.84668 38.887 16.3757 8.226 34.5561 15.179 51.4823 19.701 17.896 4.787 35.867 7.807 53.098 8.909 1.729.114 3.685.247 4.369.304 5.87.456 19.244.456 107.126 0 50.514-.247 91.871-.437 91.909-.399s.114 10.981.19 24.317c.095 19.415.171 24.24.361 24.164.133-.057 3.039-1.88 6.478-4.046 3.419-2.185 8.719-5.547 11.74-7.466 3.04-1.9 6.06-3.837 6.744-4.274s2.869-1.824 4.844-3.078c5.358-3.381 9.309-5.889 11.019-6.991.836-.532 3.875-2.47 6.744-4.274 2.868-1.824 6.459-4.104 7.979-5.054 1.519-.968 3.742-2.374 4.939-3.134 1.995-1.273 9.176-5.813 24.031-15.236 3.135-1.995 6.593-4.179 7.694-4.882 1.102-.684 3.667-2.318 5.7-3.61 4.882-3.096 10.315-6.554 11.493-7.314.532-.342 3.856-2.45 7.409-4.692 6.421-4.046 21.98-13.925 28.059-17.8 1.767-1.102 3.191-2.052 3.191-2.109s-.741-.57-1.652-1.121c-3.04-1.881-12.634-7.827-20.859-12.937-3.23-2.014-6.953-4.332-8.264-5.129-1.311-.798-3.99-2.47-5.984-3.705-1.976-1.235-7.333-4.54-11.874-7.371-4.54-2.811-10.03-6.212-12.196-7.561-12.234-7.58-16.945-10.524-21.049-13.051-1.102-.665-2.641-1.634-3.419-2.128-1.748-1.12-10.715-6.668-17.478-10.828-2.773-1.71-5.452-3.363-5.984-3.704-.513-.342-1.881-1.197-3.04-1.9-4.635-2.869-5.509-3.42-5.566-3.572-.038-.076-.152-.133-.247-.133s-1.729-.969-3.647-2.146c-7.01-4.37-12.178-7.58-19.036-11.817-3.856-2.374-7.408-4.578-7.864-4.882-.475-.285-.912-.532-.969-.532-.076 0-.114 1.767-.076 3.933.038 2.184.114 13.127.152 24.316l.057 20.384h-5.813c-3.192 0-38.679.171-78.858.38-100.021.513-105.606.513-111.096.133-26.008-1.862-49.089-8.112-71.677-19.415-7.371-3.686-12.5192-6.687-19.9282-11.608-20.859-13.83-38.8114-31.801-52.5464-52.603-2.6217-3.989-2.1657-3.268-4.7874-7.599-15.9197-26.311-24.8864-56.517-26.254206-88.432-.303956-7.162-.24696-28.363.075994-30.89 1.234822-9.194 3.020572-17.99 5.471212-26.577 1.08285-3.856 4.0464-12.975 4.5973-14.21.152-.342.7029-1.729 1.2349-3.116.5319-1.367 1.5957-4.008 2.3936-5.851 1.5388-3.609 5.7942-12.5 6.0222-12.595.095-.038.1519-.133.1519-.228 0-.247 3.4196-6.364 5.3383-9.5555 6.3071-10.4675 14.2099-20.992 22.6447-30.1487 2.9826-3.2485 9.4227-9.6317 12.2723-12.1583.8739-.7788 1.6907-1.5197 1.8047-1.6147.5319-.4749 2.7926-2.4127 3.9135-3.3435 22.2458-18.5224 48.9366-31.8395 76.7486-38.24159 3.477-.79792 8.188-1.76673 9.784-2.01368.627-.09497 1.862-.28503 2.755-.45599 8.244-1.4248 17.382-2.18463 28.495-2.33661 17.478-.227965 210.585-1.1588734 232.052-1.10186652 18.922.03802492 23.139.09497072 25.932.34191852z" fill="#dcdcdc"/></svg>