<svg height="20" viewBox="0 0 20 20" width="20" xmlns="http://www.w3.org/2000/svg"><path d="m0 0h20v20h-20z" fill="none"/><g fill="#fff"><path d="m175.825 159.668a1.836 1.836 0 1 0 1.836 1.836 1.836 1.836 0 0 0 -1.836-1.836zm0 2.8a.962.962 0 0 1 0-1.924.962.962 0 0 1 0 1.924z" transform="translate(-165.71 -151.988)"/><path d="m16.438 27.947-11.938-1.355a1.639 1.639 0 0 0 -1.29.372 1.661 1.661 0 0 0 -.63 1.136l-.219 1.792h-.677a1.757 1.757 0 0 0 -1.684 1.815v8.94a1.661 1.661 0 0 0 1.617 1.7h12.067a1.794 1.794 0 0 0 1.836-1.7v-.347a2.186 2.186 0 0 0 .831-.35 1.814 1.814 0 0 0 .634-1.18l1.005-8.874a1.771 1.771 0 0 0 -1.552-1.949zm-1.792 12.7a.92.92 0 0 1 -.962.831h-12a.787.787 0 0 1 -.81-.763q0-.034 0-.067v-1.619l3.388-2.492a1.049 1.049 0 0 1 1.355.066l2.383 2.097a2.055 2.055 0 0 0 1.29.481 1.989 1.989 0 0 0 1.049-.284l4.306-2.492v4.24zm0-5.268-4.766 2.776a1.115 1.115 0 0 1 -1.29-.109l-2.4-2.12a1.945 1.945 0 0 0 -2.426-.087l-2.885 2.1v-6.23a.882.882 0 0 1 .809-.94h12a1 1 0 0 1 .962.94v3.672zm2.471-5.6v.009l-1.027 8.874a.743.743 0 0 1 -.284.59c-.087.087-.284.131-.284.175v-7.72a1.88 1.88 0 0 0 -1.836-1.814h-10.45l.2-1.7a1.006 1.006 0 0 1 .328-.568 1 1 0 0 1 .656-.175l11.913 1.377a.874.874 0 0 1 .783.948z" transform="translate(1 -24.464)"/></g></svg>