<svg width="22" height="26" viewBox="0 0 22 26" fill="none" xmlns="http://www.w3.org/2000/svg">
<path d="M20.375 11.5816L3.39873 0.972865C3.14562 0.814714 2.8548 0.727174 2.55645 0.719328C2.25809 0.711482 1.96308 0.783617 1.702 0.928246C1.44093 1.07288 1.22331 1.28473 1.07174 1.54183C0.920158 1.79893 0.840139 2.09191 0.839981 2.39037V23.6091C0.838699 23.9082 0.917799 24.2021 1.06901 24.4601C1.22022 24.7181 1.43798 24.9307 1.69951 25.0757C1.96104 25.2207 2.25674 25.2928 2.55567 25.2844C2.85459 25.276 3.14577 25.1874 3.39873 25.0279L20.375 14.4191C20.6154 14.2686 20.8137 14.0594 20.9511 13.8113C21.0886 13.5631 21.1607 13.2841 21.1607 13.0004C21.1607 12.7167 21.0886 12.4376 20.9511 12.1895C20.8137 11.9413 20.6154 11.7321 20.375 11.5816Z" fill="black"/>
</svg>
