<svg fill="none" height="70" viewBox="0 0 80 70" width="80" xmlns="http://www.w3.org/2000/svg" xmlns:xlink="http://www.w3.org/1999/xlink"><linearGradient id="a"><stop offset="0" stop-color="#99e6fc"/><stop offset=".4296" stop-color="#01d0fb"/><stop offset=".5256" stop-color="#08c6f7"/><stop offset=".692" stop-color="#1da9eb"/><stop offset=".9074" stop-color="#3f7cd9"/><stop offset="1" stop-color="#4f66d0"/></linearGradient><linearGradient id="b" gradientUnits="userSpaceOnUse" x1="5.53784" x2="74.4624" xlink:href="#a" y1="34.9994" y2="34.9994"/><linearGradient id="c" gradientUnits="userSpaceOnUse" x1="-22.5881" x2="73.1311" xlink:href="#a" y1="34.9994" y2="34.9994"/><linearGradient id="d" gradientUnits="userSpaceOnUse" x1="0" x2="92.5443" y1="52.6979" y2="52.6979"><stop offset="0" stop-color="#f8f6f7"/><stop offset=".1788" stop-color="#f8f6f7"/><stop offset="1" stop-color="#e7e6f5"/></linearGradient><linearGradient id="e" gradientUnits="userSpaceOnUse" x1="35.451" x2="69.8055" y1="52.6978" y2="52.6978"><stop offset="0" stop-color="#f8f6f7"/><stop offset="1" stop-color="#d1ceeb"/></linearGradient><path d="m40.0001 69.4616c19.033 0 34.4623-15.4292 34.4623-34.4622s-15.4293-34.462291-34.4623-34.462291-34.46226 15.429291-34.46226 34.462291 15.42926 34.4622 34.46226 34.4622z" fill="url(#b)"/><path d="m74.4624 34.9994c0-.0002 0-.0005 0-.0006-.0003-19.0288-15.4229-34.454946-34.4502-34.461534-.0041 0-.0082-.000157-.0122-.000157-.0021 0-.0041.000157-.0062.000157-1.0673.000157-2.1225.051451-3.165.14651.1519.013804.3028.031058.4541.046902-9.9352 1.413802-18.1731 10.491022-21.3987 22.763122-6.38369 2.9236-10.34636 6.998-10.34636 11.5056s3.96267 8.5819 10.34646 11.5057c3.2256 12.2722 11.4636 21.3493 21.3988 22.7631-.1514.0159-.3023.0331-.4541.0469 1.0445.0954 2.1018.1467 3.1711.1467 19.0328 0 34.462-15.4289 34.4623-34.4616 0-.0003 0-.0007 0-.0008zm-59.574-6.5702c-.2155 1.504-.3589 3.0425-.4241 4.6094h-4.49258c.79638-1.5708 2.49708-3.1686 4.91668-4.6094zm-4.91668 8.531h4.49258c.0652 1.5669.2088 3.1054.4241 4.6094-2.4196-1.4408-4.1203-3.0386-4.91668-4.6094zm58.09128-3.9216h-2.5271c-.0652-1.5669-.2087-3.1054-.4241-4.6094 1.0353.6165 1.9376 1.2616 2.6952 1.9212.1194.8858.2052 1.7823.256 2.6882zm-2.5271 3.9216h2.5271c-.0508.9058-.1366 1.8023-.2561 2.6883-.7575.6594-1.66 1.3048-2.6953 1.9212.2157-1.5041.3591-3.0426.4243-4.6095zm1.0295-12.2195c-.7703-.4353-1.5869-.8521-2.4495-1.247-1.256-4.7786-3.2722-9.0724-5.8523-12.6186 3.7774 3.8518 6.6574 8.5859 8.3018 13.8656zm-22.1473-1.7892c.332 3.1999.5313 6.6047.5859 10.0871h-10.0077c.0546-3.4825.2538-6.8872.5859-10.0871 1.4537-.0916 2.9276-.1388 4.4181-.1388 1.4903 0 2.9642.0472 4.4178.1388zm-.2138-17.90647c3.9913 1.12424 7.7033 3.84078 10.7331 7.92297 1.8869 2.5423 3.4108 5.4797 4.5408 8.7421-3.4489-1.1066-7.3496-1.9275-11.5473-2.3896-.834-6.0661-2.1369-11.05492-3.7266-14.27547zm.7996 31.91517c-.0546 3.4825-.2538 6.8872-.5859 10.087-1.4537.0916-2.9275.1388-4.418.1388-1.4906 0-2.9644-.0472-4.4181-.1388-.3319-3.1998-.5313-6.6047-.5859-10.087zm2.9272 13.7181c4.1975-.4621 8.0982-1.2832 11.5473-2.3897-1.1301 3.2625-2.654 6.1999-4.5409 8.7422-1.6853 2.2707-3.5818 4.119-5.6201 5.5055-1.6851 1.1464-3.8798-.4425-3.3115-2.3998.7796-2.6847 1.4337-5.8846 1.9252-9.4582zm4.7227-4.6836c-1.3889.2745-2.8096.501-4.256.6811.295-3.0565.4771-6.3196.5281-9.7156h12.6846c-.1033 2.2887-.387 4.5325-.8501 6.7123-2.4208.9559-5.1372 1.7352-8.1066 2.3222zm-3.7277-12.9561c-.051-3.3962-.2331-6.6591-.5282-9.7156 1.4463.1801 2.867.4066 4.256.6811 2.9693.587 5.6857 1.3664 8.1068 2.3222.4631 2.1799.7469 4.4235.8501 6.7123zm-11.923-19.1239c.5987-2.6841 1.3208-4.99877 2.0881-6.69367.3494-.77161.6595-1.31169.9089-1.68408.2493.37239.5594.91232.9089 1.68408.7675 1.6949 1.4895 4.00957 2.0881 6.69367.353 1.5824.6626 3.2858.9271 5.0811-1.2882-.0683-2.597-.1047-3.9241-.1047-1.3272 0-2.6361.0364-3.9241.1047.2645-1.7955.5742-3.4988.9271-5.0811zm-11.9404-.9467c3.0298-4.08219 6.7418-6.79873 10.733-7.92297-1.5895 3.22039-2.8925 8.20937-3.7267 14.27547-4.1977.4621-8.0982 1.2831-11.5473 2.3898 1.1302-3.2626 2.6541-6.1999 4.541-8.7423zm-5.8231 13.3583c2.4212-.9558 5.1376-1.7352 8.1069-2.3222 1.3888-.2745 2.8095-.501 4.256-.6811-.2951 3.0565-.4772 6.3195-.5282 9.7156h-12.6845c.103-2.2888.3866-4.5325.8498-6.7123zm-.85 10.6339h12.6846c.0509 3.3962.2331 6.6591.5281 9.7156-1.4463-.1801-2.867-.4066-4.256-.6811-2.9692-.587-5.6856-1.3665-8.1068-2.3222-.4629-2.1798-.7467-4.4236-.8499-6.7123zm6.6731 20.0706c-1.8869-2.5423-3.4108-5.4797-4.5409-8.7422 3.449 1.1067 7.3497 1.9276 11.5473 2.3898.4915 3.5737 1.1456 6.7735 1.9252 9.4582.5683 1.9574-1.6263 3.5464-3.3115 2.3999-2.0381-1.3867-3.9346-3.235-5.6201-5.5057zm11.0133-6.0277c1.2882.0683 2.597.1047 3.9241.1047 1.3272 0 2.6359-.0363 3.9241-.1047-.2645 1.7953-.5741 3.4987-.9271 5.0811-.5987 2.6841-1.3208 4.9988-2.0881 6.6937-.0035.0077-.0071.0154-.0105.023-.3497.7693-1.4471.7693-1.7967 0-.0035-.0076-.0069-.0153-.0106-.023-.7673-1.6949-1.4895-4.0096-2.0881-6.6937-.3529-1.5824-.6626-3.2858-.9271-5.0811zm22.1875 8.1205c2.5801-3.5462 4.5964-7.84 5.8524-12.6185.8626-.395 1.6792-.8118 2.4495-1.2471-1.6444 5.2797-4.5244 10.0138-8.3019 13.8656z" fill="url(#c)"/><path d="m76.8237 63.9639h-73.64739c-1.75419 0-3.17631-1.4221-3.17631-3.1763v-16.1796c0-1.7542 1.42212-3.1764 3.17631-3.1764h73.64719c1.7542 0 3.1763 1.4222 3.1763 3.1764v16.1796c.0002 1.7542-1.4219 3.1763-3.1761 3.1763z" fill="url(#d)"/><path d="m76.8237 41.4316h-6.3423c1.7542 0 3.1765 1.4222 3.1765 3.1764v16.1796c0 1.7542-1.4221 3.1763-3.1765 3.1763h6.3423c1.7542 0 3.1764-1.4221 3.1764-3.1763v-16.1796c0-1.7542-1.4222-3.1764-3.1764-3.1764z" fill="url(#e)"/><g fill="#7a6d79"><path d="m13.052 57.4682c0 .4644-.6966.9288-1.5095.9288-.8707 0-1.49-.4644-1.49-.9288v-12.6368c0-.5417.6193-.9095 1.49-.9095.8129 0 1.5095.3678 1.5095.9095v5.709c.3484-.755 1.1997-1.4709 2.3997-1.4709 1.7609 0 3.2897 1.8386 3.2897 4.0638v4.3349c0 .6192-.7546.9288-1.5093.9288-.6966 0-1.49-.3096-1.49-.9288v-4.3349c0-.7353-.6386-1.4514-1.3935-1.4514-.6385 0-1.2966.5419-1.2966 1.4514z"/><path d="m23.3474 55.1264c0 .561.1934.7548.7934.7548h.8324c.8707 0 1.2771.6384 1.2771 1.2579 0 .6385-.4064 1.2578-1.2771 1.2578h-.8324c-2.4575 0-3.7929-.9868-3.7929-3.2704v-9.0372c0-.5419.7936-.9096 1.49-.9096.7549 0 1.5095.3677 1.5095.9096v3.0962h2.1867c.4838 0 .7354.5419.7354 1.0643 0 .542-.2516 1.0643-.7354 1.0643h-2.1867z"/><path d="m30.3916 55.1264c0 .561.1934.7548.7934.7548h.8323c.8708 0 1.2772.6384 1.2772 1.2579 0 .6385-.4064 1.2578-1.2772 1.2578h-.8323c-2.4575 0-3.7929-.9868-3.7929-3.2704v-9.0372c0-.5419.7936-.9096 1.49-.9096.7549 0 1.5095.3677 1.5095.9096v3.0962h2.1867c.4838 0 .7355.5419.7355 1.0643 0 .542-.2516 1.0643-.7355 1.0643h-2.1867z"/><path d="m37.3003 50.0941v.4452c.445-.755 1.3932-1.4709 2.6124-1.4709 1.9545 0 3.464 1.8385 3.464 4.0638v1.3547c0 2.1479-1.5676 4.1026-3.3673 4.1026-1.1418 0-2.148-.7548-2.5157-1.5481v4.6249c0 .4645-.6774.929-1.5288.929-.8515 0-1.4708-.4645-1.4708-.929v-11.5722c0-.542.6386-.9097 1.432-.9097.7936.0002 1.3742.3677 1.3742.9097zm3.0768 3.0383c0-.7354-.6579-1.4515-1.4707-1.4515-.6966 0-1.4127.542-1.4127 1.4515v1.6061c0 .3291.5998 1.2386 1.4514 1.2386.7547 0 1.432-.7354 1.432-1.4902z"/><path d="m49.1245 55.7253c0-1.3354-4.5283-.4257-4.5283-3.6767 0-1.4322.8903-2.9802 3.6381-2.9802 1.6836 0 3.2899.5805 3.2899 1.3934 0 .387-.3872 1.4127-1.0836 1.4127-.5225 0-1.1224-.5806-2.1674-.5806-.7741 0-1.1031.3291-1.1031.6192 0 1.0837 4.5671.2905 4.5671 3.6961 0 1.8192-1.3161 2.9802-3.7351 2.9802-2.0318 0-3.6767-.8321-3.6767-1.7803 0-.4645.387-1.316.987-1.316.6192 0 1.0643.8708 2.6124.8708 1.0256 0 1.1997-.3677 1.1997-.6386z"/><path d="m55.8782 51.7207c0 .7934-.6771 1.4899-1.4707 1.4899-.8514 0-1.49-.6965-1.49-1.4899 0-.8129.6386-1.4902 1.49-1.4902.7934 0 1.4707.6773 1.4707 1.4902zm0 5.3022c0 .7935-.6771 1.4901-1.4707 1.4901-.8514 0-1.49-.6966-1.49-1.4901 0-.8127.6386-1.49 1.49-1.49.7934-.0002 1.4707.6773 1.4707 1.49z"/><path d="m65.7478 44.4826c0 .1161-.0194.2516-.0775.3678l-6.8117 13.9527c-.1356.2902-.5033.4837-.8709.4837-.6579 0-1.0836-.5419-1.0836-1.0257 0-.1161.0385-.2516.0966-.3677l6.7924-13.9524c.1549-.3291.4645-.484.8129-.484.5417 0 1.1418.4065 1.1418 1.0256z"/><path d="m70.5083 44.4826c0 .1161-.0194.2516-.0775.3678l-6.8117 13.9527c-.1356.2902-.5033.4837-.8709.4837-.6579 0-1.0836-.5419-1.0836-1.0257 0-.1161.0385-.2516.0966-.3677l6.7924-13.9524c.1549-.3291.4645-.484.8129-.484.5418 0 1.1418.4065 1.1418 1.0256z"/></g></svg>