<svg width="27" height="29" viewBox="0 0 27 29" fill="none" xmlns="http://www.w3.org/2000/svg">
<path d="M21.6068 18.4548C20.7586 18.4567 19.9228 18.6548 19.1678 19.0328C18.4128 19.4108 17.76 19.958 17.2626 20.6297L10.5009 16.2232C10.927 15.1124 10.927 13.8883 10.5009 12.7775L17.2626 8.37093C18.0216 9.37685 19.1225 10.0852 20.3678 10.3688C21.613 10.6523 22.9208 10.4924 24.0563 9.91785C25.1918 9.34329 26.0805 8.3917 26.5627 7.23405C27.0449 6.0764 27.0891 4.78857 26.6872 3.60194C26.2854 2.41531 25.4639 1.40767 24.3704 0.76004C23.2768 0.112413 21.9829 -0.132743 20.721 0.0686173C19.4592 0.269978 18.3121 0.904656 17.4859 1.85862C16.6598 2.81259 16.2087 4.02331 16.2136 5.27327C16.2224 5.46534 16.2422 5.65678 16.273 5.84667L9.00429 10.5841C8.22967 9.90142 7.26921 9.45295 6.23922 9.29301C5.20923 9.13306 4.1539 9.26851 3.20103 9.68293C2.24817 10.0974 1.43865 10.773 0.870513 11.628C0.302378 12.483 0 13.4807 0 14.5003C0 15.5199 0.302378 16.5176 0.870513 17.3726C1.43865 18.2277 2.24817 18.9033 3.20103 19.3177C4.1539 19.7322 5.20923 19.8676 6.23922 19.7077C7.26921 19.5477 8.22967 19.0992 9.00429 18.4166L16.273 23.154C16.2422 23.3439 16.2224 23.5353 16.2136 23.7274C16.2136 24.7702 16.5299 25.7896 17.1225 26.6567C17.7152 27.5238 18.5575 28.1996 19.5429 28.5986C20.5284 28.9977 21.6128 29.1021 22.659 28.8987C23.7051 28.6952 24.6661 28.1931 25.4204 27.4557C26.1746 26.7183 26.6883 25.7788 26.8964 24.756C27.1045 23.7332 26.9977 22.6731 26.5895 21.7097C26.1813 20.7462 25.49 19.9227 24.6031 19.3434C23.7162 18.764 22.6735 18.4548 21.6068 18.4548V18.4548ZM21.6068 2.63697C22.1402 2.63697 22.6615 2.79158 23.105 3.08126C23.5484 3.37095 23.894 3.78268 24.0981 4.2644C24.3022 4.74612 24.3556 5.2762 24.2516 5.78759C24.1475 6.29898 23.8907 6.76873 23.5136 7.13742C23.1365 7.50611 22.656 7.7572 22.1329 7.85892C21.6098 7.96064 21.0676 7.90843 20.5749 7.7089C20.0821 7.50936 19.661 7.17146 19.3647 6.73792C19.0684 6.30438 18.9102 5.79468 18.9102 5.27327C18.9102 4.57408 19.1943 3.90353 19.7 3.40912C20.2057 2.91472 20.8916 2.63697 21.6068 2.63697V2.63697ZM5.42726 17.1366C4.89393 17.1366 4.37257 16.982 3.92912 16.6923C3.48566 16.4027 3.14003 15.9909 2.93594 15.5092C2.73184 15.0275 2.67844 14.4974 2.78248 13.986C2.88653 13.4746 3.14336 13.0049 3.52048 12.6362C3.89761 12.2675 4.3781 12.0164 4.90118 11.9147C5.42427 11.813 5.96647 11.8652 6.4592 12.0647C6.95194 12.2642 7.37309 12.6021 7.6694 13.0357C7.9657 13.4692 8.12385 13.9789 8.12385 14.5003C8.12385 15.1995 7.83975 15.8701 7.33404 16.3645C6.82833 16.8589 6.14244 17.1366 5.42726 17.1366ZM21.6068 26.3637C21.0735 26.3637 20.5521 26.2091 20.1087 25.9194C19.6652 25.6297 19.3196 25.218 19.1155 24.7363C18.9114 24.2545 18.858 23.7245 18.962 23.2131C19.0661 22.7017 19.3229 22.2319 19.7 21.8632C20.0772 21.4945 20.5576 21.2435 21.0807 21.1417C21.6038 21.04 22.146 21.0922 22.6388 21.2918C23.1315 21.4913 23.5526 21.8292 23.8489 22.2627C24.1453 22.6963 24.3034 23.206 24.3034 23.7274C24.3034 24.4266 24.0193 25.0971 23.5136 25.5915C23.0079 26.0859 22.322 26.3637 21.6068 26.3637Z" fill="black"/>
</svg>
