<svg width="169" height="133" viewBox="0 0 169 133" fill="none" xmlns="http://www.w3.org/2000/svg">
<rect x="68" y="0.5" width="28" height="28" rx="6" fill="white"/>
<path d="M88.666 6.16663H78.666C77.7493 6.16663 76.9993 6.91663 76.9993 7.83329V17.8333C76.9993 18.75 77.7493 19.5 78.666 19.5H88.666C89.5827 19.5 90.3327 18.75 90.3327 17.8333V7.83329C90.3327 6.91663 89.5827 6.16663 88.666 6.16663ZM88.666 17.8333H78.666V7.83329H88.666V17.8333ZM75.3327 9.49996H73.666V21.1666C73.666 22.0833 74.416 22.8333 75.3327 22.8333H86.9993V21.1666H75.3327V9.49996ZM85.3327 14.5V12C85.3327 11.5416 84.9577 11.1666 84.4993 11.1666H82.8327V15.3333H84.4993C84.9577 15.3333 85.3327 14.9583 85.3327 14.5ZM83.666 12H84.4993V14.5H83.666V12ZM86.9993 13.6666H87.8327V12.8333H86.9993V12H87.8327V11.1666H86.166V15.3333H86.9993V13.6666ZM80.3327 13.6666H81.166C81.6243 13.6666 81.9993 13.2916 81.9993 12.8333V12C81.9993 11.5416 81.6243 11.1666 81.166 11.1666H79.4993V15.3333H80.3327V13.6666ZM80.3327 12H81.166V12.8333H80.3327V12Z" fill="#1D1D1D"/>
<rect x="34" y="36.5" width="96" height="96" rx="48" fill="white"/>
<path fill-rule="evenodd" clip-rule="evenodd" d="M82 116.178V90.3197L107.785 103.249V72.2188L82 59.2894V85.1482L69.1074 91.6127L56.2148 85.1482V103.249L82 116.178Z" fill="#AE1E57"/>
<path fill-rule="evenodd" clip-rule="evenodd" d="M94.8946 52.822L82.0018 59.2868L107.787 72.2161L120.679 65.7514L94.8946 52.822ZM69.1093 52.822L43.3242 65.7514L56.2167 72.2161L82.0018 59.2868L69.1093 52.822ZM56.2167 72.2161L43.3242 78.6809L69.1093 91.6099L82.0018 85.1452L56.2167 72.2161ZM107.787 72.2161L82.0018 85.1452L94.8946 91.6099L120.679 78.6809L107.787 72.2161Z" fill="white"/>
<path fill-rule="evenodd" clip-rule="evenodd" d="M82.7207 59.2879L94.8924 53.1846L119.957 65.7523L107.785 71.8556L82.7207 59.2879ZM81.2793 59.2879L56.2149 71.8556L44.043 65.7523L69.1074 53.1846L81.2793 59.2879ZM82.3223 84.6235L107.064 72.2172L82.3223 59.8111V84.6235ZM56.2149 72.5783L81.2793 85.1465L69.1074 91.2498L44.043 78.6816L56.2149 72.5783ZM107.785 72.5783L119.957 78.6816L94.8924 91.2498L82.7207 85.1465L107.785 72.5783ZM81.6777 85.6695L69.2515 91.9001C69.1609 91.9457 69.0539 91.9457 68.9634 91.9001L56.5372 85.6695V103.048L81.6777 115.654V85.6695ZM82 58.9268L94.7485 52.5343C94.8391 52.4886 94.9463 52.4886 95.0369 52.5343L120.822 65.4636C120.931 65.5182 121 65.6302 121 65.7523C121 65.8749 120.931 65.9869 120.822 66.0415L108.506 72.2172L120.822 78.393C120.931 78.4476 121 78.5591 121 78.6816C121 78.8042 120.931 78.9162 120.822 78.9708L108.107 85.3462V103.247C108.107 103.37 108.038 103.482 107.929 103.536L82.1441 116.466L82.1434 116.466L82.1421 116.467L82.1402 116.468L82.1396 116.468L82.1389 116.469L82.1376 116.469L82.1357 116.47L82.1347 116.47L82.1341 116.471L82.1328 116.471L82.1309 116.472L82.1299 116.473L82.1292 116.473L82.128 116.473L82.126 116.474L82.1251 116.474L82.1235 116.475L82.1212 116.476L82.1205 116.477H82.1199L82.1186 116.477L82.1167 116.478L82.1157 116.478L82.1151 116.479L82.1138 116.479L82.1118 116.48L82.1108 116.48L82.1102 116.481L82.109 116.481L82.107 116.482L82.106 116.482H82.1051L82.1041 116.483L82.1022 116.483L82.1009 116.484H82.1002L82.0993 116.484L82.0977 116.485L82.0961 116.485L82.0954 116.485L82.0945 116.486L82.0928 116.486L82.0912 116.487L82.0902 116.487L82.0896 116.487L82.088 116.488L82.0863 116.488H82.0854L82.0847 116.489L82.0831 116.489L82.0812 116.49H82.0802L82.0796 116.49L82.0783 116.49L82.0764 116.491H82.0754L82.0748 116.491L82.0735 116.492L82.0712 116.492L82.0702 116.492L82.0686 116.493L82.0664 116.493H82.0654L82.0648 116.494H82.0635L82.0612 116.494H82.0603L82.0587 116.494L82.0564 116.495H82.0555H82.0548L82.0538 116.495L82.0512 116.496L82.0503 116.496H82.0496H82.0487L82.0464 116.497H82.0451L82.0435 116.497L82.0412 116.497H82.0403H82.0396L82.0387 116.498L82.0361 116.498H82.0351L82.0335 116.498H82.0312L82.0303 116.499H82.0296H82.0283L82.0261 116.499H82.0251H82.0245H82.0232L82.0209 116.499H82.0199H82.0181L82.0158 116.5H82.0151H82.0145H82.0129H82.0109L82.01 116.5H82.0093H82.0077H82.0058H82.0052H82.0042H82.0026H82.0006H82H81.9993H81.9974H81.9958H81.9948H81.9942H81.9923H81.9907H81.99L81.9891 116.5H81.9871H81.9855H81.9848H81.9842L81.9819 116.499H81.9803H81.9791L81.9768 116.499H81.9755H81.9748H81.9739L81.9716 116.499H81.9703H81.9697L81.9687 116.498H81.9665L81.9652 116.498H81.9639L81.9613 116.498L81.9603 116.497H81.9597H81.9587L81.9565 116.497L81.9552 116.497H81.9536L81.9513 116.496H81.9504H81.9497L81.9488 116.496L81.9462 116.495L81.9452 116.495H81.9445H81.9436L81.9413 116.494H81.94L81.9388 116.494L81.9365 116.494H81.9352L81.9345 116.493H81.9336L81.9313 116.493L81.93 116.492L81.9288 116.492L81.9265 116.492L81.9252 116.491L81.9246 116.491H81.9236L81.9217 116.49L81.9204 116.49L81.9198 116.49H81.9188L81.9168 116.489L81.9155 116.489L81.9146 116.488H81.9136L81.912 116.488L81.9104 116.487L81.9098 116.487L81.9088 116.487L81.9072 116.486L81.9055 116.486L81.9046 116.485L81.9039 116.485L81.9023 116.485L81.9007 116.484L81.8998 116.484H81.8991L81.8978 116.483L81.8959 116.483L81.8949 116.482H81.894L81.893 116.482L81.891 116.481L81.8898 116.481L81.8891 116.48L81.8881 116.48L81.8862 116.479L81.8849 116.479L81.8843 116.478L81.8833 116.478L81.8814 116.477L81.8801 116.477H81.8794L81.8788 116.476L81.8765 116.475L81.8753 116.475L81.874 116.474L81.872 116.473L81.8704 116.473L81.8691 116.472L81.8672 116.471L81.8659 116.471L81.8653 116.47L81.8643 116.47L81.8624 116.469L81.8611 116.469L81.8604 116.468L81.8598 116.468L81.8579 116.467L81.8566 116.466L81.8559 116.466L56.0707 103.536C55.9615 103.482 55.8925 103.37 55.8925 103.247V85.3462L43.1781 78.9708C43.069 78.9162 43 78.8042 43 78.6816C43 78.5591 43.069 78.4476 43.1781 78.393L55.4941 72.2172L43.1781 66.0415C43.069 65.9869 43 65.8749 43 65.7523C43 65.6302 43.069 65.5182 43.1781 65.4636L68.9634 52.5343C69.0539 52.4886 69.1609 52.4886 69.2515 52.5343L82 58.9268Z" fill="#460C23"/>
<g clip-path="url(#clip0_1959_63132)">
<rect y="45.7188" width="28" height="28" rx="6" transform="rotate(-12.8328 0 45.7188)" fill="white"/>
<g clip-path="url(#clip1_1959_63132)">
<path d="M21.6496 56.0005L22.9452 61.6881L11.5699 64.2793L8.97867 52.9041L13.0575 51.9749C12.9667 51.3888 12.9808 50.8129 13.0773 50.261L8.6085 51.279C7.71473 51.4826 7.15004 52.3805 7.35364 53.2742L9.94488 64.6495C10.1485 65.5433 11.0463 66.108 11.9401 65.9044L23.3154 63.3131C24.2091 63.1095 24.7738 62.2117 24.5702 61.3179L23.6448 57.2553L21.6496 56.0005ZM21.3562 60.3407L12.4185 62.3767L13.9996 58.9995L16.0289 60.5542L17.6081 57.1689L21.3562 60.3407ZM21.9451 52.4204C22.1731 51.7702 22.2344 51.0639 22.0715 50.3489C21.6106 48.3257 19.6055 47.0646 17.5823 47.5255C15.5591 47.9863 14.298 49.9915 14.7588 52.0147C15.2197 54.0379 17.2249 55.299 19.24 54.84C19.955 54.6771 20.5731 54.3141 21.0523 53.8289L24.1648 55.7864L25.0558 54.3698L21.9451 52.4204ZM18.8779 53.2131C17.7566 53.4685 16.6393 52.7658 16.3839 51.6445C16.1285 50.5233 16.8312 49.4059 17.9525 49.1505C19.0737 48.8951 20.1911 49.5978 20.4465 50.7191C20.7019 51.8404 19.9992 52.9577 18.8779 53.2131Z" fill="#1D1D1D"/>
</g>
</g>
<g clip-path="url(#clip2_1959_63132)">
<rect x="143.723" y="37.5" width="28" height="28" rx="6" transform="rotate(29.3436 143.723 37.5)" fill="white"/>
<g clip-path="url(#clip3_1959_63132)">
<path d="M145.706 48.939L144.253 48.1222L138.536 58.292C138.087 59.0911 138.373 60.1124 139.172 60.5616L149.342 66.2788L150.159 64.826L139.989 59.1087L145.706 48.939ZM158.962 52.5672L150.245 47.6668C149.446 47.2176 148.425 47.5038 147.976 48.3029L143.075 57.0198C142.626 57.8189 142.912 58.8402 143.711 59.2894L152.428 64.1899C153.227 64.6391 154.249 64.3528 154.698 63.5538L159.598 54.8368C160.047 54.0378 159.761 53.0165 158.962 52.5672ZM153.245 62.737L144.528 57.8366L149.428 49.1196L158.145 54.0201L153.245 62.737ZM151.722 51.8427L148.046 58.3804L154.242 57.5618L151.722 51.8427Z" fill="#1D1D1D"/>
</g>
</g>
<defs>
<clipPath id="clip0_1959_63132">
<rect y="45.7188" width="28" height="28" rx="6" transform="rotate(-12.8328 0 45.7188)" fill="white"/>
</clipPath>
<clipPath id="clip1_1959_63132">
<rect width="20" height="20" fill="white" transform="translate(4.78906 48.7305) rotate(-12.8328)"/>
</clipPath>
<clipPath id="clip2_1959_63132">
<rect x="143.723" y="37.5" width="28" height="28" rx="6" transform="rotate(29.3436 143.723 37.5)" fill="white"/>
</clipPath>
<clipPath id="clip3_1959_63132">
<rect width="20" height="20" fill="white" transform="translate(145.25 42.947) rotate(29.3436)"/>
</clipPath>
</defs>
</svg>
