<svg xmlns="http://www.w3.org/2000/svg" width="239.677" height="119.997"
    viewBox="0 0 239.677 119.997">
    <g transform="translate(-56.111 -233.416)">
        <path fill="#ebebeb"
            d="M268.353,269.833l-6.392-4.414s0-.01,0-.015a35.093,35.093,0,0,0-2.571-6.658l1.638-6.426-9.271-9.929-6.526,1.195a35.14,35.14,0,0,0-6.461-3.017l-.016-.006-3.968-6.681-13.575-.465-4.414,6.392-.025.006a35.139,35.139,0,0,0-6.651,2.568l-6.424-1.637-9.929,9.271,1.192,6.513,0,.006a34.431,34.431,0,0,0-3.019,6.486l-6.68,3.966-.465,13.576,6.4,4.418a34,34,0,0,0,2.563,6.686v0l-1.633,6.407L201.388,308l6.485-1.187a35.444,35.444,0,0,0,6.518,3.024h.006l3.961,6.672,13.576.465,4.411-6.387a35.375,35.375,0,0,0,6.707-2.57h0l6.394,1.629,9.929-9.27-1.192-6.515a34.435,34.435,0,0,0,3.019-6.487h0l6.683-3.969Zm-42.309,20.638a15.275,15.275,0,1,1,15.789-14.744A15.28,15.28,0,0,1,226.044,290.471Z"
            transform="translate(-49.145 0)" />
        <ellipse fill="#f5f5f5" cx="119.839" cy="6.999" rx="119.839" ry="6.999"
            transform="translate(56.111 339.415)" />
        <g transform="translate(91.835 241.576)">
            <path fill="#263238"
                d="M222.452,282.6c.859-13.846-.721-39.017,25.307-35.685,27.9,3.571,19.916,36.192,19.916,36.192Z"
                transform="translate(-155.364 -246.619)" />
            <g transform="translate(73.075 4.33)">
                <circle fill="#fff" cx="11.357" cy="11.357" r="11.357"
                    transform="translate(0.618 0.618)" />
                <path fill="#263238"
                    d="M246.7,254.571c-5.379-.919-11.132,3.046-11.7,7.064l21.328,1.961C255.576,259.017,250.967,255.3,246.7,254.571Z"
                    transform="translate(-233.231 -253.935)" />
                <path fill="#263238"
                    d="M261.443,269.113c-.153,2.969-1.771,5.3-3.615,5.2s-3.215-2.579-3.062-5.548,1.77-5.3,3.614-5.2S261.6,266.144,261.443,269.113Z"
                    transform="translate(-240.776 -257.42)" />
                <path fill="#407bff"
                    d="M244.114,277.576A11.975,11.975,0,1,1,256.089,265.6,11.989,11.989,0,0,1,244.114,277.576Zm0-22.714A10.739,10.739,0,1,0,254.853,265.6,10.751,10.751,0,0,0,244.114,254.861Z"
                    transform="translate(-232.138 -253.625)" />
            </g>
            <path fill="#fff" opacity="0.3"
                d="M290.26,293.34a.36.36,0,0,1-.072-.008.31.31,0,0,1-.229-.373,40.93,40.93,0,0,0-.055-16.937.309.309,0,1,1,.6-.145,41.61,41.61,0,0,1,.056,17.228A.309.309,0,0,1,290.26,293.34Z"
                transform="translate(-181.122 -257.703)" />
            <path fill="#fff" opacity="0.3"
                d="M285.67,265.411a.309.309,0,0,1-.281-.18,21.832,21.832,0,0,0-2.93-4.733.309.309,0,1,1,.478-.391,22.457,22.457,0,0,1,3.014,4.867.309.309,0,0,1-.281.438Z"
                transform="translate(-178.255 -251.727)" />
            <path fill="#263238"
                d="M126.736,395.119c-.077,0-.153,0-.23,0a3.09,3.09,0,1,1,.169-6.178h.059c1.786,0,6.081-2.169,15.067-16.336a3.092,3.092,0,0,1,4.641-.674A127.9,127.9,0,0,0,169.4,387.675a3.09,3.09,0,0,1-2.8,5.511A131.812,131.812,0,0,1,145.1,378.88C137.564,390.2,131.974,395.119,126.736,395.119Z"
                transform="translate(-117.572 -294.187)" />
            <path fill="#263238"
                d="M155.967,350.219a1.929,1.929,0,0,1-.265-.019,1.854,1.854,0,0,1-1.573-2.1c.439-3.076-.106-14.6-4-23.565a1.855,1.855,0,0,1,.656-2.272c8.466-5.769,26.5-6.46,27.265-6.486a1.854,1.854,0,0,1,.129,3.706c-.167.006-15.934.611-24.036,5.07,3.451,8.924,4.233,20.048,3.658,24.072A1.854,1.854,0,0,1,155.967,350.219Z"
                transform="translate(-127.683 -273.032)" />
            <path fill="#407bff"
                d="M155.784,366.337c-1.234-2.909-6.791-2.579-10.055-.085a16.552,16.552,0,0,0-4.353,6.793,2.188,2.188,0,0,0,2.487,2.619c2.131-.185,5.056-3.281,5.056-3.281-1.946,1.909.565,3.255,4.312.5C155.311,371.347,157.165,369.595,155.784,366.337Z"
                transform="translate(-124.385 -291.552)" />
            <path fill="#263238"
                d="M336.515,294.174a.32.32,0,0,1-.086-.012.31.31,0,0,1-.211-.383c.823-2.867,1.723-4.62,2.9-5.594a3.213,3.213,0,0,1,.095-2.014,3.979,3.979,0,0,1,1.46-1.857,1.58,1.58,0,0,1-.365-1.472,3.816,3.816,0,0,1,1.32-1.951,1.42,1.42,0,0,1-.35-.932c-.015-1.843,3.4-4.651,7.27-5.179a.3.3,0,0,1,.348.265.309.309,0,0,1-.265.347c-3.669.5-6.747,3.158-6.735,4.561a.807.807,0,0,0,.224.559,7.575,7.575,0,0,1,5.738-1.152c1.9.363,2.668.764,2.579,1.339-.168,1.083-4.208,1.308-6.916.985a3.8,3.8,0,0,1-1.391-.4,3.339,3.339,0,0,0-1.217,1.687.976.976,0,0,0,.306,1.011,7.165,7.165,0,0,1,4.893-.368c2.8.619,2.909.96,2.972,1.164a.408.408,0,0,1-.1.409c-.591.626-4.887.329-7.045-.2a3.119,3.119,0,0,1-.743-.279,3.385,3.385,0,0,0-1.4,1.674,2.672,2.672,0,0,0-.139,1.423c.111-.066.224-.127.341-.182,1.279-.606,2.826-.5,4.731.31,1.264.541,1.873,1.02,1.918,1.508a.683.683,0,0,1-.352.644c-.943.626-4.246.531-5.964-.383a2.416,2.416,0,0,1-.951-.919c-1.01.923-1.825,2.575-2.569,5.165A.309.309,0,0,1,336.515,294.174Zm3.353-5.767a1.82,1.82,0,0,0,.754.752,8.219,8.219,0,0,0,5.168.5c.211-.085.242-.156.242-.156s-.034-.348-1.546-1c-1.732-.741-3.113-.845-4.222-.32A3.387,3.387,0,0,0,339.868,288.407Zm2.061-4.06.16.043a20.34,20.34,0,0,0,6.139.459,14.011,14.011,0,0,0-2.247-.629A7,7,0,0,0,341.929,284.348Zm.78-3.475a3.937,3.937,0,0,0,.888.2c3.079.365,5.8-.067,6.206-.451a4.872,4.872,0,0,0-2.058-.653A6.96,6.96,0,0,0,342.709,280.873Z"
                transform="translate(-198.809 -257.373)" />
            <path fill="#263238"
                d="M185.121,407.544c.407-.13.271-.523-.184-.523h-8.368c-15.935-1.687-27.068.574-20.052,1.108s-.494.421-5.618,2.359,38.107,2.427,42.039,0C196.564,408.25,179.474,409.354,185.121,407.544Z"
                transform="translate(-127.875 -307.645)" />
            <path fill="#407bff" d="M256.61,367.123,183.8,364.709l-3.022-70.6,85.981,1.923Z"
                transform="translate(-139.448 -264.757)" />
            <path fill="#263238"
                d="M218.654,365.857a.309.309,0,0,1-.308-.284l-5.837-70.906a.309.309,0,0,1,.616-.051l5.837,70.906a.309.309,0,0,1-.283.333Z"
                transform="translate(-151.566 -264.842)" />
            <g transform="translate(117.163 31.277)">
                <path fill="#407bff" d="M303.469,368.311l19.57-2.979,6.164-65.646-15.585-2.464Z"
                    transform="translate(-303.469 -297.222)" />
                <path opacity="0.2" d="M303.469,368.311l19.57-2.979,6.164-65.646-15.585-2.464Z"
                    transform="translate(-303.469 -297.222)" />
            </g>
            <path fill="#263238"
                d="M194.621,355.512l-1.795-41.944a7.583,7.583,0,0,1,7.746-7.905L255,306.88a7.583,7.583,0,0,1,7.337,8.653L256.3,357.8a7.583,7.583,0,0,1-7.759,6.507l-46.6-1.544A7.584,7.584,0,0,1,194.621,355.512Z"
                transform="translate(-144.046 -269.168)" />
            <path fill="#fff"
                d="M246.426,367.047a.653.653,0,0,1-.514-.264l-4.536-5.791-4.894,5.217a.629.629,0,0,1-.983-.051l-4.536-5.791-4.894,5.216a.628.628,0,0,1-.982-.051l-4.536-5.791-4.894,5.217a.64.64,0,0,1-.5.212.658.658,0,0,1-.482-.263l-4.536-5.791-4.894,5.217a.629.629,0,0,1-.982-.051.909.909,0,0,1,.045-1.147l5.407-5.764a.628.628,0,0,1,.983.051l4.536,5.791L220.126,358a.645.645,0,0,1,.5-.212.659.659,0,0,1,.482.263l4.536,5.791,4.894-5.217a.628.628,0,0,1,.983.051l4.536,5.791,4.894-5.217a.627.627,0,0,1,.982.051l5.006,6.39a.91.91,0,0,1-.045,1.147A.641.641,0,0,1,246.426,367.047Z"
                transform="translate(-144.764 -296.242)" />
            <g transform="translate(0 83.168)">
                <path fill="#407bff" d="M121.228,401.877l-3.868-1.845-3.451-16.791,1.873-2.062Z"
                    transform="translate(-113.909 -381.178)" />
                <g transform="translate(1.873)">
                    <path fill="#407bff" d="M122.385,401.877l5.133-3-4.4-13.835-6.178-3.865Z"
                        transform="translate(-116.939 -381.178)" />
                    <path opacity="0.2" d="M122.385,401.877l5.133-3-4.4-13.835-6.178-3.865Z"
                        transform="translate(-116.939 -381.178)" />
                </g>
            </g>
            <path fill="#263238"
                d="M259.828,409.66c-.146,0-.289,0-.427-.006a3.09,3.09,0,1,1,.169-6.178c4.761.156,14.838-2.77,20.594-8.357a3.084,3.084,0,0,1,1.265-.742c9.758-2.928,13.39,2.988,13.54,3.241l-5.32,3.146a.839.839,0,0,0,.071.113c-.059-.082-1.441-1.879-5.841-.767C276.654,406.7,265.566,409.66,259.828,409.66Z"
                transform="translate(-168.328 -302.741)" />
            <g transform="translate(79.013 89.565)">
                <path fill="#407bff" d="M253.89,412.99l-11.257-.709-.888-20.753,15.128.565Z"
                    transform="translate(-241.745 -391.528)" />
                <g transform="translate(12.145 0.565)">
                    <path fill="#407bff" d="M261.395,413.34l2.631-2.619,1.631-12.94-1.279-5.338Z"
                        transform="translate(-261.395 -392.443)" />
                    <path opacity="0.2" d="M261.395,413.34l2.631-2.619,1.631-12.94-1.279-5.338Z"
                        transform="translate(-261.395 -392.443)" />
                </g>
            </g>
            <path fill="#263238"
                d="M352.75,379.224a1.848,1.848,0,0,1-1.121-.378c-6.424-4.883-15.109-13.552-18.442-21.915a1.88,1.88,0,0,1-.106-.379c-1.625-9.662-3.178-30-3.243-30.863a1.854,1.854,0,1,1,3.7-.28c.016.208,1.583,20.746,3.169,30.331,3.323,8.131,12.335,16.482,17.167,20.154a1.854,1.854,0,0,1-1.124,3.331Z"
                transform="translate(-196.375 -276.056)" />
            <path fill="#263238"
                d="M377.319,411.785a8.57,8.57,0,0,1-4.83-1.931,1.855,1.855,0,0,1,2.174-3.005,5.036,5.036,0,0,0,2.656,1.228,1.854,1.854,0,1,1,0,3.708Z"
                transform="translate(-212.373 -307.68)" />
            <path fill="#407bff"
                d="M373.75,409.016c1.984-5.893,10.118-4.729,12.919-3.854a29.712,29.712,0,0,1,6.841,2.969c1.517.992,1.542,2.648-.481,3.595-2.495,1.167-8.753.132-8.753.132,3.24,1.418-.006,3.691-5.689,1.459C376.737,412.589,373.05,411.175,373.75,409.016Z"
                transform="translate(-213.115 -306.895)" />
            <path fill="#263238"
                d="M334.82,324.873c-.736,5.008-4.883,8.7-8.256,8.2s-3.514-4.968-2.777-9.975,2.07-8.654,5.443-8.159S335.556,319.865,334.82,324.873Z"
                transform="translate(-193.928 -272.696)" />
            <circle fill="#263238" cx="0.506" cy="0.506" r="0.506"
                transform="translate(58.808 31.174)" />
            <path fill="#263238"
                d="M217.582,303.465a.507.507,0,1,1-.506-.507A.506.506,0,0,1,217.582,303.465Z"
                transform="translate(-153.117 -268.136)" />
            <path fill="#263238"
                d="M218.5,400.37a.507.507,0,1,1-.506-.507A.506.506,0,0,1,218.5,400.37Z"
                transform="translate(-153.467 -305.146)" />
            <path fill="#263238"
                d="M226.013,406.273a.507.507,0,1,1-.507-.507A.507.507,0,0,1,226.013,406.273Z"
                transform="translate(-156.337 -307.401)" />
        </g>
        <g transform="translate(67.84 339.716)">
            <path fill="#263238"
                d="M79.675,412.211a5.963,5.963,0,0,1-4.532-2.441.309.309,0,1,1,.508-.352c1.153,1.666,3.7,2.553,4.824,2.028a.865.865,0,0,0,.289-.21,3.751,3.751,0,0,1-2.179-2.77c-.14-.783-.252-1.842.395-1.988.886-.2,2.046,1.944,2.492,3.569a2.2,2.2,0,0,1,.08.83,2.774,2.774,0,0,0,1.1.087,1.193,1.193,0,0,0,.849-.46,3.611,3.611,0,0,1-1.424-2.589c-.24-1.69-.06-1.985.127-2.129a.416.416,0,0,1,.425-.048c.661.281,1.462,2.679,1.615,4.036a1.91,1.91,0,0,1,0,.428,2.369,2.369,0,0,0,.834.162,2.7,2.7,0,0,0,1.489-.389,2.131,2.131,0,0,1-.248-.182,2.961,2.961,0,0,1-.792-2.677c.084-.969.3-1.5.694-1.665a.7.7,0,0,1,.747.148,4.27,4.27,0,0,1,1.066,3.434,1.813,1.813,0,0,1-.31.712,11.349,11.349,0,0,0,4.106-.463.309.309,0,1,1,.149.6,10.209,10.209,0,0,1-4.752.382,3.513,3.513,0,0,1-2.162.718,3,3,0,0,1-1.013-.19,1.74,1.74,0,0,1-1.313.786,3.35,3.35,0,0,1-1.383-.119,1.406,1.406,0,0,1-.626.548A2.544,2.544,0,0,1,79.675,412.211Zm-.535-5.116a2.747,2.747,0,0,0,.053,1.263,3.14,3.14,0,0,0,1.755,2.292,1.875,1.875,0,0,0-.072-.438A5.962,5.962,0,0,0,79.141,407.1Zm3.444-.539a8.556,8.556,0,0,0,.109,1.272,3.181,3.181,0,0,0,.939,1.992A9.757,9.757,0,0,0,82.585,406.556Zm3.888-.537h0s-.232.118-.322,1.15a2.409,2.409,0,0,0,.577,2.153,1.607,1.607,0,0,0,.371.234,1.319,1.319,0,0,0,.336-.635,3.865,3.865,0,0,0-.739-2.738C86.57,406.045,86.49,406.019,86.473,406.019Z"
                transform="translate(-75.088 -405.401)" />
            <g transform="translate(88.588 5.672)">
                <path fill="#263238"
                    d="M227.765,420.388l1.675-2.905-1.675-2.9h-1.793l1.013,2.9-1.013,2.9Z"
                    transform="translate(-221.303 -414.578)" />
                <path fill="#263238"
                    d="M223.936,419.508a1.511,1.511,0,1,1,0-3.022l-2.847-.57-.756,2.3,1.271,1.94Z"
                    transform="translate(-219.149 -415.089)" />
                <path fill="#407bff"
                    d="M223.448,414.578h-3.356l-1.675,2.9,1.675,2.9h3.356l1.675-2.9ZM221.773,419a1.511,1.511,0,1,1,1.508-1.514A1.517,1.517,0,0,1,221.773,419Z"
                    transform="translate(-218.417 -414.578)" />
            </g>
            <g transform="translate(210.634 1.164)">
                <path fill="#407bff"
                    d="M417.121,411.6l-1.244-2.157,1.244-2.157h1.332l-.752,2.157.752,2.157Z"
                    transform="translate(-415.877 -407.284)" />
                <path fill="#407bff"
                    d="M419.9,410.945a1.122,1.122,0,1,0,0-2.245l2.115-.423.561,1.708-.944,1.441Z"
                    transform="translate(-417.414 -407.663)" />
                <path fill="#263238"
                    d="M418.841,407.284h2.493l1.244,2.157-1.244,2.158h-2.493l-1.244-2.158Zm1.244,3.282a1.122,1.122,0,1,0-1.121-1.125A1.126,1.126,0,0,0,420.085,410.566Z"
                    transform="translate(-416.534 -407.284)" />
            </g>
            <g transform="translate(160.8 4.016)">
                <path fill="#263238"
                    d="M342.131,417.264h2.792a1.326,1.326,0,0,0,1.322-1.322h0a1.326,1.326,0,0,0-1.322-1.322h-2.792a1.326,1.326,0,0,0-1.322,1.322h0A1.326,1.326,0,0,0,342.131,417.264Z"
                    transform="translate(-337.373 -412.938)" />
                <path fill="#407bff"
                    d="M335.547,413.8a2.754,2.754,0,1,1,1.237,3.82A2.842,2.842,0,0,1,335.547,413.8Z"
                    transform="translate(-335.25 -411.965)" />
                <rect fill="#263238" width="0.847" height="6.244"
                    transform="matrix(-0.905, -0.426, 0.426, -0.905, 1.834, 6.008)" />
            </g>
        </g>
    </g>
</svg>