<svg fill="none" height="24" viewBox="0 0 24 24" width="24" xmlns="http://www.w3.org/2000/svg"><g fill="#000"><path d="m12 17.6404c-2.31588 0-4.2-1.8841-4.2-4.2v-4.20001h1.2v-1.84c0-1.6542 1.3458-3 3-3s3 1.3458 3 3v1.84h1.2v4.20001c0 2.3159-1.8841 4.2-4.2 4.2zm1.8-10.24001c0-.99252-.8075-1.8-1.8-1.8s-1.8.80748-1.8 1.8v1.84h3.6zm1.2 3.04001h-6v3c0 1.6542 1.3458 3 3 3s3-1.3458 3-3z"/><path d="m12.1648 22.4329-.1648.0471-.1648-.0471c-5.21248-1.4893-8.8352-6.2727-8.8352-11.729v-7.5039h2.75148l1.2-1.2h10.09702l1.2 1.2h2.7515v7.5039c0 5.4213-3.5886 10.23-8.8352 11.729zm7.6352-18.0329h-2.0485l-1.2-1.2h-9.10298l-1.2 1.2h-2.04852v6.3039c0 4.8291 3.19888 9.1329 7.8 10.5267 4.6011-1.3938 7.8-5.6976 7.8-10.5267z"/><path d="m12.6 11.6406h-1.2v3.6h1.2z"/></g></svg>