<svg xmlns="http://www.w3.org/2000/svg" width="33.063" height="37.786" viewBox="0 0 33.063 37.786">
    <g transform="translate(-19.329)">
        <path fill="#AF1E57"
            d="M21.691,0H41.756L52.392,10.594v24.83a2.362,2.362,0,0,1-2.362,2.362H21.691a2.362,2.362,0,0,1-2.362-2.362V2.362A2.362,2.362,0,0,1,21.691,0Z"
            transform="translate(0)" />
        <path fill="#8D1846" d="M213.55,10.8h-8.231a2.362,2.362,0,0,1-2.362-2.362V.193Z"
            transform="translate(-161.192 -0.169)" />
        <path fill="#fff"
            d="M103,136.779a.686.686,0,0,0,0-1.359h-2.253a.7.7,0,0,0-.686.768v5.537c0,.494.281.768.661.768s.66-.274.66-.768V140.2h1.363a.64.64,0,0,0,.634-.69.628.628,0,0,0-.634-.671h-1.363v-2.065ZM95.39,135.42H93.741a.729.729,0,0,0-.765.763v5.546a.726.726,0,0,0,.784.743h1.73a3.209,3.209,0,0,0,3.4-3.427A3.292,3.292,0,0,0,95.39,135.42Zm.079,5.685h-1v-4.317h.906c1.371,0,1.967.92,1.967,2.189C97.337,140.165,96.751,141.1,95.469,141.1ZM89.43,135.42H87.8a.687.687,0,0,0-.719.768v5.537a.7.7,0,1,0,1.384,0v-1.617h1.024a2.236,2.236,0,0,0,2.306-2.334A2.262,2.262,0,0,0,89.43,135.42Zm-.027,3.389h-.941V136.72H89.4a1.049,1.049,0,0,1,0,2.089Z"
            transform="translate(-59.471 -118.874)" />
    </g>
</svg>