<svg height="110" viewBox="0 0 110 110" width="110" xmlns="http://www.w3.org/2000/svg"><circle cx="55" cy="55" fill="#b9b9b9" r="55"/><g fill="#fff"><path d="m100.946 27.828a13.463 13.463 0 0 0 9.839-4.077 13.463 13.463 0 0 0 4.076-9.838 13.465 13.465 0 0 0 -4.077-9.838 13.911 13.911 0 0 0 -19.676 0 13.464 13.464 0 0 0 -4.077 9.838 13.463 13.463 0 0 0 4.077 9.839 13.467 13.467 0 0 0 9.838 4.076zm0 0" transform="translate(-46.31 26.115)"/><path d="m48.081 263.834a34.367 34.367 0 0 0 -.468-3.65 28.761 28.761 0 0 0 -.9-3.67 18.128 18.128 0 0 0 -1.509-3.423 12.916 12.916 0 0 0 -2.275-2.965 10.032 10.032 0 0 0 -3.268-2.053 11.3 11.3 0 0 0 -4.172-.755 4.235 4.235 0 0 0 -2.262.959c-.678.442-1.471.953-2.356 1.519a13.5 13.5 0 0 1 -3.048 1.343 11.837 11.837 0 0 1 -7.457 0 13.469 13.469 0 0 1 -3.046-1.343c-.877-.56-1.67-1.071-2.358-1.52a4.229 4.229 0 0 0 -2.261-.959 11.28 11.28 0 0 0 -4.172.756 10.023 10.023 0 0 0 -3.269 2.053 12.918 12.918 0 0 0 -2.27 2.964 18.164 18.164 0 0 0 -1.509 3.423 28.83 28.83 0 0 0 -.9 3.67 34.248 34.248 0 0 0 -.468 3.652c-.074 1.105-.113 2.253-.113 3.411a9.593 9.593 0 0 0 2.849 7.254 10.256 10.256 0 0 0 7.342 2.678h27.817a10.254 10.254 0 0 0 7.341-2.678 9.589 9.589 0 0 0 2.849-7.258c.002-1.16-.039-2.308-.117-3.408zm0 0" transform="translate(30.901 -193.296)"/></g></svg>