<svg fill="none" height="12" viewBox="0 0 12 12" width="12" xmlns="http://www.w3.org/2000/svg"><path d="m11.9687 4.60347c-.0785-.24298-.2941-.41556-.549-.43854l-3.46357-.3145-1.36957-3.205614c-.10098-.23493-.33097-.387004-.5865-.387004s-.48552.152073-.5865.387553l-1.36957 3.205065-3.464082.3145c-.254523.02353-.469494.19556-.5485061.43854-.0790121.24299-.0060427.50951.1864981.67751l2.61802 2.29602-.772 3.4006c-.05648.2501.04056.5085.24803.6585.11151.0806.24198.1216.37354.1216.11344 0 .22596-.0306.32695-.091l2.98762-1.78563 2.98653 1.78563c.21854.1314.49403.1195.70103-.0306.20756-.1504.30452-.409.24803-.6585l-.772-3.4006 2.61805-2.29556c.1925-.16846.266-.43452.187-.67797z" fill="#ffc107"/></svg>