<svg xmlns="http://www.w3.org/2000/svg" width="24" height="24" viewBox="0 0 24 24">
    <g transform="translate(-332 -43)">
        <rect fill="none" width="24" height="24" transform="translate(332 43)" />
        <g transform="translate(333 42.937)">
            <path fill="#af1e57"
                d="M3.653,17.2a.651.651,0,0,0,.518-.255l.284-.369a7.149,7.149,0,0,0,13,2.762.654.654,0,0,0-1.091-.722A5.838,5.838,0,0,1,5.731,16.234l.56.431a.654.654,0,0,0,.8-1.036l-1.55-1.193c-.325-.25-.787-.391-1.081-.007L3.136,16.143A.653.653,0,0,0,3.653,17.2Z"
                transform="translate(0 -3.16)" />
            <path fill="#af1e57"
                d="M7.014,9.161a.655.655,0,0,0,.907-.184,5.838,5.838,0,0,1,10.636,2.377L18,10.923a.654.654,0,0,0-.8,1.036l1.55,1.193c.331.254.783.4,1.081.007l1.321-1.715a.653.653,0,1,0-1.036-.8l-.284.369a7.15,7.15,0,0,0-13-2.763.655.655,0,0,0,.184.907Z"
                transform="translate(-1.288)" />
        </g>
    </g>
</svg>