<svg width="18" height="20" viewBox="0 0 18 20" fill="none" xmlns="http://www.w3.org/2000/svg">
<path d="M15 14.1214C14.24 14.1214 13.56 14.4214 13.04 14.8914L5.91 10.7414C5.96 10.5114 6 10.2814 6 10.0414C6 9.80138 5.96 9.57138 5.91 9.34138L12.96 5.23138C13.5 5.73138 14.21 6.04138 15 6.04138C16.66 6.04138 18 4.70138 18 3.04138C18 1.38138 16.66 0.0413818 15 0.0413818C13.34 0.0413818 12 1.38138 12 3.04138C12 3.28138 12.04 3.51138 12.09 3.74138L5.04 7.85138C4.5 7.35138 3.79 7.04138 3 7.04138C1.34 7.04138 0 8.38138 0 10.0414C0 11.7014 1.34 13.0414 3 13.0414C3.79 13.0414 4.5 12.7314 5.04 12.2314L12.16 16.3914C12.11 16.6014 12.08 16.8214 12.08 17.0414C12.08 18.6514 13.39 19.9614 15 19.9614C16.61 19.9614 17.92 18.6514 17.92 17.0414C17.92 15.4314 16.61 14.1214 15 14.1214ZM15 2.04138C15.55 2.04138 16 2.49138 16 3.04138C16 3.59138 15.55 4.04138 15 4.04138C14.45 4.04138 14 3.59138 14 3.04138C14 2.49138 14.45 2.04138 15 2.04138ZM3 11.0414C2.45 11.0414 2 10.5914 2 10.0414C2 9.49138 2.45 9.04138 3 9.04138C3.55 9.04138 4 9.49138 4 10.0414C4 10.5914 3.55 11.0414 3 11.0414ZM15 18.0614C14.45 18.0614 14 17.6114 14 17.0614C14 16.5114 14.45 16.0614 15 16.0614C15.55 16.0614 16 16.5114 16 17.0614C16 17.6114 15.55 18.0614 15 18.0614Z" fill="white"/>
</svg>
