<svg fill="none" height="25" viewBox="0 0 24 25" width="24" xmlns="http://www.w3.org/2000/svg" xmlns:xlink="http://www.w3.org/1999/xlink"><clipPath id="a"><path d="m0 .150391h24v24h-24z"/></clipPath><g clip-path="url(#a)" fill="#af1e57"><path d="m22.0307 8.58691h-6.592c.0213-.23066.032-.46533.032-.70266.0011-1.35842-.3556-2.69316-1.0343-3.86991-.6786-1.17674-1.6553-2.15396-2.8316-2.8333-1.1764-.679341-2.51092-1.036837-3.86934-1.036509-1.35841.000329-2.69278.358472-3.86879 1.038379-.05602.02939-.10551.06979-.14552.11878-.04.049-.06969.10557-.08728.16633s-.02271.12444-.01507.18723.0279.12338.05955.17814c.03166.05477.07405.10257.12464.14053.05059.03797.10834.06531.16976.0804.06143.01509.12527.0176.18769.00739s.12214-.03293.17556-.0668c.90338-.5219 1.91473-.82895 2.95579-.89736 1.04105-.06841 2.08389.10364 3.04781.50284.9639.39921 1.823 1.01485 2.5109 1.79929.6878.78444 1.1859 1.71663 1.4558 2.72443.2698 1.0078.3042 2.06418.1003 3.08737-.2038 1.02322-.6403 1.98572-1.2758 2.81322-.6355.8274-1.4528 1.4976-2.3888 1.9585-.9359.461-1.96537.7004-3.00867.6997-1.55312.0071-3.06077-.5238-4.26666-1.5027-.05978-.048-.13041-.0806-.20572-.095s-.153-.0102-.22628.0124l-1.244.3253.488-1.0667c.0358-.0755.05072-.1592.04322-.2424-.00751-.0833-.03716-.163-.08589-.2309-.77318-1.0639-1.22122-2.32927-1.289854-3.64269-.068629-1.31342.245104-2.61856.903184-3.7573.05-.10654.05815-.22798.02282-.34025-.03532-.11227-.11154-.20717-.21354-.26589-.102-.05871-.22234-.07696-.33717-.05113-.11482.02583-.21575.09386-.28277.19061-.724414 1.25474-1.0820995 2.68763-1.03236378 4.13562.04973578 1.448.50489578 2.85293 1.31369378 4.05503l-.786667 1.724c-.037139.0807-.050555.1703-.038684.2583.011872.088.048541.1708.105726.2388.057185.0679.132524.1182.217217.1449s.175243.0288.261078.006l2-.5213c.81098.6126 1.73478 1.0593 2.71855 1.3147.98377.2553 2.00823.3142 3.01478.1733v4.1053c.00141.5215.20947 1.0212.5786 1.3896.36914.3683.8692.5754 1.3907.5757h6.6294l2.964 2.4254c.0687.0559.1519.0911.2398.1017s.1771-.0039.2571-.0418c.0801-.0379.1478-.0978.1953-.1725.0475-.0748.0728-.1615.0731-.2501v-2.0627h.8907c.5217-.0003 1.022-.2075 1.3912-.5762.3691-.3687.577-.8687.5781-1.3904v-9.1c-.0021-.5211-.2105-1.02005-.5795-1.38785-.3691-.36781-.8688-.57449-1.3898-.57484zm1.0306 11.06669c-.0003.2732-.109.5352-.3022.7284s-.4552.3019-.7284.3022h-1.364c-.1245 0-.2439.0495-.3319.1375s-.1375.2074-.1375.3319v1.5413l-2.3146-1.8947c-.1334-.116-.2387-.116-.4907-.116h-6.6107c-.2732-.0003-.5352-.109-.7284-.3022-.19318-.1932-.30188-.4552-.30223-.7284v-4.304c1.36873-.3722 2.60933-1.1123 3.58693-2.14.9777-1.0278 1.655-2.3037 1.9584-3.68935h6.736c.1355-.00035.2698.02599.3951.07753.1254.05154.2393.12726.3354.22285.0961.09558.1724.20917.2246.33427.0522.125.0792.2592.0796.3947z"/><path d="m18.7387 16.4921c.0966-.0452.1749-.122.2219-.2177.0471-.0957.06-.2047.0366-.3087-.0233-.1041-.0815-.1971-.1649-.2636-.0834-.0664-.187-.1025-.2936-.102h-.192l-1.512-3.4454c-.0368-.0832-.0969-.1539-.1731-.2036-.0763-.0497-.1653-.0761-.2563-.0761-.0909 0-.18.0264-.2562.0761s-.1363.1204-.1731.2036l-1.512 3.4454h-.192c-.1067-.0005-.2102.0356-.2936.102-.0834.0665-.1416.1595-.1649.2636-.0234.104-.0105.213.0365.3087.0471.0957.1254.1725.222.2177l-.5627 1.2826c-.0277.0568-.0436.1187-.0469.1818-.0032.0631.0063.1263.0281.1856.0217.0594.0552.1137.0985.1598s.0954.0829.1533.1084c.0579.0254.1203.0389.1835.0396s.1259-.0114.1843-.0355c.0585-.0241.1114-.0597.1558-.1048.0443-.0451.079-.0987.1021-.1575l.708-1.6147h2.6573l.708 1.6147c.0231.0588.0579.1124.1022.1575s.0973.0807.1557.1048.1211.0362.1843.0355.1257-.0142.1835-.0396c.0579-.0255.11-.0623.1533-.1084s.0768-.1004.0986-.1598c.0217-.0593.0313-.1225.028-.1856-.0032-.0631-.0192-.125-.0469-.1818zm-3.2494-.892.9174-2.0907.9173 2.0907z"/><path d="m2.59734 3.21404c.10864-.001.21357-.03965.2969-.10938.08332-.06972.13987-.1662.16-.27297.02014-.10677.0026-.21721-.04961-.3125-.05221-.09528-.13586-.1695-.23668-.20999s-.21257-.04475-.31618-.01204c-.10361.0327-.19267.10034-.25198.19138-.0593.09103-.08519.19982-.07323.30781.01195.10799.061.20849.13877.28436.08897.08616.20816.13403.33201.13333z"/><path d="m4.93733 10.7385c-.05643.0282-.10658.0676-.14746.1156-.04088.0481-.07166.1039-.09047.1642-.01882.0602-.02529.1236-.01905.1864.00625.0628.0251.1236.05541.179.03032.0553.07149.104.12104.1431.04955.039.10647.0677.16736.0843.06088.0165.12448.0207.187.0121.06251-.0086.12266-.0297.17684-.062 1.02712-.5631 1.84188-1.4467 2.31999-2.51603.4782 1.06923 1.29294 1.95283 2.32001 2.51603.0542.0323.1143.0534.1768.062s.1262.0044.187-.0121c.0609-.0166.1178-.0453.1674-.0843.0496-.0391.0907-.0878.121-.1431.0303-.0554.0492-.1162.0554-.179.0063-.0628-.0002-.1262-.019-.1864-.0188-.0603-.0496-.1161-.0905-.1642-.0409-.048-.091-.0874-.1474-.1156-.59829-.3281-1.11275-.78979-1.50335-1.34922-.39061-.55943-.64682-1.20146-.74869-1.87612h2.08134c.1152-.01233.2217-.06681.2991-.15296s.1203-.19788.1203-.3137c0-.11583-.0429-.22756-.1203-.31371s-.1839-.14064-.2991-.15297h-2.13333v-1.95732c-.01233-.11517-.06682-.22172-.15297-.29914-.08615-.07741-.19788-.12024-.31371-.12024-.11582 0-.22755.04283-.3137.12024-.08615.07742-.14063.18397-.15296.29914v1.95333h-1.69333c-.11517.01233-.22172.06681-.29913.15296-.07742.08615-.12024.19788-.12024.3137 0 .11583.04282.22756.12024.31371.07741.08615.18396.14064.29913.15297h1.63466c-.10056.67474-.35549 1.31718-.74493 1.8773-.38945.56011-.9029 1.02283-1.5004 1.35203z"/></g></svg>