<svg width="24" height="24" viewBox="0 0 24 24" fill="none" xmlns="http://www.w3.org/2000/svg">
<path d="M22.2492 4.6001H16.2492V14.4161C15.8772 14.2841 15.4692 14.2001 15.0492 14.2001C13.0572 14.2001 11.4492 15.8081 11.4492 17.8001C11.4492 19.7921 13.0572 21.4001 15.0492 21.4001C17.0412 21.4001 18.6492 19.7921 18.6492 17.8001V7.0001H22.2492V4.6001Z" fill="#1D1D1D"/>
<path d="M8 1C4.688 1 2 3.688 2 7C2 10.312 4.688 13 8 13C11.312 13 14 10.312 14 7C14 3.688 11.312 1 8 1ZM6.8 9.7V4.3L10.4 7L6.8 9.7Z" fill="#656565"/>
</svg>
