<svg height="72" viewBox="0 0 72 72" width="72" xmlns="http://www.w3.org/2000/svg"><path d="m70.2 43.262c-7.624-12.962-6.814-26.238-10.487-32.483s-14.622-17.011-40.489 1.75-19.288 39.155-15.246 46.021c18.922 32.159 79.722 7.659 66.222-15.288z" opacity=".044" transform="translate(-.134 -1.993)"/><path d="m11.155 61.569 15.045-26.062a8.356 8.356 0 0 1 14.474 0l15.048 26.062a8.356 8.356 0 0 1 -7.237 12.531h-30.093a8.356 8.356 0 0 1 -7.237-12.531z" fill="#ffe419" transform="translate(2.577 -17.714)"/><circle cx="36.014" cy="46.649" fill="#fff" r="2.665"/><path d="m230.668 142.944a2.665 2.665 0 0 1 -2.668-2.665v-11.019a2.665 2.665 0 0 1 2.665-2.665 2.665 2.665 0 0 1 2.665 2.665v11.019a2.665 2.665 0 0 1 -2.662 2.665z" fill="#fff" transform="translate(-194.654 -103.911)"/><path d="m39.417 66.009h-11.097a.952.952 0 0 1 0-1.9h11.1a7.4 7.4 0 0 0 6.41-11.109l-15.047-26.064a7.4 7.4 0 0 0 -12.825 0l-15.047 26.064a7.4 7.4 0 0 0 6.412 11.1h10.716a.952.952 0 0 1 0 1.9h-10.716a9.308 9.308 0 0 1 -8.061-13.954l15.047-26.062a9.308 9.308 0 0 1 16.122 0l15.047 26.062a9.308 9.308 0 0 1 -8.061 13.963z" transform="translate(11.645 -8.667)"/><path d="m246.953 472.576a.952.952 0 1 1 .673-.279.958.958 0 0 1 -.673.279z" transform="translate(-210.938 -415.234)"/><path d="m221.621 347.585a3.617 3.617 0 1 1 3.617-3.617 3.621 3.621 0 0 1 -3.617 3.617zm0-5.331a1.713 1.713 0 1 0 1.713 1.713 1.715 1.715 0 0 0 -1.713-1.712z" transform="translate(-185.606 -297.319)"/><path d="m221.621 134.849a3.621 3.621 0 0 1 -3.621-3.617v-11.019a3.617 3.617 0 1 1 7.234 0v11.019a3.621 3.621 0 0 1 -3.613 3.617zm0-16.349a1.715 1.715 0 0 0 -1.713 1.713v11.019a1.713 1.713 0 1 0 3.427 0v-11.019a1.715 1.715 0 0 0 -1.714-1.713z" transform="translate(-185.606 -94.864)"/><path d="m145.292 205.431a.952.952 0 1 1 .673-.279.958.958 0 0 1 -.673.279z" transform="translate(-118.954 -173.52)"/><path d="m66.856 251.986a.952.952 0 0 1 -.825-1.425l5.444-9.5a.952.952 0 1 1 1.652.947l-5.444 9.5a.952.952 0 0 1 -.827.478z" transform="translate(-47.986 -207.05)"/></svg>