<svg width="24" height="24" viewBox="0 0 24 24" fill="none" xmlns="http://www.w3.org/2000/svg">
<path opacity="0.3" d="M17.1429 0H6.85714C3.07005 0 0 3.07005 0 6.85714V17.1429C0 20.93 3.07005 24 6.85714 24H17.1429C20.93 24 24 20.93 24 17.1429V6.85714C24 3.07005 20.93 0 17.1429 0Z" fill="white"/>
<path d="M6.36583 7.17517C5.97971 7.1772 5.60999 7.33161 5.33712 7.60481C5.06424 7.878 4.91027 8.2479 4.90869 8.63403V15.3652C4.91072 15.751 5.06489 16.1205 5.33772 16.3933C5.61055 16.6661 5.98 16.8203 6.36583 16.8223H15.947C16.3328 16.8203 16.7023 16.6661 16.9751 16.3933C17.2479 16.1205 17.4021 15.751 17.4041 15.3652V8.63403C17.4021 8.24819 17.2479 7.87874 16.9751 7.60591C16.7023 7.33308 16.3328 7.17891 15.947 7.17689L6.36583 7.17517ZM8.64155 8.97517C8.98205 8.97483 9.31502 9.07545 9.59835 9.26431C9.88168 9.45317 10.1027 9.72179 10.2334 10.0362C10.3641 10.3506 10.3986 10.6968 10.3326 11.0308C10.2667 11.3649 10.1031 11.6719 9.86271 11.913C9.6223 12.1541 9.31579 12.3186 8.98194 12.3855C8.64808 12.4525 8.30186 12.419 7.98705 12.2892C7.67224 12.1595 7.40296 11.9393 7.21326 11.6565C7.02355 11.3738 6.92194 11.0411 6.92126 10.7006C6.92329 10.2445 7.10537 9.8077 7.42787 9.4852C7.75037 9.1627 8.18719 8.98063 8.64326 8.9786L8.64155 8.97517ZM19.1844 8.7386C19.0876 8.74908 18.9923 8.76977 18.8998 8.80031L18.0247 9.08831V14.9092L18.8998 15.1972C19.0786 15.2669 19.272 15.2906 19.4624 15.2662C19.6527 15.2418 19.8339 15.17 19.9893 15.0574C20.1447 14.9448 20.2693 14.795 20.3518 14.6218C20.4344 14.4485 20.4721 14.2573 20.4615 14.0657V9.93774C20.4673 9.74684 20.428 9.55727 20.3468 9.38438C20.2657 9.21149 20.1449 9.06015 19.9944 8.9426C19.8424 8.83429 19.6655 8.76617 19.4801 8.7446C19.3833 8.73088 19.2852 8.72858 19.1878 8.73774L19.1844 8.7386Z" fill="white"/>
</svg>
