<svg height="310" viewBox="0 0 310 310" width="310" xmlns="http://www.w3.org/2000/svg">
    <path d="m0 0h310v310h-310z" fill="none" />
    <g transform="translate(-1062.942 172.178)">
        <path d="m1319.448 54.992h18.015v33.737h-18.015z" fill="#e6e6e6" />
        <path d="m1334.041 88.73h3.422v-12.685h-7.009z" fill="#f0f0f0" />
        <path d="m1216.661 54.992h18.015v33.737h-18.015z" fill="#e6e6e6" />
        <path d="m1231.689 54.992h105.773v30.275h-105.773z" fill="#f0f0f0" />
        <path d="m1235.111 88.73h-3.422v-12.685h7.009z" fill="#f0f0f0" />
        <path d="m0 0h19.342v31.355h-19.342z" fill="#e6e6e6"
            transform="matrix(0 -1 1 0 1235.207 79.574)" />
        <path
            d="m1253.986 66.909h-6.2c-2.694 0-5.27-2.717-7.123-7.514h20.45c-1.857 4.797-4.433 7.514-7.127 7.514z"
            fill="#f0f0f0" />
        <path d="m0 0h19.342v31.355h-19.342z" fill="#e6e6e6"
            transform="matrix(0 -1 1 0 1268.899 79.574)" />
        <path
            d="m1287.995 66.909h-6.2c-2.694 0-5.27-2.717-7.123-7.514h20.45c-1.857 4.797-4.433 7.514-7.127 7.514z"
            fill="#f0f0f0" />
        <path d="m0 0h19.342v31.355h-19.342z" fill="#e6e6e6"
            transform="matrix(0 -1 1 0 1302.591 79.574)" />
        <path
            d="m1321.687 66.909h-6.2c-2.7 0-5.271-2.717-7.124-7.514h20.45c-1.856 4.797-4.432 7.514-7.126 7.514z"
            fill="#f0f0f0" />
        <path d="m1229.092-108.865h103.115v87.766h-103.115z" fill="#e6e6e6" />
        <path d="m1230.664-108.865h104.908v87.766h-104.908z" fill="#f0f0f0" />
        <path d="m1229.092-21.099h103.115v6.254h-103.115z" fill="#e6e6e6" />
        <path d="m1236.271-21.099h104.908v6.254h-104.908z" fill="#f0f0f0" />
        <path d="m0 0h78.343v95.485h-78.343z" fill="#fafafa"
            transform="matrix(0 1 -1 0 1330.86 -104.154)" />
        <path d="m1296.163-25.811 7.545-78.343h13.054l-7.545 78.343z" fill="#fff" />
        <path
            d="m1237.557-52.367a.36.36 0 0 1 -.36-.36v-48.361a.361.361 0 0 1 .36-.361.361.361 0 0 1 .361.361v48.361a.36.36 0 0 1 -.361.36z"
            fill="#f0f0f0" />
        <path d="m1312.021-25.811 7.545-78.343h5.089l-7.545 78.343z" fill="#fff" />
        <path d="m0 0h78.343v.598h-78.343z" fill="#e6e6e6"
            transform="matrix(0 1 -1 0 1330.86 -104.154)" />
        <g fill="#e0e0e0">
            <path d="m1336.686-95.611h-103.115l-.433-6.711h103.115z" opacity=".5" />
            <path d="m1336.686-84.579h-103.115l-.433-6.711h103.115z" opacity=".5" />
            <path d="m1336.686-73.547h-103.115l-.433-6.711h103.115z" opacity=".5" />
            <path d="m1336.686-62.515h-103.115l-.433-6.711h103.115z" opacity=".5" />
            <path d="m1336.686-51.483h-103.115l-.433-6.711h103.115z" opacity=".5" />
            <path d="m1336.686-40.451h-103.115l-.433-6.711h103.115z" opacity=".5" />
        </g>
        <path d="m1172.329 8.39h31.423v80.34h-31.423z" fill="#e6e6e6" />
        <path d="m1200.591 88.73h3.161v-10.941h-6.475z" fill="#f0f0f0" />
        <path d="m1123.087 8.39h31.423v80.34h-31.423z" fill="#e6e6e6" />
        <path d="m1151.752 8.39h52v73.626h-52z" fill="#f0f0f0" />
        <path d="m1154.203 11.653h47.096v20.191h-47.096z" fill="#e6e6e6" />
        <path
            d="m1182.363 17.928h-7.1c-3.084 0-6.032-2.491-8.153-6.889h23.405c-2.115 4.398-5.068 6.889-8.152 6.889z"
            fill="#f0f0f0" />
        <path d="m1154.912 88.73h-3.161v-10.941h6.475z" fill="#f0f0f0" />
        <path d="m1154.203 35.108h47.096v20.191h-47.096z" fill="#e6e6e6" />
        <path
            d="m1182.363 41.382h-7.1c-3.084 0-6.032-2.491-8.153-6.888h23.405c-2.115 4.397-5.068 6.888-8.152 6.888z"
            fill="#f0f0f0" />
        <path d="m1154.203 58.562h47.096v20.191h-47.096z" fill="#e6e6e6" />
        <path
            d="m1182.363 64.836h-7.1c-3.084 0-6.032-2.49-8.153-6.888h23.405c-2.115 4.398-5.068 6.888-8.152 6.888z"
            fill="#f0f0f0" />
        <path
            d="m1103.338 71.29h1.3c-.013-5.534.006-7.389.136-39.561.234-58.313.682-61.868.682-61.868l-3.095 26.92c-1.961 29.809.568 47.58.977 74.509z"
            fill="#f0f0f0" />
        <path
            d="m1103.042 88.73a17.7 17.7 0 0 1 -17.291-13.935 36.753 36.753 0 0 0 -1.8-6.228l-.132-.323h38.451l-.132.323a36.843 36.843 0 0 0 -1.8 6.228 17.7 17.7 0 0 1 -17.296 13.935z"
            fill="#fafafa" />
        <path d="m1124.757 70.191h-43.431l-1.244-9.405h45.918z" fill="#f0f0f0" />
        <path
            d="m1102.221 19.024c7.588-13.217-12.083-17.95-18.462-29.731-7.659 9.307 9.571 45.217 18.462 29.731z"
            fill="#f0f0f0" />
        <path
            d="m1103.685 8.166c-2.926-6.662 11.159-14.742 14.2-25.571 5.615 6.25-5.538 45.295-14.2 25.571z"
            fill="#f0f0f0" />
        <path
            d="m1103.576 28.259c2.382-8.4 16.022-2.34 22.979-18.115 7.4 22.277-29.595 41.436-22.979 18.115z"
            fill="#f0f0f0" />
        <path
            d="m1104.178 38.287c-.156-7.982-8.823-.9-24.541-15.11-2.807 14.666 25.144 45.923 24.541 15.11z"
            fill="#f0f0f0" />
        <path
            d="m1256.623-40.53-7.318-5.054v-.016a40.322 40.322 0 0 0 -2.943-7.622l1.875-7.357-10.618-11.368-7.471 1.368a40.277 40.277 0 0 0 -7.4-3.455l-.018-.006-4.544-7.649-15.543-.532-5.054 7.317-.028.007a40.185 40.185 0 0 0 -7.614 2.939l-7.354-1.874-11.364 10.614 1.365 7.457v.006a39.318 39.318 0 0 0 -3.457 7.426l-7.653 4.54-.531 15.542 7.324 5.058a39.022 39.022 0 0 0 2.934 7.655l-1.869 7.334 10.614 11.366 7.425-1.359a40.583 40.583 0 0 0 7.463 3.463h.007l4.535 7.638 15.542.533 5.05-7.312a40.546 40.546 0 0 0 7.677-2.942l7.329 1.865 11.367-10.613-1.365-7.458a39.474 39.474 0 0 0 3.456-7.427l7.651-4.543zm-48.439 23.63a17.489 17.489 0 0 1 -16.879-18.077 17.488 17.488 0 0 1 18.077-16.879 17.489 17.489 0 0 1 16.879 18.077 17.5 17.5 0 0 1 -18.077 16.879z"
            fill="#e9e9e9" />
        <ellipse cx="1206.474" cy="101.131" fill="#f4f4f4" rx="127.746" ry="14.88" />
        <path
            d="m1163-13.121-4.552 72.229a2.083 2.083 0 0 0 2.078 2.213h1.8a2.083 2.083 0 0 0 2.079-1.959l4.258-72a2.083 2.083 0 0 0 -1.771-2.182l-1.506-.225a2.081 2.081 0 0 0 -2.386 1.924z"
            fill="#2e353a" />
        <path
            d="m1163.16 55.591c-3.364-1.334-7.565 3.458-8.158 8.123-.321 2.492 1.049 7.645 2.032 9.013a2.506 2.506 0 0 0 4.131.085c1.564-1.885 1.4-6.76 1.4-6.76-.01 3.12 3.106 2.158 3.873-3.116.423-2.929.486-5.85-3.278-7.345z"
            fill="#577afa" />
        <path d="m1194.627 93.461-.845 7.089-13.9 10.48-9.613 1.233-2.294-2.774z" fill="#577afa" />
        <path d="m1194.627 93.461-.845 7.089-13.9 10.48-9.613 1.233-2.294-2.774z" opacity=".2" />
        <path d="m1177.667 91.607 16.959 1.849-16.959 13.869-9.692 2.158-2.838-7.089z"
            fill="#577afa" />
        <path
            d="m1183.433 36.079-9.525 25.5a2.119 2.119 0 0 0 -.042 1.36l9.783 32.2a2.122 2.122 0 0 0 2.031 1.506h1.845a2.124 2.124 0 0 0 2.016-2.789l-10.187-30.814a2.12 2.12 0 0 1 .087-1.554l10.616-23.065a2.124 2.124 0 0 0 -1.042-2.816 2.069 2.069 0 0 0 -.341-.123l-2.707-.719a2.122 2.122 0 0 0 -2.534 1.314z"
            fill="#2e353a" />
        <path d="m1218.321 93.461.845 7.089 13.9 10.48 9.614 1.231 2.294-2.774z" fill="#577afa" />
        <path d="m1218.321 93.461.845 7.089 13.9 10.48 9.614 1.231 2.294-2.774z" opacity=".2" />
        <path d="m1235.28 91.607-16.959 1.849 16.959 13.869 9.692 2.158 2.838-7.089z"
            fill="#577afa" />
        <path
            d="m1229.514 36.079 9.525 25.5a2.132 2.132 0 0 1 .042 1.36l-9.783 32.2a2.124 2.124 0 0 1 -2.031 1.506h-1.846a2.121 2.121 0 0 1 -2.016-2.789l10.187-30.814a2.13 2.13 0 0 0 -.087-1.554l-10.616-23.065a2.123 2.123 0 0 1 1.041-2.816 2.051 2.051 0 0 1 .342-.123l2.707-.719a2.123 2.123 0 0 1 2.535 1.314z"
            fill="#2e353a" />
        <path
            d="m1187.6-26.037c.983-15.853-.824-44.67 28.973-40.855 31.938 4.089 22.8 41.434 22.8 41.434z"
            fill="#2e353a" />
        <circle cx="1208.169" cy="-48.568" fill="#fff" r="13.003" />
        <path
            d="m1209.878-61.55c-14.025-.853-14.062 11.891-14.711 16.491h25.733c-.858-5.241.272-15.804-11.022-16.491z"
            fill="#2e353a" />
        <path
            d="m1210.3-44.863c-.175 3.4-2.027 6.067-4.138 5.959s-3.68-2.951-3.506-6.351 2.027-6.068 4.138-5.96 3.676 2.953 3.506 6.352z"
            fill="#2e353a" />
        <path
            d="m1208.169-34.858a13.71 13.71 0 0 1 -13.71-13.71 13.71 13.71 0 0 1 13.71-13.71 13.71 13.71 0 0 1 13.71 13.71 13.726 13.726 0 0 1 -13.71 13.71zm0-26a12.3 12.3 0 0 0 -12.295 12.3 12.3 12.3 0 0 0 12.295 12.295 12.3 12.3 0 0 0 12.3-12.295 12.309 12.309 0 0 0 -12.3-12.3z"
            fill="#577afa" />
        <path
            d="m1235.746-26.436a.385.385 0 0 1 -.083-.01.354.354 0 0 1 -.261-.427 46.893 46.893 0 0 0 -.064-19.391.353.353 0 0 1 .249-.434.353.353 0 0 1 .434.249l.005.019a47.634 47.634 0 0 1 .064 19.723.354.354 0 0 1 -.344.271z"
            fill="#fff" opacity=".3" />
        <path
            d="m1233.774-51.574a.353.353 0 0 1 -.322-.207 25.063 25.063 0 0 0 -3.352-5.419.354.354 0 0 1 .026-.5.354.354 0 0 1 .5.026l.022.027a25.714 25.714 0 0 1 3.451 5.572.355.355 0 0 1 -.177.469.358.358 0 0 1 -.144.031z"
            fill="#fff" opacity=".3" />
        <path
            d="m1125.9 21.159a.372.372 0 0 1 -.1-.013.353.353 0 0 1 -.242-.437c.943-3.283 1.972-5.289 3.325-6.4a3.671 3.671 0 0 1 .108-2.306 4.55 4.55 0 0 1 1.669-2.131 1.806 1.806 0 0 1 -.417-1.686 4.356 4.356 0 0 1 1.517-2.234 1.614 1.614 0 0 1 -.4-1.067c-.018-2.11 3.9-5.325 8.323-5.929a.346.346 0 0 1 .4.287v.013a.355.355 0 0 1 -.3.4c-4.2.573-7.725 3.615-7.711 5.221a.919.919 0 0 0 .256.64 8.669 8.669 0 0 1 6.572-1.317c2.172.415 3.055.875 2.953 1.533-.192 1.24-4.818 1.5-7.918 1.128a4.364 4.364 0 0 1 -1.592-.456 3.813 3.813 0 0 0 -1.393 1.932 1.114 1.114 0 0 0 .35 1.158 8.2 8.2 0 0 1 5.6-.421c3.21.708 3.33 1.1 3.4 1.332a.47.47 0 0 1 -.114.468c-.677.717-5.6.376-8.065-.229a3.561 3.561 0 0 1 -.851-.319 3.863 3.863 0 0 0 -1.6 1.916 3.047 3.047 0 0 0 -.16 1.629 4.171 4.171 0 0 1 .391-.208c1.464-.7 3.234-.579 5.416.355 1.446.619 2.145 1.168 2.2 1.726a.786.786 0 0 1 -.4.737c-1.079.717-4.861.608-6.827-.439a2.759 2.759 0 0 1 -1.088-1.052c-1.157 1.056-2.09 2.948-2.942 5.912a.355.355 0 0 1 -.36.257zm3.839-6.6a2.088 2.088 0 0 0 .863.861 9.408 9.408 0 0 0 5.917.569c.241-.1.277-.178.277-.179s-.039-.4-1.77-1.139c-1.983-.848-3.565-.967-4.834-.366a3.686 3.686 0 0 0 -.453.251zm2.359-4.648c.061.018.122.035.183.05a23.293 23.293 0 0 0 7.029.526 15.934 15.934 0 0 0 -2.572-.72 8.006 8.006 0 0 0 -4.639.141zm.892-3.978a4.539 4.539 0 0 0 1.017.229c3.526.417 6.639-.076 7.1-.515a5.542 5.542 0 0 0 -2.356-.749 7.967 7.967 0 0 0 -5.76 1.032z"
            fill="#2e353a" />
        <path d="m1244.933 44.313-83.358-2.763-3.459-80.825 98.437 2.2z" fill="#577afa" />
        <path
            d="m1187.6 42.766a.353.353 0 0 1 -.352-.324l-6.682-81.178a.354.354 0 0 1 .324-.382.354.354 0 0 1 .382.324l6.682 81.177a.355.355 0 0 1 -.323.382z"
            fill="#2e353a" />
        <path d="m1244.933 44.314 22.4-3.411 7.057-75.155-17.842-2.821z" fill="#577afa" />
        <path d="m1244.933 44.314 22.4-3.411 7.057-75.155-17.842-2.821z" opacity=".2" />
        <path
            d="m1168.7 25.971-2.056-48.02a8.681 8.681 0 0 1 8.3-9.045c.189-.008.378-.01.567-.005l62.312 1.393a8.682 8.682 0 0 1 8.485 8.874 8.908 8.908 0 0 1 -.085 1.033l-6.909 48.394a8.681 8.681 0 0 1 -8.882 7.45l-53.348-1.768a8.681 8.681 0 0 1 -8.384-8.306z"
            fill="#2e353a" />
        <path
            d="m1219.392 25.052a.537.537 0 0 1 -.4-.174l-3.5-3.826-3.772 3.448a.536.536 0 0 1 -.756-.033l-3.5-3.825-3.772 3.446a.537.537 0 0 1 -.757-.034l-3.5-3.825-3.772 3.446a.536.536 0 0 1 -.756-.033l-3.5-3.825-3.772 3.446a.536.536 0 0 1 -.757-.759.352.352 0 0 1 .035-.032l4.167-3.808a.536.536 0 0 1 .756.032l3.5 3.825 3.772-3.446a.536.536 0 0 1 .757.033l3.495 3.826 3.772-3.446a.536.536 0 0 1 .757.033l3.495 3.825 3.772-3.446a.536.536 0 0 1 .756.032l3.857 4.222a.537.537 0 0 1 -.4.9z"
            fill="#fff" />
        <path
            d="m1272.1-13.147c-.843 5.733-5.59 9.96-9.452 9.393s-4.023-5.688-3.18-11.421 2.37-9.907 6.232-9.34 7.243 5.635 6.4 11.368z"
            fill="#2e353a" />
        <circle cx="1178.705" cy="-36.611" fill="#2e353a" r=".58" />
        <path
            d="m1184.6-32.435a.58.58 0 0 1 -.58.58.58.58 0 0 1 -.58-.58.579.579 0 0 1 .58-.58.58.58 0 0 1 .58.58z"
            fill="#2e353a" />
        <path d="m1185.25 36.137a.58.58 0 1 1 -.58-.58.58.58 0 0 1 .58.58z" fill="#2e353a" />
        <path d="m1190.567 40.314a.58.58 0 1 1 -.58-.58.58.58 0 0 1 .58.58z" fill="#2e353a" />
        <path
            d="m1198.674 6.467q-1.932-2.6-1.932-7.531 0-4.9 1.932-7.5a7.306 7.306 0 0 1 10.3-.889 7.316 7.316 0 0 1 .889.889q1.945 2.6 1.946 7.5 0 4.927-1.932 7.531a7.323 7.323 0 0 1 -11.2 0zm7.531-2.743a19.669 19.669 0 0 0 0-9.547 2.013 2.013 0 0 0 -2.491-1.377 2.011 2.011 0 0 0 -1.372 1.364 19.726 19.726 0 0 0 0 9.561 2.01 2.01 0 0 0 3.863 0z"
            fill="#fff" />
        <path
            d="m1264.352-13.121-4.552 72.229a2.081 2.081 0 0 0 2.078 2.213h1.8a2.082 2.082 0 0 0 2.078-1.959l4.258-72a2.081 2.081 0 0 0 -1.77-2.182l-1.507-.225a2.082 2.082 0 0 0 -2.385 1.924z"
            fill="#2e353a" />
        <path
            d="m1256.51 62.936c.766 5.274 3.883 6.236 3.873 3.116 0 0-.169 4.875 1.394 6.76a2.532 2.532 0 0 0 .662.635 2.506 2.506 0 0 0 3.47-.72c.983-1.368 2.353-6.521 2.032-9.013-.594-4.665-4.8-9.457-8.158-8.123-3.765 1.495-3.702 4.416-3.273 7.345z"
            fill="#577afa" />
        <path
            d="m1287.166 69.117a6.827 6.827 0 0 1 -5.189-2.794.354.354 0 1 1 .553-.442.426.426 0 0 1 .029.042c1.32 1.906 4.231 2.923 5.523 2.321a1.016 1.016 0 0 0 .33-.24 4.293 4.293 0 0 1 -2.5-3.171c-.16-.9-.287-2.109.453-2.276 1.015-.228 2.342 2.226 2.853 4.086a2.543 2.543 0 0 1 .092.95 3.173 3.173 0 0 0 1.264.1 1.376 1.376 0 0 0 .972-.527 4.132 4.132 0 0 1 -1.63-2.965c-.275-1.935-.069-2.272.146-2.437a.471.471 0 0 1 .487-.055c.756.322 1.674 3.067 1.848 4.62a2.222 2.222 0 0 1 0 .49 2.735 2.735 0 0 0 .955.185 3.093 3.093 0 0 0 1.7-.445 2.454 2.454 0 0 1 -.284-.209 3.39 3.39 0 0 1 -.906-3.065c.1-1.109.349-1.715.795-1.906a.8.8 0 0 1 .855.169 4.894 4.894 0 0 1 1.221 3.932 2.107 2.107 0 0 1 -.355.814 13 13 0 0 0 4.7-.53.354.354 0 0 1 .171.687c-1.918.474-3.982.86-5.44.437a4.028 4.028 0 0 1 -2.475.822 3.453 3.453 0 0 1 -1.16-.218 1.994 1.994 0 0 1 -1.5.9 3.838 3.838 0 0 1 -1.584-.136 1.622 1.622 0 0 1 -.717.627 2.911 2.911 0 0 1 -1.207.234zm-.612-5.857a3.145 3.145 0 0 0 .06 1.446 3.591 3.591 0 0 0 2.012 2.629 2.164 2.164 0 0 0 -.082-.5 6.83 6.83 0 0 0 -1.99-3.574zm3.943-.617a9.744 9.744 0 0 0 .125 1.456 3.645 3.645 0 0 0 1.074 2.281 11.168 11.168 0 0 0 -1.196-3.737zm4.452-.614s-.266.134-.369 1.316a2.756 2.756 0 0 0 .661 2.465 1.8 1.8 0 0 0 .424.268 1.517 1.517 0 0 0 .385-.727 4.432 4.432 0 0 0 -.846-3.135c-.145-.157-.237-.187-.256-.187z"
            fill="#2e353a" />
        <path d="m1264.023 106.184 1.918-3.326-1.918-3.326h-2.053l1.16 3.326-1.16 3.326z"
            fill="#2e353a" />
        <path d="m1262.1 104.591a1.73 1.73 0 1 1 -.008-3.46h.008l-3.26-.653-.865 2.634 1.455 2.221z"
            fill="#2e353a" />
        <path
            d="m1262.384 99.532h-3.842l-1.918 3.326 1.918 3.326h3.842l1.918-3.326zm-1.918 5.059a1.73 1.73 0 1 1 1.727-1.734 1.73 1.73 0 0 1 -1.727 1.734z"
            fill="#577afa" />
        <path d="m1289.681 107.8-1.424-2.47 1.424-2.47h1.525l-.861 2.47.861 2.47z" fill="#577afa" />
        <path d="m1291.109 106.62a1.285 1.285 0 1 0 0-2.57l2.422-.484.643 1.955-1.081 1.649z"
            fill="#577afa" />
        <path
            d="m1290.9 102.863h2.854l1.424 2.47-1.424 2.47h-2.854l-1.424-2.47zm1.424 3.757a1.285 1.285 0 1 0 -1.282-1.288 1.29 1.29 0 0 0 1.283 1.287z"
            fill="#2e353a" />
        <path
            d="m1284.692-12.969-.054-3.2a1.519 1.519 0 0 0 -1.54-1.488 1.519 1.519 0 0 0 -1.488 1.54l.054 3.2a1.518 1.518 0 0 0 1.54 1.488 1.518 1.518 0 0 0 1.488-1.54z"
            fill="#2e353a" />
        <path
            d="m1281.924-7.812a3.152 3.152 0 0 1 -1.311-4.261 3.151 3.151 0 0 1 4.261-1.311 3.153 3.153 0 0 1 1.4 4.082 3.254 3.254 0 0 1 -4.35 1.49z"
            fill="#577afa" />
        <path d="m0 0h.969v7.151h-.969z" fill="#2e353a"
            transform="matrix(.41 -.912 .912 .41 1279.756 -11.703)" />
        <path
            d="m1125.029 66.126h3.2a1.519 1.519 0 0 0 1.514-1.514 1.519 1.519 0 0 0 -1.514-1.514h-3.2a1.517 1.517 0 0 0 -1.514 1.514 1.517 1.517 0 0 0 1.514 1.514z"
            fill="#2e353a" />
        <path d="m1119.922 63.271a3.152 3.152 0 1 1 1.417 4.373 3.253 3.253 0 0 1 -1.417-4.373z"
            fill="#577afa" />
        <path d="m0 0h7.15v.969h-7.15z" fill="#2e353a"
            transform="matrix(.426 -.905 .905 .426 1120.805 67.639)" />
        <path d="m1062.943-172.178h310v310h-310z" fill="none" />
    </g>
</svg>