<svg height="310.049" viewBox="0 0 310 310.049" width="310" xmlns="http://www.w3.org/2000/svg"><g transform="translate(-1448.137 -126.134)"><path d="m1614.123 242.671h87.762v74.698h-87.762z" fill="#e6e6e6"/><path d="m1615.461 242.671h89.287v74.698h-89.287z" fill="#f0f0f0"/><path d="m1614.123 317.369h87.762v5.323h-87.762z" fill="#e6e6e6"/><path d="m1620.233 317.369h89.287v5.323h-89.287z" fill="#f0f0f0"/><path d="m1619.472 246.681h81.267v66.678h-81.267z" fill="#fafafa"/><path d="m1671.207 313.36 6.422-66.678h11.112l-6.422 66.678z" fill="#fff"/><path d="m1621.328 290.757a.308.308 0 0 1 -.307-.307v-41.16a.307.307 0 0 1 .307-.307.306.306 0 0 1 .307.307v41.16a.307.307 0 0 1 -.307.307z" fill="#f0f0f0"/><path d="m1684.7 313.36 6.422-66.678h4.331l-6.422 66.678z" fill="#fff"/><path d="m1700.23 246.681h.509v66.678h-.509z" fill="#e6e6e6"/><g fill="#e0e0e0"><path d="m1705.7 253.951h-87.761l-.369-5.708h87.762z" opacity=".5"/><path d="m1705.7 263.341h-87.761l-.369-5.712h87.762z" opacity=".5"/><path d="m1705.7 272.73h-87.761l-.369-5.707h87.762z" opacity=".5"/><path d="m1705.7 282.119h-87.761l-.369-5.712h87.762z" opacity=".5"/><path d="m1705.7 291.509h-87.761l-.369-5.712h87.762z" opacity=".5"/><path d="m1705.7 300.9h-87.761l-.369-5.712h87.762z" opacity=".5"/></g><path d="m1636.753 311.427-5.832-4.028v-.014a32 32 0 0 0 -2.345-6.075l1.494-5.863-8.459-9.06-5.954 1.09a32.021 32.021 0 0 0 -5.9-2.754h-.015l-3.62-6.1-12.383-.423-4.028 5.832-.023.006a32.04 32.04 0 0 0 -6.07 2.337l-5.861-1.494-9.059 8.459 1.088 5.943v.005a31.4 31.4 0 0 0 -2.755 5.918l-6.1 3.619-.424 12.387 5.837 4.031a31.189 31.189 0 0 0 2.339 6.1l-1.49 5.846 8.459 9.059 5.917-1.083a32.333 32.333 0 0 0 5.947 2.76h.006l3.614 6.087 12.386.425 4.025-5.828a32.291 32.291 0 0 0 6.119-2.345l5.835 1.487 9.059-8.459-1.088-5.943a31.43 31.43 0 0 0 2.754-5.919l6.1-3.62zm-38.6 18.83a13.937 13.937 0 1 1 14.4-13.454 13.942 13.942 0 0 1 -14.407 13.452z" fill="#ebebeb"/><path d="m1600.729 172.553 2.659-.3 32.329 46.207-2.659.3z" fill="#265cbc"/><path d="m1633.058 218.759 2.659-.3.189.272-2.659.3z" fill="#265cbc"/><path d="m1563.938 286.026.224-.209.226-.21 71.029-65.976.451-.419.225-.209-.187-.269-2.659.3.187.269-.224.209-.451.419-71.03 65.969-.226.21-.225.209z" fill="#265cbc"/><path d="m1561.279 286.322-.187-.269-.378-.544-31.553-45.43-.189-.272-.187-.269.224-.209.451-.419 71.029-65.976.226-.21.224-.209.187.269.378.544 31.554 45.431.189.272.187.269-.224.209-.451.419-71.03 65.972-.226.21z" fill="#1c4d93"/><path d="m1635.861 219.019.225-.209 1.924 4.053a13.481 13.481 0 0 1 1.236 6.544l-1.819 31.458a8.873 8.873 0 0 1 -2.714 6.027l-5.689 5.3.033.048c3.555 5.1 2.276 13.113-2.851 17.929-5.158 4.773-12.2 4.519-15.758-.58l-.033-.047-5.689 5.3a6.576 6.576 0 0 1 -5.669 1.788l-26.973-4.614a9.748 9.748 0 0 1 -5.269-2.784l-3.015-3.032.225-.209.226-.211 71.161-66.344z" fill="#265cbc"/><path d="m1632.246 217.346-17.746 16.885a2.04 2.04 0 0 1 -3.178-.3l-28.376-40.7a2.943 2.943 0 0 1 .392-3.7l17.744-16.885z" fill="#e8505b"/><path d="m1529.194 240.193 17.744-16.885a2.04 2.04 0 0 1 3.178.3l28.376 40.7a2.941 2.941 0 0 1 -.392 3.7l-17.744 16.886z" fill="#e8505b"/><path d="m1528.466 239.757 3.02 3.036a9.8 9.8 0 0 0 5.275 2.793l30.384 5.253a27.662 27.662 0 0 0 23.842-6.954c10.92-10.1 11.041-25.313 11.041-25.313l2.1-35.3a13.424 13.424 0 0 0 -1.23-6.535l-1.922-4.051z" fill="#e8505b"/><path d="m1587.29 215.156-6.954-9.973-1-.024-18.665 17.265-.112 1.051 6.954 9.973" fill="#fff"/><path d="m1691.025 382.13h15.332v28.714h-15.332z" fill="#e6e6e6"/><path d="m1703.445 410.844h2.912v-10.8h-5.966z" fill="#f0f0f0"/><path d="m1603.543 382.13h15.332v28.714h-15.332z" fill="#e6e6e6"/><path d="m1616.334 382.13h90.024v25.767h-90.024z" fill="#f0f0f0"/><path d="m1619.246 410.844h-2.912v-10.8h5.966z" fill="#f0f0f0"/><path d="m1619.327 386.589h26.686v16.462h-26.686z" fill="#e6e6e6"/><path d="m1635.31 392.273h-5.28c-2.294 0-4.486-2.313-6.063-6.4h17.4c-1.567 4.087-3.767 6.4-6.057 6.4z" fill="#f0f0f0"/><path d="m1648.003 386.589h26.686v16.462h-26.686z" fill="#e6e6e6"/><path d="m1664.255 392.273h-5.28c-2.294 0-4.486-2.313-6.063-6.4h17.405c-1.576 4.087-3.769 6.4-6.062 6.4z" fill="#f0f0f0"/><path d="m1676.678 386.589h26.686v16.462h-26.686z" fill="#e6e6e6"/><path d="m1692.93 392.273h-5.28c-2.294 0-4.486-2.313-6.063-6.4h17.4c-1.574 4.087-3.764 6.4-6.057 6.4z" fill="#f0f0f0"/><path d="m1565.812 342.467h26.744v68.377h-26.744z" fill="#e6e6e6"/><path d="m1589.866 410.844h2.69v-9.312h-5.511z" fill="#f0f0f0"/><path d="m1523.902 342.467h26.744v68.377h-26.744z" fill="#e6e6e6"/><path d="m1548.298 342.467h44.258v62.663h-44.258z" fill="#f0f0f0"/><path d="m1550.385 345.244h40.084v17.185h-40.084z" fill="#e6e6e6"/><path d="m1574.352 350.585h-6.043c-2.625 0-5.134-2.12-6.939-5.863h19.92c-1.804 3.743-4.318 5.863-6.938 5.863z" fill="#f0f0f0"/><path d="m1550.989 410.844h-2.69v-9.312h5.511z" fill="#f0f0f0"/><path d="m1550.385 365.206h40.084v17.185h-40.084z" fill="#e6e6e6"/><path d="m1574.352 370.547h-6.043c-2.625 0-5.134-2.12-6.939-5.863h19.92c-1.804 3.743-4.318 5.863-6.938 5.863z" fill="#f0f0f0"/><path d="m1550.385 385.168h40.084v17.185h-40.084z" fill="#e6e6e6"/><path d="m1574.352 390.509h-6.043c-2.625 0-5.134-2.12-6.939-5.863h19.92c-1.804 3.743-4.318 5.863-6.938 5.863z" fill="#f0f0f0"/><rect fill="#f5f5f5" height="33.268" rx="6.313" width="22.931" x="1621.36" y="348.794"/><path d="m1680.869 363.552s-.566 18.51-22.241 18.51-22.241-18.51-22.241-18.51z" fill="#f0f0f0"/><path d="m1507.094 396h1.1c-.011-4.711.006-6.288.116-33.67.2-49.63.58-52.656.58-52.656l-2.634 22.912c-1.663 25.372.489 40.496.838 63.414z" fill="#f0f0f0"/><path d="m1506.842 410.845a15.062 15.062 0 0 1 -14.716-11.86 31.284 31.284 0 0 0 -1.534-5.3l-.113-.275h32.721l-.113.275a31.375 31.375 0 0 0 -1.534 5.3 15.061 15.061 0 0 1 -14.711 11.86z" fill="#fafafa"/><g fill="#f0f0f0"><path d="m1525.324 395.066h-36.964l-1.059-8h39.081z"/><path d="m1506.142 351.518c6.459-11.249-10.283-15.278-15.712-25.3-6.521 7.918 8.146 38.482 15.712 25.3z"/><path d="m1507.389 342.276c-2.49-5.67 9.5-12.547 12.087-21.763 4.78 5.32-4.715 38.551-12.087 21.763z"/><path d="m1507.3 359.377c2.027-7.147 13.636-1.991 19.557-15.417 6.295 18.96-25.192 35.267-19.557 15.417z"/><path d="m1507.808 367.913c-.133-6.794-7.509-.766-20.887-12.861-2.388 12.482 21.401 39.088 20.887 12.861z"/></g><path d="m1539.543 267.865-11.226-14.7 1.14-.718 11.226 14.7z" fill="#407bff"/><path d="m1548.125 279.106-5.253-6.88 1.139-.718 5.254 6.878z" fill="#407bff"/><ellipse cx="1596.786" cy="424.325" fill="#f5f5f5" rx="101.808" ry="11.858"/><path d="m1587.344 418.214-.673 5.65-11.077 8.35-7.661.983-1.828-2.211z" fill="#407bff"/><path d="m1587.344 418.214-.673 5.65-11.077 8.35-7.661.983-1.828-2.211z" opacity=".2"/><path d="m1573.828 416.736 13.516 1.474-13.516 11.054-7.724 1.72-2.262-5.65z" fill="#407bff"/><path d="m1578.424 372.482-7.586 20.324a1.692 1.692 0 0 0 -.034 1.084l7.8 25.666a1.692 1.692 0 0 0 1.619 1.2h1.471a1.691 1.691 0 0 0 1.607-2.223l-8.118-24.558a1.7 1.7 0 0 1 .069-1.238l8.46-18.382a1.692 1.692 0 0 0 -.828-2.245 1.635 1.635 0 0 0 -.272-.1l-2.158-.573a1.692 1.692 0 0 0 -2.03 1.045z" fill="#263238"/><path d="m1606.227 418.214.673 5.65 11.077 8.352 7.661.983 1.828-2.211z" fill="#407bff"/><path d="m1606.227 418.214.673 5.65 11.077 8.352 7.661.983 1.828-2.211z" opacity=".2"/><path d="m1619.743 416.736-13.516 1.474 13.516 11.054 7.724 1.72 2.262-5.65z" fill="#407bff"/><path d="m1615.148 372.482 7.591 20.324a1.691 1.691 0 0 1 .034 1.084l-7.8 25.666a1.691 1.691 0 0 1 -1.618 1.2h-1.471a1.692 1.692 0 0 1 -1.692-1.692 1.709 1.709 0 0 1 .085-.531l8.118-24.558a1.7 1.7 0 0 0 -.069-1.238l-8.46-18.382a1.692 1.692 0 0 1 .829-2.245 1.629 1.629 0 0 1 .271-.1l2.158-.573a1.692 1.692 0 0 1 2.024 1.045z" fill="#263238"/><path d="m1581.747 318.48c.783-12.634-.657-35.6 23.09-32.559 25.453 3.258 18.171 33.021 18.171 33.021z" fill="#263238"/><circle cx="1598.137" cy="300.524" fill="#fff" r="10.363"/><path d="m1606.717 306.144c4.425-8.012-1.234-12.6-4.323-14.635l-9.371 18.027c4.066 1.171 9.837 2.895 13.694-3.392z" fill="#263238"/><path d="m1599 299.568c-2.245 1.46-4.748 1.379-5.59-.186s.3-4.008 2.54-5.474 4.747-1.379 5.59.186-.297 4.013-2.54 5.474z" fill="#263238"/><path d="m1588.567 305.8a10.926 10.926 0 1 1 14.842 4.3 10.925 10.925 0 0 1 -14.842-4.3zm18.153-10a9.8 9.8 0 1 0 -3.857 13.311 9.81 9.81 0 0 0 3.853-13.311z" fill="#407bff"/><path d="m1620.114 318.163a.306.306 0 0 1 -.067-.008.283.283 0 0 1 -.208-.34 37.345 37.345 0 0 0 -.051-15.454.282.282 0 0 1 .546-.144v.011a37.947 37.947 0 0 1 .051 15.718.28.28 0 0 1 -.271.217z" fill="#fff" opacity=".3"/><path d="m1618.543 298.132a.284.284 0 0 1 -.257-.165 19.914 19.914 0 0 0 -2.674-4.319.282.282 0 0 1 .437-.356 20.405 20.405 0 0 1 2.75 4.44.282.282 0 0 1 -.256.4z" fill="#fff" opacity=".3"/><path d="m1565.554 286.143a1.709 1.709 0 0 0 -.191-.149 1.691 1.691 0 0 0 -2.348.458c-1.584 2.351-9 9.82-17.125 13.5a1.692 1.692 0 0 0 -.946 1.939c2.2 9.085 13.987 20.585 14.488 21.07a1.692 1.692 0 0 0 2.406-2.38c-.017-.017-.034-.034-.052-.05-.109-.106-10.413-10.162-13.169-18.136 7.8-3.93 15.131-10.982 17.2-14.057a1.691 1.691 0 0 0 -.263-2.195z" fill="#263238"/><path d="m1566.193 289.674c-2.614 1.214-6.175-2.41-6.859-6.093a15.116 15.116 0 0 1 1.21-7.262 2 2 0 0 1 2.734-.726 1.976 1.976 0 0 1 .552.474c1.33 1.428 1.415 5.315 1.415 5.315-.15-2.482 2.374-1.858 3.222 2.3.471 2.311.653 4.632-2.274 5.992z" fill="#407bff"/><path d="m1627.436 379.045-66.433-2.2-2.757-64.414 78.45 1.754z" fill="#407bff"/><path d="m1581.751 377.812a.283.283 0 0 1 -.281-.258l-5.325-64.7a.282.282 0 0 1 .562-.046l5.325 64.695a.282.282 0 0 1 -.258.3z" fill="#263238"/><path d="m1627.436 379.045 17.856-2.718 5.624-59.9-14.219-2.248z" fill="#407bff"/><path d="m1627.436 379.045 17.856-2.718 5.624-59.9-14.219-2.248z" opacity=".2"/><path d="m1566.68 364.427-1.638-38.27a6.92 6.92 0 0 1 6.617-7.209c.15-.006.3-.008.45 0l49.66 1.11a6.916 6.916 0 0 1 6.7 7.9l-5.506 38.568a6.919 6.919 0 0 1 -7.079 5.937l-42.516-1.409a6.918 6.918 0 0 1 -6.688-6.627z" fill="#263238"/><path d="m1607.081 363.694a.429.429 0 0 1 -.315-.139l-2.786-3.049-3.006 2.746a.427.427 0 0 1 -.6-.027l-2.786-3.049-3.006 2.746a.429.429 0 0 1 -.6-.027l-2.786-3.049-3.006 2.746a.427.427 0 0 1 -.6-.027l-2.786-3.049-3.006 2.746a.427.427 0 1 1 -.594-.613l.018-.017 3.314-3.032a.425.425 0 0 1 .6.027l2.786 3.049 3.006-2.746a.427.427 0 0 1 .6.026l2.785 3.049 3.006-2.746a.427.427 0 0 1 .6.027l2.785 3.049 3.006-2.746a.427.427 0 0 1 .6.027l3.074 3.364a.427.427 0 0 1 -.315.715z" fill="#fff"/><path d="m1663.213 379.778a1.686 1.686 0 0 1 -1.022-.345c-5.862-4.456-13.786-12.365-16.826-20a1.751 1.751 0 0 1 -.1-.346c-1.482-8.816-2.9-27.374-2.958-28.16a1.692 1.692 0 1 1 3.366-.352c0 .032.006.064.007.1.015.189 1.445 18.929 2.892 27.674 3.033 7.419 11.255 15.038 15.663 18.388a1.692 1.692 0 0 1 -1.025 3.039z" fill="#263238"/><path d="m1666.431 381.286a7.821 7.821 0 0 1 -4.407-1.762 1.692 1.692 0 0 1 1.983-2.742 4.6 4.6 0 0 0 2.423 1.121 1.692 1.692 0 0 1 0 3.384z" fill="#263238"/><path d="m1662.5 379.476c1.81-5.378 9.232-4.315 11.787-3.517a27.078 27.078 0 0 1 6.243 2.709c1.384.9 1.406 2.416-.439 3.28-2.276 1.065-7.987.12-7.987.12 2.956 1.294-.006 3.368-5.191 1.331-1.689-.664-5.054-1.954-4.413-3.923z" fill="#407bff"/><path d="m1649.085 333.253c-.672 4.569-4.455 7.938-7.533 7.486s-3.206-4.533-2.534-9.1 1.889-7.9 4.967-7.443 5.774 4.488 5.1 9.057z" fill="#263238"/><circle cx="1574.655" cy="314.551" fill="#263238" r=".462"/><path d="m1579.354 317.88a.462.462 0 1 1 -.462-.462.462.462 0 0 1 .462.462z" fill="#263238"/><path d="m1579.871 372.528a.462.462 0 1 1 -.462-.462.462.462 0 0 1 .462.462z" fill="#263238"/><path d="m1584.1 375.857a.462.462 0 1 1 -.462-.462.462.462 0 0 1 .462.462z" fill="#263238"/><path d="m1590.57 348.883a12.428 12.428 0 0 1 0-11.981 5.823 5.823 0 0 1 8.206-.707 5.765 5.765 0 0 1 .707.707 12.384 12.384 0 0 1 .011 11.981 5.84 5.84 0 0 1 -8.924 0zm6-2.186a15.673 15.673 0 0 0 0-7.609 1.6 1.6 0 0 0 -3.079-.011 15.714 15.714 0 0 0 0 7.619 1.6 1.6 0 0 0 3.079 0z" fill="#fff"/><path d="m1630.313 308.622a5.442 5.442 0 0 1 -4.136-2.228.282.282 0 0 1 .464-.32c1.052 1.519 3.372 2.33 4.4 1.85a.8.8 0 0 0 .263-.191 3.42 3.42 0 0 1 -1.988-2.528c-.127-.715-.229-1.681.36-1.814.809-.182 1.867 1.775 2.274 3.257a2.036 2.036 0 0 1 .073.757 2.505 2.505 0 0 0 1.008.08 1.088 1.088 0 0 0 .775-.42 3.3 3.3 0 0 1 -1.3-2.362c-.218-1.542-.055-1.811.116-1.943a.38.38 0 0 1 .388-.044c.6.257 1.334 2.444 1.474 3.682a1.82 1.82 0 0 1 0 .391 2.148 2.148 0 0 0 .76.147 2.452 2.452 0 0 0 1.359-.354 1.857 1.857 0 0 1 -.227-.166 2.7 2.7 0 0 1 -.722-2.442c.077-.884.277-1.367.633-1.519a.643.643 0 0 1 .681.135 3.9 3.9 0 0 1 .973 3.134 1.649 1.649 0 0 1 -.283.649 10.34 10.34 0 0 0 3.746-.422.282.282 0 0 1 .135.548 9.3 9.3 0 0 1 -4.335.348 3.2 3.2 0 0 1 -1.973.655 2.723 2.723 0 0 1 -.924-.173 1.589 1.589 0 0 1 -1.2.716 3.043 3.043 0 0 1 -1.262-.108 1.289 1.289 0 0 1 -.571.5 2.336 2.336 0 0 1 -.961.185zm-.488-4.668a2.484 2.484 0 0 0 .048 1.153 2.86 2.86 0 0 0 1.6 2.091 1.749 1.749 0 0 0 -.065-.4 5.454 5.454 0 0 0 -1.583-2.844zm3.142-.492a7.772 7.772 0 0 0 .1 1.161 2.9 2.9 0 0 0 .856 1.818 8.917 8.917 0 0 0 -.957-2.979zm3.548-.49s-.211.108-.293 1.049a2.2 2.2 0 0 0 .527 1.965 1.484 1.484 0 0 0 .338.214 1.207 1.207 0 0 0 .307-.58 3.531 3.531 0 0 0 -.674-2.5c-.116-.124-.189-.147-.2-.147z" fill="#263238"/><path d="m1642.649 428.352 1.528-2.651-1.528-2.65h-1.636l.924 2.65-.924 2.651z" fill="#263238"/><path d="m1641.122 427.087a1.379 1.379 0 0 1 -.005-2.758h.005l-2.6-.521-.69 2.1 1.159 1.77z" fill="#263238"/><path d="m1641.343 423.051h-3.06l-1.528 2.651 1.528 2.65h3.062l1.528-2.65zm-1.528 4.032a1.379 1.379 0 1 1 1.376-1.382 1.384 1.384 0 0 1 -1.376 1.382z" fill="#407bff"/><path d="m1553.639 402.689 1.528-2.651-1.528-2.65h-1.639l.924 2.65-.924 2.651z" fill="#263238"/><path d="m1552.111 401.421a1.379 1.379 0 0 1 -.005-2.758h.005l-2.6-.52-.689 2.1 1.159 1.77z" fill="#263238"/><path d="m1552.332 397.388h-3.062l-1.528 2.651 1.528 2.651h3.062l1.528-2.651zm-1.528 4.032a1.379 1.379 0 1 1 1.376-1.382 1.384 1.384 0 0 1 -1.376 1.382z" fill="#407bff"/><path d="m1648.2 275.38 1.528-2.651-1.528-2.65h-1.636l.924 2.65-.924 2.65z" fill="#263238"/><path d="m1646.67 274.112a1.379 1.379 0 1 1 0-2.758l-2.6-.52-.69 2.1 1.159 1.77z" fill="#263238"/><path d="m1646.891 270.079h-3.062l-1.528 2.651 1.528 2.65h3.062l1.528-2.65zm-1.528 4.032a1.379 1.379 0 1 1 1.376-1.382 1.383 1.383 0 0 1 -1.376 1.382z" fill="#407bff"/><path d="m1604.017 281.615-1.135-1.968 1.135-1.968h1.215l-.686 1.968.686 1.968z" fill="#407bff"/><path d="m1605.152 280.673a1.024 1.024 0 1 0 0-2.048l1.93-.386.512 1.559-.861 1.315z" fill="#407bff"/><path d="m1604.988 277.679h2.274l1.135 1.968-1.135 1.969h-2.274l-1.135-1.969zm1.135 3a1.024 1.024 0 1 0 -1.022-1.026 1.029 1.029 0 0 0 1.022 1.025z" fill="#263238"/><path d="m1637.912 391.067 1.087-2.3a1.209 1.209 0 0 0 -.577-1.606 1.209 1.209 0 0 0 -1.6.576l-1.087 2.3a1.211 1.211 0 0 0 .577 1.606 1.211 1.211 0 0 0 1.6-.576z" fill="#263238"/><path d="m1634.115 393.779a2.512 2.512 0 1 1 3.634.465 2.594 2.594 0 0 1 -3.634-.465z" fill="#407bff"/><path d="m0 0h.773v5.694h-.773z" fill="#263238" transform="matrix(.771 -.636 .636 .771 1633.943 390.234)"/><path d="m1671.7 303.75 2.039 1.528a1.211 1.211 0 0 0 1.688-.243 1.208 1.208 0 0 0 -.242-1.688l-2.039-1.528a1.21 1.21 0 0 0 -1.688.242 1.211 1.211 0 0 0 .242 1.689z" fill="#263238"/><path d="m1669.8 299.488a2.512 2.512 0 1 1 -1.187 3.466 2.594 2.594 0 0 1 1.187-3.466z" fill="#407bff"/><path d="m0 0h5.697v.773h-5.697z" fill="#263238" transform="matrix(.884 -.468 .468 .884 1668.279 302.696)"/><path d="m1664.279 394.629a.26.26 0 0 1 -.043.066.283.283 0 0 1 -.4.028c-2.046-1.8-3.142-3.22-3.486-4.574a2.936 2.936 0 0 1 -1.625-.862 3.635 3.635 0 0 1 -.965-1.928 1.443 1.443 0 0 1 -1.357-.271 3.479 3.479 0 0 1 -1.1-1.849 1.3 1.3 0 0 1 -.906-.073c-1.527-.7-2.514-4.619-1.445-8.015a.275.275 0 0 1 .342-.188h.012a.282.282 0 0 1 .184.354c-1.015 3.223-.019 6.8 1.144 7.333a.738.738 0 0 0 .548.033 6.913 6.913 0 0 1 1.282-5.183c1.038-1.424 1.669-1.9 2.109-1.607.829.561-.558 3.982-1.878 6.091a3.478 3.478 0 0 1 -.871.993 3.054 3.054 0 0 0 .919 1.661.889.889 0 0 0 .954.14 6.534 6.534 0 0 1 1.6-4.18c1.6-2.074 1.924-2.027 2.116-2a.37.37 0 0 1 .3.241c.287.731-1.63 4.161-2.906 5.736a2.819 2.819 0 0 1 -.519.505 3.1 3.1 0 0 0 .836 1.808 2.445 2.445 0 0 0 1.12.669c-.011-.118-.017-.236-.017-.352a5.135 5.135 0 0 1 2.1-3.783c.938-.832 1.571-1.149 1.991-1a.625.625 0 0 1 .394.542c.15 1.021-1.214 3.711-2.636 4.772a2.209 2.209 0 0 1 -1.128.427c.369 1.193 1.415 2.508 3.262 4.13a.282.282 0 0 1 .069.336zm-3.455-5.012a1.669 1.669 0 0 0 .914-.329 7.492 7.492 0 0 0 2.42-4.072c.012-.207-.034-.26-.034-.261s-.3-.107-1.423.889a4.629 4.629 0 0 0 -1.907 3.36 3.207 3.207 0 0 0 .031.413zm-2.548-3.28.1-.114a18.574 18.574 0 0 0 2.768-4.888 12.631 12.631 0 0 0 -1.394 1.609 6.39 6.39 0 0 0 -1.474 3.393zm-2.565-2a3.6 3.6 0 0 0 .511-.655c1.5-2.4 2.2-4.811 2.043-5.3-.12.05-.5.289-1.34 1.444a6.351 6.351 0 0 0 -1.214 4.515z" fill="#263238"/><path d="m1448.137 126.134h310v310h-310z" fill="none"/></g></svg>