<svg xmlns="http://www.w3.org/2000/svg" width="12" height="12" viewBox="0 0 12 12">


    <g opacity="0.7" transform="translate(0 -0.001)">
        <g transform="translate(1.315 1.315)">
            <g transform="translate(0 0.001)">
                <g transform="translate(0 0)">
                    <path fill="#959595"
                        d="M4.883,4.5l0-.005L3.313,2.926V1.941a.274.274,0,0,0-.08-.194L1.585.082a.275.275,0,0,0-.469.194V1.1H.275a.274.274,0,0,0-.194.469L1.746,3.234a.274.274,0,0,0,.194.08h.984L4.491,4.881l.005,0A.273.273,0,0,0,4.883,4.5Z"
                        transform="translate(0 -0.001)" />
                </g>
            </g>
            <g transform="translate(0 0.001)">
                <g transform="translate(0 0)">
                    <path fill="#959595"
                        d="M4.688,0A4.644,4.644,0,0,0,2.724.46l.842.842A3.578,3.578,0,1,1,1.3,3.565L.461,2.723A4.645,4.645,0,0,0,0,4.687,4.685,4.685,0,1,0,4.688,0Z"
                        transform="translate(-0.003 -0.002)" />
                </g>
            </g>
            <g transform="translate(2.215 2.216)">
                <path fill="#959595"
                    d="M123.473,121a2.442,2.442,0,0,0-.824.152v.331l.635.635a1.354,1.354,0,0,1,.189-.019,1.373,1.373,0,1,1-1.373,1.373,1.352,1.352,0,0,1,.019-.189l-.635-.635h-.331a2.442,2.442,0,0,0-.152.824A2.471,2.471,0,1,0,123.473,121Z"
                    transform="translate(-121.002 -121.001)" />
            </g>
        </g>
        <rect fill="none" width="12" height="12" transform="translate(0 0.001)" />
    </g>
</svg>