<svg xmlns="http://www.w3.org/2000/svg" width="12" height="12" viewBox="0 0 12 12">
    <rect fill="none" width="12" height="12"></rect>
    <path fill="#1d1d1d"
        d="M6.121,2.857a.322.322,0,0,0-.6.167.713.713,0,0,1-1.427,0V.322a.322.322,0,0,0-.55-.228A15.758,15.758,0,0,0,1.78,2.3,12.516,12.516,0,0,0,.562,4.571,7.2,7.2,0,0,0,0,7.226a3.774,3.774,0,0,0,7.548,0A8.61,8.61,0,0,0,6.121,2.857Zm-.2,4.286a.322.322,0,0,1-.645,0v-.6l-1.6,1.6a.322.322,0,0,1-.456,0L2.471,7.4l-.5.5a.322.322,0,0,1-.456-.456l.732-.732a.322.322,0,0,1,.456,0l.748.748L4.824,6.084h-.6a.322.322,0,1,1,0-.645H5.6a.322.322,0,0,1,.322.322V7.142Zm0,0"
        transform="translate(2.226 0.5)"></path>
</svg>